ply
format ascii 1.0
element vertex 1024
property float x
property float y
property float z
property uchar red
property uchar green
property uchar blue
end_header
0.318731 0.122796 0.361392 0 200 255
0.311383 0.270553 0.416844 0 200 255
0.309414 0.057710 0.492560 0 200 255
0.296516 0.035732 0.398984 0 200 255
0.291109 0.203866 0.366626 0 200 255
0.267793 0.151410 0.309434 0 200 255
0.292500 0.105193 0.432291 0 200 255
0.285927 0.070149 0.343414 0 200 255
0.311535 0.010055 0.451834 0 200 255
0.308410 0.109610 0.306439 0 200 255
0.279564 0.135656 0.392935 0 200 255
0.317264 0.060058 0.439043 0 200 255
0.328266 0.226943 0.393125 0 200 255
0.312200 0.082431 0.391582 0 200 255
0.309167 0.163471 0.334670 0 200 255
0.273821 0.115555 0.345795 0 200 255
0.328187 0.184465 0.366767 0 200 255
0.316938 0.130480 0.404184 0 200 255
0.299618 0.083561 0.464648 0 200 255
0.292788 0.240663 0.400745 0 200 255
0.279904 0.157584 0.359167 0 200 255
0.278966 0.091284 0.375230 0 200 255
0.318939 0.085421 0.335582 0 200 255
0.313201 0.059744 0.364082 0 200 255
0.314991 0.144196 0.300785 0 200 255
0.299910 0.041593 0.463127 0 200 255
0.292394 0.072825 0.418464 0 200 255
0.313610 0.155253 0.376443 0 200 255
0.300799 0.208636 0.399062 0 200 255
0.282402 0.094164 0.321750 0 200 255
0.315104 0.022322 0.421839 0 200 255
0.322350 0.217331 0.363490 0 200 255
0.296187 0.108404 0.398270 0 200 255
0.314161 0.130825 0.331951 0 200 255
0.318348 0.056960 0.407732 0 200 255
0.287027 0.134343 0.294003 0 200 255
0.317161 0.090903 0.439375 0 200 255
0.292509 0.061677 0.384734 0 200 255
0.276500 0.122628 0.318007 0 200 255
0.317800 0.242318 0.414932 0 200 255
0.296597 0.044189 0.426295 0 200 255
0.300103 0.177153 0.363147 0 200 255
0.283154 0.169225 0.324699 0 200 255
0.273142 0.142839 0.336575 0 200 255
0.300795 0.227203 0.378210 0 200 255
0.319805 0.107290 0.384185 0 200 255
0.314159 0.091910 0.361213 0 200 255
0.320014 0.034443 0.446903 0 200 255
0.323704 0.202041 0.386142 0 200 255
0.275081 0.131959 0.366191 0 200 255
0.316278 0.250670 0.390333 0 200 255
0.316504 0.063554 0.468440 0 200 255
0.295142 0.113412 0.359465 0 200 255
0.308598 0.091959 0.414889 0 200 255
0.295977 0.140836 0.346721 0 200 255
0.291619 0.146001 0.320389 0 200 255
0.311271 0.197909 0.353352 0 200 255
0.313643 0.045494 0.384031 0 200 255
0.298273 0.188400 0.385768 0 200 255
0.291765 0.127544 0.412639 0 200 255
0.296259 0.070608 0.442364 0 200 255
0.278648 0.114858 0.382595 0 200 255
0.290964 0.151744 0.380826 0 200 255
0.310388 0.115774 0.420546 0 200 255
0.315379 0.108038 0.329769 0 200 255
0.297178 0.076486 0.367963 0 200 255
0.318166 0.147830 0.355950 0 200 255
0.279829 0.091309 0.345924 0 200 255
0.300119 0.023290 0.438105 0 200 255
0.317991 0.035462 0.403687 0 200 255
0.291565 0.085426 0.400616 0 200 255
0.319432 0.133554 0.380268 0 200 255
0.317896 0.074638 0.423170 0 200 255
0.296416 0.055611 0.406723 0 200 255
0.297301 0.079671 0.325889 0 200 255
0.316584 0.044102 0.475611 0 200 255
0.298065 0.254761 0.415608 0 200 255
0.298565 0.142112 0.397682 0 200 255
0.299368 0.097571 0.381101 0 200 255
0.298575 0.067665 0.478221 0 200 255
0.291449 0.091201 0.447083 0 200 255
0.317192 0.044785 0.425752 0 200 255
0.310628 0.024567 0.465904 0 200 255
0.305719 0.066359 0.344624 0 200 255
0.300609 0.158855 0.354056 0 200 255
0.316863 0.078733 0.455054 0 200 255
0.309858 0.229673 0.401885 0 200 255
0.309249 0.159112 0.315490 0 200 255
0.303553 0.128555 0.305427 0 200 255
0.289075 0.112700 0.306691 0 200 255
0.301139 0.051023 0.444977 0 200 255
0.307188 0.121517 0.389626 0 200 255
0.312608 0.093354 0.315635 0 200 255
0.322986 0.261686 0.404380 0 200 255
0.311219 0.064381 0.382387 0 200 255
0.290164 0.060425 0.360723 0 200 255
0.275885 0.106684 0.364692 0 200 255
0.318673 0.235836 0.379036 0 200 255
0.281994 0.159942 0.340761 0 200 255
0.298276 0.027326 0.415980 0 200 255
0.307594 0.072174 0.408348 0 200 255
0.319542 0.050282 0.455873 0 200 255
0.280064 0.101038 0.394034 0 200 255
0.292434 0.100726 0.414872 0 200 255
0.299685 0.087961 0.431486 0 200 255
0.319649 0.101783 0.347314 0 200 255
0.306669 0.060473 0.424742 0 200 255
0.291699 0.210687 0.383052 0 200 255
0.315661 0.010107 0.434566 0 200 255
0.311620 0.189387 0.370266 0 200 255
0.304397 0.215237 0.364416 0 200 255
0.314945 0.217159 0.387246 0 200 255
0.307531 0.147135 0.328630 0 200 255
0.300283 0.059574 0.460207 0 200 255
0.293413 0.224456 0.394742 0 200 255
0.279594 0.079710 0.362451 0 200 255
0.313443 0.112379 0.403915 0 200 255
0.310289 0.105768 0.434611 0 200 255
0.326985 0.201021 0.362505 0 200 255
0.279473 0.118046 0.399221 0 200 255
0.301721 0.052052 0.374209 0 200 255
0.299770 0.172201 0.319990 0 200 255
0.281390 0.111316 0.329193 0 200 255
0.314765 0.077260 0.353488 0 200 255
0.306263 0.043088 0.412538 0 200 255
0.306071 0.257746 0.401442 0 200 255
0.314033 0.079555 0.471631 0 200 255
0.289961 0.069095 0.399784 0 200 255
0.313450 0.108467 0.369087 0 200 255
0.275445 0.141973 0.353182 0 200 255
0.297136 0.096757 0.311349 0 200 255
0.274040 0.140223 0.319685 0 200 255
0.306875 0.092820 0.452051 0 200 255
0.325463 0.241664 0.400268 0 200 255
0.314926 0.144660 0.391170 0 200 255
0.305759 0.173409 0.348460 0 200 255
0.302264 0.241320 0.387752 0 200 255
0.311095 0.075338 0.438587 0 200 255
0.296487 0.077211 0.387723 0 200 255
0.318318 0.117923 0.346254 0 200 255
0.304525 0.033007 0.450139 0 200 255
0.328845 0.220639 0.377582 0 200 255
0.314052 0.091078 0.378556 0 200 255
0.280978 0.130196 0.344386 0 200 255
0.296985 0.192335 0.356597 0 200 255
0.283248 0.075825 0.377169 0 200 255
0.313532 0.070190 0.484122 0 200 255
0.299344 0.048521 0.389234 0 200 255
0.313336 0.256253 0.422326 0 200 255
0.314419 0.118868 0.317195 0 200 255
0.294786 0.154948 0.332495 0 200 255
0.293173 0.161283 0.368972 0 200 255
0.279294 0.144621 0.373909 0 200 255
0.312224 0.140293 0.343800 0 200 255
0.307065 0.037533 0.435173 0 200 255
0.322941 0.188346 0.352696 0 200 255
0.288498 0.133373 0.312861 0 200 255
0.302107 0.015365 0.425566 0 200 255
0.305473 0.096810 0.400066 0 200 255
0.316842 0.067971 0.397402 0 200 255
0.272807 0.158577 0.323122 0 200 255
0.313546 0.140925 0.316518 0 200 255
0.292984 0.114857 0.421082 0 200 255
0.290818 0.120106 0.389958 0 200 255
0.306421 0.055068 0.478381 0 200 255
0.319647 0.024234 0.435710 0 200 255
0.303291 0.240015 0.415169 0 200 255
0.272324 0.138485 0.304259 0 200 255
0.309936 0.200262 0.390386 0 200 255
0.271871 0.128966 0.332699 0 200 255
0.304718 0.035668 0.475410 0 200 255
0.303766 0.062187 0.394580 0 200 255
0.302788 0.128819 0.401840 0 200 255
0.314007 0.064725 0.453054 0 200 255
0.302657 0.007248 0.440936 0 200 255
0.293019 0.057287 0.421967 0 200 255
0.290448 0.086459 0.414783 0 200 255
0.295355 0.188572 0.371829 0 200 255
0.292087 0.175879 0.351359 0 200 255
0.312814 0.225849 0.369646 0 200 255
0.303076 0.074371 0.454204 0 200 255
0.310097 0.078252 0.374023 0 200 255
0.313855 0.038836 0.462783 0 200 255
0.311453 0.243778 0.402403 0 200 255
0.308107 0.163216 0.365176 0 200 255
0.314715 0.136784 0.363681 0 200 255
0.316561 0.095513 0.426438 0 200 255
0.329778 0.207227 0.374731 0 200 255
0.276511 0.129934 0.379601 0 200 255
0.311499 0.082979 0.324400 0 200 255
0.314645 0.047317 0.443006 0 200 255
0.280837 0.118644 0.369730 0 200 255
0.308373 0.202630 0.367542 0 200 255
0.319622 0.121147 0.374910 0 200 255
0.316805 0.023167 0.453603 0 200 255
0.284994 0.078223 0.332634 0 200 255
0.299479 0.089705 0.369298 0 200 255
0.294439 0.166030 0.340141 0 200 255
0.318672 0.047208 0.397367 0 200 255
0.277472 0.103934 0.351136 0 200 255
0.312719 0.154517 0.345846 0 200 255
0.324238 0.191041 0.377567 0 200 255
0.319492 0.125745 0.392161 0 200 255
0.303868 0.020695 0.454709 0 200 255
0.307947 0.184433 0.355529 0 200 255
0.300862 0.100242 0.441895 0 200 255
0.304857 0.179191 0.375208 0 200 255
0.277405 0.094324 0.360059 0 200 255
0.299191 0.071359 0.429568 0 200 255
0.305746 0.077759 0.335707 0 200 255
0.296267 0.059254 0.435929 0 200 255
0.282009 0.088788 0.387652 0 200 255
0.309292 0.038283 0.393941 0 200 255
0.309888 0.025976 0.410322 0 200 255
0.309298 0.034888 0.422657 0 200 255
0.302767 0.060392 0.356386 0 200 255
0.316058 0.081918 0.408516 0 200 255
0.290118 0.128893 0.399804 0 200 255
0.316593 0.072084 0.340978 0 200 255
0.293653 0.097289 0.392514 0 200 255
0.278440 0.099232 0.332763 0 200 255
0.281043 0.105364 0.315807 0 200 255
0.293803 0.039970 0.410685 0 200 255
0.318051 0.130580 0.349626 0 200 255
0.306515 0.136223 0.295617 0 200 255
0.312896 0.112313 0.357033 0 200 255
0.301035 0.082350 0.444605 0 200 255
0.296970 0.071282 0.466036 0 200 255
0.304618 0.103845 0.416476 0 200 255
0.312590 0.234444 0.390039 0 200 255
0.319005 0.221024 0.399277 0 200 255
0.283649 0.101379 0.381986 0 200 255
0.302523 0.219170 0.387897 0 200 255
0.308178 0.051784 0.402521 0 200 255
0.307371 0.051847 0.433792 0 200 255
0.303689 0.084797 0.403560 0 200 255
0.326854 0.213208 0.390752 0 200 255
0.300137 0.067408 0.376707 0 200 255
0.291429 0.117273 0.405437 0 200 255
0.299229 0.139460 0.312570 0 200 255
0.294055 0.198440 0.379977 0 200 255
0.314989 0.209178 0.357911 0 200 255
0.295040 0.218272 0.372001 0 200 255
0.302786 0.150229 0.383834 0 200 255
0.317567 0.058679 0.482607 0 200 255
0.284028 0.069811 0.355531 0 200 255
0.314242 0.096618 0.391501 0 200 255
0.302043 0.120895 0.412936 0 200 255
0.317320 0.056239 0.420471 0 200 255
0.310788 0.190635 0.382907 0 200 255
0.312789 0.253060 0.410568 0 200 255
0.308057 0.215149 0.376003 0 200 255
0.273856 0.119696 0.357218 0 200 255
0.306950 0.045232 0.453884 0 200 255
0.298979 0.031085 0.428985 0 200 255
0.286471 0.164703 0.352017 0 200 255
0.302006 0.265078 0.410051 0 200 255
0.295484 0.252629 0.403826 0 200 255
0.319814 0.097384 0.335642 0 200 255
0.317384 0.057846 0.391050 0 200 255
0.313983 0.051114 0.466377 0 200 255
0.311841 0.177214 0.364977 0 200 255
0.291708 0.046564 0.399198 0 200 255
0.282860 0.156836 0.329369 0 200 255
0.320550 0.233025 0.406620 0 200 255
0.305667 0.146244 0.351490 0 200 255
0.326614 0.237638 0.388648 0 200 255
0.306159 0.103080 0.315840 0 200 255
0.302400 0.088675 0.392202 0 200 255
0.296798 0.201225 0.391044 0 200 255
0.298167 0.040006 0.442220 0 200 255
0.309675 0.085389 0.424393 0 200 255
0.299165 0.064110 0.414114 0 200 255
0.295939 0.077175 0.407586 0 200 255
0.301308 0.030316 0.460949 0 200 255
0.300121 0.051643 0.468774 0 200 255
0.291518 0.089627 0.378263 0 200 255
0.307275 0.063810 0.443749 0 200 255
0.302122 0.160783 0.325796 0 200 255
0.313617 0.143221 0.373156 0 200 255
0.291934 0.095516 0.426111 0 200 255
0.302890 0.219994 0.399418 0 200 255
0.299392 0.230737 0.406447 0 200 255
0.324887 0.249921 0.410121 0 200 255
0.303189 0.117547 0.399871 0 200 255
0.301645 0.110298 0.427684 0 200 255
0.311006 0.071945 0.463007 0 200 255
0.294644 0.232753 0.386045 0 200 255
0.286683 0.067637 0.368835 0 200 255
0.312872 0.086642 0.462167 0 200 255
0.299198 0.207988 0.374253 0 200 255
0.287903 0.144595 0.389044 0 200 255
0.293569 0.167936 0.328917 0 200 255
0.276758 0.151666 0.346416 0 200 255
0.296362 0.093089 0.407524 0 200 255
0.319656 0.099045 0.368460 0 200 255
0.313165 0.052140 0.374939 0 200 255
0.306427 0.035017 0.404331 0 200 255
0.313866 0.089019 0.344970 0 200 255
0.320865 0.264138 0.415157 0 200 255
0.318354 0.031852 0.414830 0 200 255
0.301136 0.203483 0.358999 0 200 255
0.319096 0.014093 0.444482 0 200 255
0.279451 0.119322 0.336845 0 200 255
0.304134 0.263130 0.421103 0 200 255
0.310596 0.028388 0.441923 0 200 255
0.300453 0.063163 0.488313 0 200 255
0.295359 0.088377 0.319122 0 200 255
0.301165 0.061060 0.367563 0 200 255
0.315161 0.069323 0.369623 0 200 255
0.317353 0.068334 0.412127 0 200 255
0.317998 0.193266 0.361364 0 200 255
0.292325 0.150923 0.343887 0 200 255
0.280881 0.141132 0.362818 0 200 255
0.316696 0.152513 0.366184 0 200 255
0.291349 0.055861 0.373860 0 200 255
0.302640 0.113505 0.315184 0 200 255
0.307368 0.104135 0.377093 0 200 255
0.312531 0.212310 0.396745 0 200 255
0.280212 0.079321 0.345020 0 200 255
0.293781 0.081929 0.424576 0 200 255
0.276563 0.130606 0.355481 0 200 255
0.303745 0.077467 0.474487 0 200 255
0.307072 0.072849 0.391421 0 200 255
0.301444 0.248828 0.395545 0 200 255
0.291871 0.221532 0.383379 0 200 255
0.281874 0.088596 0.333222 0 200 255
0.303989 0.080563 0.360603 0 200 255
0.303627 0.106234 0.406011 0 200 255
0.301320 0.143348 0.336580 0 200 255
0.299711 0.050465 0.416848 0 200 255
0.308025 0.069496 0.419034 0 200 255
0.297253 0.061460 0.447875 0 200 255
0.312292 0.130654 0.313779 0 200 255
0.317005 0.046396 0.408797 0 200 255
0.316942 0.067200 0.431126 0 200 255
0.289863 0.092817 0.436206 0 200 255
0.308095 0.024520 0.429552 0 200 255
0.317422 0.102374 0.318594 0 200 255
0.297475 0.087954 0.455210 0 200 255
0.305694 0.248914 0.420424 0 200 255
0.312823 0.121758 0.408821 0 200 255
0.315137 0.106437 0.425215 0 200 255
0.303137 0.228891 0.392060 0 200 255
0.312633 0.099565 0.443445 0 200 255
0.305296 0.016713 0.445010 0 200 255
0.316263 0.088261 0.450516 0 200 255
0.315841 0.151555 0.308288 0 200 255
0.298486 0.070375 0.337652 0 200 255
0.310258 0.055160 0.456859 0 200 255
0.323309 0.227805 0.372214 0 200 255
0.279635 0.163355 0.316720 0 200 255
0.303979 0.061800 0.470705 0 200 255
0.318634 0.218114 0.373646 0 200 255
0.294972 0.069613 0.359289 0 200 255
0.317254 0.035770 0.436752 0 200 255
0.303507 0.154384 0.373927 0 200 255
0.280397 0.131469 0.301533 0 200 255
0.309600 0.120053 0.305509 0 200 255
0.298020 0.050736 0.454918 0 200 255
0.284991 0.153139 0.372052 0 200 255
0.321097 0.251776 0.399468 0 200 255
0.298967 0.108292 0.388267 0 200 255
0.296151 0.121467 0.307066 0 200 255
0.318535 0.117226 0.333391 0 200 255
0.309965 0.166908 0.355696 0 200 255
0.277110 0.108894 0.338278 0 200 255
0.311815 0.064831 0.354180 0 200 255
0.297158 0.168240 0.358873 0 200 255
0.306857 0.044531 0.425584 0 200 255
0.302655 0.093743 0.423512 0 200 255
0.310141 0.223956 0.380994 0 200 255
0.279623 0.139769 0.383534 0 200 255
0.311142 0.138167 0.398087 0 200 255
0.298082 0.075154 0.397581 0 200 255
0.309483 0.085780 0.435049 0 200 255
0.297789 0.048315 0.435748 0 200 255
0.303857 0.164134 0.343484 0 200 255
0.298710 0.196263 0.366080 0 200 255
0.290731 0.051662 0.384772 0 200 255
0.299323 0.037576 0.419154 0 200 255
0.314175 0.266430 0.405690 0 200 255
0.311643 0.124019 0.398328 0 200 255
0.306425 0.113226 0.383604 0 200 255
0.311363 0.077775 0.400670 0 200 255
0.308729 0.145800 0.364792 0 200 255
0.304059 0.155207 0.337139 0 200 255
0.319153 0.183301 0.372849 0 200 255
0.296496 0.129531 0.298391 0 200 255
0.318569 0.071147 0.475522 0 200 255
0.303786 0.237344 0.399824 0 200 255
0.303893 0.045529 0.476501 0 200 255
0.298691 0.067680 0.404345 0 200 255
0.283691 0.125026 0.310365 0 200 255
0.292545 0.182492 0.359496 0 200 255
0.300008 0.044086 0.404059 0 200 255
0.323252 0.228545 0.384734 0 200 255
0.312462 0.074255 0.383242 0 200 255
0.317582 0.081715 0.361853 0 200 255
0.296083 0.135062 0.405529 0 200 255
0.281634 0.097939 0.368189 0 200 255
0.319522 0.129467 0.369640 0 200 255
0.281280 0.108251 0.400627 0 200 255
0.314499 0.243014 0.384438 0 200 255
0.309216 0.168823 0.316953 0 200 255
0.274552 0.150736 0.330917 0 200 255
0.301625 0.169884 0.369562 0 200 255
0.279484 0.125147 0.387633 0 200 255
0.315037 0.056729 0.429990 0 200 255
0.294312 0.109460 0.410920 0 200 255
0.288637 0.105245 0.423322 0 200 255
0.291253 0.067956 0.434123 0 200 255
0.289829 0.064013 0.350248 0 200 255
0.311197 0.080457 0.447310 0 200 255
0.305373 0.090104 0.383042 0 200 255
0.312511 0.233999 0.412018 0 200 255
0.298742 0.077941 0.377365 0 200 255
0.296239 0.056193 0.395070 0 200 255
0.317527 0.127565 0.340367 0 200 255
0.305112 0.015253 0.435491 0 200 255
0.304907 0.247027 0.408610 0 200 255
0.306466 0.062374 0.434137 0 200 255
0.281145 0.106274 0.374134 0 200 255
0.283711 0.123538 0.409385 0 200 255
0.315203 0.040518 0.452831 0 200 255
0.307243 0.194209 0.361183 0 200 255
0.308884 0.150083 0.319646 0 200 255
0.292914 0.084700 0.440251 0 200 255
0.329178 0.193419 0.369792 0 200 255
0.313026 0.107169 0.390841 0 200 255
0.317127 0.078598 0.431768 0 200 255
0.307476 0.137386 0.308342 0 200 255
0.303844 0.094399 0.319130 0 200 255
0.299196 0.126167 0.393466 0 200 255
0.307072 0.234910 0.382338 0 200 255
0.313344 0.055362 0.447850 0 200 255
0.312348 0.107488 0.412394 0 200 255
0.325271 0.246447 0.392101 0 200 255
0.272770 0.131105 0.321807 0 200 255
0.313987 0.099952 0.418443 0 200 255
0.297482 0.030362 0.406690 0 200 255
0.291345 0.069173 0.390351 0 200 255
0.271816 0.134854 0.341430 0 200 255
0.289346 0.109273 0.391828 0 200 255
0.295416 0.214423 0.393911 0 200 255
0.283470 0.084931 0.369276 0 200 255
0.308553 0.052325 0.419517 0 200 255
0.296444 0.106858 0.306672 0 200 255
0.312017 0.005865 0.442126 0 200 255
0.319141 0.208066 0.366269 0 200 255
0.299889 0.054187 0.427580 0 200 255
0.317506 0.030434 0.460698 0 200 255
0.316292 0.147482 0.381080 0 200 255
0.315213 0.069166 0.444880 0 200 255
0.315767 0.225538 0.391361 0 200 255
0.278518 0.086357 0.355251 0 200 255
0.319748 0.017781 0.428587 0 200 255
0.314350 0.138228 0.353567 0 200 255
0.278891 0.127165 0.397170 0 200 255
0.272469 0.124250 0.342728 0 200 255
0.321113 0.254279 0.417406 0 200 255
0.315259 0.259736 0.399343 0 200 255
0.279207 0.122904 0.349838 0 200 255
0.281681 0.124017 0.362224 0 200 255
0.305900 0.023549 0.419647 0 200 255
0.311649 0.096426 0.407371 0 200 255
0.297606 0.168812 0.349146 0 200 255
0.307099 0.041598 0.445416 0 200 255
0.304923 0.063246 0.452676 0 200 255
0.289009 0.100872 0.314746 0 200 255
0.296274 0.154762 0.361064 0 200 255
0.291017 0.063361 0.409913 0 200 255
0.296582 0.147704 0.390710 0 200 255
0.315252 0.040309 0.416415 0 200 255
0.304510 0.105318 0.396129 0 200 255
0.319532 0.236045 0.396214 0 200 255
0.292087 0.233845 0.394729 0 200 255
0.314526 0.036009 0.471958 0 200 255
0.311556 0.087490 0.399107 0 200 255
0.315354 0.116347 0.381339 0 200 255
0.314251 0.058840 0.399870 0 200 255
0.301296 0.076136 0.436968 0 200 255
0.320746 0.197121 0.353139 0 200 255
0.297366 0.102111 0.423125 0 200 255
0.274741 0.154264 0.314437 0 200 255
0.290649 0.167474 0.320011 0 200 255
0.294573 0.078660 0.449682 0 200 255
0.313558 0.140583 0.329981 0 200 255
0.297058 0.242054 0.409003 0 200 255
0.305676 0.140173 0.320816 0 200 255
0.278626 0.113209 0.319468 0 200 255
0.317446 0.030581 0.429440 0 200 255
0.299329 0.117275 0.390279 0 200 255
0.302322 0.031944 0.441542 0 200 255
0.296506 0.181102 0.377751 0 200 255
0.316900 0.048192 0.434405 0 200 255
0.279738 0.132393 0.314255 0 200 255
0.314023 0.208071 0.389025 0 200 255
0.319509 0.102451 0.376698 0 200 255
0.314250 0.156308 0.333155 0 200 255
0.310925 0.013773 0.427967 0 200 255
0.280836 0.135423 0.372034 0 200 255
0.287184 0.137102 0.397294 0 200 255
0.314529 0.190182 0.350388 0 200 255
0.307052 0.083336 0.456317 0 200 255
0.309081 0.155155 0.353928 0 200 255
0.297944 0.150596 0.351174 0 200 255
0.290152 0.210819 0.374322 0 200 255
0.293958 0.158630 0.347939 0 200 255
0.287205 0.161574 0.362464 0 200 255
0.311349 0.115193 0.394174 0 200 255
0.274973 0.121674 0.326633 0 200 255
0.300946 0.069311 0.352829 0 200 255
0.300309 0.179446 0.351804 0 200 255
0.299473 0.091313 0.415550 0 200 255
0.316177 0.088247 0.417262 0 200 255
0.312040 0.145821 0.337014 0 200 255
0.269358 0.142875 0.311224 0 200 255
0.296989 0.047648 0.380102 0 200 255
0.314732 0.070480 0.360185 0 200 255
0.325135 0.181434 0.357555 0 200 255
0.278246 0.114397 0.391289 0 200 255
0.303524 0.185864 0.369768 0 200 255
0.276085 0.149919 0.356666 0 200 255
0.304725 0.070924 0.483435 0 200 255
0.315732 0.109664 0.345648 0 200 255
0.318040 0.058497 0.458733 0 200 255
0.305496 0.130918 0.409806 0 200 255
0.298356 0.091436 0.439979 0 200 255
0.298450 0.059117 0.378547 0 200 255
0.327601 0.211840 0.367626 0 200 255
0.284096 0.078821 0.352719 0 200 255
0.298433 0.040105 0.390948 0 200 255
0.281688 0.114393 0.310830 0 200 255
0.276043 0.112010 0.353960 0 200 255
0.314099 0.198566 0.382175 0 200 255
0.298977 0.094826 0.449203 0 200 255
0.298281 0.066852 0.422285 0 200 255
0.296089 0.065769 0.344603 0 200 255
0.298852 0.067973 0.386349 0 200 255
0.327304 0.212345 0.381168 0 200 255
0.303175 0.055227 0.486528 0 200 255
0.307532 0.036628 0.457439 0 200 255
0.329519 0.198955 0.376917 0 200 255
0.313556 0.098045 0.351995 0 200 255
0.303998 0.067499 0.460018 0 200 255
0.327911 0.220341 0.386191 0 200 255
0.279818 0.151232 0.364854 0 200 255
0.305140 0.143440 0.392438 0 200 255
0.312984 0.101214 0.311109 0 200 255
0.289634 0.155303 0.324458 0 200 255
0.296603 0.078185 0.458179 0 200 255
0.313210 0.241873 0.394085 0 200 255
0.283314 0.115392 0.407018 0 200 255
0.276135 0.120362 0.376665 0 200 255
0.298850 0.106288 0.380045 0 200 255
0.300046 0.040133 0.451011 0 200 255
0.292582 0.190019 0.363437 0 200 255
0.297571 0.147103 0.326281 0 200 255
0.290963 0.074959 0.428404 0 200 255
0.300890 0.110914 0.419311 0 200 255
0.277425 0.099197 0.341128 0 200 255
0.290419 0.077464 0.393554 0 200 255
0.326206 0.192893 0.359526 0 200 255
0.307531 0.080963 0.465872 0 200 255
0.314950 0.130073 0.358622 0 200 255
0.307489 0.035695 0.467267 0 200 255
0.307916 0.058384 0.377562 0 200 255
0.310897 0.039269 0.479767 0 200 255
0.296817 0.123633 0.404736 0 200 255
0.298209 0.082846 0.417539 0 200 255
0.311224 0.064689 0.391745 0 200 255
0.317455 0.136865 0.392772 0 200 255
0.296869 0.100582 0.401102 0 200 255
0.297615 0.209251 0.363900 0 200 255
0.303595 0.081100 0.395603 0 200 255
0.306982 0.055785 0.465766 0 200 255
0.289605 0.082861 0.326272 0 200 255
0.312744 0.121601 0.370217 0 200 255
0.298976 0.022398 0.428758 0 200 255
0.315163 0.064178 0.419148 0 200 255
0.306577 0.238951 0.407605 0 200 255
0.305380 0.045771 0.383220 0 200 255
0.314008 0.146737 0.348850 0 200 255
0.317051 0.053627 0.382114 0 200 255
0.312521 0.058313 0.473816 0 200 255
0.320261 0.093333 0.355844 0 200 255
0.308195 0.155025 0.364223 0 200 255
0.316724 0.021879 0.443176 0 200 255
0.311121 0.053621 0.485051 0 200 255
0.318834 0.111601 0.362673 0 200 255
0.280671 0.103713 0.323850 0 200 255
0.305094 0.113194 0.410114 0 200 255
0.300969 0.025589 0.448791 0 200 255
0.308185 0.070560 0.376138 0 200 255
0.305551 0.192070 0.352743 0 200 255
0.313592 0.102294 0.397388 0 200 255
0.307573 0.247645 0.390256 0 200 255
0.317811 0.073128 0.467389 0 200 255
0.293114 0.097639 0.442101 0 200 255
0.293160 0.061651 0.400866 0 200 255
0.322862 0.207028 0.357935 0 200 255
0.307903 0.065463 0.361720 0 200 255
0.295572 0.119887 0.397614 0 200 255
0.316979 0.148181 0.317856 0 200 255
0.316281 0.041569 0.391405 0 200 255
0.313012 0.251651 0.401146 0 200 255
0.291935 0.053899 0.414668 0 200 255
0.300367 0.073361 0.413214 0 200 255
0.315495 0.111554 0.309828 0 200 255
0.289181 0.081227 0.378134 0 200 255
0.310855 0.072319 0.453477 0 200 255
0.308657 0.066103 0.489090 0 200 255
0.314175 0.133777 0.374154 0 200 255
0.310697 0.220152 0.397188 0 200 255
0.294340 0.082162 0.362989 0 200 255
0.270561 0.161271 0.315864 0 200 255
0.303469 0.056608 0.438987 0 200 255
0.319255 0.112784 0.372620 0 200 255
0.317917 0.244692 0.407113 0 200 255
0.307055 0.055871 0.369304 0 200 255
0.316918 0.228130 0.377608 0 200 255
0.305440 0.050839 0.410610 0 200 255
0.302899 0.038087 0.428279 0 200 255
0.278521 0.106082 0.385985 0 200 255
0.310610 0.049563 0.474358 0 200 255
0.303582 0.096232 0.408847 0 200 255
0.312018 0.217375 0.363411 0 200 255
0.294752 0.074707 0.332088 0 200 255
0.330111 0.206788 0.386316 0 200 255
0.308756 0.175272 0.357900 0 200 255
0.318003 0.118634 0.325576 0 200 255
0.295547 0.134765 0.397320 0 200 255
0.297378 0.216345 0.380952 0 200 255
0.306331 0.220548 0.369999 0 200 255
0.299526 0.049346 0.397397 0 200 255
0.315024 0.159306 0.309809 0 200 255
0.296002 0.240483 0.392821 0 200 255
0.288645 0.103619 0.397344 0 200 255
0.299848 0.059465 0.478840 0 200 255
0.316919 0.098220 0.433864 0 200 255
0.285436 0.096950 0.388279 0 200 255
0.295030 0.092563 0.399756 0 200 255
0.315155 0.049750 0.416036 0 200 255
0.275232 0.124869 0.369653 0 200 255
0.308018 0.075161 0.367077 0 200 255
0.293499 0.118086 0.412997 0 200 255
0.319050 0.044563 0.461256 0 200 255
0.306440 0.070927 0.469332 0 200 255
0.311918 0.054173 0.440209 0 200 255
0.298698 0.076286 0.421846 0 200 255
0.280136 0.159436 0.348383 0 200 255
0.297435 0.158763 0.340110 0 200 255
0.302006 0.145271 0.344327 0 200 255
0.298064 0.087661 0.384514 0 200 255
0.320266 0.016461 0.436566 0 200 255
0.309082 0.263639 0.413099 0 200 255
0.320071 0.121454 0.384951 0 200 255
0.313598 0.115170 0.413269 0 200 255
0.274924 0.116369 0.365128 0 200 255
0.296003 0.178728 0.369629 0 200 255
0.297956 0.136218 0.294591 0 200 255
0.312621 0.080951 0.331867 0 200 255
0.307709 0.208966 0.361148 0 200 255
0.304021 0.048212 0.462621 0 200 255
0.304902 0.062795 0.386882 0 200 255
0.296334 0.131052 0.306999 0 200 255
0.314708 0.127354 0.380315 0 200 255
0.293049 0.150757 0.373390 0 200 255
0.304355 0.080356 0.431193 0 200 255
0.314397 0.084789 0.355458 0 200 255
0.308476 0.032750 0.415228 0 200 255
0.303071 0.184541 0.381027 0 200 255
0.306986 0.213724 0.391175 0 200 255
0.300338 0.062318 0.428839 0 200 255
0.315407 0.111275 0.337266 0 200 255
0.312211 0.040130 0.429452 0 200 255
0.318435 0.117601 0.355641 0 200 255
0.313516 0.084707 0.371438 0 200 255
0.314805 0.200235 0.362427 0 200 255
0.319861 0.084373 0.343456 0 200 255
0.307409 0.130265 0.395815 0 200 255
0.316506 0.087325 0.328496 0 200 255
0.311822 0.264602 0.421747 0 200 255
0.302908 0.068814 0.447725 0 200 255
0.311359 0.145481 0.309885 0 200 255
0.275154 0.147517 0.323932 0 200 255
0.300006 0.105883 0.433925 0 200 255
0.304993 0.072371 0.382917 0 200 255
0.290785 0.195038 0.369003 0 200 255
0.312816 0.087321 0.385675 0 200 255
0.315088 0.236917 0.402859 0 200 255
0.287421 0.122142 0.397301 0 200 255
0.288620 0.134999 0.301478 0 200 255
0.278190 0.163614 0.326305 0 200 255
0.302598 0.137798 0.402552 0 200 255
0.300456 0.162547 0.366995 0 200 255
0.316999 0.034799 0.421757 0 200 255
0.297864 0.097845 0.435282 0 200 255
0.298408 0.068053 0.394791 0 200 255
0.316371 0.073640 0.404687 0 200 255
0.307161 0.182982 0.363220 0 200 255
0.318619 0.063231 0.475766 0 200 255
0.309717 0.161391 0.326112 0 200 255
0.289816 0.083283 0.407880 0 200 255
0.309186 0.231532 0.375838 0 200 255
0.309829 0.032722 0.429948 0 200 255
0.304491 0.043050 0.469040 0 200 255
0.310715 0.242814 0.417686 0 200 255
0.309248 0.110581 0.427794 0 200 255
0.316291 0.089454 0.431958 0 200 255
0.317338 0.080807 0.418273 0 200 255
0.299514 0.258194 0.407055 0 200 255
0.292640 0.112759 0.385953 0 200 255
0.306022 0.069789 0.435645 0 200 255
0.298948 0.020738 0.420717 0 200 255
0.297392 0.224111 0.402602 0 200 255
0.326691 0.233515 0.396527 0 200 255
0.310362 0.023248 0.449658 0 200 255
0.324906 0.220551 0.370220 0 200 255
0.326372 0.200571 0.370015 0 200 255
0.298733 0.245076 0.402208 0 200 255
0.306359 0.054063 0.450383 0 200 255
0.273975 0.153180 0.339572 0 200 255
0.311706 0.185155 0.377809 0 200 255
0.315791 0.064024 0.487879 0 200 255
0.304611 0.096407 0.387088 0 200 255
0.314036 0.039028 0.444030 0 200 255
0.287988 0.113386 0.399990 0 200 255
0.298848 0.055220 0.384964 0 200 255
0.319071 0.212382 0.393041 0 200 255
0.300624 0.036190 0.410245 0 200 255
0.309802 0.075050 0.478215 0 200 255
0.309756 0.044360 0.438129 0 200 255
0.303962 0.022832 0.461904 0 200 255
0.317166 0.125011 0.320516 0 200 255
0.297923 0.084593 0.410251 0 200 255
0.314651 0.033128 0.453916 0 200 255
0.299287 0.102592 0.410907 0 200 255
0.290961 0.049952 0.392057 0 200 255
0.291588 0.078824 0.413619 0 200 255
0.308401 0.074005 0.355652 0 200 255
0.298268 0.035813 0.434718 0 200 255
0.296325 0.209040 0.388842 0 200 255
0.298426 0.262178 0.416199 0 200 255
0.283047 0.074086 0.368046 0 200 255
0.289360 0.090723 0.405360 0 200 255
0.315964 0.103227 0.341018 0 200 255
0.309398 0.126971 0.404773 0 200 255
0.288172 0.167164 0.345216 0 200 255
0.283038 0.139324 0.297806 0 200 255
0.321759 0.242676 0.385962 0 200 255
0.274393 0.143802 0.346068 0 200 255
0.321581 0.217790 0.383295 0 200 255
0.304103 0.202675 0.394268 0 200 255
0.312668 0.118541 0.361361 0 200 255
0.317900 0.186659 0.366368 0 200 255
0.283629 0.087084 0.325171 0 200 255
0.293239 0.095650 0.384775 0 200 255
0.307857 0.253112 0.395961 0 200 255
0.302811 0.229862 0.399668 0 200 255
0.302289 0.085115 0.424402 0 200 255
0.305487 0.008582 0.447631 0 200 255
0.316689 0.084154 0.442340 0 200 255
0.316218 0.135189 0.325699 0 200 255
0.309528 0.108234 0.420791 0 200 255
0.281903 0.086479 0.379978 0 200 255
0.305898 0.073249 0.342052 0 200 255
0.313223 0.032291 0.408598 0 200 255
0.310718 0.040795 0.407169 0 200 255
0.294399 0.162721 0.354657 0 200 255
0.305441 0.087897 0.322135 0 200 255
0.299055 0.065990 0.435236 0 200 255
0.286928 0.161931 0.332705 0 200 255
0.309857 0.092982 0.424948 0 200 255
0.303768 0.250569 0.402262 0 200 255
0.315830 0.096281 0.322309 0 200 255
0.309619 0.170221 0.363780 0 200 255
0.309360 0.057437 0.394637 0 200 255
0.278394 0.089673 0.367045 0 200 255
0.299568 0.059956 0.420181 0 200 255
0.302477 0.083965 0.437242 0 200 255
0.293173 0.065833 0.378784 0 200 255
0.289203 0.107407 0.416397 0 200 255
0.298944 0.128127 0.411287 0 200 255
0.315886 0.075416 0.412842 0 200 255
0.319164 0.045038 0.468502 0 200 255
0.297162 0.079530 0.431704 0 200 255
0.292557 0.075699 0.373487 0 200 255
0.312186 0.020842 0.459898 0 200 255
0.303770 0.028430 0.433834 0 200 255
0.297062 0.134532 0.317400 0 200 255
0.276020 0.115855 0.330883 0 200 255
0.290716 0.203055 0.375534 0 200 255
0.316413 0.202868 0.354716 0 200 255
0.317947 0.117340 0.392211 0 200 255
0.298024 0.066257 0.471185 0 200 255
0.287581 0.141471 0.316524 0 200 255
0.315667 0.036594 0.396803 0 200 255
0.291966 0.039824 0.402732 0 200 255
0.296466 0.201765 0.370912 0 200 255
0.301137 0.077167 0.467515 0 200 255
0.302737 0.026460 0.410173 0 200 255
0.320737 0.227946 0.399885 0 200 255
0.297900 0.087851 0.447945 0 200 255
0.311460 0.087147 0.406854 0 200 255
0.285127 0.129509 0.405714 0 200 255
0.324147 0.240003 0.407082 0 200 255
0.300972 0.029648 0.422290 0 200 255
0.304378 0.076790 0.401698 0 200 255
0.295469 0.060672 0.353038 0 200 255
0.297455 0.083241 0.391388 0 200 255
0.302861 0.107590 0.311225 0 200 255
0.313391 0.026693 0.416473 0 200 255
0.279573 0.113186 0.374747 0 200 255
0.298051 0.250129 0.409969 0 200 255
0.301169 0.044261 0.420690 0 200 255
0.309700 0.090556 0.392979 0 200 255
0.300061 0.194940 0.390560 0 200 255
0.296831 0.084664 0.373522 0 200 255
0.309816 0.209080 0.370105 0 200 255
0.302639 0.170566 0.355031 0 200 255
0.302649 0.079492 0.371301 0 200 255
0.280900 0.148666 0.379480 0 200 255
0.305793 0.232031 0.411033 0 200 255
0.315321 0.029178 0.447363 0 200 255
0.319245 0.193664 0.381807 0 200 255
0.309310 0.168476 0.342485 0 200 255
0.303791 0.076348 0.447493 0 200 255
0.297479 0.165733 0.321520 0 200 255
0.283441 0.090935 0.361257 0 200 255
0.309175 0.160571 0.349462 0 200 255
0.298119 0.154188 0.378421 0 200 255
0.311400 0.099584 0.373591 0 200 255
0.307272 0.160619 0.357927 0 200 255
0.303760 0.145585 0.316803 0 200 255
0.293149 0.149841 0.336995 0 200 255
0.290708 0.094250 0.313236 0 200 255
0.313174 0.116087 0.374503 0 200 255
0.318143 0.051193 0.389042 0 200 255
0.313343 0.049425 0.452764 0 200 255
0.328958 0.214331 0.374011 0 200 255
0.303433 0.046274 0.440397 0 200 255
0.303115 0.088155 0.459480 0 200 255
0.315471 0.023893 0.429163 0 200 255
0.319063 0.139554 0.368375 0 200 255
0.306383 0.133548 0.316069 0 200 255
0.314207 0.094706 0.368551 0 200 255
0.306617 0.111500 0.399423 0 200 255
0.274112 0.127236 0.361060 0 200 255
0.275211 0.108783 0.344975 0 200 255
0.277150 0.096985 0.350872 0 200 255
0.308462 0.009156 0.435567 0 200 255
0.308342 0.087834 0.447430 0 200 255
0.306583 0.095335 0.312802 0 200 255
0.293011 0.050348 0.422254 0 200 255
0.316331 0.083701 0.425378 0 200 255
0.313573 0.232313 0.382151 0 200 255
0.292449 0.061517 0.416439 0 200 255
0.292451 0.109735 0.426956 0 200 255
0.299499 0.097911 0.417643 0 200 255
0.313953 0.137418 0.337745 0 200 255
0.274469 0.138249 0.358927 0 200 255
0.298045 0.083936 0.398595 0 200 255
0.309434 0.181936 0.370822 0 200 255
0.317737 0.124082 0.333137 0 200 255
0.306360 0.097742 0.445687 0 200 255
0.301401 0.076105 0.330142 0 200 255
0.306572 0.022790 0.441675 0 200 255
0.298503 0.052436 0.461582 0 200 255
0.300956 0.042214 0.435224 0 200 255
0.317281 0.268744 0.411486 0 200 255
0.312711 0.058871 0.372634 0 200 255
0.320543 0.088151 0.360380 0 200 255
0.282741 0.120122 0.391043 0 200 255
0.314159 0.151155 0.328580 0 200 255
0.298998 0.043336 0.413711 0 200 255
0.319778 0.254452 0.409209 0 200 255
0.282389 0.069287 0.362201 0 200 255
0.294210 0.191558 0.380106 0 200 255
0.295031 0.201246 0.361259 0 200 255
0.314709 0.094702 0.448658 0 200 255
0.316394 0.050568 0.402921 0 200 255
0.313308 0.107356 0.361783 0 200 255
0.307487 0.097710 0.418519 0 200 255
0.314280 0.136629 0.383618 0 200 255
0.325651 0.222362 0.397527 0 200 255
0.309731 0.045319 0.418025 0 200 255
0.311819 0.189531 0.363410 0 200 255
0.295396 0.204649 0.382564 0 200 255
0.308292 0.071482 0.444422 0 200 255
0.317179 0.067471 0.437972 0 200 255
0.293423 0.066089 0.427898 0 200 255
0.307773 0.064221 0.464697 0 200 255
0.313231 0.016301 0.449603 0 200 255
0.297419 0.060506 0.389894 0 200 255
0.300428 0.064292 0.361588 0 200 255
0.307575 0.203656 0.356721 0 200 255
0.287807 0.106152 0.308151 0 200 255
0.318867 0.246767 0.395299 0 200 255
0.303581 0.255403 0.419575 0 200 255
0.323844 0.189170 0.369621 0 200 255
0.303478 0.219378 0.380658 0 200 255
0.303957 0.116951 0.418575 0 200 255
0.293906 0.069648 0.408758 0 200 255
0.294343 0.074388 0.435115 0 200 255
0.286743 0.118836 0.309991 0 200 255
0.290154 0.071300 0.338239 0 200 255
0.298344 0.185320 0.354536 0 200 255
0.309493 0.140451 0.302022 0 200 255
0.297573 0.234747 0.400475 0 200 255
0.300237 0.166995 0.328281 0 200 255
0.296426 0.111511 0.404269 0 200 255
0.304134 0.054827 0.398039 0 200 255
0.311996 0.063852 0.427166 0 200 255
0.310176 0.017723 0.422319 0 200 255
0.269797 0.145480 0.319580 0 200 255
0.313296 0.052013 0.409360 0 200 255
0.307043 0.049859 0.377734 0 200 255
0.280875 0.085885 0.342048 0 200 255
0.305043 0.268150 0.416691 0 200 255
0.300359 0.223399 0.372669 0 200 255
0.302643 0.072682 0.370287 0 200 255
0.318181 0.060829 0.414155 0 200 255
0.325139 0.197004 0.381921 0 200 255
0.296407 0.169942 0.365330 0 200 255
0.292929 0.070682 0.365598 0 200 255
0.314624 0.084102 0.380064 0 200 255
0.272884 0.135601 0.332858 0 200 255
0.315122 0.070433 0.352570 0 200 255
0.307641 0.132771 0.302199 0 200 255
0.320136 0.113502 0.387174 0 200 255
0.304132 0.166092 0.349878 0 200 255
0.313254 0.067636 0.473470 0 200 255
0.290370 0.098104 0.432081 0 200 255
0.306398 0.234966 0.392498 0 200 255
0.292457 0.042799 0.393733 0 200 255
0.313233 0.232508 0.396868 0 200 255
0.293254 0.184399 0.367062 0 200 255
0.304948 0.028263 0.455746 0 200 255
0.294286 0.081667 0.382401 0 200 255
0.297667 0.072961 0.474289 0 200 255
0.318099 0.261273 0.420492 0 200 255
0.296411 0.049656 0.403458 0 200 255
0.319406 0.130357 0.387364 0 200 255
0.302525 0.232806 0.386726 0 200 255
0.274171 0.136371 0.347453 0 200 255
0.313517 0.071754 0.393077 0 200 255
0.292541 0.144053 0.394503 0 200 255
0.316519 0.061163 0.447360 0 200 255
0.312771 0.144804 0.321841 0 200 255
0.302121 0.119471 0.304980 0 200 255
0.317218 0.148565 0.371606 0 200 255
0.310899 0.032235 0.436471 0 200 255
0.295058 0.219056 0.388637 0 200 255
0.312576 0.124824 0.391606 0 200 255
0.301142 0.037346 0.469327 0 200 255
0.314923 0.120278 0.338022 0 200 255
0.284398 0.157273 0.366917 0 200 255
0.299894 0.064902 0.441709 0 200 255
0.304542 0.190461 0.385398 0 200 255
0.313968 0.098458 0.360366 0 200 255
0.317530 0.188430 0.378188 0 200 255
0.307755 0.030928 0.462724 0 200 255
0.300243 0.063926 0.465153 0 200 255
0.300104 0.149822 0.331721 0 200 255
0.300116 0.035002 0.455110 0 200 255
0.313681 0.063391 0.480198 0 200 255
0.327950 0.204231 0.380670 0 200 255
0.310389 0.027207 0.424029 0 200 255
0.273149 0.120609 0.334360 0 200 255
0.301640 0.163231 0.360021 0 200 255
0.302392 0.063746 0.349691 0 200 255
0.300252 0.113469 0.395674 0 200 255
0.293477 0.063820 0.393917 0 200 255
0.307655 0.251811 0.414410 0 200 255
0.297834 0.095198 0.428888 0 200 255
0.319462 0.104151 0.333060 0 200 255
0.321364 0.199992 0.358962 0 200 255
0.280634 0.092619 0.328242 0 200 255
0.305013 0.083014 0.389535 0 200 255
0.309326 0.206560 0.394635 0 200 255
0.293692 0.211936 0.368358 0 200 255
0.309868 0.161485 0.340835 0 200 255
0.303183 0.054105 0.457025 0 200 255
0.317768 0.067335 0.405543 0 200 255
0.305905 0.039921 0.419621 0 200 255
0.297103 0.056929 0.441950 0 200 255
0.281079 0.124861 0.340663 0 200 255
0.296476 0.228812 0.390880 0 200 255
0.307764 0.257893 0.407717 0 200 255
0.283061 0.073940 0.347834 0 200 255
0.309384 0.120314 0.414126 0 200 255
0.315434 0.080426 0.461148 0 200 255
0.298603 0.050787 0.410468 0 200 255
0.313223 0.161327 0.320660 0 200 255
0.315292 0.087651 0.321994 0 200 255
0.301826 0.249043 0.415226 0 200 255
0.289732 0.058593 0.379767 0 200 255
0.312132 0.061076 0.459283 0 200 255
0.289005 0.126091 0.306836 0 200 255
0.313283 0.118817 0.401765 0 200 255
0.310637 0.088684 0.456043 0 200 255
0.314309 0.065894 0.348069 0 200 255
0.322866 0.207240 0.389851 0 200 255
0.322485 0.221644 0.377580 0 200 255
0.301124 0.047185 0.450144 0 200 255
0.316481 0.092084 0.337133 0 200 255
0.325496 0.248470 0.402806 0 200 255
0.303609 0.064923 0.481396 0 200 255
0.299433 0.044176 0.457252 0 200 255
0.299091 0.061620 0.406473 0 200 255
0.297632 0.194974 0.384347 0 200 255
0.280509 0.075081 0.356612 0 200 255
0.317906 0.255868 0.394946 0 200 255
0.293974 0.073593 0.402267 0 200 255
0.325355 0.255762 0.403648 0 200 255
0.277992 0.103904 0.379967 0 200 255
0.293178 0.164823 0.362574 0 200 255
0.316712 0.084998 0.456418 0 200 255
0.281849 0.132367 0.399475 0 200 255
0.299893 0.017121 0.432273 0 200 255
0.301534 0.125426 0.310637 0 200 255
0.310564 0.114712 0.314224 0 200 255
