ply
format ascii 1.0
element vertex 256
property float x
property float y
property float z
end_header
0.327811 0.114334 0.178448
0.456311 0.164035 0.127322
0.339272 0.252100 0.155955
0.284137 0.187799 0.232876
0.382507 0.185232 0.206067
0.392962 0.110973 0.118121
0.387225 0.222238 0.120174
0.323250 0.177447 0.181079
0.410950 0.143156 0.169139
0.286444 0.141618 0.200856
0.309004 0.227668 0.194652
0.348395 0.148047 0.215191
0.377564 0.105364 0.171873
0.337276 0.194687 0.221878
0.322946 0.211642 0.152572
0.415839 0.147698 0.123260
0.363945 0.156178 0.175447
0.276173 0.192076 0.194749
0.399486 0.180521 0.171652
0.411572 0.108653 0.151411
0.434076 0.170506 0.157632
0.351293 0.230248 0.128071
0.353344 0.199154 0.184974
0.311987 0.164264 0.227130
0.380214 0.134312 0.152472
0.316729 0.130041 0.211849
0.356071 0.118167 0.201180
0.306314 0.199154 0.210982
0.333468 0.146191 0.172229
0.341467 0.228143 0.176640
0.385253 0.135193 0.185877
0.372759 0.243788 0.146815
0.273837 0.159871 0.223017
0.312694 0.237949 0.164225
0.295164 0.167009 0.185475
0.357216 0.127424 0.172628
0.412998 0.133671 0.097793
0.440042 0.149508 0.108413
0.378343 0.154508 0.205105
0.325681 0.204277 0.188953
0.298855 0.215124 0.172200
0.301232 0.131626 0.179888
0.428588 0.143333 0.148148
0.391571 0.158984 0.156944
0.420345 0.166207 0.181233
0.372377 0.181100 0.179533
0.326538 0.233958 0.139185
0.399690 0.130889 0.135367
0.268998 0.167229 0.197291
0.337366 0.163389 0.197720
0.291087 0.174627 0.211855
0.397433 0.165996 0.194138
0.361778 0.169270 0.216232
0.432198 0.166831 0.132448
0.416789 0.123169 0.119818
0.337379 0.169078 0.221341
0.377201 0.110561 0.148534
0.396597 0.123716 0.168243
0.346217 0.224596 0.153845
0.297454 0.146855 0.221334
0.361768 0.196951 0.206241
0.368934 0.221877 0.141762
0.343015 0.168022 0.175561
0.410510 0.103104 0.129710
0.411878 0.170580 0.156125
0.332710 0.116735 0.204914
0.372042 0.237696 0.122925
0.317181 0.188095 0.226836
0.408799 0.112570 0.103248
0.348983 0.249358 0.137285
0.360148 0.166608 0.193442
0.299542 0.186318 0.192508
0.405720 0.151183 0.143705
0.445627 0.154773 0.145083
0.435398 0.142687 0.128043
0.325454 0.242674 0.179759
0.290351 0.168476 0.235311
0.361623 0.136514 0.194369
0.357037 0.241023 0.159420
0.318406 0.185411 0.199558
0.415059 0.128646 0.150846
0.298402 0.125498 0.202416
0.357968 0.109851 0.182960
0.318483 0.221490 0.174182
0.325011 0.206455 0.210590
0.395777 0.103848 0.163689
0.381636 0.146973 0.170098
0.286466 0.200125 0.209854
0.386009 0.233208 0.136509
0.401120 0.134882 0.116389
0.397611 0.155581 0.177718
0.393790 0.105339 0.139989
0.289519 0.148332 0.182980
0.303408 0.207077 0.193648
0.325472 0.146119 0.217396
0.425109 0.155049 0.165059
0.378277 0.160663 0.186769
0.373034 0.120702 0.182283
0.314100 0.121295 0.188764
0.365967 0.220173 0.123364
0.328432 0.225714 0.189011
0.309331 0.222471 0.156046
0.328719 0.237407 0.156684
0.395061 0.120375 0.150996
0.394679 0.140160 0.160525
0.319858 0.153894 0.180192
0.299161 0.183779 0.225123
0.344900 0.201067 0.207638
0.282355 0.158523 0.204148
0.335304 0.132625 0.211097
0.362501 0.111288 0.165932
0.350951 0.146239 0.170070
0.372932 0.132344 0.168153
0.336137 0.187830 0.184783
0.421343 0.134248 0.132100
0.365188 0.182622 0.194918
0.332193 0.215614 0.166666
0.429154 0.157421 0.118259
0.339954 0.246609 0.171330
0.362633 0.148836 0.207389
0.389959 0.169832 0.180216
0.315709 0.128832 0.173236
0.337688 0.240687 0.129597
0.423434 0.153542 0.136767
0.348886 0.178820 0.215293
0.357207 0.184187 0.175683
0.317404 0.214940 0.199289
0.378376 0.170885 0.198965
0.342102 0.108948 0.182958
0.353148 0.131668 0.208863
0.407513 0.116885 0.138585
0.314209 0.206848 0.164758
0.340157 0.239522 0.146159
0.422344 0.134996 0.111224
0.397154 0.122991 0.107107
0.337985 0.222938 0.140779
0.355033 0.152854 0.188426
0.442687 0.164773 0.119905
0.423290 0.161381 0.150076
0.360609 0.234863 0.141405
0.445739 0.169210 0.139372
0.405777 0.170931 0.181661
0.368391 0.185238 0.213312
0.305075 0.230094 0.174760
0.371926 0.141972 0.183541
0.304566 0.181269 0.210582
0.446721 0.152940 0.129837
0.313371 0.210453 0.183133
0.413808 0.143021 0.154579
0.357127 0.252051 0.149539
0.345128 0.119052 0.171016
0.323554 0.173870 0.221776
0.365214 0.245848 0.133078
0.393007 0.179594 0.192165
0.311385 0.178356 0.189168
0.383954 0.118176 0.173211
0.395420 0.141429 0.146285
0.411031 0.156542 0.158479
0.415737 0.175057 0.169096
0.394643 0.136293 0.174658
0.306348 0.156718 0.183588
0.405848 0.105526 0.115770
0.269107 0.154348 0.210969
0.393936 0.119483 0.129601
0.409892 0.142839 0.107929
0.341540 0.205314 0.194783
0.366670 0.197636 0.188796
0.333337 0.160895 0.182227
0.329090 0.158006 0.223256
0.318066 0.231429 0.150615
0.290535 0.168072 0.198883
0.347425 0.135056 0.178230
0.403478 0.130113 0.158029
0.412623 0.158600 0.173067
0.385165 0.162898 0.169608
0.432230 0.165066 0.170672
0.312778 0.142730 0.214089
0.409444 0.138428 0.140714
0.350537 0.234426 0.169047
0.386461 0.235199 0.123263
0.424637 0.147898 0.108880
0.396968 0.170201 0.163703
0.317203 0.198056 0.203281
0.360831 0.172908 0.181854
0.294735 0.159283 0.224878
0.433841 0.153533 0.155280
0.388234 0.147708 0.182516
0.388574 0.183087 0.180292
0.374320 0.224923 0.114401
0.377478 0.185068 0.191044
0.367196 0.154964 0.192820
0.313166 0.234635 0.184005
0.360239 0.234044 0.118580
0.323709 0.112948 0.191814
0.289908 0.193335 0.197834
0.357787 0.124914 0.185398
0.373174 0.234896 0.136195
0.389542 0.129727 0.143291
0.381647 0.123309 0.159049
0.444941 0.165229 0.152597
0.311837 0.119540 0.201257
0.405781 0.140310 0.128592
0.324577 0.197160 0.221747
0.368324 0.120018 0.158680
0.355249 0.221164 0.136044
0.401239 0.101293 0.151652
0.352645 0.242704 0.126162
0.303457 0.218506 0.187990
0.386767 0.105370 0.154839
0.412591 0.127513 0.108732
0.325448 0.234780 0.170045
0.328966 0.123152 0.169684
0.343810 0.122336 0.204253
0.339904 0.111275 0.194975
0.407039 0.119289 0.126428
0.331525 0.183344 0.221384
0.372076 0.170769 0.209625
0.319076 0.161892 0.217318
0.318127 0.165592 0.183263
0.343310 0.178299 0.182159
0.436865 0.155072 0.136626
0.373826 0.144530 0.199847
0.289784 0.146011 0.211956
0.371334 0.231662 0.148539
0.288361 0.181967 0.190907
0.435521 0.141061 0.115776
0.292647 0.186486 0.213275
0.326606 0.224223 0.146076
0.377223 0.170295 0.178351
0.373752 0.108485 0.161050
0.282663 0.154696 0.190294
0.401285 0.113689 0.160029
0.307505 0.196607 0.222496
0.323033 0.243180 0.145742
0.313558 0.192696 0.191580
0.366309 0.160447 0.209213
0.439927 0.152104 0.120219
0.435491 0.170282 0.145080
0.408239 0.117091 0.114541
0.351385 0.130872 0.193299
0.303301 0.191942 0.202092
0.367846 0.130722 0.179154
0.351442 0.241091 0.148711
0.330865 0.202283 0.199214
0.417323 0.146579 0.143836
0.348407 0.191709 0.220177
0.305022 0.154001 0.226549
0.362932 0.232679 0.129808
0.374639 0.108943 0.182481
0.337594 0.219829 0.183679
0.300709 0.167929 0.230234
0.344884 0.241505 0.161884
0.396199 0.123290 0.118597
0.400336 0.110153 0.131726
0.310425 0.218012 0.166529
0.417352 0.135664 0.121499
