ply
format ascii 1.0
element vertex 1024
property float x
property float y
property float z
property uchar red
property uchar green
property uchar blue
end_header
0.290918 0.130969 0.295905 0 200 255
0.309878 0.057763 0.492560 0 200 255
0.314089 0.267288 0.421298 0 200 255
0.311231 0.050410 0.377011 0 200 255
0.328513 0.186326 0.368295 0 200 255
0.283637 0.124900 0.408052 0 200 255
0.307903 0.007185 0.437979 0 200 255
0.318422 0.116066 0.351351 0 200 255
0.316600 0.078206 0.433100 0 200 255
0.278747 0.159946 0.348807 0 200 255
0.294444 0.225687 0.388916 0 200 255
0.287614 0.075837 0.333309 0 200 255
0.282880 0.087391 0.380784 0 200 255
0.309367 0.168050 0.316380 0 200 255
0.273653 0.117196 0.338396 0 200 255
0.312864 0.147454 0.387048 0 200 255
0.299838 0.045329 0.453743 0 200 255
0.296257 0.039328 0.413082 0 200 255
0.291071 0.195740 0.363919 0 200 255
0.316518 0.106094 0.313992 0 200 255
0.312507 0.101481 0.401751 0 200 255
0.300163 0.082540 0.466471 0 200 255
0.324458 0.247695 0.391636 0 200 255
0.273155 0.159143 0.312520 0 200 255
0.319917 0.074454 0.350806 0 200 255
0.280280 0.134333 0.373547 0 200 255
0.316988 0.151691 0.352146 0 200 255
0.323432 0.220901 0.368819 0 200 255
0.289425 0.099722 0.431443 0 200 255
0.298537 0.071274 0.405509 0 200 255
0.315861 0.136858 0.323775 0 200 255
0.286908 0.061537 0.360728 0 200 255
0.285617 0.104209 0.310415 0 200 255
0.309408 0.198856 0.389614 0 200 255
0.307213 0.237693 0.415020 0 200 255
0.316926 0.093479 0.373539 0 200 255
0.317955 0.049397 0.429498 0 200 255
0.311541 0.020791 0.463065 0 200 255
0.299718 0.169063 0.367168 0 200 255
0.292087 0.065073 0.435613 0 200 255
0.324327 0.220352 0.396857 0 200 255
0.315732 0.106060 0.431164 0 200 255
0.320018 0.120898 0.384495 0 200 255
0.277433 0.094254 0.355304 0 200 255
0.318360 0.049185 0.402496 0 200 255
0.311983 0.081262 0.326526 0 200 255
0.318646 0.044959 0.471473 0 200 255
0.313389 0.143319 0.298574 0 200 255
0.294827 0.116890 0.361503 0 200 255
0.314898 0.022752 0.417820 0 200 255
0.298656 0.152039 0.334612 0 200 255
0.275591 0.129389 0.316399 0 200 255
0.313857 0.200506 0.353974 0 200 255
0.308718 0.125595 0.406642 0 200 255
0.290996 0.050881 0.391684 0 200 255
0.279507 0.112076 0.387249 0 200 255
0.305803 0.073185 0.382691 0 200 255
0.301738 0.253023 0.397560 0 200 255
0.290623 0.093604 0.407738 0 200 255
0.318944 0.069349 0.472338 0 200 255
0.290191 0.144299 0.393097 0 200 255
0.315047 0.092702 0.451398 0 200 255
0.299826 0.081952 0.361857 0 200 255
0.271628 0.140814 0.337772 0 200 255
0.308665 0.066410 0.451578 0 200 255
0.309562 0.030016 0.439538 0 200 255
0.301298 0.215977 0.366303 0 200 255
0.295683 0.142040 0.314822 0 200 255
0.287360 0.169953 0.325968 0 200 255
0.306163 0.169745 0.345574 0 200 255
0.330028 0.204546 0.381596 0 200 255
0.299060 0.061000 0.473591 0 200 255
0.299237 0.101220 0.383243 0 200 255
0.290906 0.085057 0.446834 0 200 255
0.316696 0.065887 0.415930 0 200 255
0.279248 0.097846 0.329534 0 200 255
0.319646 0.102715 0.335046 0 200 255
0.315091 0.131107 0.365314 0 200 255
0.286317 0.155625 0.375426 0 200 255
0.297386 0.115298 0.420574 0 200 255
0.272132 0.141550 0.300228 0 200 255
0.307699 0.089435 0.418617 0 200 255
0.310907 0.125194 0.307427 0 200 255
0.291946 0.206141 0.382285 0 200 255
0.311553 0.236633 0.380605 0 200 255
0.297717 0.045900 0.432613 0 200 255
0.274885 0.115403 0.363759 0 200 255
0.306946 0.062143 0.360313 0 200 255
0.298051 0.184318 0.382511 0 200 255
0.295491 0.122876 0.391369 0 200 255
0.322790 0.249702 0.414043 0 200 255
0.297454 0.258847 0.415957 0 200 255
0.297381 0.153964 0.353861 0 200 255
0.290765 0.079538 0.423145 0 200 255
0.292626 0.057682 0.417591 0 200 255
0.318485 0.049080 0.452479 0 200 255
0.308549 0.185787 0.365128 0 200 255
0.301469 0.036826 0.471047 0 200 255
0.306201 0.036592 0.396170 0 200 255
0.299123 0.020226 0.427705 0 200 255
0.275088 0.133144 0.355784 0 200 255
0.303950 0.086096 0.395953 0 200 255
0.294439 0.089216 0.316533 0 200 255
0.316826 0.066755 0.395971 0 200 255
0.297550 0.065626 0.344678 0 200 255
0.292141 0.178465 0.353264 0 200 255
0.314458 0.133331 0.347188 0 200 255
0.314811 0.264258 0.403386 0 200 255
0.293491 0.237392 0.402753 0 200 255
0.318177 0.118870 0.326921 0 200 255
0.315591 0.154777 0.369941 0 200 255
0.289169 0.073240 0.390142 0 200 255
0.277795 0.129532 0.391360 0 200 255
0.297568 0.210423 0.398764 0 200 255
0.294897 0.059229 0.376620 0 200 255
0.277312 0.155321 0.329153 0 200 255
0.307916 0.227750 0.400091 0 200 255
0.281263 0.073829 0.349506 0 200 255
0.312285 0.218197 0.384422 0 200 255
0.297258 0.109505 0.403418 0 200 255
0.313514 0.099556 0.353058 0 200 255
0.322679 0.184650 0.352099 0 200 255
0.301024 0.111440 0.308636 0 200 255
0.277009 0.148625 0.362474 0 200 255
0.279603 0.080778 0.365342 0 200 255
0.323727 0.235489 0.404256 0 200 255
0.277490 0.101511 0.373496 0 200 255
0.308653 0.062500 0.434944 0 200 255
0.312880 0.040245 0.416395 0 200 255
0.320421 0.018572 0.433968 0 200 255
0.313075 0.114707 0.367778 0 200 255
0.326924 0.205565 0.363070 0 200 255
0.276062 0.114004 0.322437 0 200 255
0.299874 0.098677 0.444054 0 200 255
0.312485 0.152847 0.325031 0 200 255
0.281073 0.097024 0.394917 0 200 255
0.326481 0.231051 0.384192 0 200 255
0.302070 0.055467 0.403946 0 200 255
0.312167 0.110957 0.414952 0 200 255
0.300417 0.029073 0.452811 0 200 255
0.301893 0.085423 0.435173 0 200 255
0.319431 0.032382 0.455335 0 200 255
0.270029 0.144421 0.319985 0 200 255
0.317281 0.156637 0.308462 0 200 255
0.287403 0.121807 0.308445 0 200 255
0.308272 0.113434 0.391828 0 200 255
0.318138 0.132031 0.395831 0 200 255
0.305936 0.073668 0.479891 0 200 255
0.315200 0.081555 0.462382 0 200 255
0.297195 0.140163 0.346585 0 200 255
0.316402 0.014933 0.448539 0 200 255
0.312322 0.078058 0.407233 0 200 255
0.281918 0.110409 0.403932 0 200 255
0.304472 0.201417 0.367424 0 200 255
0.313150 0.096202 0.387820 0 200 255
0.301011 0.135668 0.398584 0 200 255
0.319115 0.083089 0.363102 0 200 255
0.279172 0.086801 0.342670 0 200 255
0.306756 0.055630 0.421359 0 200 255
0.310523 0.241495 0.394886 0 200 255
0.314551 0.057420 0.463878 0 200 255
0.312930 0.092146 0.316673 0 200 255
0.301653 0.025307 0.412155 0 200 255
0.308948 0.252106 0.421956 0 200 255
0.297229 0.068849 0.461413 0 200 255
0.313799 0.089302 0.342671 0 200 255
0.310917 0.165050 0.358777 0 200 255
0.315140 0.066975 0.371298 0 200 255
0.296619 0.100839 0.418883 0 200 255
0.288650 0.162230 0.338158 0 200 255
0.314156 0.191535 0.377150 0 200 255
0.317557 0.043014 0.389449 0 200 255
0.300741 0.019080 0.442109 0 200 255
0.285624 0.163203 0.360860 0 200 255
0.316688 0.057474 0.479857 0 200 255
0.312835 0.079087 0.446769 0 200 255
0.298075 0.239357 0.388547 0 200 255
0.303775 0.034466 0.426964 0 200 255
0.319952 0.039407 0.441180 0 200 255
0.302733 0.227313 0.374800 0 200 255
0.294972 0.182285 0.368166 0 200 255
0.308169 0.048112 0.442757 0 200 255
0.308647 0.075610 0.338884 0 200 255
0.300868 0.068795 0.419665 0 200 255
0.302594 0.063676 0.392438 0 200 255
0.319191 0.135351 0.377968 0 200 255
0.312725 0.151123 0.338898 0 200 255
0.289371 0.076044 0.374044 0 200 255
0.273390 0.129195 0.330327 0 200 255
0.280494 0.120662 0.349990 0 200 255
0.314366 0.031184 0.405911 0 200 255
0.275835 0.105868 0.345972 0 200 255
0.308631 0.146185 0.361701 0 200 255
0.309198 0.139381 0.312019 0 200 255
0.301982 0.090362 0.454765 0 200 255
0.319604 0.208573 0.391909 0 200 255
0.279895 0.145587 0.381925 0 200 255
0.317268 0.091368 0.436220 0 200 255
0.310045 0.252561 0.408150 0 200 255
0.303924 0.087948 0.382557 0 200 255
0.297327 0.059927 0.446833 0 200 255
0.296988 0.152027 0.384504 0 200 255
0.299840 0.045968 0.382893 0 200 255
0.306102 0.048709 0.475118 0 200 255
0.287264 0.149848 0.321653 0 200 255
0.328469 0.218095 0.381632 0 200 255
0.293705 0.039316 0.399835 0 200 255
0.273924 0.146600 0.349712 0 200 255
0.298624 0.079061 0.326619 0 200 255
0.317468 0.080480 0.419358 0 200 255
0.315368 0.209003 0.368445 0 200 255
0.306798 0.181566 0.352769 0 200 255
0.284485 0.085644 0.325151 0 200 255
0.314327 0.061849 0.384049 0 200 255
0.301907 0.195198 0.355147 0 200 255
0.299331 0.129506 0.313666 0 200 255
0.293930 0.094277 0.394499 0 200 255
0.310146 0.040274 0.459830 0 200 255
0.299316 0.075572 0.449653 0 200 255
0.296939 0.130910 0.409944 0 200 255
0.302580 0.099998 0.314540 0 200 255
0.298703 0.156261 0.368740 0 200 255
0.300067 0.064068 0.487054 0 200 255
0.325019 0.255649 0.401749 0 200 255
0.298360 0.055636 0.461272 0 200 255
0.280628 0.131916 0.343842 0 200 255
0.277861 0.123149 0.379255 0 200 255
0.303745 0.072872 0.370087 0 200 255
0.298594 0.036675 0.442723 0 200 255
0.297982 0.083484 0.410176 0 200 255
0.305193 0.268051 0.411876 0 200 255
0.297026 0.195921 0.387838 0 200 255
0.301906 0.167819 0.326644 0 200 255
0.291378 0.218035 0.377967 0 200 255
0.291182 0.207523 0.368560 0 200 255
0.316479 0.030698 0.428978 0 200 255
0.303416 0.096263 0.408805 0 200 255
0.288600 0.132546 0.397395 0 200 255
0.305134 0.097725 0.372683 0 200 255
0.303648 0.109143 0.429540 0 200 255
0.290621 0.109738 0.392795 0 200 255
0.313895 0.254091 0.393578 0 200 255
0.291668 0.061787 0.401265 0 200 255
0.311349 0.037896 0.478672 0 200 255
0.294191 0.165776 0.351843 0 200 255
0.294160 0.248864 0.407354 0 200 255
0.317306 0.067948 0.442867 0 200 255
0.307191 0.126481 0.393132 0 200 255
0.316230 0.092623 0.328806 0 200 255
0.305247 0.009832 0.449745 0 200 255
0.311207 0.082296 0.372753 0 200 255
0.299357 0.071001 0.356278 0 200 255
0.312022 0.109828 0.380800 0 200 255
0.293587 0.094431 0.374647 0 200 255
0.319254 0.104327 0.366470 0 200 255
0.315105 0.067999 0.485682 0 200 255
0.282597 0.136482 0.303687 0 200 255
0.296905 0.222852 0.401330 0 200 255
0.317519 0.051571 0.417643 0 200 255
0.305559 0.073433 0.438990 0 200 255
0.320137 0.192869 0.362621 0 200 255
0.310060 0.013665 0.428054 0 200 255
0.316092 0.096401 0.424015 0 200 255
0.309096 0.067998 0.465371 0 200 255
0.311667 0.100128 0.442614 0 200 255
0.322752 0.261542 0.412395 0 200 255
0.313607 0.114160 0.403540 0 200 255
0.309344 0.211568 0.397512 0 200 255
0.317872 0.123202 0.337979 0 200 255
0.306800 0.177142 0.373079 0 200 255
0.282479 0.113129 0.374984 0 200 255
0.314444 0.228119 0.371261 0 200 255
0.317164 0.140301 0.337894 0 200 255
0.327849 0.193586 0.378085 0 200 255
0.295343 0.192502 0.374329 0 200 255
0.307175 0.145888 0.348696 0 200 255
0.296031 0.091502 0.426464 0 200 255
0.316874 0.117834 0.314223 0 200 255
0.314884 0.081307 0.383756 0 200 255
0.305893 0.227601 0.388153 0 200 255
0.309335 0.161498 0.332953 0 200 255
0.314147 0.241910 0.406164 0 200 255
0.294987 0.076157 0.433261 0 200 255
0.316895 0.065140 0.427446 0 200 255
0.306261 0.111304 0.318803 0 200 255
0.292991 0.118479 0.409483 0 200 255
0.305084 0.142489 0.337988 0 200 255
0.303956 0.055335 0.369720 0 200 255
0.314920 0.064238 0.350974 0 200 255
0.288175 0.108325 0.418849 0 200 255
0.296641 0.047902 0.421505 0 200 255
0.292088 0.083321 0.400590 0 200 255
0.300426 0.161678 0.340241 0 200 255
0.308431 0.209825 0.359644 0 200 255
0.299050 0.145832 0.325264 0 200 255
0.294940 0.082559 0.387743 0 200 255
0.301908 0.217092 0.390854 0 200 255
0.298759 0.056606 0.429449 0 200 255
0.302955 0.028550 0.463681 0 200 255
0.299436 0.128190 0.302624 0 200 255
0.317397 0.226615 0.389581 0 200 255
0.277428 0.167160 0.321834 0 200 255
0.309913 0.075222 0.393957 0 200 255
0.285400 0.096165 0.318052 0 200 255
0.277783 0.103001 0.362520 0 200 255
0.291645 0.089982 0.436949 0 200 255
0.302802 0.053452 0.484548 0 200 255
0.307051 0.045144 0.424743 0 200 255
0.301987 0.119095 0.400767 0 200 255
0.303915 0.138603 0.301612 0 200 255
0.315723 0.056434 0.440798 0 200 255
0.307362 0.050004 0.411891 0 200 255
0.298243 0.073153 0.336357 0 200 255
0.308314 0.052185 0.456511 0 200 255
0.279204 0.099989 0.384213 0 200 255
0.279079 0.120955 0.398911 0 200 255
0.309689 0.023537 0.449139 0 200 255
0.308188 0.214536 0.374643 0 200 255
0.311342 0.039782 0.434532 0 200 255
0.310906 0.159502 0.347634 0 200 255
0.318376 0.080124 0.337092 0 200 255
0.301502 0.102920 0.395904 0 200 255
0.310367 0.079658 0.471915 0 200 255
0.297325 0.073553 0.471848 0 200 255
0.305776 0.039526 0.406601 0 200 255
0.280700 0.113978 0.311742 0 200 255
0.327638 0.211016 0.373295 0 200 255
0.319168 0.197332 0.384615 0 200 255
0.294826 0.064919 0.367600 0 200 255
0.320553 0.087872 0.353678 0 200 255
0.313533 0.074411 0.360436 0 200 255
0.312315 0.057149 0.395203 0 200 255
0.314437 0.138612 0.357025 0 200 255
0.314138 0.091472 0.398638 0 200 255
0.299656 0.045949 0.465968 0 200 255
0.318127 0.182751 0.372759 0 200 255
0.300781 0.260449 0.406030 0 200 255
0.273550 0.151831 0.340565 0 200 255
0.302657 0.177599 0.361724 0 200 255
0.312337 0.174066 0.364664 0 200 255
0.304751 0.118220 0.413016 0 200 255
0.312825 0.089875 0.409472 0 200 255
0.293460 0.074215 0.414515 0 200 255
0.321796 0.241524 0.383592 0 200 255
0.314768 0.124431 0.376163 0 200 255
0.296844 0.084485 0.371559 0 200 255
0.279014 0.124075 0.368903 0 200 255
0.325419 0.231552 0.394578 0 200 255
0.317208 0.119932 0.394515 0 200 255
0.300913 0.162096 0.359369 0 200 255
0.277524 0.109602 0.332397 0 200 255
0.292907 0.109001 0.428215 0 200 255
0.289679 0.118650 0.398918 0 200 255
0.300432 0.031165 0.403417 0 200 255
0.300634 0.232298 0.408362 0 200 255
0.282997 0.082366 0.355197 0 200 255
0.306644 0.080514 0.455142 0 200 255
0.311504 0.140033 0.396169 0 200 255
0.308345 0.051807 0.432650 0 200 255
0.280485 0.138844 0.362887 0 200 255
0.313523 0.145229 0.373455 0 200 255
0.300490 0.027852 0.434597 0 200 255
0.325713 0.245655 0.404729 0 200 255
0.304722 0.062513 0.380274 0 200 255
0.293264 0.060085 0.387559 0 200 255
0.310823 0.154822 0.379110 0 200 255
0.309193 0.058604 0.472864 0 200 255
0.285059 0.067977 0.369310 0 200 255
0.294870 0.060603 0.353261 0 200 255
0.276297 0.139104 0.313082 0 200 255
0.318386 0.057504 0.408542 0 200 255
0.304667 0.085271 0.445909 0 200 255
0.313802 0.218842 0.365897 0 200 255
0.296668 0.168958 0.317885 0 200 255
0.305427 0.261863 0.422269 0 200 255
0.299634 0.047800 0.397590 0 200 255
0.281129 0.105525 0.319704 0 200 255
0.308587 0.024378 0.427594 0 200 255
0.278612 0.091468 0.372189 0 200 255
0.312124 0.035580 0.468627 0 200 255
0.299169 0.062860 0.411174 0 200 255
0.313256 0.190916 0.350696 0 200 255
0.307770 0.069392 0.412276 0 200 255
0.295565 0.081309 0.457537 0 200 255
0.314368 0.244786 0.417553 0 200 255
0.305853 0.088752 0.366270 0 200 255
0.267785 0.151375 0.308942 0 200 255
0.297285 0.050544 0.411538 0 200 255
0.292050 0.161434 0.328603 0 200 255
0.325119 0.179168 0.362100 0 200 255
0.292629 0.214981 0.387433 0 200 255
0.315686 0.108844 0.341917 0 200 255
0.297967 0.076004 0.394642 0 200 255
0.277779 0.097151 0.341507 0 200 255
0.318703 0.010330 0.439325 0 200 255
0.299164 0.210548 0.376082 0 200 255
0.307162 0.190239 0.384099 0 200 255
0.313791 0.220527 0.396545 0 200 255
0.306429 0.102267 0.418433 0 200 255
0.315313 0.106447 0.323834 0 200 255
0.303999 0.020211 0.456656 0 200 255
0.296009 0.244852 0.396761 0 200 255
0.317939 0.137902 0.387882 0 200 255
0.291836 0.113155 0.305545 0 200 255
0.318307 0.032071 0.415682 0 200 255
0.282754 0.072790 0.360559 0 200 255
0.315549 0.120183 0.359787 0 200 255
0.300912 0.055248 0.438992 0 200 255
0.300951 0.220204 0.381608 0 200 255
0.288598 0.067364 0.348823 0 200 255
0.293473 0.068649 0.426069 0 200 255
0.305928 0.160478 0.321531 0 200 255
0.318698 0.256298 0.419990 0 200 255
0.305478 0.087393 0.322570 0 200 255
0.317589 0.028404 0.444835 0 200 255
0.296880 0.040890 0.390652 0 200 255
0.297868 0.069113 0.376873 0 200 255
0.298324 0.206658 0.362000 0 200 255
0.307104 0.162194 0.367251 0 200 255
0.302267 0.171078 0.354528 0 200 255
0.311551 0.083692 0.426882 0 200 255
0.294332 0.089586 0.417115 0 200 255
0.317509 0.070076 0.405455 0 200 255
0.318906 0.044043 0.461410 0 200 255
0.290295 0.071185 0.399590 0 200 255
0.317787 0.053580 0.387568 0 200 255
0.273939 0.124531 0.359915 0 200 255
0.315519 0.269182 0.411616 0 200 255
0.319998 0.095869 0.361972 0 200 255
0.303548 0.236830 0.399541 0 200 255
0.301509 0.013664 0.434208 0 200 255
0.308857 0.044337 0.385423 0 200 255
0.272323 0.135786 0.346364 0 200 255
0.297601 0.102358 0.435487 0 200 255
0.298794 0.248612 0.415637 0 200 255
0.304052 0.147763 0.390559 0 200 255
0.298836 0.046439 0.442658 0 200 255
0.307309 0.065919 0.345591 0 200 255
0.308251 0.031934 0.413633 0 200 255
0.297188 0.206316 0.390155 0 200 255
0.329985 0.210646 0.388824 0 200 255
0.317529 0.041350 0.408239 0 200 255
0.313010 0.110196 0.356411 0 200 255
0.316114 0.234794 0.398462 0 200 255
0.314135 0.074794 0.455269 0 200 255
0.327887 0.199905 0.371098 0 200 255
0.322911 0.213968 0.361644 0 200 255
0.296081 0.069320 0.443397 0 200 255
0.290712 0.161279 0.368547 0 200 255
0.323160 0.194276 0.353817 0 200 255
0.314272 0.038041 0.449869 0 200 255
0.277527 0.145154 0.371202 0 200 255
0.310787 0.195735 0.361475 0 200 255
0.291724 0.050667 0.382302 0 200 255
0.311186 0.232315 0.408426 0 200 255
0.311228 0.226760 0.379977 0 200 255
0.294469 0.171990 0.359631 0 200 255
0.312253 0.112119 0.424934 0 200 255
0.291570 0.146605 0.342788 0 200 255
0.306102 0.060897 0.459001 0 200 255
0.318714 0.040776 0.398427 0 200 255
0.274369 0.136383 0.322426 0 200 255
0.288151 0.090139 0.388508 0 200 255
0.313834 0.059377 0.366113 0 200 255
0.292069 0.233506 0.394441 0 200 255
0.295575 0.107668 0.412685 0 200 255
0.305134 0.110040 0.408269 0 200 255
0.298101 0.031950 0.418371 0 200 255
0.317106 0.128272 0.326959 0 200 255
0.326410 0.225383 0.376351 0 200 255
0.308250 0.105810 0.307716 0 200 255
0.271090 0.153903 0.322526 0 200 255
0.302503 0.084374 0.425464 0 200 255
0.318263 0.017793 0.425080 0 200 255
0.304471 0.019098 0.420333 0 200 255
0.308095 0.155300 0.360840 0 200 255
0.312009 0.244735 0.386437 0 200 255
0.304788 0.087820 0.405570 0 200 255
0.277323 0.136824 0.381910 0 200 255
0.295428 0.125306 0.402894 0 200 255
0.303439 0.246631 0.391269 0 200 255
0.307798 0.039028 0.443531 0 200 255
0.311329 0.083715 0.438054 0 200 255
0.316351 0.142688 0.316548 0 200 255
0.306689 0.140137 0.320707 0 200 255
0.289473 0.082797 0.413198 0 200 255
0.318131 0.221610 0.376331 0 200 255
0.318091 0.141595 0.346939 0 200 255
0.297322 0.069319 0.387761 0 200 255
0.274508 0.112626 0.355194 0 200 255
0.309149 0.066945 0.422686 0 200 255
0.307674 0.134504 0.405930 0 200 255
0.301965 0.037050 0.456674 0 200 255
0.301432 0.094527 0.389577 0 200 255
0.292388 0.093982 0.445590 0 200 255
0.272721 0.124200 0.347264 0 200 255
0.304385 0.246474 0.404794 0 200 255
0.294215 0.072967 0.363715 0 200 255
0.282899 0.156216 0.365756 0 200 255
0.310860 0.103272 0.410551 0 200 255
0.291688 0.135474 0.310240 0 200 255
0.311860 0.144738 0.332229 0 200 255
0.298039 0.241202 0.410708 0 200 255
0.275103 0.146259 0.327102 0 200 255
0.319080 0.231641 0.379229 0 200 255
0.294140 0.189050 0.358882 0 200 255
0.298654 0.068032 0.479218 0 200 255
0.314440 0.039685 0.426199 0 200 255
0.280987 0.079947 0.374085 0 200 255
0.314949 0.056516 0.424694 0 200 255
0.312025 0.058273 0.450664 0 200 255
0.298584 0.056454 0.395585 0 200 255
0.306010 0.094660 0.397292 0 200 255
0.308250 0.258768 0.401247 0 200 255
0.278827 0.154176 0.355475 0 200 255
0.315025 0.020571 0.441703 0 200 255
0.282450 0.085659 0.333728 0 200 255
0.298795 0.076350 0.424883 0 200 255
0.328187 0.222736 0.389310 0 200 255
0.320519 0.240028 0.411934 0 200 255
0.269402 0.142708 0.308984 0 200 255
0.296958 0.078059 0.377982 0 200 255
0.299201 0.133278 0.294155 0 200 255
0.317097 0.148313 0.304723 0 200 255
0.302094 0.122693 0.308873 0 200 255
0.282132 0.107399 0.339478 0 200 255
0.316442 0.086896 0.444362 0 200 255
0.308690 0.062697 0.443697 0 200 255
0.302263 0.052256 0.448149 0 200 255
0.303288 0.235094 0.382785 0 200 255
0.300301 0.194529 0.364189 0 200 255
0.315212 0.024431 0.456100 0 200 255
0.303759 0.074795 0.464635 0 200 255
0.278524 0.124364 0.338629 0 200 255
0.285878 0.164327 0.346574 0 200 255
0.307620 0.086188 0.461610 0 200 255
0.303934 0.053212 0.467940 0 200 255
0.319401 0.116580 0.373365 0 200 255
0.302863 0.119085 0.388180 0 200 255
0.317860 0.098414 0.321976 0 200 255
0.317944 0.072632 0.422908 0 200 255
0.315058 0.123786 0.349480 0 200 255
0.313726 0.105699 0.372937 0 200 255
0.282367 0.142233 0.390138 0 200 255
0.303944 0.042897 0.415257 0 200 255
0.299144 0.054814 0.383423 0 200 255
0.305196 0.151385 0.320805 0 200 255
0.298843 0.080460 0.441919 0 200 255
0.303297 0.079364 0.404938 0 200 255
0.295862 0.168238 0.343203 0 200 255
0.318072 0.226802 0.400654 0 200 255
0.311067 0.084148 0.391711 0 200 255
0.307001 0.091437 0.426984 0 200 255
0.299605 0.060324 0.421670 0 200 255
0.279286 0.140017 0.349679 0 200 255
0.316696 0.084664 0.454629 0 200 255
0.304788 0.110766 0.399712 0 200 255
0.299600 0.065435 0.431708 0 200 255
0.278836 0.121179 0.387437 0 200 255
0.291917 0.100991 0.389757 0 200 255
0.317363 0.068111 0.463625 0 200 255
0.318947 0.201145 0.361393 0 200 255
0.301588 0.037308 0.434612 0 200 255
0.319226 0.255177 0.407867 0 200 255
0.313715 0.006314 0.444802 0 200 255
0.317354 0.112942 0.389816 0 200 255
0.317376 0.209055 0.357635 0 200 255
0.290903 0.062743 0.409615 0 200 255
0.288142 0.080764 0.380887 0 200 255
0.300402 0.028563 0.443848 0 200 255
0.294859 0.045941 0.404966 0 200 255
0.298857 0.051948 0.375455 0 200 255
0.303559 0.041455 0.478424 0 200 255
0.303486 0.061612 0.351656 0 200 255
0.298746 0.220167 0.373080 0 200 255
0.326782 0.238144 0.389618 0 200 255
0.319390 0.105185 0.348457 0 200 255
0.314679 0.161626 0.316800 0 200 255
0.305507 0.155317 0.352427 0 200 255
0.288132 0.131648 0.406142 0 200 255
0.319802 0.112767 0.381273 0 200 255
0.307803 0.104311 0.436541 0 200 255
0.311344 0.135092 0.305214 0 200 255
0.310436 0.065578 0.390405 0 200 255
0.314547 0.077177 0.345071 0 200 255
0.290789 0.199318 0.372998 0 200 255
0.290772 0.150199 0.329170 0 200 255
0.273455 0.121888 0.326389 0 200 255
0.303056 0.204291 0.395665 0 200 255
0.307985 0.065822 0.489346 0 200 255
0.284941 0.073969 0.342086 0 200 255
0.293349 0.065456 0.393911 0 200 255
0.297536 0.099500 0.403958 0 200 255
0.292985 0.116319 0.386995 0 200 255
0.305685 0.220001 0.398260 0 200 255
0.301617 0.163584 0.348954 0 200 255
0.317283 0.062749 0.435700 0 200 255
0.278205 0.157928 0.337496 0 200 255
0.305826 0.115488 0.420736 0 200 255
0.310240 0.172859 0.356222 0 200 255
0.313492 0.119385 0.409915 0 200 255
0.319586 0.129872 0.384099 0 200 255
0.292962 0.138012 0.401724 0 200 255
0.315987 0.088468 0.418100 0 200 255
0.311840 0.074673 0.369744 0 200 255
0.311959 0.068943 0.378613 0 200 255
0.311350 0.120253 0.388433 0 200 255
0.310687 0.248965 0.400152 0 200 255
0.314959 0.097144 0.344784 0 200 255
0.294294 0.225297 0.380389 0 200 255
0.295272 0.089208 0.382975 0 200 255
0.305406 0.155690 0.337375 0 200 255
0.319020 0.139890 0.363627 0 200 255
0.314214 0.133798 0.315146 0 200 255
0.312658 0.206158 0.388160 0 200 255
0.279785 0.152416 0.345949 0 200 255
0.315924 0.030312 0.462348 0 200 255
0.280774 0.129164 0.306670 0 200 255
0.298715 0.184613 0.353870 0 200 255
0.313086 0.051400 0.472029 0 200 255
0.299540 0.041033 0.424852 0 200 255
0.311181 0.234587 0.390718 0 200 255
0.301582 0.010506 0.441788 0 200 255
0.315893 0.074485 0.414160 0 200 255
0.278255 0.089494 0.364354 0 200 255
0.298781 0.179637 0.375967 0 200 255
0.311826 0.129283 0.400030 0 200 255
0.315106 0.066607 0.361680 0 200 255
0.290011 0.098740 0.422973 0 200 255
0.293120 0.102562 0.308041 0 200 255
0.319150 0.056798 0.457313 0 200 255
0.315558 0.048670 0.437135 0 200 255
0.306863 0.041381 0.452001 0 200 255
0.292520 0.151657 0.372215 0 200 255
0.297668 0.088344 0.442832 0 200 255
0.306488 0.221040 0.369724 0 200 255
0.301502 0.137426 0.310959 0 200 255
0.310307 0.262251 0.409789 0 200 255
0.279130 0.135291 0.296569 0 200 255
0.313687 0.074701 0.466287 0 200 255
0.316900 0.246250 0.395709 0 200 255
0.307662 0.095087 0.449494 0 200 255
0.309334 0.163272 0.340767 0 200 255
0.297125 0.113291 0.395775 0 200 255
0.315139 0.113719 0.332202 0 200 255
0.300846 0.123458 0.408452 0 200 255
0.314183 0.103747 0.421605 0 200 255
0.279591 0.145064 0.355846 0 200 255
0.297746 0.141932 0.393784 0 200 255
0.318659 0.129803 0.358336 0 200 255
0.309125 0.054514 0.479867 0 200 255
0.318540 0.116155 0.343424 0 200 255
0.316947 0.099647 0.436720 0 200 255
0.295860 0.129625 0.396131 0 200 255
0.323230 0.241278 0.396096 0 200 255
0.279422 0.106341 0.392675 0 200 255
0.306387 0.201763 0.356181 0 200 255
0.274097 0.151143 0.313640 0 200 255
0.298004 0.094675 0.433393 0 200 255
0.313503 0.072919 0.438024 0 200 255
0.284903 0.165198 0.320213 0 200 255
0.316599 0.027585 0.436192 0 200 255
0.313152 0.071588 0.477149 0 200 255
0.320738 0.218118 0.382998 0 200 255
0.293430 0.155940 0.338954 0 200 255
0.296021 0.197650 0.380192 0 200 255
0.296425 0.173393 0.349067 0 200 255
0.306762 0.071191 0.353753 0 200 255
0.294383 0.088271 0.454179 0 200 255
0.282193 0.094861 0.378234 0 200 255
0.328110 0.193473 0.365192 0 200 255
0.293818 0.034637 0.407359 0 200 255
0.317376 0.061745 0.472938 0 200 255
0.302412 0.064098 0.466223 0 200 255
0.290775 0.125399 0.412265 0 200 255
0.283347 0.100280 0.368533 0 200 255
0.309939 0.057575 0.374139 0 200 255
0.298754 0.064351 0.399375 0 200 255
0.313086 0.213580 0.390599 0 200 255
0.295075 0.219945 0.394381 0 200 255
0.296332 0.199414 0.359582 0 200 255
0.307536 0.071847 0.458040 0 200 255
0.281915 0.105367 0.327660 0 200 255
0.275005 0.130116 0.366255 0 200 255
0.312835 0.121543 0.400665 0 200 255
0.295690 0.147331 0.349271 0 200 255
0.275697 0.113531 0.347627 0 200 255
0.297799 0.091338 0.406048 0 200 255
0.295558 0.143591 0.336918 0 200 255
0.304636 0.188114 0.357350 0 200 255
0.292880 0.214547 0.371234 0 200 255
0.303888 0.128975 0.401687 0 200 255
0.319287 0.051156 0.464324 0 200 255
0.310901 0.052728 0.401342 0 200 255
0.304778 0.021541 0.435551 0 200 255
0.309216 0.031264 0.431976 0 200 255
0.298907 0.230046 0.399607 0 200 255
0.315087 0.189105 0.367306 0 200 255
0.303489 0.026640 0.422366 0 200 255
0.286847 0.150296 0.380849 0 200 255
0.299886 0.060318 0.362512 0 200 255
0.301650 0.095518 0.420976 0 200 255
0.305121 0.077564 0.376504 0 200 255
0.301436 0.066116 0.448475 0 200 255
0.304993 0.103917 0.377084 0 200 255
0.314939 0.255175 0.401319 0 200 255
0.314306 0.046136 0.421858 0 200 255
0.309276 0.035817 0.421915 0 200 255
0.320300 0.092070 0.346586 0 200 255
0.315911 0.047267 0.383390 0 200 255
0.307263 0.074739 0.449509 0 200 255
0.313826 0.136537 0.331065 0 200 255
0.303223 0.077738 0.474093 0 200 255
0.315308 0.076723 0.400407 0 200 255
0.317097 0.132744 0.338009 0 200 255
0.300219 0.107475 0.419171 0 200 255
0.303859 0.059925 0.479672 0 200 255
0.319528 0.101206 0.374700 0 200 255
0.316117 0.058945 0.401499 0 200 255
0.305541 0.247496 0.412169 0 200 255
0.307823 0.033130 0.460159 0 200 255
0.292988 0.181194 0.360215 0 200 255
0.281677 0.130090 0.379580 0 200 255
0.320278 0.088808 0.367824 0 200 255
0.295125 0.134914 0.300707 0 200 255
0.313334 0.108185 0.363944 0 200 255
0.289157 0.125691 0.394395 0 200 255
0.315659 0.059571 0.488138 0 200 255
0.312520 0.072360 0.385917 0 200 255
0.282592 0.129142 0.400309 0 200 255
0.313933 0.098350 0.365610 0 200 255
0.283896 0.067044 0.355893 0 200 255
0.307160 0.269076 0.419115 0 200 255
0.277139 0.117337 0.371539 0 200 255
0.305759 0.080069 0.431679 0 200 255
0.311263 0.025421 0.411563 0 200 255
0.308976 0.106191 0.393477 0 200 255
0.313852 0.155568 0.333007 0 200 255
0.291455 0.046139 0.397864 0 200 255
0.298755 0.060462 0.455614 0 200 255
0.318386 0.052917 0.396016 0 200 255
0.307660 0.058468 0.428180 0 200 255
0.304849 0.017236 0.449113 0 200 255
0.300862 0.032605 0.410941 0 200 255
0.313144 0.076153 0.377244 0 200 255
0.314421 0.085915 0.358088 0 200 255
0.299236 0.051003 0.389794 0 200 255
0.299629 0.154957 0.360947 0 200 255
0.312978 0.143674 0.324315 0 200 255
0.318862 0.087500 0.333484 0 200 255
0.277164 0.102751 0.336519 0 200 255
0.288471 0.142836 0.319560 0 200 255
0.296537 0.135428 0.318056 0 200 255
0.318625 0.066255 0.479409 0 200 255
0.309429 0.089291 0.455139 0 200 255
0.308836 0.152121 0.372527 0 200 255
0.276277 0.107853 0.369927 0 200 255
0.294665 0.064749 0.382023 0 200 255
0.293985 0.161368 0.345100 0 200 255
0.315481 0.112211 0.309675 0 200 255
0.321800 0.261747 0.404330 0 200 255
0.299268 0.204576 0.371777 0 200 255
0.301983 0.103550 0.409709 0 200 255
0.279691 0.127940 0.353365 0 200 255
0.310741 0.182643 0.375960 0 200 255
0.293963 0.077733 0.407978 0 200 255
0.315290 0.071634 0.340299 0 200 255
0.322713 0.188780 0.372077 0 200 255
0.314525 0.095330 0.380662 0 200 255
0.295313 0.231959 0.385215 0 200 255
0.299157 0.039036 0.449644 0 200 255
0.292677 0.099085 0.439819 0 200 255
0.282823 0.136026 0.394540 0 200 255
0.306639 0.168805 0.364141 0 200 255
0.318744 0.112717 0.360174 0 200 255
0.305179 0.059777 0.398048 0 200 255
0.304861 0.038220 0.464480 0 200 255
0.320543 0.249861 0.400907 0 200 255
0.317255 0.249121 0.388994 0 200 255
0.305155 0.094638 0.379916 0 200 255
0.304463 0.033997 0.449277 0 200 255
0.276666 0.115192 0.378860 0 200 255
0.316770 0.146011 0.381071 0 200 255
0.314284 0.045862 0.446009 0 200 255
0.312176 0.258552 0.422977 0 200 255
0.328321 0.218788 0.373951 0 200 255
0.298428 0.079658 0.418430 0 200 255
0.302174 0.074016 0.412396 0 200 255
0.303972 0.049017 0.419144 0 200 255
0.310233 0.146543 0.317029 0 200 255
0.317623 0.235776 0.384985 0 200 255
0.306283 0.028342 0.407216 0 200 255
0.291085 0.079446 0.393292 0 200 255
0.300233 0.265283 0.417673 0 200 255
0.302513 0.253270 0.406341 0 200 255
0.308382 0.091868 0.391079 0 200 255
0.315528 0.023181 0.429135 0 200 255
0.309757 0.179486 0.359018 0 200 255
0.271552 0.140583 0.329767 0 200 255
0.284670 0.076647 0.368372 0 200 255
0.324625 0.200700 0.356978 0 200 255
0.288899 0.086640 0.406132 0 200 255
0.317163 0.215626 0.372449 0 200 255
0.314620 0.034888 0.398993 0 200 255
0.317395 0.070461 0.432499 0 200 255
0.324970 0.214747 0.392397 0 200 255
0.311987 0.039203 0.392795 0 200 255
0.301628 0.187894 0.366612 0 200 255
0.299115 0.083150 0.449926 0 200 255
0.274651 0.115626 0.329784 0 200 255
0.298442 0.176043 0.368648 0 200 255
0.303972 0.048532 0.460883 0 200 255
0.304008 0.128760 0.412060 0 200 255
0.303289 0.066729 0.472995 0 200 255
0.314010 0.045971 0.476813 0 200 255
0.283463 0.085177 0.369438 0 200 255
0.315987 0.134373 0.402812 0 200 255
0.313010 0.198269 0.381137 0 200 255
0.282246 0.125609 0.312672 0 200 255
0.273286 0.160682 0.322585 0 200 255
0.278052 0.100938 0.350609 0 200 255
0.279797 0.090022 0.348988 0 200 255
0.308019 0.055952 0.441525 0 200 255
0.313411 0.229069 0.395211 0 200 255
0.307641 0.020600 0.442954 0 200 255
0.312232 0.009524 0.451059 0 200 255
0.292601 0.102925 0.396569 0 200 255
0.312555 0.087890 0.385117 0 200 255
0.313936 0.048435 0.458710 0 200 255
0.314768 0.114227 0.319967 0 200 255
0.297701 0.052634 0.453576 0 200 255
0.294454 0.056013 0.408008 0 200 255
0.310095 0.144086 0.306781 0 200 255
0.290470 0.102846 0.413714 0 200 255
0.301784 0.084283 0.388461 0 200 255
0.299178 0.074070 0.457026 0 200 255
0.298230 0.094280 0.450199 0 200 255
0.305418 0.239716 0.406665 0 200 255
0.299317 0.062291 0.440456 0 200 255
0.292790 0.054235 0.423773 0 200 255
0.315216 0.013801 0.433482 0 200 255
0.299036 0.071182 0.436240 0 200 255
0.307248 0.243896 0.418407 0 200 255
0.320948 0.253932 0.394004 0 200 255
0.309744 0.069676 0.443378 0 200 255
0.307163 0.128498 0.312420 0 200 255
0.300105 0.086828 0.460576 0 200 255
0.303396 0.071647 0.390474 0 200 255
0.310890 0.151794 0.347722 0 200 255
0.299788 0.093623 0.313469 0 200 255
0.316866 0.095616 0.444051 0 200 255
0.318515 0.144960 0.358784 0 200 255
0.305653 0.241177 0.387431 0 200 255
0.298456 0.093258 0.412775 0 200 255
0.315330 0.065024 0.449854 0 200 255
0.301994 0.048585 0.406711 0 200 255
0.298277 0.027514 0.426958 0 200 255
0.301810 0.145177 0.344259 0 200 255
0.314989 0.051594 0.410095 0 200 255
0.274050 0.129801 0.342789 0 200 255
0.282282 0.118070 0.408651 0 200 255
0.311335 0.080392 0.365760 0 200 255
0.317748 0.079010 0.426182 0 200 255
0.299057 0.035837 0.397008 0 200 255
0.291639 0.113427 0.404741 0 200 255
0.330308 0.211455 0.380558 0 200 255
0.292881 0.054721 0.371700 0 200 255
0.304242 0.041198 0.389598 0 200 255
0.296040 0.110064 0.387314 0 200 255
0.295779 0.082468 0.426991 0 200 255
0.315577 0.031784 0.422075 0 200 255
0.312493 0.139623 0.343317 0 200 255
0.297516 0.101007 0.428669 0 200 255
0.321306 0.203120 0.387799 0 200 255
0.305697 0.068785 0.433834 0 200 255
0.318858 0.246617 0.408112 0 200 255
0.292900 0.068126 0.358929 0 200 255
0.317798 0.076267 0.471646 0 200 255
0.294611 0.160035 0.357359 0 200 255
0.295450 0.255581 0.408437 0 200 255
0.291918 0.078219 0.328436 0 200 255
0.311886 0.098030 0.417968 0 200 255
0.303779 0.064283 0.426152 0 200 255
0.306611 0.078991 0.398730 0 200 255
0.302899 0.037216 0.419625 0 200 255
0.297449 0.087254 0.398695 0 200 255
0.311336 0.084052 0.403936 0 200 255
0.314494 0.056293 0.379951 0 200 255
0.304507 0.043748 0.470363 0 200 255
0.316392 0.194033 0.355999 0 200 255
0.314303 0.034538 0.443929 0 200 255
0.305715 0.068955 0.375691 0 200 255
0.317811 0.039644 0.466602 0 200 255
0.287546 0.117718 0.392432 0 200 255
0.325357 0.188369 0.357245 0 200 255
0.298820 0.086121 0.321336 0 200 255
0.281927 0.149561 0.376088 0 200 255
0.294644 0.068405 0.411020 0 200 255
0.319098 0.265498 0.416932 0 200 255
0.277263 0.096008 0.362374 0 200 255
0.284370 0.164950 0.329624 0 200 255
0.316048 0.251848 0.412979 0 200 255
0.293157 0.156526 0.377018 0 200 255
0.307434 0.206952 0.370181 0 200 255
0.317713 0.238468 0.392898 0 200 255
0.275108 0.110451 0.340927 0 200 255
0.280983 0.081444 0.348712 0 200 255
0.294734 0.186124 0.376796 0 200 255
0.275520 0.132779 0.309171 0 200 255
0.293307 0.045792 0.386836 0 200 255
0.316219 0.148859 0.320937 0 200 255
0.305476 0.231135 0.394698 0 200 255
0.311762 0.087826 0.432300 0 200 255
0.304457 0.043374 0.439478 0 200 255
0.314637 0.078866 0.351668 0 200 255
0.319930 0.093972 0.340058 0 200 255
0.316130 0.084091 0.410885 0 200 255
0.314802 0.029224 0.450993 0 200 255
0.311028 0.201735 0.364684 0 200 255
0.309741 0.052196 0.448615 0 200 255
0.323240 0.213675 0.368844 0 200 255
0.309715 0.096462 0.406259 0 200 255
0.319294 0.104594 0.359678 0 200 255
0.304716 0.049140 0.378463 0 200 255
0.309502 0.027391 0.464993 0 200 255
0.306374 0.132099 0.301711 0 200 255
0.311678 0.097424 0.312623 0 200 255
0.316942 0.035621 0.436449 0 200 255
0.297378 0.076959 0.401302 0 200 255
0.319991 0.033530 0.448519 0 200 255
0.303340 0.058338 0.489179 0 200 255
0.311389 0.159489 0.325535 0 200 255
0.308134 0.033204 0.402915 0 200 255
0.301423 0.177661 0.351584 0 200 255
0.314352 0.088474 0.459678 0 200 255
0.290166 0.058396 0.381819 0 200 255
0.319859 0.125222 0.389658 0 200 255
0.305658 0.056722 0.452302 0 200 255
0.307252 0.075260 0.332305 0 200 255
0.299485 0.104987 0.307509 0 200 255
0.300092 0.063372 0.385750 0 200 255
0.294674 0.167592 0.329201 0 200 255
0.292426 0.202627 0.364132 0 200 255
0.299590 0.056531 0.413527 0 200 255
0.286107 0.102854 0.392566 0 200 255
0.300004 0.053691 0.422609 0 200 255
0.311445 0.117738 0.417844 0 200 255
0.303804 0.044929 0.446899 0 200 255
0.299523 0.100524 0.375049 0 200 255
0.300276 0.038981 0.402815 0 200 255
0.311611 0.107804 0.404221 0 200 255
0.307860 0.250827 0.394016 0 200 255
0.304137 0.068970 0.484281 0 200 255
0.305988 0.005184 0.444037 0 200 255
0.291674 0.188495 0.365045 0 200 255
0.282757 0.079591 0.339260 0 200 255
0.308744 0.218523 0.391556 0 200 255
0.293505 0.123976 0.306948 0 200 255
0.315351 0.140058 0.309601 0 200 255
0.298223 0.058580 0.368856 0 200 255
0.279347 0.108012 0.382014 0 200 255
0.275655 0.143957 0.307170 0 200 255
0.301684 0.150029 0.350717 0 200 255
0.305019 0.261665 0.413730 0 200 255
0.309173 0.233913 0.402139 0 200 255
0.308461 0.081091 0.465749 0 200 255
0.311801 0.116149 0.396711 0 200 255
0.304218 0.033839 0.440212 0 200 255
0.302954 0.023553 0.449362 0 200 255
0.298643 0.093008 0.378629 0 200 255
0.299760 0.071633 0.343117 0 200 255
0.303869 0.049575 0.437333 0 200 255
0.303775 0.041355 0.429900 0 200 255
0.300269 0.227678 0.391579 0 200 255
0.307614 0.165919 0.350732 0 200 255
0.291128 0.100236 0.313864 0 200 255
0.286467 0.145885 0.386516 0 200 255
0.309991 0.150622 0.354123 0 200 255
0.301953 0.014316 0.427385 0 200 255
0.290303 0.206453 0.375941 0 200 255
0.278776 0.084387 0.359935 0 200 255
0.310508 0.026565 0.421728 0 200 255
0.290783 0.074368 0.427773 0 200 255
0.304777 0.182729 0.378652 0 200 255
0.297136 0.119083 0.415243 0 200 255
0.327289 0.198606 0.382241 0 200 255
0.315214 0.036995 0.457260 0 200 255
0.296197 0.252583 0.402376 0 200 255
0.308099 0.035020 0.473747 0 200 255
0.307272 0.221598 0.380701 0 200 255
0.319536 0.242993 0.401202 0 200 255
0.303348 0.056635 0.376146 0 200 255
0.314952 0.089720 0.322385 0 200 255
0.313028 0.061244 0.458820 0 200 255
0.277488 0.155739 0.321945 0 200 255
0.281873 0.115133 0.398017 0 200 255
0.302464 0.059346 0.434060 0 200 255
0.325022 0.199105 0.364085 0 200 255
0.282763 0.116690 0.380598 0 200 255
0.294696 0.156181 0.331397 0 200 255
0.293001 0.154153 0.349048 0 200 255
0.294116 0.083628 0.379775 0 200 255
0.317578 0.214669 0.395165 0 200 255
0.324199 0.224977 0.383881 0 200 255
0.300480 0.047393 0.426939 0 200 255
0.301527 0.191289 0.387279 0 200 255
0.295579 0.190269 0.381815 0 200 255
0.314242 0.099091 0.395984 0 200 255
0.297765 0.067439 0.469684 0 200 255
0.291744 0.067169 0.404963 0 200 255
0.325743 0.247300 0.398020 0 200 255
0.298486 0.069382 0.394162 0 200 255
0.296348 0.161676 0.365397 0 200 255
0.308712 0.229726 0.374340 0 200 255
0.298690 0.073751 0.383259 0 200 255
0.283701 0.092016 0.324454 0 200 255
0.307844 0.216943 0.364289 0 200 255
0.297906 0.082354 0.393482 0 200 255
0.288303 0.107305 0.398569 0 200 255
0.317993 0.070036 0.346514 0 200 255
0.316658 0.043556 0.431901 0 200 255
0.275241 0.119692 0.355869 0 200 255
0.316486 0.039824 0.474700 0 200 255
0.300234 0.043010 0.409407 0 200 255
