ply
format ascii 1.0
element vertex 1024
property float x
property float y
property float z
property uchar red
property uchar green
property uchar blue
end_header
0.290913 0.130971 0.295893 0 200 255
0.309878 0.057765 0.492547 0 200 255
0.314087 0.267290 0.421286 0 200 255
0.311228 0.050412 0.376998 0 200 255
0.328509 0.186328 0.368282 0 200 255
0.283634 0.124902 0.408039 0 200 255
0.307902 0.007187 0.437966 0 200 255
0.318419 0.116068 0.351338 0 200 255
0.316598 0.078208 0.433087 0 200 255
0.278744 0.159948 0.348795 0 200 255
0.294441 0.225689 0.388904 0 200 255
0.287610 0.075839 0.333297 0 200 255
0.282877 0.087393 0.380772 0 200 255
0.309362 0.168052 0.316367 0 200 255
0.273649 0.117198 0.338384 0 200 255
0.312861 0.147456 0.387035 0 200 255
0.299836 0.045331 0.453730 0 200 255
0.296255 0.039330 0.413069 0 200 255
0.291068 0.195742 0.363907 0 200 255
0.316514 0.106096 0.313979 0 200 255
0.312504 0.101483 0.401738 0 200 255
0.300162 0.082542 0.466458 0 200 255
0.324456 0.247697 0.391623 0 200 255
0.273150 0.159145 0.312508 0 200 255
0.319913 0.074456 0.350793 0 200 255
0.280277 0.134335 0.373535 0 200 255
0.316985 0.151693 0.352133 0 200 255
0.323429 0.220903 0.368806 0 200 255
0.289423 0.099724 0.431430 0 200 255
0.298535 0.071276 0.405496 0 200 255
0.315857 0.136860 0.323762 0 200 255
0.286905 0.061539 0.360716 0 200 255
0.285612 0.104211 0.310403 0 200 255
0.309406 0.198858 0.389601 0 200 255
0.307211 0.237695 0.415008 0 200 255
0.316923 0.093481 0.373526 0 200 255
0.317953 0.049399 0.429485 0 200 255
0.311540 0.020793 0.463052 0 200 255
0.299715 0.169065 0.367155 0 200 255
0.292085 0.065075 0.435600 0 200 255
0.324325 0.220354 0.396844 0 200 255
0.315730 0.106062 0.431151 0 200 255
0.320015 0.120900 0.384482 0 200 255
0.277430 0.094256 0.355292 0 200 255
0.318358 0.049187 0.402483 0 200 255
0.311979 0.081264 0.326513 0 200 255
0.318645 0.044961 0.471460 0 200 255
0.313385 0.143321 0.298561 0 200 255
0.294823 0.116892 0.361491 0 200 255
0.314896 0.022754 0.417807 0 200 255
0.298652 0.152041 0.334599 0 200 255
0.275587 0.129391 0.316387 0 200 255
0.313853 0.200508 0.353961 0 200 255
0.308716 0.125597 0.406630 0 200 255
0.290994 0.050883 0.391672 0 200 255
0.279504 0.112078 0.387237 0 200 255
0.305800 0.073187 0.382678 0 200 255
0.301736 0.253025 0.397547 0 200 255
0.290621 0.093606 0.407726 0 200 255
0.318944 0.069351 0.472325 0 200 255
0.290189 0.144301 0.393084 0 200 255
0.315046 0.092704 0.451385 0 200 255
0.299823 0.081954 0.361844 0 200 255
0.271624 0.140816 0.337761 0 200 255
0.308663 0.066412 0.451565 0 200 255
0.309560 0.030018 0.439525 0 200 255
0.301295 0.215979 0.366291 0 200 255
0.295679 0.142042 0.314810 0 200 255
0.287356 0.169955 0.325956 0 200 255
0.306159 0.169747 0.345561 0 200 255
0.330025 0.204548 0.381583 0 200 255
0.299059 0.061002 0.473579 0 200 255
0.299234 0.101222 0.383230 0 200 255
0.290905 0.085059 0.446821 0 200 255
0.316694 0.065889 0.415917 0 200 255
0.279244 0.097848 0.329522 0 200 255
0.319642 0.102717 0.335033 0 200 255
0.315087 0.131109 0.365301 0 200 255
0.286314 0.155627 0.375414 0 200 255
0.297384 0.115300 0.420561 0 200 255
0.272128 0.141552 0.300216 0 200 255
0.307697 0.089437 0.418605 0 200 255
0.310903 0.125196 0.307414 0 200 255
0.291943 0.206143 0.382273 0 200 255
0.311550 0.236635 0.380592 0 200 255
0.297715 0.045902 0.432601 0 200 255
0.274882 0.115405 0.363747 0 200 255
0.306942 0.062145 0.360300 0 200 255
0.298048 0.184320 0.382499 0 200 255
0.295488 0.122878 0.391357 0 200 255
0.322788 0.249704 0.414030 0 200 255
0.297452 0.258849 0.415945 0 200 255
0.297377 0.153966 0.353849 0 200 255
0.290763 0.079540 0.423133 0 200 255
0.292624 0.057684 0.417579 0 200 255
0.318483 0.049082 0.452466 0 200 255
0.308546 0.185789 0.365115 0 200 255
0.301468 0.036828 0.471034 0 200 255
0.306199 0.036594 0.396158 0 200 255
0.299121 0.020228 0.427692 0 200 255
0.275084 0.133146 0.355772 0 200 255
0.303947 0.086098 0.395940 0 200 255
0.294435 0.089218 0.316520 0 200 255
0.316824 0.066757 0.395958 0 200 255
0.297547 0.065628 0.344665 0 200 255
0.292138 0.178467 0.353252 0 200 255
0.314454 0.133333 0.347175 0 200 255
0.314809 0.264260 0.403373 0 200 255
0.293489 0.237394 0.402741 0 200 255
0.318173 0.118872 0.326908 0 200 255
0.315588 0.154779 0.369928 0 200 255
0.289166 0.073242 0.390130 0 200 255
0.277793 0.129534 0.391348 0 200 255
0.297566 0.210425 0.398752 0 200 255
0.294895 0.059231 0.376608 0 200 255
0.277308 0.155323 0.329141 0 200 255
0.307913 0.227752 0.400078 0 200 255
0.281259 0.073831 0.349493 0 200 255
0.312282 0.218199 0.384409 0 200 255
0.297256 0.109507 0.403406 0 200 255
0.313510 0.099558 0.353045 0 200 255
0.322676 0.184652 0.352086 0 200 255
0.301020 0.111442 0.308623 0 200 255
0.277006 0.148627 0.362462 0 200 255
0.279600 0.080780 0.365330 0 200 255
0.323725 0.235491 0.404243 0 200 255
0.277487 0.101513 0.373484 0 200 255
0.308651 0.062502 0.434932 0 200 255
0.312878 0.040247 0.416382 0 200 255
0.320420 0.018574 0.433955 0 200 255
0.313072 0.114709 0.367765 0 200 255
0.326920 0.205567 0.363057 0 200 255
0.276058 0.114006 0.322425 0 200 255
0.299873 0.098679 0.444041 0 200 255
0.312481 0.152849 0.325018 0 200 255
0.281071 0.097026 0.394905 0 200 255
0.326478 0.231053 0.384178 0 200 255
0.302068 0.055469 0.403934 0 200 255
0.312165 0.110959 0.414939 0 200 255
0.300416 0.029075 0.452798 0 200 255
0.301892 0.085425 0.435161 0 200 255
0.319430 0.032384 0.455322 0 200 255
0.270025 0.144423 0.319973 0 200 255
0.317277 0.156639 0.308449 0 200 255
0.287398 0.121809 0.308432 0 200 255
0.308269 0.113436 0.391815 0 200 255
0.318136 0.132033 0.395818 0 200 255
0.305935 0.073670 0.479879 0 200 255
0.315199 0.081557 0.462369 0 200 255
0.297191 0.140165 0.346573 0 200 255
0.316401 0.014935 0.448527 0 200 255
0.312319 0.078060 0.407221 0 200 255
0.281915 0.110411 0.403920 0 200 255
0.304469 0.201419 0.367411 0 200 255
0.313147 0.096204 0.387807 0 200 255
0.301009 0.135669 0.398572 0 200 255
0.319112 0.083091 0.363089 0 200 255
0.279169 0.086803 0.342658 0 200 255
0.306754 0.055632 0.421347 0 200 255
0.310520 0.241497 0.394873 0 200 255
0.314550 0.057422 0.463865 0 200 255
0.312926 0.092148 0.316661 0 200 255
0.301651 0.025309 0.412142 0 200 255
0.308946 0.252108 0.421943 0 200 255
0.297228 0.068851 0.461400 0 200 255
0.313795 0.089304 0.342658 0 200 255
0.310914 0.165052 0.358764 0 200 255
0.315137 0.066977 0.371285 0 200 255
0.296617 0.100841 0.418871 0 200 255
0.288647 0.162232 0.338146 0 200 255
0.314153 0.191537 0.377137 0 200 255
0.317555 0.043016 0.389436 0 200 255
0.300740 0.019082 0.442097 0 200 255
0.285621 0.163205 0.360848 0 200 255
0.316688 0.057476 0.479844 0 200 255
0.312833 0.079089 0.446757 0 200 255
0.298073 0.239359 0.388535 0 200 255
0.303773 0.034468 0.426952 0 200 255
0.319950 0.039409 0.441167 0 200 255
0.302730 0.227315 0.374787 0 200 255
0.294969 0.182287 0.368153 0 200 255
0.308168 0.048114 0.442745 0 200 255
0.308643 0.075612 0.338871 0 200 255
0.300866 0.068797 0.419652 0 200 255
0.302591 0.063678 0.392425 0 200 255
0.319188 0.135353 0.377955 0 200 255
0.312721 0.151125 0.338885 0 200 255
0.289368 0.076046 0.374032 0 200 255
0.273386 0.129197 0.330315 0 200 255
0.280491 0.120664 0.349978 0 200 255
0.314364 0.031186 0.405898 0 200 255
0.275831 0.105870 0.345960 0 200 255
0.308628 0.146187 0.361688 0 200 255
0.309193 0.139383 0.312007 0 200 255
0.301981 0.090364 0.454753 0 200 255
0.319601 0.208575 0.391896 0 200 255
0.279892 0.145589 0.381913 0 200 255
0.317266 0.091370 0.436208 0 200 255
0.310043 0.252563 0.408137 0 200 255
0.303921 0.087950 0.382545 0 200 255
0.297326 0.059929 0.446821 0 200 255
0.296985 0.152029 0.384491 0 200 255
0.299837 0.045970 0.382881 0 200 255
0.306101 0.048711 0.475105 0 200 255
0.287259 0.149850 0.321641 0 200 255
0.328466 0.218097 0.381619 0 200 255
0.293702 0.039318 0.399823 0 200 255
0.273921 0.146602 0.349700 0 200 255
0.298620 0.079063 0.326606 0 200 255
0.317466 0.080482 0.419345 0 200 255
0.315365 0.209005 0.368433 0 200 255
0.306794 0.181568 0.352757 0 200 255
0.284481 0.085646 0.325139 0 200 255
0.314325 0.061851 0.384036 0 200 255
0.301903 0.195200 0.355134 0 200 255
0.299326 0.129508 0.313654 0 200 255
0.293928 0.094279 0.394486 0 200 255
0.310145 0.040276 0.459817 0 200 255
0.299315 0.075574 0.449641 0 200 255
0.296937 0.130912 0.409932 0 200 255
0.302575 0.100000 0.314528 0 200 255
0.298700 0.156263 0.368728 0 200 255
0.300067 0.064070 0.487042 0 200 255
0.325017 0.255651 0.401736 0 200 255
0.298359 0.055638 0.461259 0 200 255
0.280624 0.131918 0.343830 0 200 255
0.277858 0.123151 0.379243 0 200 255
0.303742 0.072874 0.370074 0 200 255
0.298592 0.036677 0.442710 0 200 255
0.297980 0.083486 0.410164 0 200 255
0.305191 0.268053 0.411863 0 200 255
0.297024 0.195923 0.387826 0 200 255
0.301902 0.167821 0.326631 0 200 255
0.291375 0.218037 0.377955 0 200 255
0.291179 0.207525 0.368548 0 200 255
0.316477 0.030700 0.428965 0 200 255
0.303413 0.096265 0.408792 0 200 255
0.288597 0.132548 0.397382 0 200 255
0.305131 0.097727 0.372670 0 200 255
0.303647 0.109145 0.429527 0 200 255
0.290618 0.109740 0.392782 0 200 255
0.313893 0.254093 0.393566 0 200 255
0.291666 0.061789 0.401252 0 200 255
0.311349 0.037898 0.478659 0 200 255
0.294187 0.165778 0.351831 0 200 255
0.294158 0.248866 0.407342 0 200 255
0.317304 0.067950 0.442854 0 200 255
0.307189 0.126483 0.393119 0 200 255
0.316225 0.092625 0.328793 0 200 255
0.305246 0.009834 0.449733 0 200 255
0.311204 0.082298 0.372740 0 200 255
0.299354 0.071003 0.356266 0 200 255
0.312019 0.109830 0.380787 0 200 255
0.293584 0.094433 0.374635 0 200 255
0.319250 0.104329 0.366457 0 200 255
0.315105 0.068001 0.485669 0 200 255
0.282593 0.136484 0.303675 0 200 255
0.296902 0.222854 0.401318 0 200 255
0.317517 0.051573 0.417630 0 200 255
0.305558 0.073435 0.438977 0 200 255
0.320134 0.192871 0.362608 0 200 255
0.310058 0.013667 0.428042 0 200 255
0.316090 0.096403 0.424002 0 200 255
0.309095 0.068000 0.465358 0 200 255
0.311666 0.100130 0.442602 0 200 255
0.322750 0.261544 0.412382 0 200 255
0.313605 0.114162 0.403527 0 200 255
0.309341 0.211570 0.397500 0 200 255
0.317869 0.123204 0.337966 0 200 255
0.306797 0.177144 0.373067 0 200 255
0.282476 0.113131 0.374972 0 200 255
0.314441 0.228121 0.371248 0 200 255
0.317160 0.140303 0.337881 0 200 255
0.327846 0.193588 0.378072 0 200 255
0.295340 0.192504 0.374317 0 200 255
0.307172 0.145890 0.348684 0 200 255
0.296029 0.091504 0.426452 0 200 255
0.316869 0.117836 0.314210 0 200 255
0.314881 0.081309 0.383744 0 200 255
0.305890 0.227603 0.388141 0 200 255
0.309331 0.161500 0.332940 0 200 255
0.314145 0.241912 0.406152 0 200 255
0.294986 0.076159 0.433249 0 200 255
0.316893 0.065142 0.427433 0 200 255
0.306257 0.111306 0.318790 0 200 255
0.292988 0.118481 0.409471 0 200 255
0.305080 0.142491 0.337975 0 200 255
0.303953 0.055337 0.369708 0 200 255
0.314916 0.064240 0.350961 0 200 255
0.288173 0.108327 0.418837 0 200 255
0.296639 0.047904 0.421492 0 200 255
0.292086 0.083323 0.400578 0 200 255
0.300422 0.161680 0.340229 0 200 255
0.308428 0.209827 0.359632 0 200 255
0.299046 0.145834 0.325252 0 200 255
0.294938 0.082561 0.387731 0 200 255
0.301906 0.217094 0.390841 0 200 255
0.298758 0.056608 0.429437 0 200 255
0.302954 0.028552 0.463668 0 200 255
0.299431 0.128192 0.302611 0 200 255
0.317394 0.226617 0.389569 0 200 255
0.277423 0.167162 0.321822 0 200 255
0.309911 0.075224 0.393944 0 200 255
0.285396 0.096167 0.318039 0 200 255
0.277780 0.103003 0.362508 0 200 255
0.291643 0.089984 0.436936 0 200 255
0.302801 0.053454 0.484535 0 200 255
0.307050 0.045146 0.424730 0 200 255
0.301984 0.119097 0.400754 0 200 255
0.303910 0.138605 0.301599 0 200 255
0.315722 0.056436 0.440785 0 200 255
0.307360 0.050006 0.411878 0 200 255
0.298239 0.073155 0.336345 0 200 255
0.308313 0.052187 0.456499 0 200 255
0.279201 0.099991 0.384201 0 200 255
0.279076 0.120957 0.398899 0 200 255
0.309688 0.023539 0.449127 0 200 255
0.308185 0.214538 0.374631 0 200 255
0.311340 0.039784 0.434519 0 200 255
0.310903 0.159504 0.347621 0 200 255
0.318372 0.080126 0.337079 0 200 255
0.301500 0.102922 0.395892 0 200 255
0.310366 0.079660 0.471902 0 200 255
0.297324 0.073555 0.471835 0 200 255
0.305774 0.039528 0.406588 0 200 255
0.280696 0.113980 0.311730 0 200 255
0.327634 0.211018 0.373282 0 200 255
0.319165 0.197334 0.384602 0 200 255
0.294823 0.064921 0.367588 0 200 255
0.320550 0.087874 0.353665 0 200 255
0.313530 0.074413 0.360423 0 200 255
0.312312 0.057151 0.395190 0 200 255
0.314433 0.138614 0.357013 0 200 255
0.314135 0.091474 0.398625 0 200 255
0.299655 0.045951 0.465956 0 200 255
0.318124 0.182753 0.372746 0 200 255
0.300779 0.260451 0.406018 0 200 255
0.273546 0.151833 0.340554 0 200 255
0.302654 0.177601 0.361712 0 200 255
0.312334 0.174068 0.364652 0 200 255
0.304749 0.118222 0.413003 0 200 255
0.312823 0.089877 0.409459 0 200 255
0.293458 0.074217 0.414503 0 200 255
0.321793 0.241526 0.383579 0 200 255
0.314765 0.124433 0.376150 0 200 255
0.296840 0.084487 0.371546 0 200 255
0.279011 0.124077 0.368891 0 200 255
0.325416 0.231554 0.394565 0 200 255
0.317206 0.119934 0.394502 0 200 255
0.300910 0.162098 0.359356 0 200 255
0.277520 0.109604 0.332385 0 200 255
0.292905 0.109003 0.428202 0 200 255
0.289677 0.118652 0.398906 0 200 255
0.300429 0.031167 0.403404 0 200 255
0.300632 0.232300 0.408349 0 200 255
0.282993 0.082368 0.355185 0 200 255
0.306643 0.080516 0.455129 0 200 255
0.311502 0.140035 0.396156 0 200 255
0.308344 0.051809 0.432638 0 200 255
0.280481 0.138846 0.362875 0 200 255
0.313520 0.145231 0.373442 0 200 255
0.300488 0.027854 0.434584 0 200 255
0.325711 0.245657 0.404716 0 200 255
0.304719 0.062515 0.380261 0 200 255
0.293261 0.060087 0.387547 0 200 255
0.310820 0.154824 0.379097 0 200 255
0.309193 0.058606 0.472851 0 200 255
0.285055 0.067979 0.369298 0 200 255
0.294867 0.060605 0.353249 0 200 255
0.276293 0.139106 0.313070 0 200 255
0.318384 0.057505 0.408529 0 200 255
0.304666 0.085273 0.445896 0 200 255
0.313799 0.218844 0.365884 0 200 255
0.296664 0.168960 0.317873 0 200 255
0.305426 0.261865 0.422257 0 200 255
0.299632 0.047802 0.397577 0 200 255
0.281125 0.105527 0.319692 0 200 255
0.308586 0.024380 0.427581 0 200 255
0.278609 0.091470 0.372177 0 200 255
0.312124 0.035582 0.468614 0 200 255
0.299167 0.062862 0.411161 0 200 255
0.313252 0.190918 0.350683 0 200 255
0.307768 0.069394 0.412263 0 200 255
0.295564 0.081311 0.457525 0 200 255
0.314366 0.244788 0.417540 0 200 255
0.305850 0.088754 0.366258 0 200 255
0.267780 0.151377 0.308930 0 200 255
0.297283 0.050546 0.411525 0 200 255
0.292046 0.161436 0.328591 0 200 255
0.325116 0.179170 0.362087 0 200 255
0.292626 0.214983 0.387421 0 200 255
0.315682 0.108846 0.341904 0 200 255
0.297964 0.076006 0.394629 0 200 255
0.277775 0.097153 0.341495 0 200 255
0.318702 0.010332 0.439312 0 200 255
0.299161 0.210550 0.376069 0 200 255
0.307159 0.190241 0.384086 0 200 255
0.313789 0.220529 0.396532 0 200 255
0.306428 0.102269 0.418420 0 200 255
0.315309 0.106449 0.323821 0 200 255
0.303998 0.020213 0.456644 0 200 255
0.296007 0.244854 0.396749 0 200 255
0.317936 0.137904 0.387869 0 200 255
0.291832 0.113157 0.305533 0 200 255
0.318305 0.032073 0.415669 0 200 255
0.282751 0.072792 0.360547 0 200 255
0.315546 0.120185 0.359774 0 200 255
0.300910 0.055250 0.438979 0 200 255
0.300948 0.220206 0.381595 0 200 255
0.288594 0.067366 0.348811 0 200 255
0.293471 0.068651 0.426057 0 200 255
0.305924 0.160480 0.321518 0 200 255
0.318696 0.256300 0.419977 0 200 255
0.305474 0.087395 0.322557 0 200 255
0.317588 0.028406 0.444822 0 200 255
0.296877 0.040892 0.390639 0 200 255
0.297865 0.069115 0.376860 0 200 255
0.298321 0.206660 0.361988 0 200 255
0.307101 0.162196 0.367238 0 200 255
0.302263 0.171080 0.354515 0 200 255
0.311549 0.083694 0.426870 0 200 255
0.294329 0.089588 0.417103 0 200 255
0.317506 0.070078 0.405442 0 200 255
0.318905 0.044045 0.461397 0 200 255
0.290293 0.071187 0.399577 0 200 255
0.317784 0.053582 0.387555 0 200 255
0.273935 0.124533 0.359903 0 200 255
0.315516 0.269184 0.411603 0 200 255
0.319994 0.095871 0.361959 0 200 255
0.303545 0.236832 0.399528 0 200 255
0.301508 0.013666 0.434195 0 200 255
0.308854 0.044339 0.385411 0 200 255
0.272319 0.135788 0.346352 0 200 255
0.297600 0.102360 0.435475 0 200 255
0.298792 0.248614 0.415625 0 200 255
0.304049 0.147765 0.390546 0 200 255
0.298835 0.046441 0.442646 0 200 255
0.307306 0.065921 0.345578 0 200 255
0.308249 0.031936 0.413620 0 200 255
0.297185 0.206318 0.390143 0 200 255
0.329982 0.210648 0.388811 0 200 255
0.317527 0.041352 0.408226 0 200 255
0.313006 0.110198 0.356398 0 200 255
0.316112 0.234796 0.398449 0 200 255
0.314134 0.074796 0.455257 0 200 255
0.327884 0.199907 0.371085 0 200 255
0.322908 0.213970 0.361631 0 200 255
0.296079 0.069322 0.443385 0 200 255
0.290709 0.161281 0.368535 0 200 255
0.323157 0.194278 0.353804 0 200 255
0.314271 0.038043 0.449856 0 200 255
0.277524 0.145156 0.371190 0 200 255
0.310783 0.195737 0.361462 0 200 255
0.291721 0.050669 0.382289 0 200 255
0.311183 0.232317 0.408413 0 200 255
0.311226 0.226762 0.379964 0 200 255
0.294465 0.171992 0.359619 0 200 255
0.312251 0.112121 0.424921 0 200 255
0.291566 0.146607 0.342776 0 200 255
0.306101 0.060899 0.458988 0 200 255
0.318712 0.040778 0.398414 0 200 255
0.274365 0.136385 0.322414 0 200 255
0.288148 0.090141 0.388496 0 200 255
0.313830 0.059379 0.366100 0 200 255
0.292067 0.233508 0.394429 0 200 255
0.295573 0.107670 0.412672 0 200 255
0.305132 0.110042 0.408257 0 200 255
0.298099 0.031952 0.418358 0 200 255
0.317102 0.128274 0.326946 0 200 255
0.326407 0.225385 0.376338 0 200 255
0.308245 0.105812 0.307703 0 200 255
0.271086 0.153905 0.322514 0 200 255
0.302501 0.084376 0.425452 0 200 255
0.318261 0.017795 0.425067 0 200 255
0.304469 0.019100 0.420320 0 200 255
0.308092 0.155302 0.360827 0 200 255
0.312006 0.244737 0.386424 0 200 255
0.304786 0.087822 0.405557 0 200 255
0.277320 0.136826 0.381898 0 200 255
0.295426 0.125308 0.402882 0 200 255
0.303437 0.246633 0.391257 0 200 255
0.307797 0.039030 0.443518 0 200 255
0.311327 0.083717 0.438041 0 200 255
0.316346 0.142690 0.316535 0 200 255
0.306684 0.140139 0.320695 0 200 255
0.289471 0.082799 0.413186 0 200 255
0.318128 0.221612 0.376318 0 200 255
0.318087 0.141597 0.346927 0 200 255
0.297319 0.069321 0.387748 0 200 255
0.274504 0.112628 0.355183 0 200 255
0.309147 0.066947 0.422673 0 200 255
0.307672 0.134506 0.405917 0 200 255
0.301964 0.037052 0.456662 0 200 255
0.301429 0.094529 0.389564 0 200 255
0.292387 0.093984 0.445578 0 200 255
0.272718 0.124202 0.347252 0 200 255
0.304383 0.246476 0.404781 0 200 255
0.294211 0.072969 0.363703 0 200 255
0.282896 0.156218 0.365744 0 200 255
0.310858 0.103274 0.410538 0 200 255
0.291683 0.135476 0.310228 0 200 255
0.311855 0.144740 0.332216 0 200 255
0.298037 0.241204 0.410696 0 200 255
0.275099 0.146261 0.327090 0 200 255
0.319077 0.231643 0.379216 0 200 255
0.294137 0.189052 0.358870 0 200 255
0.298653 0.068034 0.479206 0 200 255
0.314439 0.039687 0.426186 0 200 255
0.280984 0.079949 0.374073 0 200 255
0.314947 0.056518 0.424681 0 200 255
0.312024 0.058275 0.450651 0 200 255
0.298582 0.056456 0.395572 0 200 255
0.306008 0.094662 0.397279 0 200 255
0.308248 0.258770 0.401234 0 200 255
0.278823 0.154178 0.355463 0 200 255
0.315024 0.020573 0.441690 0 200 255
0.282446 0.085661 0.333716 0 200 255
0.298793 0.076352 0.424870 0 200 255
0.328184 0.222738 0.389297 0 200 255
0.320517 0.240030 0.411922 0 200 255
0.269397 0.142710 0.308973 0 200 255
0.296955 0.078061 0.377969 0 200 255
0.299196 0.133280 0.294143 0 200 255
0.317092 0.148315 0.304710 0 200 255
0.302089 0.122695 0.308861 0 200 255
0.282129 0.107401 0.339466 0 200 255
0.316441 0.086898 0.444349 0 200 255
0.308689 0.062699 0.443685 0 200 255
0.302262 0.052258 0.448137 0 200 255
0.303285 0.235096 0.382773 0 200 255
0.300298 0.194531 0.364176 0 200 255
0.315211 0.024433 0.456087 0 200 255
0.303759 0.074797 0.464623 0 200 255
0.278520 0.124366 0.338617 0 200 255
0.285874 0.164329 0.346561 0 200 255
0.307619 0.086190 0.461597 0 200 255
0.303933 0.053214 0.467928 0 200 255
0.319398 0.116582 0.373352 0 200 255
0.302860 0.119087 0.388167 0 200 255
0.317856 0.098416 0.321963 0 200 255
0.317942 0.072634 0.422895 0 200 255
0.315054 0.123788 0.349468 0 200 255
0.313723 0.105701 0.372924 0 200 255
0.282365 0.142235 0.390126 0 200 255
0.303942 0.042899 0.415244 0 200 255
0.299141 0.054816 0.383410 0 200 255
0.305192 0.151387 0.320793 0 200 255
0.298842 0.080462 0.441907 0 200 255
0.303295 0.079366 0.404926 0 200 255
0.295859 0.168240 0.343190 0 200 255
0.318070 0.226804 0.400641 0 200 255
0.311064 0.084150 0.391699 0 200 255
0.306999 0.091439 0.426971 0 200 255
0.299604 0.060326 0.421658 0 200 255
0.279283 0.140019 0.349667 0 200 255
0.316695 0.084666 0.454616 0 200 255
0.304785 0.110768 0.399700 0 200 255
0.299598 0.065437 0.431695 0 200 255
0.278834 0.121181 0.387425 0 200 255
0.291915 0.100993 0.389745 0 200 255
0.317362 0.068113 0.463612 0 200 255
0.318944 0.201147 0.361380 0 200 255
0.301587 0.037310 0.434600 0 200 255
0.319224 0.255179 0.407854 0 200 255
0.313714 0.006316 0.444789 0 200 255
0.317352 0.112944 0.389804 0 200 255
0.317373 0.209057 0.357622 0 200 255
0.290901 0.062745 0.409602 0 200 255
0.288139 0.080766 0.380874 0 200 255
0.300401 0.028565 0.443835 0 200 255
0.294856 0.045943 0.404954 0 200 255
0.298854 0.051950 0.375442 0 200 255
0.303559 0.041457 0.478412 0 200 255
0.303482 0.061614 0.351644 0 200 255
0.298743 0.220169 0.373068 0 200 255
0.326779 0.238146 0.389605 0 200 255
0.319386 0.105187 0.348444 0 200 255
0.314675 0.161628 0.316787 0 200 255
0.305504 0.155318 0.352414 0 200 255
0.288130 0.131650 0.406130 0 200 255
0.319799 0.112769 0.381260 0 200 255
0.307801 0.104313 0.436528 0 200 255
0.311339 0.135094 0.305201 0 200 255
0.310434 0.065580 0.390392 0 200 255
0.314544 0.077179 0.345058 0 200 255
0.290786 0.199320 0.372985 0 200 255
0.290768 0.150201 0.329158 0 200 255
0.273451 0.121890 0.326377 0 200 255
0.303053 0.204293 0.395652 0 200 255
0.307985 0.065824 0.489333 0 200 255
0.284937 0.073971 0.342074 0 200 255
0.293346 0.065458 0.393899 0 200 255
0.297534 0.099502 0.403946 0 200 255
0.292982 0.116321 0.386983 0 200 255
0.305683 0.220003 0.398247 0 200 255
0.301613 0.163586 0.348941 0 200 255
0.317281 0.062751 0.435687 0 200 255
0.278201 0.157930 0.337484 0 200 255
0.305824 0.115490 0.420724 0 200 255
0.310236 0.172861 0.356210 0 200 255
0.313490 0.119387 0.409902 0 200 255
0.319584 0.129874 0.384086 0 200 255
0.292960 0.138014 0.401711 0 200 255
0.315985 0.088470 0.418087 0 200 255
0.311837 0.074675 0.369731 0 200 255
0.311956 0.068945 0.378600 0 200 255
0.311347 0.120255 0.388421 0 200 255
0.310684 0.248967 0.400139 0 200 255
0.314955 0.097146 0.344771 0 200 255
0.294291 0.225299 0.380377 0 200 255
0.295269 0.089210 0.382963 0 200 255
0.305402 0.155692 0.337362 0 200 255
0.319017 0.139892 0.363614 0 200 255
0.314209 0.133800 0.315133 0 200 255
0.312655 0.206160 0.388147 0 200 255
0.279781 0.152418 0.345937 0 200 255
0.315923 0.030314 0.462335 0 200 255
0.280770 0.129166 0.306658 0 200 255
0.298712 0.184615 0.353858 0 200 255
0.313085 0.051402 0.472016 0 200 255
0.299538 0.041035 0.424839 0 200 255
0.311179 0.234589 0.390705 0 200 255
0.301581 0.010508 0.441775 0 200 255
0.315891 0.074487 0.414147 0 200 255
0.278252 0.089496 0.364342 0 200 255
0.298778 0.179639 0.375955 0 200 255
0.311824 0.129285 0.400018 0 200 255
0.315102 0.066609 0.361667 0 200 255
0.290009 0.098742 0.422961 0 200 255
0.293116 0.102564 0.308028 0 200 255
0.319149 0.056800 0.457300 0 200 255
0.315556 0.048672 0.437122 0 200 255
0.306862 0.041383 0.451988 0 200 255
0.292517 0.151659 0.372203 0 200 255
0.297666 0.088346 0.442819 0 200 255
0.306485 0.221042 0.369711 0 200 255
0.301497 0.137428 0.310946 0 200 255
0.310305 0.262253 0.409776 0 200 255
0.279126 0.135293 0.296557 0 200 255
0.313687 0.074703 0.466275 0 200 255
0.316897 0.246252 0.395696 0 200 255
0.307660 0.095089 0.449481 0 200 255
0.309331 0.163274 0.340755 0 200 255
0.297122 0.113293 0.395763 0 200 255
0.315135 0.113721 0.332190 0 200 255
0.300843 0.123460 0.408440 0 200 255
0.314181 0.103749 0.421592 0 200 255
0.279587 0.145066 0.355834 0 200 255
0.297744 0.141934 0.393771 0 200 255
0.318655 0.129805 0.358323 0 200 255
0.309125 0.054516 0.479854 0 200 255
0.318536 0.116157 0.343411 0 200 255
0.316946 0.099649 0.436707 0 200 255
0.295858 0.129627 0.396118 0 200 255
0.323228 0.241280 0.396083 0 200 255
0.279419 0.106343 0.392663 0 200 255
0.306383 0.201765 0.356168 0 200 255
0.274093 0.151145 0.313628 0 200 255
0.298002 0.094677 0.433381 0 200 255
0.313501 0.072921 0.438011 0 200 255
0.284898 0.165200 0.320201 0 200 255
0.316597 0.027587 0.436179 0 200 255
0.313152 0.071590 0.477136 0 200 255
0.320735 0.218120 0.382985 0 200 255
0.293426 0.155942 0.338942 0 200 255
0.296018 0.197652 0.380179 0 200 255
0.296421 0.173395 0.349054 0 200 255
0.306759 0.071193 0.353740 0 200 255
0.294382 0.088273 0.454167 0 200 255
0.282190 0.094863 0.378222 0 200 255
0.328106 0.193475 0.365179 0 200 255
0.293816 0.034639 0.407346 0 200 255
0.317376 0.061747 0.472925 0 200 255
0.302412 0.064100 0.466210 0 200 255
0.290772 0.125401 0.412252 0 200 255
0.283344 0.100282 0.368521 0 200 255
0.309936 0.057576 0.374126 0 200 255
0.298752 0.064353 0.399363 0 200 255
0.313084 0.213582 0.390586 0 200 255
0.295073 0.219947 0.394369 0 200 255
0.296328 0.199416 0.359570 0 200 255
0.307535 0.071849 0.458027 0 200 255
0.281911 0.105369 0.327648 0 200 255
0.275002 0.130118 0.366243 0 200 255
0.312833 0.121545 0.400652 0 200 255
0.295686 0.147333 0.349259 0 200 255
0.275694 0.113533 0.347616 0 200 255
0.297797 0.091340 0.406035 0 200 255
0.295554 0.143593 0.336906 0 200 255
0.304632 0.188116 0.357337 0 200 255
0.292877 0.214549 0.371222 0 200 255
0.303886 0.128977 0.401675 0 200 255
0.319286 0.051158 0.464311 0 200 255
0.310899 0.052730 0.401329 0 200 255
0.304777 0.021543 0.435538 0 200 255
0.309214 0.031266 0.431963 0 200 255
0.298905 0.230048 0.399595 0 200 255
0.315084 0.189107 0.367293 0 200 255
0.303487 0.026642 0.422353 0 200 255
0.286844 0.150298 0.380837 0 200 255
0.299883 0.060320 0.362500 0 200 255
0.301648 0.095520 0.420964 0 200 255
0.305118 0.077566 0.376491 0 200 255
0.301435 0.066118 0.448462 0 200 255
0.304990 0.103919 0.377072 0 200 255
0.314936 0.255177 0.401306 0 200 255
0.314304 0.046138 0.421845 0 200 255
0.309274 0.035819 0.421902 0 200 255
0.320296 0.092072 0.346573 0 200 255
0.315908 0.047269 0.383378 0 200 255
0.307262 0.074741 0.449496 0 200 255
0.313822 0.136539 0.331052 0 200 255
0.303223 0.077740 0.474080 0 200 255
0.315306 0.076725 0.400394 0 200 255
0.317093 0.132746 0.337996 0 200 255
0.300218 0.107477 0.419158 0 200 255
0.303858 0.059927 0.479659 0 200 255
0.319525 0.101208 0.374687 0 200 255
0.316114 0.058947 0.401486 0 200 255
0.305539 0.247498 0.412157 0 200 255
0.307822 0.033132 0.460146 0 200 255
0.292985 0.181196 0.360203 0 200 255
0.281674 0.130092 0.379568 0 200 255
0.320274 0.088810 0.367811 0 200 255
0.295121 0.134916 0.300695 0 200 255
0.313331 0.108187 0.363931 0 200 255
0.289154 0.125693 0.394383 0 200 255
0.315659 0.059573 0.488125 0 200 255
0.312517 0.072362 0.385905 0 200 255
0.282589 0.129144 0.400297 0 200 255
0.313930 0.098352 0.365597 0 200 255
0.283893 0.067046 0.355881 0 200 255
0.307158 0.269078 0.419103 0 200 255
0.277136 0.117339 0.371527 0 200 255
0.305757 0.080071 0.431666 0 200 255
0.311261 0.025423 0.411550 0 200 255
0.308973 0.106193 0.393464 0 200 255
0.313848 0.155570 0.332994 0 200 255
0.291453 0.046141 0.397852 0 200 255
0.298754 0.060464 0.455602 0 200 255
0.318383 0.052919 0.396003 0 200 255
0.307658 0.058470 0.428167 0 200 255
0.304847 0.017238 0.449100 0 200 255
0.300860 0.032607 0.410929 0 200 255
0.313141 0.076155 0.377231 0 200 255
0.314418 0.085917 0.358075 0 200 255
0.299233 0.051005 0.389782 0 200 255
0.299626 0.154959 0.360935 0 200 255
0.312974 0.143676 0.324303 0 200 255
0.318858 0.087502 0.333471 0 200 255
0.277160 0.102753 0.336507 0 200 255
0.288466 0.142838 0.319548 0 200 255
0.296533 0.135430 0.318044 0 200 255
0.318624 0.066257 0.479396 0 200 255
0.309428 0.089293 0.455126 0 200 255
0.308833 0.152122 0.372514 0 200 255
0.276274 0.107855 0.369915 0 200 255
0.294662 0.064751 0.382010 0 200 255
0.293981 0.161370 0.345087 0 200 255
0.315477 0.112213 0.309662 0 200 255
0.321797 0.261749 0.404317 0 200 255
0.299265 0.204578 0.371765 0 200 255
0.301981 0.103552 0.409697 0 200 255
0.279687 0.127942 0.353353 0 200 255
0.310738 0.182645 0.375947 0 200 255
0.293961 0.077735 0.407965 0 200 255
0.315287 0.071636 0.340286 0 200 255
0.322710 0.188782 0.372064 0 200 255
0.314522 0.095332 0.380649 0 200 255
0.295310 0.231961 0.385202 0 200 255
0.299156 0.039038 0.449631 0 200 255
0.292675 0.099087 0.439806 0 200 255
0.282820 0.136028 0.394528 0 200 255
0.306636 0.168807 0.364128 0 200 255
0.318740 0.112719 0.360161 0 200 255
0.305176 0.059779 0.398035 0 200 255
0.304860 0.038222 0.464467 0 200 255
0.320541 0.249863 0.400894 0 200 255
0.317253 0.249123 0.388981 0 200 255
0.305152 0.094640 0.379904 0 200 255
0.304462 0.033999 0.449265 0 200 255
0.276663 0.115194 0.378848 0 200 255
0.316767 0.146013 0.381058 0 200 255
0.314283 0.045864 0.445996 0 200 255
0.312174 0.258554 0.422964 0 200 255
0.328318 0.218790 0.373938 0 200 255
0.298426 0.079660 0.418418 0 200 255
0.302172 0.074018 0.412383 0 200 255
0.303970 0.049019 0.419131 0 200 255
0.310229 0.146545 0.317016 0 200 255
0.317621 0.235778 0.384973 0 200 255
0.306281 0.028344 0.407204 0 200 255
0.291083 0.079448 0.393280 0 200 255
0.300231 0.265285 0.417660 0 200 255
0.302511 0.253272 0.406328 0 200 255
0.308380 0.091870 0.391066 0 200 255
0.315526 0.023183 0.429122 0 200 255
0.309753 0.179488 0.359006 0 200 255
0.271548 0.140585 0.329755 0 200 255
0.284667 0.076649 0.368360 0 200 255
0.324621 0.200702 0.356965 0 200 255
0.288897 0.086642 0.406119 0 200 255
0.317160 0.215628 0.372436 0 200 255
0.314618 0.034890 0.398980 0 200 255
0.317393 0.070463 0.432487 0 200 255
0.324967 0.214749 0.392384 0 200 255
0.311984 0.039205 0.392783 0 200 255
0.301625 0.187896 0.366599 0 200 255
0.299114 0.083152 0.449913 0 200 255
0.274647 0.115628 0.329772 0 200 255
0.298439 0.176045 0.368636 0 200 255
0.303971 0.048534 0.460870 0 200 255
0.304006 0.128762 0.412047 0 200 255
0.303288 0.066731 0.472983 0 200 255
0.314009 0.045973 0.476800 0 200 255
0.283459 0.085179 0.369426 0 200 255
0.315984 0.134375 0.402799 0 200 255
0.313007 0.198271 0.381124 0 200 255
0.282241 0.125611 0.312660 0 200 255
0.273282 0.160684 0.322573 0 200 255
0.278049 0.100940 0.350597 0 200 255
0.279793 0.090024 0.348976 0 200 255
0.308018 0.055954 0.441512 0 200 255
0.313408 0.229071 0.395198 0 200 255
0.307640 0.020602 0.442941 0 200 255
0.312231 0.009526 0.451046 0 200 255
0.292598 0.102927 0.396557 0 200 255
0.312552 0.087892 0.385104 0 200 255
0.313935 0.048437 0.458697 0 200 255
0.314764 0.114229 0.319954 0 200 255
0.297699 0.052636 0.453563 0 200 255
0.294452 0.056015 0.407996 0 200 255
0.310091 0.144088 0.306768 0 200 255
0.290468 0.102848 0.413702 0 200 255
0.301782 0.084285 0.388448 0 200 255
0.299177 0.074072 0.457013 0 200 255
0.298229 0.094282 0.450187 0 200 255
0.305416 0.239718 0.406653 0 200 255
0.299316 0.062293 0.440444 0 200 255
0.292788 0.054237 0.423761 0 200 255
0.315214 0.013803 0.433469 0 200 255
0.299035 0.071184 0.436227 0 200 255
0.307246 0.243898 0.418394 0 200 255
0.320945 0.253934 0.393991 0 200 255
0.309743 0.069678 0.443366 0 200 255
0.307158 0.128500 0.312407 0 200 255
0.300104 0.086830 0.460564 0 200 255
0.303393 0.071649 0.390461 0 200 255
0.310886 0.151796 0.347709 0 200 255
0.299784 0.093625 0.313456 0 200 255
0.316864 0.095618 0.444038 0 200 255
0.318511 0.144962 0.358771 0 200 255
0.305650 0.241179 0.387419 0 200 255
0.298454 0.093260 0.412763 0 200 255
0.315329 0.065026 0.449841 0 200 255
0.301992 0.048587 0.406698 0 200 255
0.298275 0.027516 0.426946 0 200 255
0.301807 0.145179 0.344246 0 200 255
0.314986 0.051596 0.410082 0 200 255
0.274046 0.129803 0.342777 0 200 255
0.282280 0.118072 0.408639 0 200 255
0.311332 0.080394 0.365748 0 200 255
0.317746 0.079012 0.426169 0 200 255
0.299055 0.035839 0.396996 0 200 255
0.291636 0.113429 0.404729 0 200 255
0.330305 0.211457 0.380544 0 200 255
0.292878 0.054723 0.371688 0 200 255
0.304239 0.041200 0.389586 0 200 255
0.296038 0.110066 0.387302 0 200 255
0.295777 0.082470 0.426978 0 200 255
0.315575 0.031786 0.422062 0 200 255
0.312489 0.139625 0.343304 0 200 255
0.297514 0.101009 0.428656 0 200 255
0.321304 0.203122 0.387786 0 200 255
0.305695 0.068787 0.433821 0 200 255
0.318856 0.246619 0.408099 0 200 255
0.292896 0.068128 0.358917 0 200 255
0.317797 0.076269 0.471633 0 200 255
0.294607 0.160037 0.357347 0 200 255
0.295448 0.255583 0.408424 0 200 255
0.291914 0.078221 0.328423 0 200 255
0.311884 0.098032 0.417955 0 200 255
0.303778 0.064285 0.426140 0 200 255
0.306608 0.078993 0.398717 0 200 255
0.302897 0.037218 0.419612 0 200 255
0.297446 0.087256 0.398683 0 200 255
0.311333 0.084054 0.403923 0 200 255
0.314491 0.056295 0.379939 0 200 255
0.304506 0.043750 0.470350 0 200 255
0.316389 0.194035 0.355986 0 200 255
0.314301 0.034540 0.443916 0 200 255
0.305712 0.068957 0.375678 0 200 255
0.317810 0.039646 0.466589 0 200 255
0.287543 0.117720 0.392420 0 200 255
0.325354 0.188371 0.357232 0 200 255
0.298815 0.086123 0.321324 0 200 255
0.281924 0.149563 0.376076 0 200 255
0.294642 0.068407 0.411008 0 200 255
0.319096 0.265500 0.416919 0 200 255
0.277260 0.096010 0.362362 0 200 255
0.284366 0.164952 0.329612 0 200 255
0.316046 0.251850 0.412966 0 200 255
0.293154 0.156528 0.377006 0 200 255
0.307431 0.206954 0.370168 0 200 255
0.317711 0.238470 0.392885 0 200 255
0.275104 0.110453 0.340916 0 200 255
0.280980 0.081446 0.348700 0 200 255
0.294731 0.186126 0.376783 0 200 255
0.275515 0.132781 0.309159 0 200 255
0.293305 0.045794 0.386823 0 200 255
0.316215 0.148861 0.320925 0 200 255
0.305473 0.231137 0.394685 0 200 255
0.311761 0.087828 0.432287 0 200 255
0.304455 0.043376 0.439466 0 200 255
0.314634 0.078868 0.351655 0 200 255
0.319927 0.093974 0.340045 0 200 255
0.316128 0.084093 0.410872 0 200 255
0.314801 0.029226 0.450980 0 200 255
0.311025 0.201737 0.364671 0 200 255
0.309739 0.052198 0.448602 0 200 255
0.323237 0.213677 0.368831 0 200 255
0.309713 0.096464 0.406246 0 200 255
0.319291 0.104596 0.359665 0 200 255
0.304713 0.049142 0.378450 0 200 255
0.309501 0.027393 0.464981 0 200 255
0.306369 0.132101 0.301698 0 200 255
0.311674 0.097426 0.312610 0 200 255
0.316940 0.035623 0.436436 0 200 255
0.297375 0.076961 0.401290 0 200 255
0.319990 0.033532 0.448506 0 200 255
0.303340 0.058340 0.489166 0 200 255
0.311385 0.159491 0.325522 0 200 255
0.308131 0.033206 0.402903 0 200 255
0.301420 0.177663 0.351571 0 200 255
0.314351 0.088476 0.459665 0 200 255
0.290163 0.058398 0.381806 0 200 255
0.319856 0.125224 0.389645 0 200 255
0.305657 0.056724 0.452289 0 200 255
0.307248 0.075262 0.332292 0 200 255
0.299481 0.104989 0.307496 0 200 255
0.300089 0.063374 0.385738 0 200 255
0.294670 0.167594 0.329189 0 200 255
0.292423 0.202629 0.364120 0 200 255
0.299588 0.056533 0.413515 0 200 255
0.286105 0.102856 0.392554 0 200 255
0.300003 0.053693 0.422597 0 200 255
0.311443 0.117740 0.417831 0 200 255
0.303803 0.044931 0.446887 0 200 255
0.299520 0.100526 0.375037 0 200 255
0.300274 0.038983 0.402803 0 200 255
0.311609 0.107806 0.404209 0 200 255
0.307858 0.250829 0.394004 0 200 255
0.304137 0.068972 0.484268 0 200 255
0.305986 0.005186 0.444025 0 200 255
0.291671 0.188497 0.365033 0 200 255
0.282753 0.079593 0.339248 0 200 255
0.308742 0.218525 0.391543 0 200 255
0.293501 0.123978 0.306936 0 200 255
0.315346 0.140060 0.309588 0 200 255
0.298220 0.058582 0.368844 0 200 255
0.279344 0.108014 0.382002 0 200 255
0.275650 0.143959 0.307158 0 200 255
0.301681 0.150031 0.350704 0 200 255
0.305017 0.261667 0.413717 0 200 255
0.309171 0.233915 0.402126 0 200 255
0.308460 0.081093 0.465736 0 200 255
0.311799 0.116151 0.396698 0 200 255
0.304217 0.033841 0.440199 0 200 255
0.302953 0.023555 0.449349 0 200 255
0.298640 0.093010 0.378617 0 200 255
0.299756 0.071635 0.343105 0 200 255
0.303868 0.049577 0.437320 0 200 255
0.303774 0.041357 0.429887 0 200 255
0.300266 0.227680 0.391566 0 200 255
0.307611 0.165921 0.350719 0 200 255
0.291124 0.100238 0.313852 0 200 255
0.286465 0.145887 0.386504 0 200 255
0.309987 0.150624 0.354111 0 200 255
0.301951 0.014318 0.427372 0 200 255
0.290300 0.206455 0.375929 0 200 255
0.278773 0.084389 0.359923 0 200 255
0.310506 0.026567 0.421715 0 200 255
0.290782 0.074370 0.427761 0 200 255
0.304774 0.182731 0.378639 0 200 255
0.297134 0.119085 0.415231 0 200 255
0.327286 0.198608 0.382228 0 200 255
0.315213 0.036997 0.457247 0 200 255
0.296194 0.252585 0.402364 0 200 255
0.308098 0.035022 0.473735 0 200 255
0.307269 0.221600 0.380688 0 200 255
0.319534 0.242995 0.401189 0 200 255
0.303345 0.056637 0.376134 0 200 255
0.314948 0.089722 0.322372 0 200 255
0.313027 0.061246 0.458807 0 200 255
0.277484 0.155741 0.321933 0 200 255
0.281870 0.115135 0.398005 0 200 255
0.302463 0.059348 0.434048 0 200 255
0.325019 0.199107 0.364072 0 200 255
0.282760 0.116692 0.380586 0 200 255
0.294692 0.156183 0.331385 0 200 255
0.292998 0.154155 0.349036 0 200 255
0.294113 0.083630 0.379763 0 200 255
0.317575 0.214671 0.395152 0 200 255
0.324196 0.224979 0.383868 0 200 255
0.300478 0.047395 0.426927 0 200 255
0.301524 0.191291 0.387267 0 200 255
0.295576 0.190271 0.381803 0 200 255
0.297764 0.067441 0.469671 0 200 255
0.314239 0.099093 0.395971 0 200 255
0.291741 0.067171 0.404950 0 200 255
0.325740 0.247302 0.398007 0 200 255
0.298483 0.069384 0.394149 0 200 255
0.296344 0.161678 0.365385 0 200 255
0.308709 0.229728 0.374327 0 200 255
0.298687 0.073753 0.383247 0 200 255
0.283697 0.092018 0.324442 0 200 255
0.307840 0.216945 0.364276 0 200 255
0.297903 0.082356 0.393469 0 200 255
0.288300 0.107307 0.398557 0 200 255
0.317989 0.070038 0.346501 0 200 255
0.316656 0.043558 0.431888 0 200 255
0.275237 0.119694 0.355857 0 200 255
0.316485 0.039826 0.474687 0 200 255
0.300232 0.043012 0.409394 0 200 255
