ply
format ascii 1.0
element vertex 1024
property float x
property float y
property float z
property uchar red
property uchar green
property uchar blue
end_header
0.290919 0.130965 0.295894 0 200 255
0.309884 0.057757 0.492548 0 200 255
0.314097 0.267283 0.421287 0 200 255
0.311232 0.050404 0.376999 0 200 255
0.328517 0.186320 0.368282 0 200 255
0.283641 0.124895 0.408041 0 200 255
0.307906 0.007180 0.437967 0 200 255
0.318425 0.116060 0.351339 0 200 255
0.316604 0.078201 0.433088 0 200 255
0.278750 0.159941 0.348797 0 200 255
0.294450 0.225682 0.388905 0 200 255
0.287615 0.075832 0.333298 0 200 255
0.282882 0.087386 0.380773 0 200 255
0.309369 0.168045 0.316368 0 200 255
0.273654 0.117192 0.338385 0 200 255
0.312868 0.147448 0.387036 0 200 255
0.299842 0.045324 0.453731 0 200 255
0.296259 0.039323 0.413070 0 200 255
0.291075 0.195735 0.363908 0 200 255
0.316519 0.106088 0.313980 0 200 255
0.312510 0.101475 0.401739 0 200 255
0.300169 0.082534 0.466459 0 200 255
0.324465 0.247689 0.391624 0 200 255
0.273157 0.159138 0.312509 0 200 255
0.319918 0.074448 0.350794 0 200 255
0.280284 0.134328 0.373536 0 200 255
0.316992 0.151685 0.352134 0 200 255
0.323438 0.220895 0.368807 0 200 255
0.289429 0.099717 0.431432 0 200 255
0.298540 0.071269 0.405497 0 200 255
0.315863 0.136852 0.323763 0 200 255
0.286909 0.061532 0.360717 0 200 255
0.285617 0.104204 0.310404 0 200 255
0.309414 0.198851 0.389602 0 200 255
0.307220 0.237687 0.415009 0 200 255
0.316929 0.093473 0.373527 0 200 255
0.317958 0.049392 0.429486 0 200 255
0.311545 0.020786 0.463053 0 200 255
0.299722 0.169058 0.367156 0 200 255
0.292091 0.065068 0.435602 0 200 255
0.324334 0.220346 0.396845 0 200 255
0.315737 0.106055 0.431152 0 200 255
0.320021 0.120893 0.384483 0 200 255
0.277435 0.094249 0.355293 0 200 255
0.318363 0.049179 0.402484 0 200 255
0.311983 0.081257 0.326514 0 200 255
0.318651 0.044953 0.471461 0 200 255
0.313390 0.143314 0.298562 0 200 255
0.294829 0.116885 0.361492 0 200 255
0.314900 0.022747 0.417808 0 200 255
0.298659 0.152034 0.334600 0 200 255
0.275592 0.129385 0.316389 0 200 255
0.313861 0.200500 0.353962 0 200 255
0.308722 0.125589 0.406631 0 200 255
0.290999 0.050876 0.391673 0 200 255
0.279510 0.112071 0.387238 0 200 255
0.305805 0.073180 0.382679 0 200 255
0.301745 0.253018 0.397548 0 200 255
0.290627 0.093599 0.407727 0 200 255
0.318950 0.069343 0.472326 0 200 255
0.290196 0.144294 0.393086 0 200 255
0.315052 0.092696 0.451386 0 200 255
0.299828 0.081947 0.361845 0 200 255
0.271630 0.140809 0.337762 0 200 255
0.308669 0.066405 0.451566 0 200 255
0.309565 0.030011 0.439526 0 200 255
0.301303 0.215972 0.366292 0 200 255
0.295685 0.142035 0.314811 0 200 255
0.287362 0.169948 0.325957 0 200 255
0.306166 0.169740 0.345562 0 200 255
0.330033 0.204541 0.381584 0 200 255
0.299065 0.060995 0.473580 0 200 255
0.299240 0.101215 0.383231 0 200 255
0.290911 0.085052 0.446823 0 200 255
0.316699 0.065881 0.415918 0 200 255
0.279249 0.097841 0.329523 0 200 255
0.319647 0.102710 0.335034 0 200 255
0.315094 0.131102 0.365302 0 200 255
0.286321 0.155620 0.375415 0 200 255
0.297391 0.115293 0.420562 0 200 255
0.272133 0.141545 0.300218 0 200 255
0.307703 0.089430 0.418606 0 200 255
0.310908 0.125189 0.307415 0 200 255
0.291951 0.206136 0.382274 0 200 255
0.311559 0.236628 0.380593 0 200 255
0.297720 0.045895 0.432602 0 200 255
0.274888 0.115399 0.363749 0 200 255
0.306947 0.062138 0.360301 0 200 255
0.298056 0.184313 0.382500 0 200 255
0.295494 0.122871 0.391358 0 200 255
0.322797 0.249696 0.414031 0 200 255
0.297462 0.258842 0.415946 0 200 255
0.297384 0.153959 0.353850 0 200 255
0.290769 0.079533 0.423134 0 200 255
0.292629 0.057677 0.417580 0 200 255
0.318489 0.049074 0.452467 0 200 255
0.308554 0.185781 0.365116 0 200 255
0.301474 0.036821 0.471035 0 200 255
0.306203 0.036586 0.396159 0 200 255
0.299126 0.020221 0.427693 0 200 255
0.275090 0.133139 0.355773 0 200 255
0.303953 0.086091 0.395941 0 200 255
0.294439 0.089211 0.316522 0 200 255
0.316829 0.066749 0.395959 0 200 255
0.297551 0.065621 0.344666 0 200 255
0.292145 0.178460 0.353253 0 200 255
0.314460 0.133326 0.347176 0 200 255
0.314818 0.264253 0.403374 0 200 255
0.293498 0.237387 0.402742 0 200 255
0.318179 0.118864 0.326909 0 200 255
0.315594 0.154772 0.369929 0 200 255
0.289171 0.073235 0.390131 0 200 255
0.277799 0.129527 0.391349 0 200 255
0.297574 0.210418 0.398753 0 200 255
0.294899 0.059224 0.376609 0 200 255
0.277314 0.155317 0.329142 0 200 255
0.307922 0.227745 0.400079 0 200 255
0.281264 0.073824 0.349495 0 200 255
0.312291 0.218192 0.384410 0 200 255
0.297262 0.109500 0.403407 0 200 255
0.313516 0.099550 0.353046 0 200 255
0.322683 0.184645 0.352087 0 200 255
0.301025 0.111435 0.308624 0 200 255
0.277012 0.148620 0.362464 0 200 255
0.279605 0.080774 0.365331 0 200 255
0.323734 0.235483 0.404243 0 200 255
0.277493 0.101507 0.373485 0 200 255
0.308657 0.062495 0.434933 0 200 255
0.312883 0.040239 0.416383 0 200 255
0.320424 0.018566 0.433956 0 200 255
0.313078 0.114701 0.367766 0 200 255
0.326928 0.205559 0.363057 0 200 255
0.276063 0.114000 0.322427 0 200 255
0.299879 0.098671 0.444043 0 200 255
0.312487 0.152842 0.325019 0 200 255
0.281076 0.097019 0.394906 0 200 255
0.326487 0.231045 0.384179 0 200 255
0.302073 0.055461 0.403935 0 200 255
0.312172 0.110951 0.414940 0 200 255
0.300421 0.029068 0.452799 0 200 255
0.301898 0.085418 0.435162 0 200 255
0.319435 0.032377 0.455323 0 200 255
0.270031 0.144417 0.319974 0 200 255
0.317283 0.156632 0.308450 0 200 255
0.287404 0.121802 0.308434 0 200 255
0.308275 0.113429 0.391816 0 200 255
0.318142 0.132026 0.395819 0 200 255
0.305942 0.073662 0.479880 0 200 255
0.315205 0.081549 0.462370 0 200 255
0.297197 0.140158 0.346574 0 200 255
0.316406 0.014927 0.448527 0 200 255
0.312325 0.078052 0.407221 0 200 255
0.281922 0.110404 0.403921 0 200 255
0.304477 0.201412 0.367412 0 200 255
0.313153 0.096197 0.387808 0 200 255
0.301015 0.135662 0.398573 0 200 255
0.319117 0.083083 0.363090 0 200 255
0.279174 0.086796 0.342660 0 200 255
0.306759 0.055624 0.421348 0 200 255
0.310530 0.241490 0.394874 0 200 255
0.314556 0.057415 0.463866 0 200 255
0.312930 0.092140 0.316662 0 200 255
0.301655 0.025301 0.412143 0 200 255
0.308956 0.252100 0.421944 0 200 255
0.297234 0.068844 0.461401 0 200 255
0.313800 0.089296 0.342659 0 200 255
0.310921 0.165044 0.358765 0 200 255
0.315142 0.066969 0.371286 0 200 255
0.296623 0.100834 0.418872 0 200 255
0.288653 0.162225 0.338147 0 200 255
0.314161 0.191530 0.377138 0 200 255
0.317559 0.043009 0.389437 0 200 255
0.300744 0.019075 0.442098 0 200 255
0.285628 0.163198 0.360850 0 200 255
0.316694 0.057469 0.479845 0 200 255
0.312839 0.079081 0.446758 0 200 255
0.298082 0.239352 0.388536 0 200 255
0.303778 0.034461 0.426953 0 200 255
0.319955 0.039401 0.441168 0 200 255
0.302739 0.227308 0.374788 0 200 255
0.294976 0.182280 0.368154 0 200 255
0.308173 0.048106 0.442746 0 200 255
0.308647 0.075605 0.338872 0 200 255
0.300872 0.068790 0.419653 0 200 255
0.302596 0.063671 0.392426 0 200 255
0.319195 0.135345 0.377956 0 200 255
0.312727 0.151118 0.338886 0 200 255
0.289373 0.076040 0.374033 0 200 255
0.273392 0.129191 0.330316 0 200 255
0.280497 0.120657 0.349979 0 200 255
0.314368 0.031178 0.405899 0 200 255
0.275837 0.105863 0.345961 0 200 255
0.308635 0.146180 0.361689 0 200 255
0.309199 0.139375 0.312008 0 200 255
0.301987 0.090356 0.454754 0 200 255
0.319609 0.208567 0.391897 0 200 255
0.279899 0.145582 0.381914 0 200 255
0.317272 0.091362 0.436208 0 200 255
0.310053 0.252555 0.408138 0 200 255
0.303927 0.087943 0.382546 0 200 255
0.297331 0.059922 0.446822 0 200 255
0.296992 0.152022 0.384492 0 200 255
0.299842 0.045963 0.382882 0 200 255
0.306107 0.048704 0.475106 0 200 255
0.287266 0.149843 0.321642 0 200 255
0.328474 0.218089 0.381620 0 200 255
0.293707 0.039311 0.399824 0 200 255
0.273927 0.146596 0.349701 0 200 255
0.298625 0.079056 0.326607 0 200 255
0.317472 0.080474 0.419346 0 200 255
0.315373 0.208997 0.368434 0 200 255
0.306802 0.181561 0.352758 0 200 255
0.284485 0.085639 0.325140 0 200 255
0.314330 0.061843 0.384037 0 200 255
0.301911 0.195192 0.355135 0 200 255
0.299332 0.129501 0.313655 0 200 255
0.293934 0.094272 0.394488 0 200 255
0.310150 0.040269 0.459818 0 200 255
0.299321 0.075567 0.449642 0 200 255
0.296944 0.130904 0.409933 0 200 255
0.302580 0.099993 0.314529 0 200 255
0.298707 0.156256 0.368729 0 200 255
0.300073 0.064063 0.487043 0 200 255
0.325026 0.255643 0.401737 0 200 255
0.298365 0.055631 0.461261 0 200 255
0.280630 0.131911 0.343831 0 200 255
0.277865 0.123145 0.379245 0 200 255
0.303747 0.072867 0.370075 0 200 255
0.298597 0.036670 0.442711 0 200 255
0.297986 0.083479 0.410165 0 200 255
0.305201 0.268046 0.411864 0 200 255
0.297032 0.195915 0.387827 0 200 255
0.301909 0.167813 0.326632 0 200 255
0.291384 0.218030 0.377956 0 200 255
0.291187 0.207518 0.368549 0 200 255
0.316482 0.030692 0.428966 0 200 255
0.303419 0.096258 0.408794 0 200 255
0.288604 0.132541 0.397384 0 200 255
0.305137 0.097719 0.372671 0 200 255
0.303653 0.109138 0.429528 0 200 255
0.290624 0.109733 0.392783 0 200 255
0.313902 0.254086 0.393567 0 200 255
0.291671 0.061782 0.401254 0 200 255
0.311354 0.037891 0.478660 0 200 255
0.294194 0.165771 0.351832 0 200 255
0.294167 0.248859 0.407343 0 200 255
0.317310 0.067942 0.442855 0 200 255
0.307195 0.126476 0.393120 0 200 255
0.316230 0.092617 0.328794 0 200 255
0.305250 0.009827 0.449734 0 200 255
0.311209 0.082291 0.372741 0 200 255
0.299358 0.070996 0.356267 0 200 255
0.312025 0.109823 0.380788 0 200 255
0.293589 0.094426 0.374636 0 200 255
0.319256 0.104321 0.366458 0 200 255
0.315111 0.067993 0.485670 0 200 255
0.282598 0.136477 0.303677 0 200 255
0.296911 0.222847 0.401319 0 200 255
0.317522 0.051565 0.417631 0 200 255
0.305564 0.073428 0.438978 0 200 255
0.320141 0.192864 0.362609 0 200 255
0.310063 0.013660 0.428043 0 200 255
0.316096 0.096396 0.424003 0 200 255
0.309101 0.067993 0.465359 0 200 255
0.311673 0.100123 0.442603 0 200 255
0.322760 0.261536 0.412383 0 200 255
0.313611 0.114155 0.403528 0 200 255
0.309350 0.211562 0.397501 0 200 255
0.317874 0.123197 0.337967 0 200 255
0.306804 0.177137 0.373068 0 200 255
0.282482 0.113124 0.374973 0 200 255
0.314449 0.228113 0.371249 0 200 255
0.317166 0.140295 0.337882 0 200 255
0.327854 0.193580 0.378073 0 200 255
0.295348 0.192497 0.374318 0 200 255
0.307178 0.145882 0.348685 0 200 255
0.296035 0.091497 0.426453 0 200 255
0.316875 0.117829 0.314211 0 200 255
0.314886 0.081302 0.383744 0 200 255
0.305899 0.227596 0.388142 0 200 255
0.309338 0.161492 0.332941 0 200 255
0.314154 0.241904 0.406153 0 200 255
0.294991 0.076151 0.433250 0 200 255
0.316899 0.065134 0.427434 0 200 255
0.306262 0.111299 0.318791 0 200 255
0.292995 0.118474 0.409472 0 200 255
0.305086 0.142484 0.337976 0 200 255
0.303958 0.055330 0.369709 0 200 255
0.314921 0.064233 0.350962 0 200 255
0.288179 0.108320 0.418838 0 200 255
0.296644 0.047897 0.421493 0 200 255
0.292091 0.083316 0.400579 0 200 255
0.300429 0.161673 0.340230 0 200 255
0.308436 0.209820 0.359633 0 200 255
0.299052 0.145826 0.325253 0 200 255
0.294943 0.082554 0.387732 0 200 255
0.301914 0.217087 0.390842 0 200 255
0.298763 0.056601 0.429438 0 200 255
0.302959 0.028545 0.463669 0 200 255
0.299436 0.128185 0.302612 0 200 255
0.317403 0.226609 0.389569 0 200 255
0.277430 0.167155 0.321823 0 200 255
0.309916 0.075217 0.393945 0 200 255
0.285401 0.096160 0.318041 0 200 255
0.277785 0.102997 0.362509 0 200 255
0.291650 0.089977 0.436938 0 200 255
0.302807 0.053447 0.484537 0 200 255
0.307054 0.045138 0.424731 0 200 255
0.301991 0.119089 0.400755 0 200 255
0.303916 0.138597 0.301600 0 200 255
0.315727 0.056428 0.440786 0 200 255
0.307364 0.049999 0.411879 0 200 255
0.298243 0.073148 0.336346 0 200 255
0.308319 0.052180 0.456500 0 200 255
0.279207 0.099984 0.384202 0 200 255
0.279083 0.120951 0.398900 0 200 255
0.309692 0.023531 0.449128 0 200 255
0.308193 0.214530 0.374632 0 200 255
0.311345 0.039777 0.434520 0 200 255
0.310909 0.159496 0.347622 0 200 255
0.318377 0.080119 0.337080 0 200 255
0.301506 0.102915 0.395893 0 200 255
0.310373 0.079652 0.471903 0 200 255
0.297330 0.073548 0.471836 0 200 255
0.305779 0.039521 0.406589 0 200 255
0.280701 0.113973 0.311731 0 200 255
0.327643 0.211010 0.373283 0 200 255
0.319173 0.197326 0.384603 0 200 255
0.294828 0.064914 0.367589 0 200 255
0.320555 0.087866 0.353666 0 200 255
0.313535 0.074406 0.360424 0 200 255
0.312317 0.057143 0.395191 0 200 255
0.314439 0.138607 0.357013 0 200 255
0.314141 0.091467 0.398626 0 200 255
0.299661 0.045944 0.465957 0 200 255
0.318131 0.182746 0.372747 0 200 255
0.300789 0.260444 0.406019 0 200 255
0.273553 0.151826 0.340555 0 200 255
0.302661 0.177594 0.361713 0 200 255
0.312341 0.174060 0.364652 0 200 255
0.304755 0.118215 0.413004 0 200 255
0.312829 0.089869 0.409460 0 200 255
0.293463 0.074210 0.414504 0 200 255
0.321802 0.241518 0.383579 0 200 255
0.314771 0.124425 0.376151 0 200 255
0.296846 0.084480 0.371547 0 200 255
0.279017 0.124070 0.368892 0 200 255
0.325426 0.231546 0.394566 0 200 255
0.317212 0.119927 0.394503 0 200 255
0.300917 0.162091 0.359357 0 200 255
0.277526 0.109597 0.332386 0 200 255
0.292912 0.108995 0.428203 0 200 255
0.289683 0.118645 0.398907 0 200 255
0.300434 0.031160 0.403405 0 200 255
0.300641 0.232293 0.408350 0 200 255
0.282998 0.082361 0.355186 0 200 255
0.306649 0.080509 0.455130 0 200 255
0.311509 0.140028 0.396157 0 200 255
0.308349 0.051801 0.432639 0 200 255
0.280488 0.138840 0.362876 0 200 255
0.313527 0.145223 0.373443 0 200 255
0.300493 0.027847 0.434585 0 200 255
0.325720 0.245649 0.404717 0 200 255
0.304724 0.062508 0.380262 0 200 255
0.293266 0.060080 0.387548 0 200 255
0.310827 0.154816 0.379098 0 200 255
0.309199 0.058599 0.472852 0 200 255
0.285060 0.067972 0.369299 0 200 255
0.294871 0.060598 0.353250 0 200 255
0.276299 0.139100 0.313071 0 200 255
0.318389 0.057498 0.408530 0 200 255
0.304672 0.085266 0.445897 0 200 255
0.313808 0.218837 0.365885 0 200 255
0.296670 0.168953 0.317874 0 200 255
0.305436 0.261858 0.422258 0 200 255
0.299636 0.047795 0.397578 0 200 255
0.281130 0.105520 0.319693 0 200 255
0.308590 0.024372 0.427582 0 200 255
0.278614 0.091464 0.372178 0 200 255
0.312129 0.035574 0.468615 0 200 255
0.299172 0.062855 0.411162 0 200 255
0.313260 0.190910 0.350684 0 200 255
0.307774 0.069387 0.412264 0 200 255
0.295571 0.081303 0.457526 0 200 255
0.314376 0.244781 0.417541 0 200 255
0.305855 0.088747 0.366259 0 200 255
0.267787 0.151371 0.308931 0 200 255
0.297288 0.050539 0.411527 0 200 255
0.292053 0.161429 0.328592 0 200 255
0.325123 0.179163 0.362088 0 200 255
0.292634 0.214976 0.387422 0 200 255
0.315687 0.108838 0.341905 0 200 255
0.297970 0.075998 0.394631 0 200 255
0.277780 0.097146 0.341497 0 200 255
0.318706 0.010324 0.439313 0 200 255
0.299169 0.210543 0.376070 0 200 255
0.307167 0.190234 0.384087 0 200 255
0.313798 0.220521 0.396533 0 200 255
0.306434 0.102262 0.418422 0 200 255
0.315314 0.106442 0.323822 0 200 255
0.304002 0.020206 0.456645 0 200 255
0.296016 0.244847 0.396750 0 200 255
0.317943 0.137896 0.387870 0 200 255
0.291837 0.113150 0.305534 0 200 255
0.318309 0.032066 0.415670 0 200 255
0.282756 0.072785 0.360549 0 200 255
0.315552 0.120177 0.359775 0 200 255
0.300916 0.055243 0.438980 0 200 255
0.300957 0.220199 0.381596 0 200 255
0.288599 0.067359 0.348812 0 200 255
0.293477 0.068644 0.426058 0 200 255
0.305931 0.160473 0.321519 0 200 255
0.318706 0.256292 0.419978 0 200 255
0.305479 0.087388 0.322558 0 200 255
0.317592 0.028399 0.444823 0 200 255
0.296882 0.040885 0.390640 0 200 255
0.297870 0.069108 0.376861 0 200 255
0.298329 0.206653 0.361989 0 200 255
0.307108 0.162188 0.367239 0 200 255
0.302271 0.171073 0.354516 0 200 255
0.311555 0.083687 0.426870 0 200 255
0.294335 0.089581 0.417104 0 200 255
0.317512 0.070070 0.405443 0 200 255
0.318911 0.044037 0.461398 0 200 255
0.290298 0.071180 0.399579 0 200 255
0.317789 0.053574 0.387556 0 200 255
0.273941 0.124526 0.359904 0 200 255
0.315527 0.269177 0.411604 0 200 255
0.320000 0.095864 0.361960 0 200 255
0.303555 0.236825 0.399529 0 200 255
0.301512 0.013659 0.434196 0 200 255
0.308858 0.044331 0.385412 0 200 255
0.272325 0.135781 0.346353 0 200 255
0.297606 0.102353 0.435476 0 200 255
0.298802 0.248607 0.415626 0 200 255
0.304056 0.147757 0.390547 0 200 255
0.298840 0.046434 0.442647 0 200 255
0.307310 0.065914 0.345579 0 200 255
0.308254 0.031928 0.413621 0 200 255
0.297194 0.206311 0.390144 0 200 255
0.329991 0.210640 0.388811 0 200 255
0.317531 0.041344 0.408227 0 200 255
0.313012 0.110190 0.356399 0 200 255
0.316121 0.234789 0.398450 0 200 255
0.314140 0.074789 0.455257 0 200 255
0.327892 0.199899 0.371086 0 200 255
0.322916 0.213962 0.361632 0 200 255
0.296085 0.069315 0.443386 0 200 255
0.290716 0.161274 0.368536 0 200 255
0.323164 0.194270 0.353805 0 200 255
0.314276 0.038036 0.449857 0 200 255
0.277531 0.145149 0.371191 0 200 255
0.310791 0.195730 0.361463 0 200 255
0.291726 0.050662 0.382290 0 200 255
0.311193 0.232310 0.408414 0 200 255
0.311234 0.226754 0.379965 0 200 255
0.294472 0.171985 0.359620 0 200 255
0.312258 0.112113 0.424922 0 200 255
0.291572 0.146600 0.342777 0 200 255
0.306106 0.060892 0.458989 0 200 255
0.318716 0.040770 0.398415 0 200 255
0.274371 0.136379 0.322416 0 200 255
0.288154 0.090134 0.388497 0 200 255
0.313835 0.059371 0.366101 0 200 255
0.292076 0.233501 0.394430 0 200 255
0.295579 0.107663 0.412673 0 200 255
0.305138 0.110034 0.408258 0 200 255
0.298104 0.031944 0.418359 0 200 255
0.317108 0.128267 0.326947 0 200 255
0.326415 0.225377 0.376339 0 200 255
0.308250 0.105805 0.307704 0 200 255
0.271093 0.153898 0.322516 0 200 255
0.302507 0.084368 0.425453 0 200 255
0.318266 0.017787 0.425068 0 200 255
0.304473 0.019093 0.420321 0 200 255
0.308099 0.155294 0.360828 0 200 255
0.312016 0.244729 0.386425 0 200 255
0.304791 0.087815 0.405558 0 200 255
0.277327 0.136819 0.381899 0 200 255
0.295433 0.125301 0.402883 0 200 255
0.303446 0.246626 0.391258 0 200 255
0.307802 0.039023 0.443519 0 200 255
0.311333 0.083709 0.438042 0 200 255
0.316352 0.142682 0.316536 0 200 255
0.306690 0.140132 0.320696 0 200 255
0.289476 0.082792 0.413187 0 200 255
0.318136 0.221605 0.376319 0 200 255
0.318093 0.141589 0.346927 0 200 255
0.297325 0.069314 0.387749 0 200 255
0.274510 0.112621 0.355184 0 200 255
0.309153 0.066939 0.422674 0 200 255
0.307679 0.134499 0.405918 0 200 255
0.301969 0.037045 0.456663 0 200 255
0.301435 0.094522 0.389565 0 200 255
0.292393 0.093977 0.445579 0 200 255
0.272724 0.124195 0.347254 0 200 255
0.304392 0.246469 0.404783 0 200 255
0.294216 0.072962 0.363704 0 200 255
0.282902 0.156211 0.365746 0 200 255
0.310864 0.103267 0.410539 0 200 255
0.291689 0.135469 0.310229 0 200 255
0.311862 0.144732 0.332217 0 200 255
0.298047 0.241197 0.410697 0 200 255
0.275105 0.146254 0.327091 0 200 255
0.319086 0.231636 0.379217 0 200 255
0.294145 0.189045 0.358871 0 200 255
0.298659 0.068026 0.479207 0 200 255
0.314443 0.039679 0.426187 0 200 255
0.280989 0.079942 0.374074 0 200 255
0.314953 0.056511 0.424682 0 200 255
0.312030 0.058267 0.450652 0 200 255
0.298587 0.056448 0.395573 0 200 255
0.306013 0.094655 0.397280 0 200 255
0.308258 0.258762 0.401235 0 200 255
0.278830 0.154171 0.355464 0 200 255
0.315028 0.020566 0.441691 0 200 255
0.282450 0.085654 0.333717 0 200 255
0.298799 0.076345 0.424872 0 200 255
0.328193 0.222730 0.389298 0 200 255
0.320526 0.240022 0.411922 0 200 255
0.269403 0.142704 0.308974 0 200 255
0.296960 0.078053 0.377970 0 200 255
0.299202 0.133273 0.294144 0 200 255
0.317098 0.148308 0.304711 0 200 255
0.302095 0.122687 0.308862 0 200 255
0.282134 0.107394 0.339467 0 200 255
0.316447 0.086891 0.444350 0 200 255
0.308695 0.062691 0.443686 0 200 255
0.302267 0.052251 0.448138 0 200 255
0.303294 0.235089 0.382774 0 200 255
0.300306 0.194524 0.364177 0 200 255
0.315216 0.024425 0.456088 0 200 255
0.303765 0.074790 0.464624 0 200 255
0.278526 0.124359 0.338618 0 200 255
0.285881 0.164322 0.346563 0 200 255
0.307625 0.086183 0.461598 0 200 255
0.303939 0.053207 0.467929 0 200 255
0.319404 0.116574 0.373353 0 200 255
0.302866 0.119080 0.388168 0 200 255
0.317861 0.098409 0.321964 0 200 255
0.317947 0.072626 0.422895 0 200 255
0.315060 0.123781 0.349468 0 200 255
0.313728 0.105694 0.372925 0 200 255
0.282371 0.142228 0.390127 0 200 255
0.303947 0.042892 0.415245 0 200 255
0.299146 0.054809 0.383411 0 200 255
0.305198 0.151380 0.320794 0 200 255
0.298848 0.080455 0.441908 0 200 255
0.303301 0.079359 0.404927 0 200 255
0.295866 0.168233 0.343191 0 200 255
0.318079 0.226796 0.400642 0 200 255
0.311070 0.084142 0.391699 0 200 255
0.307005 0.091432 0.426972 0 200 255
0.299609 0.060319 0.421659 0 200 255
0.279289 0.140012 0.349668 0 200 255
0.316701 0.084659 0.454617 0 200 255
0.304791 0.110761 0.399701 0 200 255
0.299603 0.065430 0.431697 0 200 255
0.278840 0.121175 0.387426 0 200 255
0.291921 0.100986 0.389746 0 200 255
0.317368 0.068105 0.463613 0 200 255
0.318952 0.201139 0.361381 0 200 255
0.301592 0.037302 0.434601 0 200 255
0.319234 0.255171 0.407855 0 200 255
0.313718 0.006309 0.444790 0 200 255
0.317358 0.112936 0.389804 0 200 255
0.317381 0.209050 0.357623 0 200 255
0.290906 0.062738 0.409603 0 200 255
0.288144 0.080759 0.380876 0 200 255
0.300405 0.028558 0.443836 0 200 255
0.294861 0.045936 0.404955 0 200 255
0.298859 0.051943 0.375443 0 200 255
0.303564 0.041450 0.478413 0 200 255
0.303487 0.061607 0.351645 0 200 255
0.298751 0.220161 0.373069 0 200 255
0.326788 0.238139 0.389606 0 200 255
0.319392 0.105180 0.348445 0 200 255
0.314681 0.161620 0.316788 0 200 255
0.305511 0.155311 0.352416 0 200 255
0.288137 0.131643 0.406131 0 200 255
0.319805 0.112761 0.381260 0 200 255
0.307808 0.104306 0.436529 0 200 255
0.311345 0.135087 0.305202 0 200 255
0.310439 0.065572 0.390393 0 200 255
0.314548 0.077172 0.345059 0 200 255
0.290794 0.199313 0.372987 0 200 255
0.290774 0.150194 0.329159 0 200 255
0.273456 0.121883 0.326378 0 200 255
0.303062 0.204285 0.395653 0 200 255
0.307991 0.065816 0.489334 0 200 255
0.284941 0.073964 0.342076 0 200 255
0.293351 0.065451 0.393900 0 200 255
0.297540 0.099495 0.403947 0 200 255
0.292989 0.116314 0.386984 0 200 255
0.305692 0.219996 0.398248 0 200 255
0.301620 0.163578 0.348942 0 200 255
0.317286 0.062743 0.435688 0 200 255
0.278207 0.157923 0.337485 0 200 255
0.305831 0.115482 0.420725 0 200 255
0.310243 0.172853 0.356211 0 200 255
0.313497 0.119379 0.409903 0 200 255
0.319590 0.129866 0.384087 0 200 255
0.292967 0.138007 0.401713 0 200 255
0.315991 0.088462 0.418088 0 200 255
0.311842 0.074667 0.369732 0 200 255
0.311961 0.068938 0.378601 0 200 255
0.311354 0.120247 0.388422 0 200 255
0.310694 0.248959 0.400140 0 200 255
0.314961 0.097138 0.344772 0 200 255
0.294299 0.225292 0.380378 0 200 255
0.295274 0.089203 0.382964 0 200 255
0.305408 0.155684 0.337363 0 200 255
0.319024 0.139885 0.363615 0 200 255
0.314215 0.133793 0.315134 0 200 255
0.312663 0.206153 0.388148 0 200 255
0.279787 0.152411 0.345939 0 200 255
0.315929 0.030307 0.462336 0 200 255
0.280775 0.129160 0.306660 0 200 255
0.298719 0.184608 0.353859 0 200 255
0.313091 0.051395 0.472017 0 200 255
0.299543 0.041028 0.424840 0 200 255
0.311188 0.234582 0.390706 0 200 255
0.301585 0.010501 0.441776 0 200 255
0.315896 0.074479 0.414148 0 200 255
0.278257 0.089489 0.364343 0 200 255
0.298786 0.179632 0.375956 0 200 255
0.311831 0.129277 0.400019 0 200 255
0.315107 0.066602 0.361668 0 200 255
0.290016 0.098735 0.422962 0 200 255
0.293121 0.102557 0.308030 0 200 255
0.319154 0.056793 0.457301 0 200 255
0.315561 0.048664 0.437123 0 200 255
0.306867 0.041376 0.451989 0 200 255
0.292523 0.151652 0.372204 0 200 255
0.297673 0.088339 0.442820 0 200 255
0.306493 0.221035 0.369712 0 200 255
0.301503 0.137420 0.310947 0 200 255
0.310315 0.262245 0.409777 0 200 255
0.279131 0.135286 0.296559 0 200 255
0.313693 0.074696 0.466276 0 200 255
0.316907 0.246244 0.395697 0 200 255
0.307667 0.095082 0.449482 0 200 255
0.309337 0.163267 0.340756 0 200 255
0.297128 0.113285 0.395764 0 200 255
0.315141 0.113713 0.332190 0 200 255
0.300850 0.123452 0.408441 0 200 255
0.314187 0.103741 0.421593 0 200 255
0.279594 0.145059 0.355835 0 200 255
0.297751 0.141927 0.393772 0 200 255
0.318662 0.129797 0.358324 0 200 255
0.309131 0.054509 0.479855 0 200 255
0.318542 0.116149 0.343412 0 200 255
0.316952 0.099641 0.436708 0 200 255
0.295864 0.129620 0.396119 0 200 255
0.323237 0.241273 0.396083 0 200 255
0.279425 0.106336 0.392664 0 200 255
0.306391 0.201758 0.356169 0 200 255
0.274099 0.151139 0.313630 0 200 255
0.298009 0.094670 0.433382 0 200 255
0.313507 0.072913 0.438012 0 200 255
0.284905 0.165193 0.320202 0 200 255
0.316602 0.027579 0.436180 0 200 255
0.313158 0.071582 0.477137 0 200 255
0.320744 0.218112 0.382986 0 200 255
0.293432 0.155935 0.338943 0 200 255
0.296026 0.197645 0.380181 0 200 255
0.296429 0.173387 0.349056 0 200 255
0.306763 0.071185 0.353741 0 200 255
0.294388 0.088266 0.454168 0 200 255
0.282195 0.094856 0.378223 0 200 255
0.328114 0.193467 0.365180 0 200 255
0.293820 0.034632 0.407347 0 200 255
0.317382 0.061739 0.472926 0 200 255
0.302417 0.064092 0.466211 0 200 255
0.290779 0.125394 0.412254 0 200 255
0.283349 0.100275 0.368522 0 200 255
0.309940 0.057569 0.374127 0 200 255
0.298757 0.064346 0.399364 0 200 255
0.313092 0.213575 0.390587 0 200 255
0.295082 0.219940 0.394370 0 200 255
0.296336 0.199409 0.359571 0 200 255
0.307541 0.071842 0.458028 0 200 255
0.281917 0.105362 0.327649 0 200 255
0.275008 0.130111 0.366244 0 200 255
0.312839 0.121538 0.400653 0 200 255
0.295693 0.147326 0.349260 0 200 255
0.275700 0.113526 0.347617 0 200 255
0.297803 0.091333 0.406036 0 200 255
0.295560 0.143586 0.336907 0 200 255
0.304640 0.188108 0.357339 0 200 255
0.292885 0.214542 0.371223 0 200 255
0.303892 0.128970 0.401676 0 200 255
0.319291 0.051150 0.464312 0 200 255
0.310903 0.052723 0.401330 0 200 255
0.304781 0.021536 0.435539 0 200 255
0.309219 0.031258 0.431964 0 200 255
0.298914 0.230041 0.399596 0 200 255
0.315092 0.189100 0.367294 0 200 255
0.303492 0.026634 0.422354 0 200 255
0.286851 0.150291 0.380838 0 200 255
0.299888 0.060313 0.362501 0 200 255
0.301654 0.095513 0.420965 0 200 255
0.305123 0.077559 0.376492 0 200 255
0.301441 0.066111 0.448464 0 200 255
0.304996 0.103912 0.377073 0 200 255
0.314946 0.255169 0.401307 0 200 255
0.314309 0.046130 0.421846 0 200 255
0.309279 0.035812 0.421903 0 200 255
0.320301 0.092064 0.346574 0 200 255
0.315913 0.047261 0.383378 0 200 255
0.307268 0.074734 0.449497 0 200 255
0.313828 0.136532 0.331053 0 200 255
0.303229 0.077733 0.474082 0 200 255
0.315311 0.076718 0.400395 0 200 255
0.317100 0.132738 0.337997 0 200 255
0.300224 0.107470 0.419159 0 200 255
0.303864 0.059920 0.479660 0 200 255
0.319530 0.101200 0.374687 0 200 255
0.316119 0.058940 0.401487 0 200 255
0.305549 0.247491 0.412158 0 200 255
0.307827 0.033124 0.460147 0 200 255
0.292992 0.181189 0.360204 0 200 255
0.281681 0.130085 0.379570 0 200 255
0.320280 0.088802 0.367812 0 200 255
0.295126 0.134909 0.300696 0 200 255
0.313337 0.108179 0.363932 0 200 255
0.289161 0.125686 0.394384 0 200 255
0.315665 0.059565 0.488126 0 200 255
0.312523 0.072355 0.385906 0 200 255
0.282596 0.129137 0.400298 0 200 255
0.313936 0.098345 0.365598 0 200 255
0.283897 0.067040 0.355883 0 200 255
0.307168 0.269071 0.419104 0 200 255
0.277142 0.117333 0.371528 0 200 255
0.305763 0.080063 0.431667 0 200 255
0.311265 0.025416 0.411551 0 200 255
0.308979 0.106186 0.393465 0 200 255
0.313854 0.155563 0.332995 0 200 255
0.291457 0.046134 0.397853 0 200 255
0.298760 0.060457 0.455603 0 200 255
0.318388 0.052912 0.396004 0 200 255
0.307663 0.058463 0.428168 0 200 255
0.304852 0.017231 0.449101 0 200 255
0.300864 0.032600 0.410930 0 200 255
0.313146 0.076147 0.377232 0 200 255
0.314423 0.085910 0.358076 0 200 255
0.299238 0.050998 0.389783 0 200 255
0.299633 0.154952 0.360936 0 200 255
0.312980 0.143668 0.324303 0 200 255
0.318863 0.087494 0.333471 0 200 255
0.277165 0.102747 0.336509 0 200 255
0.288473 0.142831 0.319549 0 200 255
0.296539 0.135423 0.318045 0 200 255
0.318631 0.066249 0.479397 0 200 255
0.309435 0.089286 0.455127 0 200 255
0.308840 0.152115 0.372515 0 200 255
0.276280 0.107848 0.369916 0 200 255
0.294667 0.064743 0.382012 0 200 255
0.293988 0.161363 0.345089 0 200 255
0.315482 0.112205 0.309663 0 200 255
0.321807 0.261741 0.404318 0 200 255
0.299273 0.204571 0.371766 0 200 255
0.301987 0.103544 0.409698 0 200 255
0.279693 0.127936 0.353354 0 200 255
0.310746 0.182637 0.375948 0 200 255
0.293966 0.077728 0.407967 0 200 255
0.315291 0.071629 0.340287 0 200 255
0.322718 0.188774 0.372065 0 200 255
0.314528 0.095324 0.380650 0 200 255
0.295319 0.231954 0.385203 0 200 255
0.299161 0.039031 0.449632 0 200 255
0.292682 0.099080 0.439807 0 200 255
0.282827 0.136021 0.394529 0 200 255
0.306643 0.168800 0.364129 0 200 255
0.318746 0.112712 0.360161 0 200 255
0.305181 0.059772 0.398036 0 200 255
0.304865 0.038215 0.464468 0 200 255
0.320550 0.249855 0.400895 0 200 255
0.317262 0.249115 0.388982 0 200 255
0.305158 0.094632 0.379905 0 200 255
0.304467 0.033991 0.449266 0 200 255
0.276669 0.115188 0.378850 0 200 255
0.316774 0.146005 0.381059 0 200 255
0.314288 0.045857 0.445997 0 200 255
0.312184 0.258546 0.422965 0 200 255
0.328327 0.218783 0.373939 0 200 255
0.298432 0.079653 0.418419 0 200 255
0.302178 0.074011 0.412384 0 200 255
0.303975 0.049012 0.419132 0 200 255
0.310235 0.146537 0.317017 0 200 255
0.317630 0.235770 0.384973 0 200 255
0.306286 0.028337 0.407205 0 200 255
0.291088 0.079441 0.393281 0 200 255
0.300241 0.265278 0.417661 0 200 255
0.302521 0.253264 0.406329 0 200 255
0.308385 0.091863 0.391067 0 200 255
0.315531 0.023176 0.429123 0 200 255
0.309761 0.179480 0.359007 0 200 255
0.271554 0.140578 0.329756 0 200 255
0.284672 0.076642 0.368361 0 200 255
0.324629 0.200694 0.356966 0 200 255
0.288903 0.086635 0.406121 0 200 255
0.317169 0.215620 0.372437 0 200 255
0.314622 0.034882 0.398981 0 200 255
0.317399 0.070455 0.432487 0 200 255
0.324976 0.214742 0.392385 0 200 255
0.311989 0.039198 0.392784 0 200 255
0.301633 0.187889 0.366600 0 200 255
0.299120 0.083145 0.449914 0 200 255
0.274652 0.115621 0.329774 0 200 255
0.298446 0.176038 0.368637 0 200 255
0.303977 0.048527 0.460871 0 200 255
0.304013 0.128755 0.412048 0 200 255
0.303295 0.066724 0.472984 0 200 255
0.314015 0.045966 0.476801 0 200 255
0.283465 0.085173 0.369427 0 200 255
0.315991 0.134367 0.402800 0 200 255
0.313015 0.198263 0.381125 0 200 255
0.282247 0.125604 0.312662 0 200 255
0.273288 0.160678 0.322575 0 200 255
0.278054 0.100934 0.350599 0 200 255
0.279798 0.090017 0.348977 0 200 255
0.308023 0.055946 0.441513 0 200 255
0.313417 0.229063 0.395199 0 200 255
0.307644 0.020595 0.442942 0 200 255
0.312236 0.009518 0.451047 0 200 255
0.292604 0.102920 0.396558 0 200 255
0.312558 0.087885 0.385105 0 200 255
0.313941 0.048429 0.458698 0 200 255
0.314769 0.114221 0.319955 0 200 255
0.297705 0.052629 0.453564 0 200 255
0.294457 0.056008 0.407997 0 200 255
0.310097 0.144080 0.306769 0 200 255
0.290474 0.102841 0.413703 0 200 255
0.301787 0.084278 0.388449 0 200 255
0.299183 0.074065 0.457014 0 200 255
0.298236 0.094275 0.450188 0 200 255
0.305425 0.239710 0.406654 0 200 255
0.299322 0.062286 0.440445 0 200 255
0.292793 0.054230 0.423762 0 200 255
0.315218 0.013796 0.433470 0 200 255
0.299040 0.071177 0.436228 0 200 255
0.307256 0.243891 0.418395 0 200 255
0.320955 0.253927 0.393992 0 200 255
0.309748 0.069671 0.443367 0 200 255
0.307164 0.128492 0.312408 0 200 255
0.300110 0.086823 0.460565 0 200 255
0.303399 0.071641 0.390462 0 200 255
0.310893 0.151789 0.347710 0 200 255
0.299788 0.093617 0.313457 0 200 255
0.316871 0.095610 0.444039 0 200 255
0.318518 0.144955 0.358771 0 200 255
0.305659 0.241171 0.387420 0 200 255
0.298460 0.093253 0.412764 0 200 255
0.315335 0.065019 0.449842 0 200 255
0.301997 0.048579 0.406699 0 200 255
0.298280 0.027509 0.426947 0 200 255
0.301813 0.145172 0.344247 0 200 255
0.314991 0.051588 0.410083 0 200 255
0.274052 0.129797 0.342779 0 200 255
0.282286 0.118065 0.408640 0 200 255
0.311337 0.080387 0.365748 0 200 255
0.317752 0.079005 0.426170 0 200 255
0.299059 0.035832 0.396997 0 200 255
0.291643 0.113422 0.404730 0 200 255
0.330314 0.211449 0.380545 0 200 255
0.292882 0.054716 0.371689 0 200 255
0.304243 0.041193 0.389587 0 200 255
0.296044 0.110058 0.387303 0 200 255
0.295783 0.082463 0.426980 0 200 255
0.315580 0.031778 0.422063 0 200 255
0.312495 0.139617 0.343305 0 200 255
0.297520 0.101002 0.428658 0 200 255
0.321312 0.203114 0.387787 0 200 255
0.305701 0.068779 0.433822 0 200 255
0.318865 0.246611 0.408100 0 200 255
0.292901 0.068121 0.358918 0 200 255
0.317803 0.076261 0.471634 0 200 255
0.294614 0.160030 0.357348 0 200 255
0.295458 0.255576 0.408425 0 200 255
0.291919 0.078214 0.328425 0 200 255
0.311890 0.098025 0.417956 0 200 255
0.303783 0.064278 0.426141 0 200 255
0.306614 0.078986 0.398718 0 200 255
0.302902 0.037211 0.419613 0 200 255
0.297452 0.087248 0.398684 0 200 255
0.311339 0.084047 0.403924 0 200 255
0.314496 0.056287 0.379940 0 200 255
0.304511 0.043743 0.470351 0 200 255
0.316397 0.194027 0.355987 0 200 255
0.314306 0.034532 0.443917 0 200 255
0.305717 0.068949 0.375679 0 200 255
0.317815 0.039639 0.466590 0 200 255
0.287549 0.117713 0.392421 0 200 255
0.325361 0.188363 0.357233 0 200 255
0.298820 0.086116 0.321325 0 200 255
0.281931 0.149556 0.376077 0 200 255
0.294647 0.068400 0.411009 0 200 255
0.319106 0.265492 0.416920 0 200 255
0.277265 0.096004 0.362364 0 200 255
0.284373 0.164945 0.329613 0 200 255
0.316056 0.251842 0.412967 0 200 255
0.293161 0.156521 0.377007 0 200 255
0.307439 0.206947 0.370169 0 200 255
0.317720 0.238463 0.392886 0 200 255
0.275110 0.110446 0.340917 0 200 255
0.280984 0.081439 0.348701 0 200 255
0.294738 0.186119 0.376785 0 200 255
0.275521 0.132775 0.309160 0 200 255
0.293309 0.045787 0.386824 0 200 255
0.316221 0.148854 0.320926 0 200 255
0.305482 0.231130 0.394687 0 200 255
0.311767 0.087820 0.432288 0 200 255
0.304460 0.043369 0.439467 0 200 255
0.314639 0.078860 0.351656 0 200 255
0.319932 0.093966 0.340046 0 200 255
0.316133 0.084085 0.410873 0 200 255
0.314805 0.029219 0.450981 0 200 255
0.311033 0.201730 0.364672 0 200 255
0.309745 0.052190 0.448603 0 200 255
0.323245 0.213669 0.368832 0 200 255
0.309719 0.096456 0.406247 0 200 255
0.319296 0.104588 0.359666 0 200 255
0.304718 0.049135 0.378451 0 200 255
0.309507 0.027386 0.464982 0 200 255
0.306375 0.132093 0.301699 0 200 255
0.311679 0.097418 0.312611 0 200 255
0.316945 0.035615 0.436437 0 200 255
0.297381 0.076954 0.401291 0 200 255
0.319995 0.033524 0.448507 0 200 255
0.303346 0.058333 0.489167 0 200 255
0.311391 0.159483 0.325523 0 200 255
0.308136 0.033199 0.402904 0 200 255
0.301427 0.177656 0.351572 0 200 255
0.314358 0.088469 0.459666 0 200 255
0.290168 0.058391 0.381808 0 200 255
0.319862 0.125216 0.389646 0 200 255
0.305662 0.056717 0.452290 0 200 255
0.307252 0.075255 0.332293 0 200 255
0.299486 0.104982 0.307497 0 200 255
0.300094 0.063367 0.385739 0 200 255
0.294677 0.167587 0.329190 0 200 255
0.292431 0.202622 0.364121 0 200 255
0.299593 0.056526 0.413516 0 200 255
0.286111 0.102849 0.392555 0 200 255
0.300008 0.053685 0.422598 0 200 255
0.311449 0.117732 0.417832 0 200 255
0.303808 0.044924 0.446888 0 200 255
0.299526 0.100519 0.375038 0 200 255
0.300278 0.038976 0.402804 0 200 255
0.311615 0.107799 0.404209 0 200 255
0.307867 0.250822 0.394005 0 200 255
0.304143 0.068965 0.484269 0 200 255
0.305991 0.005179 0.444026 0 200 255
0.291678 0.188490 0.365034 0 200 255
0.282758 0.079587 0.339249 0 200 255
0.308750 0.218517 0.391544 0 200 255
0.293506 0.123971 0.306937 0 200 255
0.315352 0.140052 0.309589 0 200 255
0.298225 0.058575 0.368845 0 200 255
0.279350 0.108007 0.382003 0 200 255
0.275656 0.143953 0.307160 0 200 255
0.301687 0.150024 0.350705 0 200 255
0.305027 0.261659 0.413718 0 200 255
0.309180 0.233908 0.402127 0 200 255
0.308466 0.081086 0.465737 0 200 255
0.311805 0.116144 0.396699 0 200 255
0.304222 0.033833 0.440200 0 200 255
0.302958 0.023548 0.449350 0 200 255
0.298645 0.093003 0.378618 0 200 255
0.299761 0.071628 0.343106 0 200 255
0.303873 0.049570 0.437321 0 200 255
0.303779 0.041350 0.429888 0 200 255
0.300275 0.227673 0.391567 0 200 255
0.307618 0.165913 0.350720 0 200 255
0.291129 0.100231 0.313853 0 200 255
0.286472 0.145880 0.386505 0 200 255
0.309994 0.150616 0.354112 0 200 255
0.301955 0.014310 0.427373 0 200 255
0.290308 0.206448 0.375930 0 200 255
0.278778 0.084383 0.359924 0 200 255
0.310510 0.026560 0.421716 0 200 255
0.290787 0.074363 0.427762 0 200 255
0.304782 0.182724 0.378640 0 200 255
0.297140 0.119077 0.415232 0 200 255
0.327294 0.198600 0.382229 0 200 255
0.315218 0.036989 0.457248 0 200 255
0.296204 0.252578 0.402365 0 200 255
0.308104 0.035014 0.473736 0 200 255
0.307278 0.221593 0.380689 0 200 255
0.319543 0.242987 0.401190 0 200 255
0.303350 0.056629 0.376135 0 200 255
0.314953 0.089714 0.322373 0 200 255
0.313033 0.061239 0.458808 0 200 255
0.277490 0.155735 0.321934 0 200 255
0.281877 0.115129 0.398006 0 200 255
0.302468 0.059341 0.434049 0 200 255
0.325027 0.199099 0.364072 0 200 255
0.282766 0.116685 0.380587 0 200 255
0.294698 0.156176 0.331386 0 200 255
0.293005 0.154148 0.349037 0 200 255
0.294119 0.083623 0.379764 0 200 255
0.317584 0.214664 0.395153 0 200 255
0.324205 0.224972 0.383869 0 200 255
0.300483 0.047388 0.426928 0 200 255
0.301532 0.191283 0.387268 0 200 255
0.295584 0.190264 0.381804 0 200 255
0.314245 0.099085 0.395972 0 200 255
0.297770 0.067434 0.469673 0 200 255
0.291747 0.067164 0.404952 0 200 255
0.325750 0.247295 0.398008 0 200 255
0.298488 0.069377 0.394151 0 200 255
0.296352 0.161670 0.365386 0 200 255
0.308718 0.229720 0.374328 0 200 255
0.298692 0.073746 0.383248 0 200 255
0.283702 0.092011 0.324443 0 200 255
0.307849 0.216938 0.364277 0 200 255
0.297909 0.082349 0.393470 0 200 255
0.288306 0.107300 0.398558 0 200 255
0.317994 0.070030 0.346502 0 200 255
0.316661 0.043550 0.431889 0 200 255
0.275243 0.119688 0.355859 0 200 255
0.316491 0.039819 0.474688 0 200 255
0.321299 0.208723 0.365202 0 200 255
