ply
format ascii 1.0
element vertex 1024
property float x
property float y
property float z
property uchar red
property uchar green
property uchar blue
end_header
0.290921 0.130958 0.295893 0 200 255
0.309886 0.057758 0.492550 0 200 255
0.314099 0.267281 0.421281 0 200 255
0.311235 0.050401 0.377002 0 200 255
0.328520 0.186317 0.368280 0 200 255
0.283644 0.124893 0.408040 0 200 255
0.307908 0.007178 0.437971 0 200 255
0.318427 0.116056 0.351339 0 200 255
0.316607 0.078199 0.433089 0 200 255
0.278753 0.159936 0.348795 0 200 255
0.294452 0.225679 0.388901 0 200 255
0.287618 0.075827 0.333299 0 200 255
0.282885 0.087382 0.380774 0 200 255
0.309372 0.168039 0.316366 0 200 255
0.273657 0.117187 0.338385 0 200 255
0.312871 0.147445 0.387035 0 200 255
0.299844 0.045323 0.453734 0 200 255
0.296262 0.039321 0.413073 0 200 255
0.291078 0.195731 0.363905 0 200 255
0.316521 0.106083 0.313980 0 200 255
0.312513 0.101473 0.401740 0 200 255
0.300171 0.082534 0.466460 0 200 255
0.324467 0.247686 0.391619 0 200 255
0.273159 0.159132 0.312507 0 200 255
0.319921 0.074444 0.350795 0 200 255
0.280286 0.134325 0.373535 0 200 255
0.316994 0.151681 0.352133 0 200 255
0.323440 0.220891 0.368803 0 200 255
0.289432 0.099716 0.431432 0 200 255
0.298543 0.071266 0.405499 0 200 255
0.315866 0.136847 0.323762 0 200 255
0.286912 0.061528 0.360719 0 200 255
0.285620 0.104198 0.310405 0 200 255
0.309416 0.198848 0.389599 0 200 255
0.307223 0.237685 0.415004 0 200 255
0.316931 0.093469 0.373527 0 200 255
0.317961 0.049390 0.429488 0 200 255
0.311547 0.020785 0.463056 0 200 255
0.299724 0.169054 0.367154 0 200 255
0.292093 0.065066 0.435603 0 200 255
0.324336 0.220343 0.396841 0 200 255
0.315739 0.106053 0.431153 0 200 255
0.320024 0.120889 0.384483 0 200 255
0.277438 0.094245 0.355294 0 200 255
0.318365 0.049177 0.402486 0 200 255
0.311986 0.081251 0.326515 0 200 255
0.318653 0.044953 0.471463 0 200 255
0.313393 0.143308 0.298561 0 200 255
0.294832 0.116881 0.361492 0 200 255
0.314903 0.022745 0.417811 0 200 255
0.298661 0.152029 0.334599 0 200 255
0.275595 0.129379 0.316388 0 200 255
0.313863 0.200496 0.353959 0 200 255
0.308725 0.125587 0.406630 0 200 255
0.291001 0.050873 0.391675 0 200 255
0.279513 0.112068 0.387238 0 200 255
0.305807 0.073177 0.382681 0 200 255
0.301748 0.253015 0.397543 0 200 255
0.290629 0.093597 0.407728 0 200 255
0.318952 0.069343 0.472327 0 200 255
0.290198 0.144291 0.393084 0 200 255
0.315055 0.092695 0.451387 0 200 255
0.299831 0.081943 0.361846 0 200 255
0.271633 0.140804 0.337761 0 200 255
0.308672 0.066404 0.451568 0 200 255
0.309568 0.030009 0.439529 0 200 255
0.301305 0.215968 0.366288 0 200 255
0.295687 0.142029 0.314810 0 200 255
0.287365 0.169943 0.325955 0 200 255
0.306169 0.169736 0.345560 0 200 255
0.330036 0.204537 0.381581 0 200 255
0.299068 0.060994 0.473581 0 200 255
0.299242 0.101211 0.383232 0 200 255
0.290913 0.085050 0.446824 0 200 255
0.316701 0.065879 0.415919 0 200 255
0.279252 0.097836 0.329524 0 200 255
0.319650 0.102705 0.335035 0 200 255
0.315096 0.131098 0.365301 0 200 255
0.286323 0.155616 0.375414 0 200 255
0.297393 0.115291 0.420562 0 200 255
0.272136 0.141539 0.300216 0 200 255
0.307705 0.089427 0.418607 0 200 255
0.310911 0.125183 0.307414 0 200 255
0.291954 0.206133 0.382271 0 200 255
0.311561 0.236624 0.380589 0 200 255
0.297722 0.045893 0.432604 0 200 255
0.274890 0.115395 0.363749 0 200 255
0.306949 0.062134 0.360303 0 200 255
0.298059 0.184310 0.382497 0 200 255
0.295497 0.122868 0.391357 0 200 255
0.322800 0.249694 0.414026 0 200 255
0.297464 0.258840 0.415941 0 200 255
0.297386 0.153954 0.353849 0 200 255
0.290772 0.079531 0.423135 0 200 255
0.292631 0.057675 0.417582 0 200 255
0.318491 0.049073 0.452469 0 200 255
0.308556 0.185777 0.365113 0 200 255
0.301476 0.036821 0.471038 0 200 255
0.306206 0.036583 0.396161 0 200 255
0.299128 0.020219 0.427697 0 200 255
0.275093 0.133135 0.355772 0 200 255
0.303955 0.086088 0.395942 0 200 255
0.294442 0.089205 0.316522 0 200 255
0.316832 0.066746 0.395960 0 200 255
0.297554 0.065616 0.344668 0 200 255
0.292147 0.178455 0.353251 0 200 255
0.314463 0.133321 0.347176 0 200 255
0.314821 0.264250 0.403369 0 200 255
0.293501 0.237384 0.402737 0 200 255
0.318181 0.118859 0.326909 0 200 255
0.315597 0.154768 0.369928 0 200 255
0.289174 0.073232 0.390133 0 200 255
0.277802 0.129524 0.391349 0 200 255
0.297577 0.210415 0.398749 0 200 255
0.294902 0.059220 0.376611 0 200 255
0.277317 0.155311 0.329141 0 200 255
0.307924 0.227742 0.400075 0 200 255
0.281267 0.073820 0.349496 0 200 255
0.312293 0.218189 0.384407 0 200 255
0.297264 0.109498 0.403407 0 200 255
0.313518 0.099546 0.353047 0 200 255
0.322686 0.184640 0.352084 0 200 255
0.301028 0.111429 0.308625 0 200 255
0.277015 0.148616 0.362462 0 200 255
0.279607 0.080770 0.365332 0 200 255
0.323737 0.235480 0.404239 0 200 255
0.277495 0.101503 0.373486 0 200 255
0.308659 0.062493 0.434934 0 200 255
0.312885 0.040237 0.416386 0 200 255
0.320427 0.018564 0.433959 0 200 255
0.313080 0.114698 0.367766 0 200 255
0.326931 0.205555 0.363054 0 200 255
0.276066 0.113994 0.322426 0 200 255
0.299881 0.098670 0.444043 0 200 255
0.312490 0.152836 0.325018 0 200 255
0.281079 0.097016 0.394907 0 200 255
0.326490 0.231041 0.384175 0 200 255
0.302075 0.055459 0.403937 0 200 255
0.312174 0.110949 0.414940 0 200 255
0.300424 0.029067 0.452802 0 200 255
0.301900 0.085416 0.435163 0 200 255
0.319438 0.032376 0.455325 0 200 255
0.270034 0.144411 0.319973 0 200 255
0.317285 0.156626 0.308449 0 200 255
0.287406 0.121796 0.308433 0 200 255
0.308278 0.113426 0.391816 0 200 255
0.318145 0.132023 0.395819 0 200 255
0.305944 0.073662 0.479881 0 200 255
0.315208 0.081548 0.462371 0 200 255
0.297200 0.140153 0.346573 0 200 255
0.316408 0.014926 0.448531 0 200 255
0.312327 0.078050 0.407223 0 200 255
0.281924 0.110402 0.403921 0 200 255
0.304479 0.201408 0.367409 0 200 255
0.313155 0.096193 0.387809 0 200 255
0.301018 0.135659 0.398572 0 200 255
0.319120 0.083079 0.363091 0 200 255
0.279176 0.086792 0.342661 0 200 255
0.306761 0.055622 0.421350 0 200 255
0.310532 0.241487 0.394870 0 200 255
0.314558 0.057414 0.463868 0 200 255
0.312933 0.092135 0.316662 0 200 255
0.301658 0.025299 0.412146 0 200 255
0.308958 0.252098 0.421939 0 200 255
0.297236 0.068843 0.461403 0 200 255
0.313803 0.089292 0.342660 0 200 255
0.310924 0.165040 0.358763 0 200 255
0.315144 0.066965 0.371288 0 200 255
0.296626 0.100832 0.418872 0 200 255
0.288656 0.162220 0.338145 0 200 255
0.314163 0.191526 0.377135 0 200 255
0.317562 0.043006 0.389440 0 200 255
0.300747 0.019073 0.442101 0 200 255
0.285630 0.163194 0.360848 0 200 255
0.316696 0.057469 0.479847 0 200 255
0.312842 0.079080 0.446759 0 200 255
0.298084 0.239349 0.388532 0 200 255
0.303781 0.034459 0.426956 0 200 255
0.319958 0.039400 0.441171 0 200 255
0.302741 0.227304 0.374784 0 200 255
0.294979 0.182276 0.368152 0 200 255
0.308176 0.048105 0.442748 0 200 255
0.308650 0.075600 0.338873 0 200 255
0.300874 0.068788 0.419655 0 200 255
0.302599 0.063668 0.392428 0 200 255
0.319197 0.135341 0.377955 0 200 255
0.312730 0.151113 0.338884 0 200 255
0.289376 0.076036 0.374035 0 200 255
0.273394 0.129186 0.330316 0 200 255
0.280499 0.120652 0.349979 0 200 255
0.314371 0.031176 0.405902 0 200 255
0.275839 0.105859 0.345961 0 200 255
0.308637 0.146176 0.361688 0 200 255
0.309202 0.139369 0.312007 0 200 255
0.301990 0.090356 0.454755 0 200 255
0.319612 0.208564 0.391894 0 200 255
0.279902 0.145579 0.381913 0 200 255
0.317275 0.091360 0.436209 0 200 255
0.310055 0.252553 0.408133 0 200 255
0.303929 0.087939 0.382547 0 200 255
0.297334 0.059921 0.446824 0 200 255
0.296994 0.152019 0.384491 0 200 255
0.299844 0.045959 0.382884 0 200 255
0.306109 0.048704 0.475108 0 200 255
0.287268 0.149838 0.321641 0 200 255
0.328477 0.218086 0.381616 0 200 255
0.293709 0.039308 0.399827 0 200 255
0.273930 0.146591 0.349700 0 200 255
0.298627 0.079051 0.326609 0 200 255
0.317474 0.080472 0.419347 0 200 255
0.315376 0.208994 0.368430 0 200 255
0.306804 0.181556 0.352755 0 200 255
0.284488 0.085634 0.325141 0 200 255
0.314332 0.061840 0.384039 0 200 255
0.301913 0.195188 0.355132 0 200 255
0.299335 0.129495 0.313654 0 200 255
0.293936 0.094269 0.394488 0 200 255
0.310153 0.040268 0.459820 0 200 255
0.299323 0.075566 0.449643 0 200 255
0.296946 0.130902 0.409933 0 200 255
0.302583 0.099987 0.314529 0 200 255
0.298709 0.156252 0.368727 0 200 255
0.300076 0.064063 0.487045 0 200 255
0.325029 0.255640 0.401732 0 200 255
0.298367 0.055630 0.461263 0 200 255
0.280633 0.131906 0.343831 0 200 255
0.277867 0.123141 0.379244 0 200 255
0.303749 0.072863 0.370077 0 200 255
0.298600 0.036669 0.442714 0 200 255
0.297988 0.083477 0.410166 0 200 255
0.305203 0.268043 0.411859 0 200 255
0.297034 0.195912 0.387824 0 200 255
0.301911 0.167808 0.326630 0 200 255
0.291386 0.218027 0.377952 0 200 255
0.291190 0.207514 0.368546 0 200 255
0.316484 0.030691 0.428969 0 200 255
0.303422 0.096256 0.408794 0 200 255
0.288607 0.132539 0.397383 0 200 255
0.305139 0.097716 0.372672 0 200 255
0.303655 0.109136 0.429528 0 200 255
0.290627 0.109730 0.392784 0 200 255
0.313905 0.254083 0.393562 0 200 255
0.291673 0.061779 0.401255 0 200 255
0.311357 0.037891 0.478663 0 200 255
0.294197 0.165767 0.351830 0 200 255
0.294170 0.248856 0.407338 0 200 255
0.317312 0.067941 0.442856 0 200 255
0.307198 0.126473 0.393120 0 200 255
0.316233 0.092612 0.328795 0 200 255
0.305253 0.009826 0.449737 0 200 255
0.311212 0.082287 0.372742 0 200 255
0.299361 0.070991 0.356268 0 200 255
0.312027 0.109819 0.380788 0 200 255
0.293592 0.094422 0.374637 0 200 255
0.319259 0.104317 0.366458 0 200 255
0.315113 0.067993 0.485672 0 200 255
0.282601 0.136471 0.303676 0 200 255
0.296914 0.222844 0.401315 0 200 255
0.317524 0.051563 0.417634 0 200 255
0.305566 0.073427 0.438980 0 200 255
0.320144 0.192860 0.362606 0 200 255
0.310065 0.013658 0.428046 0 200 255
0.316099 0.096394 0.424004 0 200 255
0.309103 0.067992 0.465361 0 200 255
0.311675 0.100122 0.442603 0 200 255
0.322762 0.261534 0.412378 0 200 255
0.313614 0.114152 0.403528 0 200 255
0.309352 0.211559 0.397497 0 200 255
0.317877 0.123192 0.337967 0 200 255
0.306807 0.177133 0.373065 0 200 255
0.282485 0.113120 0.374973 0 200 255
0.314452 0.228109 0.371245 0 200 255
0.317169 0.140290 0.337881 0 200 255
0.327856 0.193577 0.378070 0 200 255
0.295350 0.192494 0.374315 0 200 255
0.307181 0.145878 0.348683 0 200 255
0.296037 0.091495 0.426454 0 200 255
0.316877 0.117823 0.314210 0 200 255
0.314889 0.081298 0.383746 0 200 255
0.305902 0.227593 0.388138 0 200 255
0.309340 0.161487 0.332939 0 200 255
0.314157 0.241902 0.406148 0 200 255
0.294994 0.076150 0.433251 0 200 255
0.316901 0.065132 0.427435 0 200 255
0.306264 0.111293 0.318791 0 200 255
0.292997 0.118471 0.409472 0 200 255
0.305089 0.142479 0.337975 0 200 255
0.303960 0.055326 0.369711 0 200 255
0.314923 0.064228 0.350964 0 200 255
0.288182 0.108318 0.418839 0 200 255
0.296646 0.047895 0.421496 0 200 255
0.292094 0.083313 0.400580 0 200 255
0.300431 0.161668 0.340228 0 200 255
0.308438 0.209816 0.359629 0 200 255
0.299055 0.145821 0.325252 0 200 255
0.294946 0.082551 0.387733 0 200 255
0.301917 0.217084 0.390839 0 200 255
0.298765 0.056599 0.429440 0 200 255
0.302961 0.028544 0.463672 0 200 255
0.299439 0.128179 0.302612 0 200 255
0.317406 0.226606 0.389565 0 200 255
0.277433 0.167150 0.321821 0 200 255
0.309919 0.075214 0.393947 0 200 255
0.285404 0.096154 0.318041 0 200 255
0.277788 0.102993 0.362509 0 200 255
0.291652 0.089975 0.436938 0 200 255
0.302809 0.053447 0.484539 0 200 255
0.307057 0.045137 0.424733 0 200 255
0.301993 0.119087 0.400755 0 200 255
0.303919 0.138591 0.301600 0 200 255
0.315730 0.056427 0.440788 0 200 255
0.307367 0.049997 0.411881 0 200 255
0.298246 0.073143 0.336347 0 200 255
0.308321 0.052179 0.456502 0 200 255
0.279210 0.099980 0.384203 0 200 255
0.279085 0.120948 0.398900 0 200 255
0.309695 0.023530 0.449131 0 200 255
0.308196 0.214527 0.374628 0 200 255
0.311348 0.039775 0.434523 0 200 255
0.310912 0.159492 0.347621 0 200 255
0.318380 0.080114 0.337081 0 200 255
0.301508 0.102912 0.395893 0 200 255
0.310375 0.079652 0.471904 0 200 255
0.297332 0.073547 0.471838 0 200 255
0.305781 0.039518 0.406592 0 200 255
0.280703 0.113967 0.311731 0 200 255
0.327645 0.211007 0.373279 0 200 255
0.319175 0.197323 0.384600 0 200 255
0.294830 0.064910 0.367591 0 200 255
0.320558 0.087862 0.353667 0 200 255
0.313537 0.074402 0.360426 0 200 255
0.312320 0.057140 0.395193 0 200 255
0.314442 0.138603 0.357013 0 200 255
0.314144 0.091464 0.398627 0 200 255
0.299663 0.045943 0.465959 0 200 255
0.318134 0.182742 0.372744 0 200 255
0.300791 0.260441 0.406014 0 200 255
0.273555 0.151821 0.340554 0 200 255
0.302664 0.177590 0.361710 0 200 255
0.312343 0.174056 0.364650 0 200 255
0.304758 0.118212 0.413004 0 200 255
0.312831 0.089867 0.409461 0 200 255
0.293466 0.074208 0.414506 0 200 255
0.321805 0.241515 0.383575 0 200 255
0.314773 0.124422 0.376150 0 200 255
0.296848 0.084476 0.371548 0 200 255
0.279020 0.124066 0.368892 0 200 255
0.325428 0.231543 0.394562 0 200 255
0.317214 0.119924 0.394502 0 200 255
0.300919 0.162087 0.359356 0 200 255
0.277528 0.109592 0.332386 0 200 255
0.292914 0.108994 0.428204 0 200 255
0.289685 0.118643 0.398907 0 200 255
0.300436 0.031157 0.403408 0 200 255
0.300644 0.232291 0.408346 0 200 255
0.283001 0.082357 0.355187 0 200 255
0.306651 0.080508 0.455131 0 200 255
0.311511 0.140025 0.396156 0 200 255
0.308351 0.051800 0.432641 0 200 255
0.280490 0.138836 0.362875 0 200 255
0.313529 0.145219 0.373442 0 200 255
0.300495 0.027845 0.434588 0 200 255
0.325722 0.245646 0.404712 0 200 255
0.304727 0.062505 0.380264 0 200 255
0.293269 0.060077 0.387550 0 200 255
0.310830 0.154813 0.379097 0 200 255
0.309201 0.058599 0.472854 0 200 255
0.285063 0.067968 0.369300 0 200 255
0.294874 0.060594 0.353252 0 200 255
0.276301 0.139094 0.313070 0 200 255
0.318392 0.057495 0.408532 0 200 255
0.304674 0.085265 0.445898 0 200 255
0.313810 0.218833 0.365882 0 200 255
0.296673 0.168947 0.317872 0 200 255
0.305438 0.261856 0.422252 0 200 255
0.299639 0.047792 0.397581 0 200 255
0.281133 0.105515 0.319693 0 200 255
0.308593 0.024371 0.427586 0 200 255
0.278617 0.091460 0.372179 0 200 255
0.312131 0.035574 0.468618 0 200 255
0.299174 0.062852 0.411164 0 200 255
0.313262 0.190906 0.350682 0 200 255
0.307776 0.069384 0.412265 0 200 255
0.295573 0.081303 0.457527 0 200 255
0.314378 0.244779 0.417537 0 200 255
0.305857 0.088743 0.366260 0 200 255
0.267789 0.151365 0.308930 0 200 255
0.297291 0.050536 0.411529 0 200 255
0.292055 0.161424 0.328590 0 200 255
0.325126 0.179159 0.362085 0 200 255
0.292637 0.214973 0.387418 0 200 255
0.315690 0.108834 0.341906 0 200 255
0.297972 0.075996 0.394632 0 200 255
0.277783 0.097141 0.341497 0 200 255
0.318708 0.010323 0.439316 0 200 255
0.299171 0.210539 0.376067 0 200 255
0.307170 0.190230 0.384084 0 200 255
0.313800 0.220518 0.396529 0 200 255
0.306436 0.102260 0.418422 0 200 255
0.315317 0.106436 0.323822 0 200 255
0.304005 0.020205 0.456648 0 200 255
0.296019 0.244844 0.396745 0 200 255
0.317946 0.137893 0.387869 0 200 255
0.291840 0.113144 0.305534 0 200 255
0.318312 0.032063 0.415673 0 200 255
0.282758 0.072781 0.360550 0 200 255
0.315554 0.120173 0.359775 0 200 255
0.300918 0.055241 0.438983 0 200 255
0.300959 0.220195 0.381592 0 200 255
0.288601 0.067354 0.348814 0 200 255
0.293479 0.068642 0.426059 0 200 255
0.305933 0.160467 0.321518 0 200 255
0.318709 0.256290 0.419973 0 200 255
0.305481 0.087382 0.322559 0 200 255
0.317595 0.028398 0.444826 0 200 255
0.296884 0.040882 0.390643 0 200 255
0.297873 0.069104 0.376863 0 200 255
0.298331 0.206649 0.361986 0 200 255
0.307110 0.162185 0.367238 0 200 255
0.302273 0.171069 0.354514 0 200 255
0.311557 0.083685 0.426872 0 200 255
0.294338 0.089579 0.417105 0 200 255
0.317514 0.070068 0.405444 0 200 255
0.318913 0.044037 0.461400 0 200 255
0.290301 0.071177 0.399580 0 200 255
0.317791 0.053571 0.387558 0 200 255
0.273944 0.124522 0.359904 0 200 255
0.315529 0.269175 0.411598 0 200 255
0.320002 0.095860 0.361961 0 200 255
0.303557 0.236822 0.399525 0 200 255
0.301515 0.013658 0.434200 0 200 255
0.308861 0.044328 0.385414 0 200 255
0.272328 0.135777 0.346352 0 200 255
0.297609 0.102351 0.435476 0 200 255
0.298804 0.248604 0.415621 0 200 255
0.304058 0.147754 0.390546 0 200 255
0.298842 0.046433 0.442649 0 200 255
0.307313 0.065909 0.345581 0 200 255
0.308256 0.031926 0.413624 0 200 255
0.297196 0.206308 0.390141 0 200 255
0.329993 0.210637 0.388808 0 200 255
0.317534 0.041342 0.408229 0 200 255
0.313015 0.110186 0.356399 0 200 255
0.316123 0.234786 0.398446 0 200 255
0.314143 0.074788 0.455259 0 200 255
0.327894 0.199895 0.371082 0 200 255
0.322919 0.213958 0.361628 0 200 255
0.296087 0.069314 0.443387 0 200 255
0.290718 0.161270 0.368535 0 200 255
0.323167 0.194266 0.353802 0 200 255
0.314279 0.038035 0.449859 0 200 255
0.277533 0.145146 0.371190 0 200 255
0.310794 0.195726 0.361460 0 200 255
0.291729 0.050658 0.382293 0 200 255
0.311195 0.232308 0.408410 0 200 255
0.311237 0.226751 0.379961 0 200 255
0.294475 0.171980 0.359618 0 200 255
0.312260 0.112111 0.424922 0 200 255
0.291575 0.146595 0.342776 0 200 255
0.306109 0.060891 0.458991 0 200 255
0.318719 0.040768 0.398418 0 200 255
0.274374 0.136373 0.322415 0 200 255
0.288156 0.090131 0.388498 0 200 255
0.313838 0.059368 0.366103 0 200 255
0.292078 0.233498 0.394426 0 200 255
0.295582 0.107661 0.412673 0 200 255
0.305141 0.110032 0.408258 0 200 255
0.298106 0.031942 0.418362 0 200 255
0.317110 0.128261 0.326946 0 200 255
0.326418 0.225373 0.376335 0 200 255
0.308253 0.105799 0.307704 0 200 255
0.271095 0.153893 0.322514 0 200 255
0.302510 0.084366 0.425454 0 200 255
0.318268 0.017785 0.425071 0 200 255
0.304476 0.019091 0.420325 0 200 255
0.308101 0.155290 0.360826 0 200 255
0.312018 0.244726 0.386420 0 200 255
0.304794 0.087812 0.405559 0 200 255
0.277329 0.136815 0.381898 0 200 255
0.295435 0.125298 0.402883 0 200 255
0.303448 0.246623 0.391253 0 200 255
0.307804 0.039022 0.443522 0 200 255
0.311336 0.083708 0.438043 0 200 255
0.316355 0.142677 0.316535 0 200 255
0.306693 0.140127 0.320695 0 200 255
0.289479 0.082789 0.413188 0 200 255
0.318139 0.221601 0.376315 0 200 255
0.318096 0.141585 0.346926 0 200 255
0.297327 0.069311 0.387751 0 200 255
0.274513 0.112617 0.355184 0 200 255
0.309155 0.066937 0.422676 0 200 255
0.307681 0.134497 0.405918 0 200 255
0.301972 0.037044 0.456665 0 200 255
0.301437 0.094519 0.389566 0 200 255
0.292396 0.093976 0.445580 0 200 255
0.272726 0.124191 0.347253 0 200 255
0.304394 0.246466 0.404778 0 200 255
0.294219 0.072958 0.363706 0 200 255
0.282905 0.156207 0.365744 0 200 255
0.310867 0.103264 0.410540 0 200 255
0.291691 0.135463 0.310228 0 200 255
0.311864 0.144727 0.332216 0 200 255
0.298049 0.241195 0.410692 0 200 255
0.275107 0.146249 0.327090 0 200 255
0.319089 0.231632 0.379213 0 200 255
0.294147 0.189041 0.358868 0 200 255
0.298662 0.068026 0.479209 0 200 255
0.314446 0.039677 0.426189 0 200 255
0.280992 0.079939 0.374075 0 200 255
0.314955 0.056509 0.424684 0 200 255
0.312032 0.058266 0.450654 0 200 255
0.298589 0.056446 0.395575 0 200 255
0.306016 0.094652 0.397281 0 200 255
0.308260 0.258760 0.401230 0 200 255
0.278833 0.154167 0.355463 0 200 255
0.315031 0.020565 0.441694 0 200 255
0.282453 0.085649 0.333718 0 200 255
0.298801 0.076343 0.424873 0 200 255
0.328195 0.222727 0.389294 0 200 255
0.320528 0.240020 0.411918 0 200 255
0.269406 0.142698 0.308973 0 200 255
0.296963 0.078050 0.377972 0 200 255
0.299204 0.133266 0.294143 0 200 255
0.317101 0.148301 0.304710 0 200 255
0.302097 0.122682 0.308861 0 200 255
0.282137 0.107389 0.339467 0 200 255
0.316449 0.086889 0.444351 0 200 255
0.308697 0.062690 0.443687 0 200 255
0.302270 0.052250 0.448140 0 200 255
0.303296 0.235085 0.382770 0 200 255
0.300308 0.194520 0.364175 0 200 255
0.315218 0.024424 0.456091 0 200 255
0.303767 0.074789 0.464625 0 200 255
0.278528 0.124354 0.338618 0 200 255
0.285884 0.164317 0.346561 0 200 255
0.307628 0.086183 0.461599 0 200 255
0.303941 0.053207 0.467931 0 200 255
0.319407 0.116570 0.373353 0 200 255
0.302869 0.119076 0.388168 0 200 255
0.317864 0.098403 0.321965 0 200 255
0.317950 0.072624 0.422897 0 200 255
0.315063 0.123776 0.349468 0 200 255
0.313731 0.105690 0.372925 0 200 255
0.282374 0.142225 0.390126 0 200 255
0.303949 0.042889 0.415247 0 200 255
0.299148 0.054805 0.383413 0 200 255
0.305201 0.151375 0.320792 0 200 255
0.298850 0.080453 0.441909 0 200 255
0.303303 0.079356 0.404928 0 200 255
0.295868 0.168228 0.343189 0 200 255
0.318081 0.226793 0.400638 0 200 255
0.311072 0.084139 0.391701 0 200 255
0.307007 0.091430 0.426973 0 200 255
0.299611 0.060317 0.421661 0 200 255
0.279291 0.140007 0.349667 0 200 255
0.316704 0.084658 0.454618 0 200 255
0.304794 0.110758 0.399701 0 200 255
0.299606 0.065428 0.431698 0 200 255
0.278843 0.121171 0.387426 0 200 255
0.291923 0.100983 0.389747 0 200 255
0.317371 0.068105 0.463614 0 200 255
0.318954 0.201135 0.361378 0 200 255
0.301594 0.037301 0.434603 0 200 255
0.319236 0.255168 0.407850 0 200 255
0.313720 0.006307 0.444794 0 200 255
0.317360 0.112933 0.389805 0 200 255
0.317383 0.209046 0.357620 0 200 255
0.290909 0.062736 0.409605 0 200 255
0.288147 0.080756 0.380877 0 200 255
0.300408 0.028557 0.443839 0 200 255
0.294864 0.045933 0.404957 0 200 255
0.298861 0.051939 0.375446 0 200 255
0.303567 0.041450 0.478415 0 200 255
0.303489 0.061602 0.351646 0 200 255
0.298754 0.220158 0.373065 0 200 255
0.326791 0.238135 0.389602 0 200 255
0.319394 0.105175 0.348445 0 200 255
0.314684 0.161615 0.316787 0 200 255
0.305513 0.155307 0.352414 0 200 255
0.288139 0.131641 0.406131 0 200 255
0.319807 0.112758 0.381260 0 200 255
0.307810 0.104304 0.436530 0 200 255
0.311347 0.135081 0.305201 0 200 255
0.310441 0.065569 0.390395 0 200 255
0.314551 0.077167 0.345061 0 200 255
0.290796 0.199310 0.372984 0 200 255
0.290777 0.150188 0.329158 0 200 255
0.273459 0.121878 0.326378 0 200 255
0.303064 0.204283 0.395650 0 200 255
0.307993 0.065817 0.489336 0 200 255
0.284944 0.073959 0.342077 0 200 255
0.293354 0.065448 0.393902 0 200 255
0.297542 0.099492 0.403947 0 200 255
0.292991 0.116311 0.386984 0 200 255
0.305694 0.219993 0.398244 0 200 255
0.301623 0.163574 0.348940 0 200 255
0.317289 0.062741 0.435690 0 200 255
0.278210 0.157918 0.337484 0 200 255
0.305833 0.115480 0.420725 0 200 255
0.310246 0.172849 0.356209 0 200 255
0.313499 0.119377 0.409903 0 200 255
0.319593 0.129863 0.384086 0 200 255
0.292969 0.138005 0.401712 0 200 255
0.315993 0.088460 0.418089 0 200 255
0.311845 0.074664 0.369734 0 200 255
0.311964 0.068934 0.378603 0 200 255
0.311356 0.120244 0.388421 0 200 255
0.310696 0.248957 0.400135 0 200 255
0.314963 0.097134 0.344772 0 200 255
0.294302 0.225289 0.380374 0 200 255
0.295277 0.089199 0.382965 0 200 255
0.305411 0.155680 0.337362 0 200 255
0.319026 0.139881 0.363614 0 200 255
0.314218 0.133787 0.315133 0 200 255
0.312666 0.206150 0.388145 0 200 255
0.279790 0.152407 0.345937 0 200 255
0.315931 0.030306 0.462339 0 200 255
0.280778 0.129154 0.306659 0 200 255
0.298722 0.184603 0.353856 0 200 255
0.313093 0.051394 0.472019 0 200 255
0.299545 0.041026 0.424843 0 200 255
0.311190 0.234579 0.390702 0 200 255
0.301588 0.010499 0.441780 0 200 255
0.315899 0.074477 0.414150 0 200 255
0.278259 0.089485 0.364344 0 200 255
0.298788 0.179628 0.375953 0 200 255
0.311833 0.129275 0.400018 0 200 255
0.315110 0.066598 0.361670 0 200 255
0.290018 0.098733 0.422963 0 200 255
0.293123 0.102551 0.308030 0 200 255
0.319157 0.056792 0.457303 0 200 255
0.315564 0.048663 0.437125 0 200 255
0.306870 0.041375 0.451992 0 200 255
0.292526 0.151648 0.372202 0 200 255
0.297675 0.088338 0.442821 0 200 255
0.306496 0.221031 0.369709 0 200 255
0.301506 0.137415 0.310946 0 200 255
0.310317 0.262243 0.409772 0 200 255
0.279134 0.135280 0.296558 0 200 255
0.313695 0.074695 0.466277 0 200 255
0.316909 0.246241 0.395692 0 200 255
0.307669 0.095081 0.449483 0 200 255
0.309340 0.163262 0.340754 0 200 255
0.297131 0.113283 0.395764 0 200 255
0.315143 0.113708 0.332191 0 200 255
0.300852 0.123450 0.408441 0 200 255
0.314190 0.103739 0.421593 0 200 255
0.279596 0.145055 0.355834 0 200 255
0.297753 0.141924 0.393771 0 200 255
0.318664 0.129793 0.358323 0 200 255
0.309133 0.054509 0.479857 0 200 255
0.318544 0.116145 0.343412 0 200 255
0.316955 0.099640 0.436708 0 200 255
0.295867 0.129617 0.396119 0 200 255
0.323239 0.241270 0.396079 0 200 255
0.279428 0.106333 0.392664 0 200 255
0.306394 0.201754 0.356166 0 200 255
0.274101 0.151133 0.313628 0 200 255
0.298011 0.094668 0.433382 0 200 255
0.313509 0.072912 0.438014 0 200 255
0.284908 0.165187 0.320201 0 200 255
0.316604 0.027578 0.436183 0 200 255
0.313160 0.071582 0.477139 0 200 255
0.320746 0.218109 0.382982 0 200 255
0.293435 0.155930 0.338942 0 200 255
0.296029 0.197641 0.380178 0 200 255
0.296431 0.173383 0.349054 0 200 255
0.306766 0.071181 0.353743 0 200 255
0.294391 0.088265 0.454169 0 200 255
0.282198 0.094853 0.378224 0 200 255
0.328117 0.193463 0.365177 0 200 255
0.293823 0.034629 0.407350 0 200 255
0.317384 0.061739 0.472928 0 200 255
0.302420 0.064092 0.466213 0 200 255
0.290782 0.125392 0.412253 0 200 255
0.283352 0.100271 0.368522 0 200 255
0.309943 0.057565 0.374129 0 200 255
0.298759 0.064343 0.399366 0 200 255
0.313095 0.213571 0.390584 0 200 255
0.295084 0.219937 0.394366 0 200 255
0.296339 0.199405 0.359568 0 200 255
0.307544 0.071841 0.458029 0 200 255
0.281919 0.105357 0.327649 0 200 255
0.275011 0.130107 0.366244 0 200 255
0.312842 0.121535 0.400653 0 200 255
0.295695 0.147321 0.349259 0 200 255
0.275702 0.113522 0.347617 0 200 255
0.297805 0.091330 0.406037 0 200 255
0.295563 0.143581 0.336906 0 200 255
0.304642 0.188104 0.357336 0 200 255
0.292888 0.214538 0.371219 0 200 255
0.303895 0.128967 0.401675 0 200 255
0.319294 0.051149 0.464314 0 200 255
0.310906 0.052720 0.401332 0 200 255
0.304784 0.021535 0.435542 0 200 255
0.309222 0.031257 0.431967 0 200 255
0.298916 0.230038 0.399592 0 200 255
0.315094 0.189096 0.367291 0 200 255
0.303494 0.026632 0.422357 0 200 255
0.286853 0.150288 0.380836 0 200 255
0.299890 0.060309 0.362503 0 200 255
0.301656 0.095511 0.420966 0 200 255
0.305126 0.077555 0.376494 0 200 255
0.301443 0.066110 0.448465 0 200 255
0.304999 0.103908 0.377073 0 200 255
0.314948 0.255167 0.401302 0 200 255
0.314311 0.046128 0.421849 0 200 255
0.309281 0.035810 0.421906 0 200 255
0.320304 0.092060 0.346575 0 200 255
0.315915 0.047258 0.383381 0 200 255
0.307270 0.074733 0.449499 0 200 255
0.313830 0.136526 0.331053 0 200 255
0.303231 0.077733 0.474083 0 200 255
0.315314 0.076715 0.400396 0 200 255
0.317102 0.132733 0.337996 0 200 255
0.300226 0.107468 0.419160 0 200 255
0.303866 0.059920 0.479662 0 200 255
0.319533 0.101197 0.374688 0 200 255
0.316122 0.058937 0.401489 0 200 255
0.305551 0.247488 0.412153 0 200 255
0.307830 0.033124 0.460150 0 200 255
0.292995 0.181185 0.360201 0 200 255
0.281683 0.130081 0.379569 0 200 255
0.320282 0.088798 0.367813 0 200 255
0.295129 0.134903 0.300695 0 200 255
0.313339 0.108175 0.363932 0 200 255
0.289163 0.125683 0.394384 0 200 255
0.315667 0.059566 0.488128 0 200 255
0.312525 0.072352 0.385907 0 200 255
0.282599 0.129135 0.400298 0 200 255
0.313938 0.098341 0.365599 0 200 255
0.283900 0.067035 0.355884 0 200 255
0.307171 0.269069 0.419098 0 200 255
0.277145 0.117329 0.371528 0 200 255
0.305766 0.080062 0.431668 0 200 255
0.311268 0.025413 0.411554 0 200 255
0.308982 0.106183 0.393465 0 200 255
0.313857 0.155558 0.332994 0 200 255
0.291460 0.046131 0.397856 0 200 255
0.298762 0.060456 0.455605 0 200 255
0.318391 0.052909 0.396006 0 200 255
0.307666 0.058461 0.428170 0 200 255
0.304855 0.017230 0.449105 0 200 255
0.300867 0.032598 0.410933 0 200 255
0.313148 0.076144 0.377233 0 200 255
0.314425 0.085906 0.358077 0 200 255
0.299240 0.050995 0.389785 0 200 255
0.299635 0.154948 0.360934 0 200 255
0.312983 0.143663 0.324302 0 200 255
0.318865 0.087489 0.333472 0 200 255
0.277168 0.102742 0.336509 0 200 255
0.288475 0.142825 0.319548 0 200 255
0.296541 0.135417 0.318044 0 200 255
0.318633 0.066249 0.479398 0 200 255
0.309437 0.089285 0.455128 0 200 255
0.308843 0.152111 0.372514 0 200 255
0.276282 0.107844 0.369917 0 200 255
0.294670 0.064740 0.382013 0 200 255
0.293990 0.161359 0.345087 0 200 255
0.315485 0.112200 0.309663 0 200 255
0.321810 0.261739 0.404313 0 200 255
0.299275 0.204567 0.371763 0 200 255
0.301989 0.103542 0.409698 0 200 255
0.279696 0.127931 0.353354 0 200 255
0.310748 0.182634 0.375946 0 200 255
0.293969 0.077726 0.407968 0 200 255
0.315294 0.071624 0.340288 0 200 255
0.322720 0.188770 0.372062 0 200 255
0.314530 0.095321 0.380651 0 200 255
0.295321 0.231951 0.385199 0 200 255
0.299163 0.039030 0.449635 0 200 255
0.292684 0.099078 0.439808 0 200 255
0.282830 0.136018 0.394529 0 200 255
0.306645 0.168796 0.364127 0 200 255
0.318749 0.112707 0.360162 0 200 255
0.305184 0.059769 0.398038 0 200 255
0.304868 0.038214 0.464471 0 200 255
0.320553 0.249852 0.400890 0 200 255
0.317264 0.249112 0.388977 0 200 255
0.305160 0.094629 0.379905 0 200 255
0.304470 0.033990 0.449269 0 200 255
0.276672 0.115184 0.378849 0 200 255
0.316776 0.146002 0.381058 0 200 255
0.314291 0.045856 0.446000 0 200 255
0.312187 0.258545 0.422960 0 200 255
0.328329 0.218779 0.373935 0 200 255
0.298435 0.079651 0.418420 0 200 255
0.302180 0.074008 0.412385 0 200 255
0.303977 0.049010 0.419134 0 200 255
0.310237 0.146532 0.317016 0 200 255
0.317632 0.235767 0.384969 0 200 255
0.306288 0.028335 0.407208 0 200 255
0.291091 0.079438 0.393282 0 200 255
0.300243 0.265276 0.417656 0 200 255
0.302523 0.253262 0.406324 0 200 255
0.308388 0.091859 0.391068 0 200 255
0.315533 0.023174 0.429126 0 200 255
0.309763 0.179476 0.359004 0 200 255
0.271557 0.140573 0.329755 0 200 255
0.284674 0.076638 0.368362 0 200 255
0.324632 0.200690 0.356963 0 200 255
0.288905 0.086632 0.406121 0 200 255
0.317171 0.215616 0.372433 0 200 255
0.314625 0.034880 0.398983 0 200 255
0.317401 0.070454 0.432489 0 200 255
0.324978 0.214739 0.392382 0 200 255
0.311991 0.039195 0.392786 0 200 255
0.301635 0.187885 0.366598 0 200 255
0.299122 0.083144 0.449915 0 200 255
0.274655 0.115616 0.329774 0 200 255
0.298449 0.176034 0.368635 0 200 255
0.303979 0.048526 0.460873 0 200 255
0.304015 0.128753 0.412048 0 200 255
0.303297 0.066723 0.472985 0 200 255
0.314017 0.045966 0.476804 0 200 255
0.283467 0.085169 0.369428 0 200 255
0.315993 0.134365 0.402800 0 200 255
0.313017 0.198260 0.381122 0 200 255
0.282249 0.125598 0.312661 0 200 255
0.273291 0.160672 0.322573 0 200 255
0.278057 0.100929 0.350599 0 200 255
0.279801 0.090013 0.348978 0 200 255
0.308026 0.055945 0.441515 0 200 255
0.313419 0.229061 0.395195 0 200 255
0.307647 0.020594 0.442945 0 200 255
0.312238 0.009517 0.451051 0 200 255
0.292607 0.102917 0.396559 0 200 255
0.312560 0.087881 0.385106 0 200 255
0.313943 0.048429 0.458700 0 200 255
0.314772 0.114216 0.319955 0 200 255
0.297707 0.052628 0.453566 0 200 255
0.294460 0.056006 0.407999 0 200 255
0.310099 0.144074 0.306768 0 200 255
0.290476 0.102839 0.413703 0 200 255
0.301790 0.084274 0.388450 0 200 255
0.299185 0.074064 0.457016 0 200 255
0.298238 0.094274 0.450188 0 200 255
0.305427 0.239708 0.406649 0 200 255
0.299324 0.062285 0.440447 0 200 255
0.292796 0.054228 0.423764 0 200 255
0.315221 0.013794 0.433473 0 200 255
0.299043 0.071175 0.436230 0 200 255
0.307258 0.243889 0.418390 0 200 255
0.320957 0.253924 0.393987 0 200 255
0.309751 0.069669 0.443368 0 200 255
0.307166 0.128487 0.312408 0 200 255
0.300113 0.086823 0.460566 0 200 255
0.303401 0.071638 0.390464 0 200 255
0.310895 0.151784 0.347708 0 200 255
0.299791 0.093612 0.313458 0 200 255
0.316873 0.095609 0.444040 0 200 255
0.318520 0.144950 0.358770 0 200 255
0.305662 0.241168 0.387415 0 200 255
0.298463 0.093250 0.412765 0 200 255
0.315337 0.065018 0.449843 0 200 255
0.301999 0.048577 0.406702 0 200 255
0.298282 0.027507 0.426950 0 200 255
0.301815 0.145167 0.344246 0 200 255
0.314994 0.051586 0.410085 0 200 255
0.274055 0.129792 0.342778 0 200 255
0.282288 0.118063 0.408640 0 200 255
0.311339 0.080383 0.365750 0 200 255
0.317754 0.079003 0.426171 0 200 255
0.299062 0.035829 0.397000 0 200 255
0.291645 0.113420 0.404730 0 200 255
0.330316 0.211446 0.380542 0 200 255
0.292885 0.054712 0.371691 0 200 255
0.304246 0.041190 0.389589 0 200 255
0.296046 0.110055 0.387303 0 200 255
0.295785 0.082461 0.426981 0 200 255
0.315583 0.031776 0.422066 0 200 255
0.312498 0.139613 0.343304 0 200 255
0.297523 0.101000 0.428658 0 200 255
0.321314 0.203111 0.387783 0 200 255
0.305703 0.068778 0.433824 0 200 255
0.318868 0.246609 0.408096 0 200 255
0.292904 0.068117 0.358919 0 200 255
0.317806 0.076261 0.471636 0 200 255
0.294617 0.160026 0.357347 0 200 255
0.295460 0.255574 0.408420 0 200 255
0.291921 0.078209 0.328426 0 200 255
0.311893 0.098023 0.417957 0 200 255
0.303785 0.064276 0.426142 0 200 255
0.306616 0.078983 0.398719 0 200 255
0.302904 0.037209 0.419616 0 200 255
0.297454 0.087246 0.398685 0 200 255
0.311341 0.084044 0.403925 0 200 255
0.314499 0.056284 0.379942 0 200 255
0.304514 0.043742 0.470354 0 200 255
0.316399 0.194023 0.355985 0 200 255
0.314309 0.034531 0.443919 0 200 255
0.305720 0.068946 0.375681 0 200 255
0.317818 0.039638 0.466593 0 200 255
0.287552 0.117710 0.392421 0 200 255
0.325364 0.188359 0.357230 0 200 255
0.298823 0.086111 0.321326 0 200 255
0.281933 0.149552 0.376076 0 200 255
0.294650 0.068398 0.411010 0 200 255
0.319109 0.265490 0.416914 0 200 255
0.277268 0.096000 0.362364 0 200 255
0.284375 0.164940 0.329611 0 200 255
0.316058 0.251840 0.412962 0 200 255
0.293163 0.156517 0.377005 0 200 255
0.307441 0.206943 0.370166 0 200 255
0.317722 0.238460 0.392882 0 200 255
0.275113 0.110442 0.340917 0 200 255
0.280987 0.081435 0.348702 0 200 255
0.294741 0.186115 0.376782 0 200 255
0.275524 0.132769 0.309160 0 200 255
0.293312 0.045784 0.386827 0 200 255
0.316224 0.148848 0.320924 0 200 255
0.305485 0.231127 0.394682 0 200 255
0.311769 0.087819 0.432289 0 200 255
0.304463 0.043368 0.439469 0 200 255
0.314641 0.078856 0.351657 0 200 255
0.319934 0.093961 0.340046 0 200 255
0.316136 0.084083 0.410874 0 200 255
0.314808 0.029218 0.450984 0 200 255
0.311035 0.201726 0.364669 0 200 255
0.309747 0.052189 0.448605 0 200 255
0.323248 0.213665 0.368828 0 200 255
0.309721 0.096454 0.406248 0 200 255
0.319299 0.104584 0.359667 0 200 255
0.304720 0.049132 0.378454 0 200 255
0.309509 0.027385 0.464985 0 200 255
0.306377 0.132087 0.301698 0 200 255
0.311682 0.097413 0.312611 0 200 255
0.316948 0.035613 0.436440 0 200 255
0.297383 0.076951 0.401292 0 200 255
0.319997 0.033523 0.448510 0 200 255
0.303348 0.058334 0.489169 0 200 255
0.311394 0.159478 0.325521 0 200 255
0.308138 0.033196 0.402906 0 200 255
0.301430 0.177651 0.351570 0 200 255
0.314360 0.088468 0.459667 0 200 255
0.290170 0.058388 0.381810 0 200 255
0.319865 0.125213 0.389646 0 200 255
0.305665 0.056716 0.452292 0 200 255
0.307255 0.075250 0.332295 0 200 255
0.299488 0.104976 0.307498 0 200 255
0.300097 0.063364 0.385741 0 200 255
0.294680 0.167582 0.329188 0 200 255
0.292433 0.202618 0.364118 0 200 255
0.299596 0.056524 0.413518 0 200 255
0.286113 0.102846 0.392555 0 200 255
0.300010 0.053684 0.422600 0 200 255
0.311452 0.117730 0.417832 0 200 255
0.303811 0.044923 0.446890 0 200 255
0.299528 0.100515 0.375038 0 200 255
0.300281 0.038973 0.402806 0 200 255
0.311618 0.107796 0.404210 0 200 255
0.307870 0.250819 0.394000 0 200 255
0.304145 0.068965 0.484271 0 200 255
0.305993 0.005178 0.444030 0 200 255
0.291681 0.188486 0.365031 0 200 255
0.282761 0.079582 0.339250 0 200 255
0.308753 0.218514 0.391541 0 200 255
0.293509 0.123965 0.306937 0 200 255
0.315354 0.140046 0.309588 0 200 255
0.298227 0.058571 0.368847 0 200 255
0.279352 0.108004 0.382003 0 200 255
0.275658 0.143947 0.307158 0 200 255
0.301690 0.150019 0.350704 0 200 255
0.305029 0.261657 0.413713 0 200 255
0.309182 0.233905 0.402123 0 200 255
0.308469 0.081086 0.465738 0 200 255
0.311807 0.116141 0.396699 0 200 255
0.304224 0.033832 0.440203 0 200 255
0.302960 0.023547 0.449353 0 200 255
0.298648 0.092999 0.378619 0 200 255
0.299764 0.071623 0.343107 0 200 255
0.303876 0.049569 0.437323 0 200 255
0.303781 0.041348 0.429891 0 200 255
0.300278 0.227670 0.391563 0 200 255
0.307620 0.165909 0.350719 0 200 255
0.291131 0.100225 0.313854 0 200 255
0.286474 0.145876 0.386504 0 200 255
0.309997 0.150612 0.354110 0 200 255
0.290310 0.206445 0.375927 0 200 255
0.301958 0.014309 0.427377 0 200 255
0.278781 0.084378 0.359925 0 200 255
0.310513 0.026558 0.421719 0 200 255
0.290790 0.074362 0.427764 0 200 255
0.304785 0.182721 0.378638 0 200 255
0.297143 0.119075 0.415232 0 200 255
0.327297 0.198597 0.382226 0 200 255
0.315221 0.036988 0.457251 0 200 255
0.296206 0.252575 0.402360 0 200 255
0.308106 0.035014 0.473738 0 200 255
0.307280 0.221589 0.380685 0 200 255
0.319545 0.242984 0.401185 0 200 255
0.303352 0.056626 0.376137 0 200 255
0.314955 0.089709 0.322374 0 200 255
0.313035 0.061238 0.458810 0 200 255
0.277493 0.155729 0.321932 0 200 255
0.281879 0.115126 0.398006 0 200 255
0.302471 0.059339 0.434051 0 200 255
0.325029 0.199095 0.364069 0 200 255
0.282769 0.116681 0.380587 0 200 255
0.294701 0.156170 0.331385 0 200 255
0.293007 0.154144 0.349035 0 200 255
0.294121 0.083619 0.379765 0 200 255
0.317586 0.214661 0.395150 0 200 255
0.324207 0.224968 0.383865 0 200 255
0.300485 0.047386 0.426930 0 200 255
0.301535 0.191280 0.387265 0 200 255
0.295587 0.190261 0.381801 0 200 255
0.314248 0.099082 0.395972 0 200 255
0.297772 0.067433 0.469674 0 200 255
0.291749 0.067162 0.404953 0 200 255
0.325752 0.247292 0.398003 0 200 255
0.298491 0.069374 0.394152 0 200 255
0.296354 0.161666 0.365384 0 200 255
0.308720 0.229716 0.374324 0 200 255
0.298695 0.073743 0.383249 0 200 255
0.283704 0.092006 0.324444 0 200 255
0.307851 0.216934 0.364273 0 200 255
0.297911 0.082346 0.393472 0 200 255
0.288309 0.107298 0.398558 0 200 255
0.317996 0.070026 0.346504 0 200 255
0.316663 0.043549 0.431891 0 200 255
0.275246 0.119684 0.355858 0 200 255
0.316493 0.039819 0.474691 0 200 255
0.321301 0.208719 0.365198 0 200 255
