ply
format ascii 1.0
element vertex 1024
property float x
property float y
property float z
property uchar red
property uchar green
property uchar blue
end_header
0.290927 0.130958 0.295909 0 200 255
0.309880 0.057755 0.492566 0 200 255
0.314104 0.267279 0.421299 0 200 255
0.311234 0.050399 0.377017 0 200 255
0.328524 0.186315 0.368298 0 200 255
0.283644 0.124892 0.408055 0 200 255
0.307903 0.007176 0.437986 0 200 255
0.318430 0.116054 0.351355 0 200 255
0.316604 0.078197 0.433105 0 200 255
0.278757 0.159936 0.348810 0 200 255
0.294457 0.225678 0.388918 0 200 255
0.287620 0.075827 0.333314 0 200 255
0.282885 0.087382 0.380789 0 200 255
0.309378 0.168039 0.316383 0 200 255
0.273660 0.117187 0.338399 0 200 255
0.312873 0.147443 0.387051 0 200 255
0.299840 0.045321 0.453749 0 200 255
0.296259 0.039319 0.413088 0 200 255
0.291083 0.195731 0.363921 0 200 255
0.316526 0.106082 0.313996 0 200 255
0.312513 0.101471 0.401756 0 200 255
0.300167 0.082532 0.466476 0 200 255
0.324473 0.247684 0.391637 0 200 255
0.273166 0.159133 0.312522 0 200 255
0.319922 0.074442 0.350811 0 200 255
0.280289 0.134324 0.373550 0 200 255
0.316998 0.151679 0.352149 0 200 255
0.323446 0.220889 0.368821 0 200 255
0.289430 0.099714 0.431447 0 200 255
0.298541 0.071265 0.405514 0 200 255
0.315870 0.136846 0.323779 0 200 255
0.286912 0.061527 0.360733 0 200 255
0.285624 0.104199 0.310419 0 200 255
0.309420 0.198846 0.389616 0 200 255
0.307227 0.237683 0.415021 0 200 255
0.316932 0.093468 0.373544 0 200 255
0.317957 0.049388 0.429504 0 200 255
0.311541 0.020783 0.463072 0 200 255
0.299728 0.169053 0.367171 0 200 255
0.292090 0.065065 0.435618 0 200 255
0.324340 0.220341 0.396859 0 200 255
0.315738 0.106051 0.431169 0 200 255
0.320025 0.120887 0.384500 0 200 255
0.277440 0.094245 0.355308 0 200 255
0.318363 0.049175 0.402502 0 200 255
0.311989 0.081250 0.326531 0 200 255
0.318648 0.044950 0.471479 0 200 255
0.313399 0.143307 0.298578 0 200 255
0.294834 0.116880 0.361507 0 200 255
0.314899 0.022743 0.417826 0 200 255
0.298666 0.152028 0.334615 0 200 255
0.275600 0.129379 0.316403 0 200 255
0.313869 0.200495 0.353976 0 200 255
0.308725 0.125585 0.406646 0 200 255
0.291000 0.050873 0.391690 0 200 255
0.279514 0.112068 0.387253 0 200 255
0.305807 0.073175 0.382696 0 200 255
0.301753 0.253014 0.397561 0 200 255
0.290629 0.093596 0.407743 0 200 255
0.318947 0.069340 0.472343 0 200 255
0.290200 0.144290 0.393100 0 200 255
0.315052 0.092693 0.451403 0 200 255
0.299832 0.081942 0.361862 0 200 255
0.271637 0.140805 0.337775 0 200 255
0.308668 0.066402 0.451583 0 200 255
0.309563 0.030007 0.439544 0 200 255
0.301311 0.215967 0.366305 0 200 255
0.295693 0.142029 0.314826 0 200 255
0.287371 0.169943 0.325971 0 200 255
0.306174 0.169734 0.345577 0 200 255
0.330040 0.204535 0.381598 0 200 255
0.299063 0.060993 0.473597 0 200 255
0.299243 0.101210 0.383247 0 200 255
0.290910 0.085049 0.446838 0 200 255
0.316699 0.065877 0.415935 0 200 255
0.279255 0.097836 0.329538 0 200 255
0.319653 0.102703 0.335051 0 200 255
0.315099 0.131096 0.365318 0 200 255
0.286326 0.155616 0.375429 0 200 255
0.297393 0.115289 0.420578 0 200 255
0.272142 0.141540 0.300231 0 200 255
0.307704 0.089426 0.418622 0 200 255
0.310916 0.125182 0.307431 0 200 255
0.291958 0.206132 0.382287 0 200 255
0.311567 0.236623 0.380606 0 200 255
0.297719 0.045892 0.432619 0 200 255
0.274892 0.115395 0.363763 0 200 255
0.306950 0.062133 0.360319 0 200 255
0.298062 0.184309 0.382514 0 200 255
0.295498 0.122867 0.391373 0 200 255
0.322804 0.249692 0.414044 0 200 255
0.297469 0.258839 0.415958 0 200 255
0.297390 0.153954 0.353864 0 200 255
0.290770 0.079529 0.423150 0 200 255
0.292629 0.057674 0.417597 0 200 255
0.318487 0.049071 0.452485 0 200 255
0.308561 0.185776 0.365130 0 200 255
0.301470 0.036819 0.471053 0 200 255
0.306203 0.036582 0.396177 0 200 255
0.299124 0.020218 0.427711 0 200 255
0.275096 0.133135 0.355787 0 200 255
0.303955 0.086087 0.395958 0 200 255
0.294445 0.089205 0.316538 0 200 255
0.316831 0.066744 0.395976 0 200 255
0.297555 0.065615 0.344683 0 200 255
0.292152 0.178455 0.353266 0 200 255
0.314466 0.133320 0.347192 0 200 255
0.314826 0.264248 0.403387 0 200 255
0.293505 0.237383 0.402754 0 200 255
0.318186 0.118858 0.326925 0 200 255
0.315600 0.154767 0.369945 0 200 255
0.289173 0.073231 0.390147 0 200 255
0.277803 0.129523 0.391363 0 200 255
0.297581 0.210414 0.398766 0 200 255
0.294901 0.059219 0.376626 0 200 255
0.277322 0.155311 0.329156 0 200 255
0.307929 0.227741 0.400093 0 200 255
0.281268 0.073819 0.349511 0 200 255
0.312298 0.218187 0.384424 0 200 255
0.297264 0.109496 0.403422 0 200 255
0.313520 0.099544 0.353063 0 200 255
0.322691 0.184638 0.352102 0 200 255
0.301032 0.111428 0.308640 0 200 255
0.277018 0.148616 0.362477 0 200 255
0.279608 0.080770 0.365347 0 200 255
0.323741 0.235478 0.404257 0 200 255
0.277496 0.101503 0.373500 0 200 255
0.308656 0.062491 0.434950 0 200 255
0.312882 0.040235 0.416401 0 200 255
0.320422 0.018562 0.433975 0 200 255
0.313082 0.114696 0.367782 0 200 255
0.326936 0.205553 0.363072 0 200 255
0.276070 0.113995 0.322441 0 200 255
0.299879 0.098668 0.444059 0 200 255
0.312495 0.152835 0.325034 0 200 255
0.281079 0.097016 0.394921 0 200 255
0.326495 0.231039 0.384193 0 200 255
0.302073 0.055457 0.403952 0 200 255
0.312174 0.110947 0.414956 0 200 255
0.300418 0.029065 0.452817 0 200 255
0.301898 0.085415 0.435178 0 200 255
0.319433 0.032373 0.455341 0 200 255
0.270039 0.144412 0.319988 0 200 255
0.317292 0.156625 0.308465 0 200 255
0.287411 0.121796 0.308448 0 200 255
0.308279 0.113424 0.391832 0 200 255
0.318146 0.132021 0.395835 0 200 255
0.305939 0.073660 0.479897 0 200 255
0.315204 0.081546 0.462387 0 200 255
0.297204 0.140152 0.346589 0 200 255
0.316403 0.014924 0.448546 0 200 255
0.312326 0.078048 0.407239 0 200 255
0.281924 0.110401 0.403936 0 200 255
0.304485 0.201407 0.367426 0 200 255
0.313156 0.096192 0.387825 0 200 255
0.301019 0.135658 0.398588 0 200 255
0.319121 0.083078 0.363107 0 200 255
0.279178 0.086792 0.342675 0 200 255
0.306759 0.055621 0.421365 0 200 255
0.310537 0.241485 0.394887 0 200 255
0.314554 0.057412 0.463883 0 200 255
0.312937 0.092134 0.316678 0 200 255
0.301654 0.025298 0.412161 0 200 255
0.308963 0.252096 0.421956 0 200 255
0.297232 0.068842 0.461418 0 200 255
0.313805 0.089290 0.342676 0 200 255
0.310928 0.165039 0.358780 0 200 255
0.315144 0.066964 0.371304 0 200 255
0.296625 0.100830 0.418887 0 200 255
0.288661 0.162220 0.338161 0 200 255
0.314167 0.191524 0.377152 0 200 255
0.317560 0.043004 0.389456 0 200 255
0.300742 0.019072 0.442116 0 200 255
0.285634 0.163193 0.360863 0 200 255
0.316691 0.057466 0.479863 0 200 255
0.312839 0.079078 0.446775 0 200 255
0.298090 0.239348 0.388548 0 200 255
0.303777 0.034457 0.426971 0 200 255
0.319953 0.039398 0.441187 0 200 255
0.302747 0.227303 0.374801 0 200 255
0.294983 0.182275 0.368168 0 200 255
0.308172 0.048103 0.442763 0 200 255
0.308652 0.075599 0.338889 0 200 255
0.300872 0.068786 0.419670 0 200 255
0.302598 0.063667 0.392443 0 200 255
0.319200 0.135340 0.377972 0 200 255
0.312734 0.151112 0.338901 0 200 255
0.289376 0.076035 0.374049 0 200 255
0.273398 0.129186 0.330330 0 200 255
0.280502 0.120652 0.349993 0 200 255
0.314368 0.031174 0.405918 0 200 255
0.275842 0.105859 0.345976 0 200 255
0.308640 0.146175 0.361704 0 200 255
0.309207 0.139369 0.312023 0 200 255
0.301987 0.090354 0.454770 0 200 255
0.319616 0.208562 0.391911 0 200 255
0.279904 0.145579 0.381928 0 200 255
0.317273 0.091358 0.436225 0 200 255
0.310060 0.252551 0.408151 0 200 255
0.303930 0.087938 0.382562 0 200 255
0.297330 0.059919 0.446839 0 200 255
0.296997 0.152018 0.384507 0 200 255
0.299843 0.045958 0.382899 0 200 255
0.306104 0.048702 0.475124 0 200 255
0.287274 0.149838 0.321656 0 200 255
0.328482 0.218084 0.381634 0 200 255
0.293707 0.039307 0.399841 0 200 255
0.273934 0.146591 0.349715 0 200 255
0.298630 0.079050 0.326624 0 200 255
0.317473 0.080470 0.419363 0 200 255
0.315381 0.208992 0.368447 0 200 255
0.306809 0.181555 0.352772 0 200 255
0.284491 0.085634 0.325155 0 200 255
0.314331 0.061838 0.384054 0 200 255
0.301919 0.195187 0.355149 0 200 255
0.299340 0.129494 0.313670 0 200 255
0.293936 0.094268 0.394503 0 200 255
0.310148 0.040266 0.459836 0 200 255
0.299320 0.075564 0.449658 0 200 255
0.296947 0.130901 0.409948 0 200 255
0.302587 0.099986 0.314545 0 200 255
0.298713 0.156251 0.368743 0 200 255
0.300070 0.064061 0.487060 0 200 255
0.325034 0.255638 0.401750 0 200 255
0.298362 0.055628 0.461278 0 200 255
0.280637 0.131906 0.343846 0 200 255
0.277869 0.123141 0.379259 0 200 255
0.303750 0.072862 0.370092 0 200 255
0.298595 0.036667 0.442729 0 200 255
0.297987 0.083475 0.410181 0 200 255
0.305209 0.268042 0.411876 0 200 255
0.297038 0.195911 0.387841 0 200 255
0.301917 0.167807 0.326646 0 200 255
0.291392 0.218026 0.377969 0 200 255
0.291195 0.207514 0.368562 0 200 255
0.316480 0.030688 0.428984 0 200 255
0.303421 0.096254 0.408810 0 200 255
0.288608 0.132538 0.397398 0 200 255
0.305140 0.097714 0.372688 0 200 255
0.303654 0.109135 0.429544 0 200 255
0.290627 0.109729 0.392799 0 200 255
0.313910 0.254081 0.393579 0 200 255
0.291672 0.061778 0.401270 0 200 255
0.311351 0.037888 0.478679 0 200 255
0.294201 0.165766 0.351846 0 200 255
0.294175 0.248855 0.407355 0 200 255
0.317309 0.067939 0.442872 0 200 255
0.307199 0.126472 0.393136 0 200 255
0.316236 0.092610 0.328811 0 200 255
0.305247 0.009824 0.449752 0 200 255
0.311212 0.082285 0.372758 0 200 255
0.299362 0.070990 0.356283 0 200 255
0.312028 0.109818 0.380805 0 200 255
0.293593 0.094421 0.374652 0 200 255
0.319260 0.104315 0.366475 0 200 255
0.315108 0.067991 0.485687 0 200 255
0.282607 0.136471 0.303691 0 200 255
0.296918 0.222843 0.401332 0 200 255
0.317522 0.051561 0.417649 0 200 255
0.305563 0.073425 0.438995 0 200 255
0.320149 0.192858 0.362624 0 200 255
0.310061 0.013656 0.428061 0 200 255
0.316097 0.096392 0.424020 0 200 255
0.309099 0.067990 0.465377 0 200 255
0.311673 0.100120 0.442619 0 200 255
0.322767 0.261532 0.412396 0 200 255
0.313614 0.114150 0.403544 0 200 255
0.309356 0.211558 0.397514 0 200 255
0.317881 0.123190 0.337983 0 200 255
0.306811 0.177132 0.373082 0 200 255
0.282486 0.113120 0.374988 0 200 255
0.314458 0.228108 0.371262 0 200 255
0.317173 0.140289 0.337898 0 200 255
0.327861 0.193574 0.378088 0 200 255
0.295355 0.192493 0.374331 0 200 255
0.307185 0.145877 0.348700 0 200 255
0.296036 0.091494 0.426469 0 200 255
0.316882 0.117822 0.314227 0 200 255
0.314889 0.081297 0.383762 0 200 255
0.305907 0.227591 0.388155 0 200 255
0.309345 0.161486 0.332956 0 200 255
0.314161 0.241900 0.406166 0 200 255
0.294991 0.076148 0.433266 0 200 255
0.316898 0.065130 0.427451 0 200 255
0.306269 0.111293 0.318807 0 200 255
0.292998 0.118470 0.409487 0 200 255
0.305093 0.142478 0.337991 0 200 255
0.303960 0.055325 0.369726 0 200 255
0.314924 0.064227 0.350979 0 200 255
0.288181 0.108317 0.418854 0 200 255
0.296643 0.047893 0.421510 0 200 255
0.292093 0.083312 0.400595 0 200 255
0.300436 0.161667 0.340244 0 200 255
0.308444 0.209814 0.359646 0 200 255
0.299060 0.145821 0.325268 0 200 255
0.294945 0.082550 0.387748 0 200 255
0.301921 0.217082 0.390855 0 200 255
0.298762 0.056598 0.429455 0 200 255
0.302956 0.028542 0.463687 0 200 255
0.299445 0.128178 0.302627 0 200 255
0.317411 0.226604 0.389583 0 200 255
0.277439 0.167150 0.321836 0 200 255
0.309918 0.075212 0.393962 0 200 255
0.285407 0.096154 0.318056 0 200 255
0.277789 0.102992 0.362524 0 200 255
0.291650 0.089974 0.436953 0 200 255
0.302804 0.053445 0.484554 0 200 255
0.307054 0.045135 0.424749 0 200 255
0.301994 0.119085 0.400771 0 200 255
0.303925 0.138591 0.301616 0 200 255
0.315726 0.056425 0.440804 0 200 255
0.307365 0.049995 0.411896 0 200 255
0.298248 0.073142 0.336362 0 200 255
0.308317 0.052177 0.456517 0 200 255
0.279210 0.099980 0.384217 0 200 255
0.279086 0.120947 0.398914 0 200 255
0.309690 0.023528 0.449146 0 200 255
0.308201 0.214525 0.374645 0 200 255
0.311344 0.039773 0.434539 0 200 255
0.310916 0.159490 0.347637 0 200 255
0.318382 0.080112 0.337097 0 200 255
0.301508 0.102910 0.395909 0 200 255
0.310371 0.079650 0.471920 0 200 255
0.297328 0.073545 0.471853 0 200 255
0.305779 0.039517 0.406607 0 200 255
0.280708 0.113967 0.311746 0 200 255
0.327650 0.211005 0.373297 0 200 255
0.319180 0.197321 0.384617 0 200 255
0.294830 0.064909 0.367606 0 200 255
0.320559 0.087860 0.353684 0 200 255
0.313538 0.074400 0.360442 0 200 255
0.312318 0.057139 0.395209 0 200 255
0.314445 0.138601 0.357029 0 200 255
0.314143 0.091462 0.398643 0 200 255
0.299658 0.045941 0.465974 0 200 255
0.318138 0.182740 0.372761 0 200 255
0.300796 0.260440 0.406031 0 200 255
0.273560 0.151822 0.340568 0 200 255
0.302668 0.177589 0.361727 0 200 255
0.312348 0.174055 0.364667 0 200 255
0.304758 0.118211 0.413020 0 200 255
0.312830 0.089865 0.409477 0 200 255
0.293464 0.074206 0.414521 0 200 255
0.321810 0.241513 0.383593 0 200 255
0.314775 0.124420 0.376167 0 200 255
0.296849 0.084475 0.371564 0 200 255
0.279022 0.124066 0.368906 0 200 255
0.325433 0.231541 0.394580 0 200 255
0.317215 0.119922 0.394519 0 200 255
0.300923 0.162086 0.359372 0 200 255
0.277532 0.109592 0.332401 0 200 255
0.292913 0.108992 0.428219 0 200 255
0.289686 0.118642 0.398922 0 200 255
0.300433 0.031156 0.403423 0 200 255
0.300648 0.232289 0.408363 0 200 255
0.283002 0.082357 0.355202 0 200 255
0.306648 0.080506 0.455147 0 200 255
0.311513 0.140023 0.396173 0 200 255
0.308348 0.051798 0.432656 0 200 255
0.280493 0.138835 0.362890 0 200 255
0.313532 0.145218 0.373459 0 200 255
0.300491 0.027843 0.434603 0 200 255
0.325727 0.245644 0.404731 0 200 255
0.304726 0.062503 0.380279 0 200 255
0.293268 0.060076 0.387565 0 200 255
0.310832 0.154811 0.379113 0 200 255
0.309196 0.058596 0.472870 0 200 255
0.285063 0.067968 0.369315 0 200 255
0.294875 0.060593 0.353267 0 200 255
0.276307 0.139094 0.313085 0 200 255
0.318390 0.057493 0.408548 0 200 255
0.304672 0.085263 0.445914 0 200 255
0.313816 0.218831 0.365899 0 200 255
0.296679 0.168947 0.317888 0 200 255
0.305443 0.261854 0.422270 0 200 255
0.299637 0.047791 0.397596 0 200 255
0.281136 0.105515 0.319708 0 200 255
0.308589 0.024369 0.427601 0 200 255
0.278618 0.091460 0.372194 0 200 255
0.312126 0.035571 0.468633 0 200 255
0.299172 0.062851 0.411179 0 200 255
0.313268 0.190905 0.350699 0 200 255
0.307774 0.069383 0.412281 0 200 255
0.295570 0.081301 0.457542 0 200 255
0.314383 0.244777 0.417554 0 200 255
0.305859 0.088742 0.366275 0 200 255
0.267795 0.151366 0.308944 0 200 255
0.297288 0.050535 0.411544 0 200 255
0.292061 0.161423 0.328606 0 200 255
0.325130 0.179157 0.362103 0 200 255
0.292641 0.214972 0.387435 0 200 255
0.315693 0.108832 0.341922 0 200 255
0.297972 0.075994 0.394647 0 200 255
0.277786 0.097141 0.341512 0 200 255
0.318703 0.010321 0.439332 0 200 255
0.299176 0.210538 0.376084 0 200 255
0.307174 0.190229 0.384101 0 200 255
0.313804 0.220517 0.396547 0 200 255
0.306435 0.102258 0.418438 0 200 255
0.315321 0.106435 0.323838 0 200 255
0.303999 0.020203 0.456663 0 200 255
0.296024 0.244843 0.396762 0 200 255
0.317948 0.137891 0.387886 0 200 255
0.291844 0.113144 0.305550 0 200 255
0.318309 0.032061 0.415689 0 200 255
0.282759 0.072781 0.360564 0 200 255
0.315557 0.120171 0.359791 0 200 255
0.300915 0.055240 0.438998 0 200 255
0.300964 0.220194 0.381609 0 200 255
0.288602 0.067354 0.348828 0 200 255
0.293477 0.068641 0.426074 0 200 255
0.305939 0.160467 0.321534 0 200 255
0.318713 0.256288 0.419991 0 200 255
0.305484 0.087381 0.322575 0 200 255
0.317590 0.028395 0.444841 0 200 255
0.296883 0.040881 0.390658 0 200 255
0.297873 0.069103 0.376878 0 200 255
0.298337 0.206648 0.362002 0 200 255
0.307114 0.162183 0.367254 0 200 255
0.302278 0.171068 0.354531 0 200 255
0.311555 0.083683 0.426887 0 200 255
0.294337 0.089578 0.417120 0 200 255
0.317513 0.070066 0.405460 0 200 255
0.318908 0.044034 0.461416 0 200 255
0.290300 0.071176 0.399595 0 200 255
0.317790 0.053569 0.387574 0 200 255
0.273946 0.124522 0.359918 0 200 255
0.315534 0.269173 0.411616 0 200 255
0.320004 0.095858 0.361977 0 200 255
0.303562 0.236821 0.399542 0 200 255
0.301510 0.013656 0.434214 0 200 255
0.308860 0.044326 0.385430 0 200 255
0.272332 0.135777 0.346367 0 200 255
0.297607 0.102350 0.435492 0 200 255
0.298809 0.248603 0.415638 0 200 255
0.304061 0.147753 0.390562 0 200 255
0.298838 0.046431 0.442664 0 200 255
0.307314 0.065908 0.345596 0 200 255
0.308253 0.031924 0.413640 0 200 255
0.297200 0.206307 0.390157 0 200 255
0.329998 0.210634 0.388826 0 200 255
0.317531 0.041340 0.408245 0 200 255
0.313017 0.110185 0.356416 0 200 255
0.316128 0.234784 0.398463 0 200 255
0.314139 0.074786 0.455275 0 200 255
0.327899 0.199893 0.371100 0 200 255
0.322924 0.213956 0.361646 0 200 255
0.296084 0.069312 0.443402 0 200 255
0.290722 0.161269 0.368550 0 200 255
0.323172 0.194264 0.353819 0 200 255
0.314274 0.038033 0.449875 0 200 255
0.277536 0.145145 0.371205 0 200 255
0.310799 0.195725 0.361477 0 200 255
0.291728 0.050658 0.382307 0 200 255
0.311199 0.232306 0.408427 0 200 255
0.311242 0.226749 0.379979 0 200 255
0.294479 0.171980 0.359634 0 200 255
0.312259 0.112109 0.424938 0 200 255
0.291579 0.146595 0.342792 0 200 255
0.306105 0.060889 0.459006 0 200 255
0.318717 0.040766 0.398434 0 200 255
0.274378 0.136374 0.322429 0 200 255
0.288156 0.090130 0.388513 0 200 255
0.313838 0.059366 0.366118 0 200 255
0.292083 0.233497 0.394442 0 200 255
0.295581 0.107660 0.412689 0 200 255
0.305141 0.110030 0.408274 0 200 255
0.298103 0.031941 0.418377 0 200 255
0.317115 0.128260 0.326963 0 200 255
0.326423 0.225371 0.376353 0 200 255
0.308257 0.105798 0.307720 0 200 255
0.271101 0.153893 0.322529 0 200 255
0.302508 0.084365 0.425469 0 200 255
0.318264 0.017783 0.425087 0 200 255
0.304472 0.019089 0.420340 0 200 255
0.308105 0.155289 0.360843 0 200 255
0.312024 0.244724 0.386438 0 200 255
0.304793 0.087811 0.405575 0 200 255
0.277331 0.136815 0.381913 0 200 255
0.295436 0.125297 0.402898 0 200 255
0.303454 0.246622 0.391270 0 200 255
0.307800 0.039020 0.443537 0 200 255
0.311333 0.083706 0.438059 0 200 255
0.316360 0.142675 0.316552 0 200 255
0.306698 0.140126 0.320711 0 200 255
0.289478 0.082788 0.413203 0 200 255
0.318144 0.221599 0.376333 0 200 255
0.318100 0.141583 0.346943 0 200 255
0.297326 0.069310 0.387766 0 200 255
0.274515 0.112617 0.355198 0 200 255
0.309153 0.066935 0.422692 0 200 255
0.307682 0.134495 0.405934 0 200 255
0.301967 0.037042 0.456680 0 200 255
0.301438 0.094518 0.389581 0 200 255
0.292393 0.093975 0.445595 0 200 255
0.272729 0.124191 0.347268 0 200 255
0.304399 0.246465 0.404795 0 200 255
0.294219 0.072958 0.363721 0 200 255
0.282908 0.156207 0.365759 0 200 255
0.310866 0.103262 0.410556 0 200 255
0.291697 0.135463 0.310244 0 200 255
0.311869 0.144726 0.332232 0 200 255
0.298053 0.241193 0.410709 0 200 255
0.275112 0.146249 0.327105 0 200 255
0.319094 0.231630 0.379231 0 200 255
0.294152 0.189040 0.358885 0 200 255
0.298657 0.068024 0.479224 0 200 255
0.314442 0.039675 0.426205 0 200 255
0.280992 0.079938 0.374090 0 200 255
0.314952 0.056507 0.424700 0 200 255
0.312028 0.058264 0.450670 0 200 255
0.298588 0.056444 0.395590 0 200 255
0.306016 0.094651 0.397297 0 200 255
0.308266 0.258758 0.401248 0 200 255
0.278837 0.154167 0.355478 0 200 255
0.315026 0.020562 0.441709 0 200 255
0.282456 0.085649 0.333733 0 200 255
0.298799 0.076341 0.424888 0 200 255
0.328200 0.222725 0.389312 0 200 255
0.320533 0.240017 0.411936 0 200 255
0.269412 0.142698 0.308987 0 200 255
0.296963 0.078049 0.377987 0 200 255
0.299210 0.133266 0.294159 0 200 255
0.317107 0.148300 0.304727 0 200 255
0.302102 0.122681 0.308877 0 200 255
0.282140 0.107389 0.339482 0 200 255
0.316447 0.086887 0.444367 0 200 255
0.308694 0.062688 0.443703 0 200 255
0.302266 0.052248 0.448155 0 200 255
0.303302 0.235084 0.382787 0 200 255
0.300313 0.194519 0.364191 0 200 255
0.315213 0.024422 0.456107 0 200 255
0.303763 0.074787 0.464640 0 200 255
0.278532 0.124354 0.338632 0 200 255
0.285888 0.164317 0.346576 0 200 255
0.307624 0.086180 0.461615 0 200 255
0.303936 0.053205 0.467946 0 200 255
0.319408 0.116569 0.373370 0 200 255
0.302870 0.119075 0.388184 0 200 255
0.317867 0.098402 0.321981 0 200 255
0.317948 0.072622 0.422913 0 200 255
0.315066 0.123775 0.349485 0 200 255
0.313732 0.105689 0.372942 0 200 255
0.282376 0.142224 0.390142 0 200 255
0.303946 0.042888 0.415263 0 200 255
0.299147 0.054804 0.383428 0 200 255
0.305206 0.151374 0.320809 0 200 255
0.298847 0.080452 0.441925 0 200 255
0.303302 0.079355 0.404943 0 200 255
0.295873 0.168227 0.343205 0 200 255
0.318085 0.226791 0.400656 0 200 255
0.311072 0.084137 0.391716 0 200 255
0.307006 0.091428 0.426989 0 200 255
0.299609 0.060315 0.421676 0 200 255
0.279295 0.140007 0.349682 0 200 255
0.316700 0.084655 0.454634 0 200 255
0.304794 0.110757 0.399716 0 200 255
0.299603 0.065427 0.431713 0 200 255
0.278844 0.121171 0.387440 0 200 255
0.291924 0.100982 0.389762 0 200 255
0.317366 0.068102 0.463630 0 200 255
0.318960 0.201133 0.361395 0 200 255
0.301590 0.037299 0.434618 0 200 255
0.319241 0.255166 0.407868 0 200 255
0.313715 0.006305 0.444809 0 200 255
0.317361 0.112931 0.389821 0 200 255
0.317389 0.209044 0.357637 0 200 255
0.290907 0.062734 0.409620 0 200 255
0.288147 0.080755 0.380892 0 200 255
0.300403 0.028555 0.443854 0 200 255
0.294861 0.045932 0.404972 0 200 255
0.298860 0.051938 0.375461 0 200 255
0.303561 0.041448 0.478430 0 200 255
0.303490 0.061601 0.351662 0 200 255
0.298759 0.220157 0.373082 0 200 255
0.326796 0.238133 0.389620 0 200 255
0.319397 0.105174 0.348461 0 200 255
0.314690 0.161614 0.316803 0 200 255
0.305517 0.155306 0.352430 0 200 255
0.288140 0.131640 0.406146 0 200 255
0.319809 0.112756 0.381277 0 200 255
0.307808 0.104302 0.436546 0 200 255
0.311353 0.135080 0.305218 0 200 255
0.310440 0.065568 0.390411 0 200 255
0.314553 0.077166 0.345077 0 200 255
0.290801 0.199309 0.373000 0 200 255
0.290782 0.150188 0.329173 0 200 255
0.273463 0.121878 0.326393 0 200 255
0.303068 0.204281 0.395667 0 200 255
0.307988 0.065814 0.489351 0 200 255
0.284946 0.073959 0.342092 0 200 255
0.293353 0.065447 0.393917 0 200 255
0.297542 0.099491 0.403963 0 200 255
0.292992 0.116310 0.386999 0 200 255
0.305699 0.219992 0.398261 0 200 255
0.301627 0.163573 0.348957 0 200 255
0.317286 0.062739 0.435706 0 200 255
0.278215 0.157918 0.337499 0 200 255
0.305833 0.115479 0.420741 0 200 255
0.310250 0.172848 0.356225 0 200 255
0.313499 0.119375 0.409920 0 200 255
0.319594 0.129861 0.384103 0 200 255
0.292970 0.138004 0.401727 0 200 255
0.315992 0.088458 0.418105 0 200 255
0.311845 0.074662 0.369750 0 200 255
0.311964 0.068933 0.378618 0 200 255
0.311357 0.120243 0.388438 0 200 255
0.310702 0.248955 0.400153 0 200 255
0.314966 0.097132 0.344789 0 200 255
0.294307 0.225288 0.380390 0 200 255
0.295277 0.089198 0.382980 0 200 255
0.305416 0.155679 0.337378 0 200 255
0.319029 0.139879 0.363631 0 200 255
0.314223 0.133786 0.315150 0 200 255
0.312670 0.206148 0.388162 0 200 255
0.279794 0.152407 0.345952 0 200 255
0.315925 0.030304 0.462355 0 200 255
0.280783 0.129154 0.306674 0 200 255
0.298727 0.184602 0.353873 0 200 255
0.313088 0.051392 0.472035 0 200 255
0.311195 0.234577 0.390719 0 200 255
0.299542 0.041025 0.424858 0 200 255
0.301583 0.010498 0.441795 0 200 255
0.315897 0.074475 0.414165 0 200 255
0.278261 0.089485 0.364358 0 200 255
0.298792 0.179627 0.375970 0 200 255
0.311834 0.129273 0.400034 0 200 255
0.315110 0.066596 0.361686 0 200 255
0.290017 0.098732 0.422978 0 200 255
0.293128 0.102551 0.308045 0 200 255
0.319152 0.056789 0.457319 0 200 255
0.315560 0.048661 0.437141 0 200 255
0.306865 0.041373 0.452007 0 200 255
0.292529 0.151648 0.372218 0 200 255
0.297673 0.088336 0.442836 0 200 255
0.306502 0.221030 0.369726 0 200 255
0.301511 0.137414 0.310962 0 200 255
0.310323 0.262241 0.409789 0 200 255
0.279140 0.135280 0.296573 0 200 255
0.313691 0.074693 0.466293 0 200 255
0.316915 0.246239 0.395710 0 200 255
0.307667 0.095079 0.449499 0 200 255
0.309345 0.163261 0.340770 0 200 255
0.297131 0.113281 0.395779 0 200 255
0.315147 0.113707 0.332207 0 200 255
0.300853 0.123448 0.408456 0 200 255
0.314189 0.103737 0.421610 0 200 255
0.279600 0.145055 0.355849 0 200 255
0.297755 0.141923 0.393787 0 200 255
0.318667 0.129791 0.358340 0 200 255
0.309128 0.054507 0.479873 0 200 255
0.318548 0.116143 0.343428 0 200 255
0.316953 0.099637 0.436725 0 200 255
0.295868 0.129616 0.396134 0 200 255
0.323244 0.241268 0.396097 0 200 255
0.279428 0.106333 0.392679 0 200 255
0.306399 0.201752 0.356183 0 200 255
0.274107 0.151133 0.313643 0 200 255
0.298009 0.094667 0.433398 0 200 255
0.313507 0.072910 0.438030 0 200 255
0.284914 0.165187 0.320216 0 200 255
0.316600 0.027576 0.436199 0 200 255
0.313156 0.071580 0.477154 0 200 255
0.320751 0.218107 0.383000 0 200 255
0.293440 0.155929 0.338957 0 200 255
0.296033 0.197640 0.380194 0 200 255
0.296436 0.173382 0.349070 0 200 255
0.306767 0.071180 0.353758 0 200 255
0.294388 0.088264 0.454184 0 200 255
0.282198 0.094852 0.378238 0 200 255
0.328121 0.193461 0.365195 0 200 255
0.293820 0.034628 0.407365 0 200 255
0.317379 0.061736 0.472944 0 200 255
0.302415 0.064090 0.466228 0 200 255
0.290782 0.125391 0.412268 0 200 255
0.283353 0.100271 0.368537 0 200 255
0.309942 0.057564 0.374145 0 200 255
0.298758 0.064342 0.399381 0 200 255
0.313099 0.213570 0.390601 0 200 255
0.295089 0.219936 0.394383 0 200 255
0.296344 0.199404 0.359584 0 200 255
0.307540 0.071839 0.458045 0 200 255
0.281923 0.105357 0.327664 0 200 255
0.275013 0.130107 0.366258 0 200 255
0.312842 0.121533 0.400669 0 200 255
0.295699 0.147320 0.349275 0 200 255
0.275705 0.113522 0.347631 0 200 255
0.297804 0.091329 0.406053 0 200 255
0.295567 0.143580 0.336922 0 200 255
0.304648 0.188103 0.357352 0 200 255
0.292893 0.214537 0.371235 0 200 255
0.303896 0.128966 0.401691 0 200 255
0.319289 0.051147 0.464330 0 200 255
0.310904 0.052719 0.401348 0 200 255
0.304779 0.021533 0.435557 0 200 255
0.309218 0.031255 0.431983 0 200 255
0.298921 0.230037 0.399608 0 200 255
0.315099 0.189094 0.367308 0 200 255
0.303490 0.026631 0.422372 0 200 255
0.286856 0.150287 0.380852 0 200 255
0.299890 0.060308 0.362518 0 200 255
0.301655 0.095510 0.420981 0 200 255
0.305126 0.077554 0.376509 0 200 255
0.301439 0.066108 0.448480 0 200 255
0.305000 0.103907 0.377089 0 200 255
0.314954 0.255165 0.401320 0 200 255
0.314308 0.046126 0.421864 0 200 255
0.309278 0.035808 0.421921 0 200 255
0.320306 0.092058 0.346592 0 200 255
0.315914 0.047256 0.383397 0 200 255
0.307267 0.074731 0.449514 0 200 255
0.313835 0.136525 0.331069 0 200 255
0.303227 0.077731 0.474098 0 200 255
0.315313 0.076713 0.400412 0 200 255
0.317106 0.132732 0.338013 0 200 255
0.300226 0.107467 0.419175 0 200 255
0.303861 0.059918 0.479677 0 200 255
0.319534 0.101195 0.374704 0 200 255
0.316120 0.058935 0.401505 0 200 255
0.305556 0.247487 0.412170 0 200 255
0.307824 0.033122 0.460165 0 200 255
0.293000 0.181184 0.360217 0 200 255
0.281685 0.130081 0.379584 0 200 255
0.320283 0.088796 0.367829 0 200 255
0.295135 0.134903 0.300711 0 200 255
0.313341 0.108174 0.363948 0 200 255
0.289164 0.125682 0.394399 0 200 255
0.315661 0.059563 0.488144 0 200 255
0.312525 0.072350 0.385923 0 200 255
0.282600 0.129134 0.400313 0 200 255
0.313940 0.098339 0.365615 0 200 255
0.283901 0.067035 0.355899 0 200 255
0.307176 0.269067 0.419116 0 200 255
0.277147 0.117329 0.371543 0 200 255
0.305763 0.080060 0.431684 0 200 255
0.311264 0.025412 0.411570 0 200 255
0.308982 0.106181 0.393481 0 200 255
0.313862 0.155556 0.333011 0 200 255
0.291458 0.046130 0.397870 0 200 255
0.298758 0.060454 0.455620 0 200 255
0.318389 0.052907 0.396022 0 200 255
0.307663 0.058459 0.428186 0 200 255
0.304849 0.017228 0.449120 0 200 255
0.300864 0.032596 0.410948 0 200 255
0.313148 0.076142 0.377249 0 200 255
0.314427 0.085904 0.358093 0 200 255
0.299239 0.050994 0.389800 0 200 255
0.299639 0.154947 0.360950 0 200 255
0.312988 0.143662 0.324319 0 200 255
0.318868 0.087487 0.333489 0 200 255
0.277171 0.102742 0.336524 0 200 255
0.288480 0.142825 0.319563 0 200 255
0.296546 0.135417 0.318060 0 200 255
0.318628 0.066246 0.479414 0 200 255
0.309434 0.089283 0.455144 0 200 255
0.308846 0.152110 0.372530 0 200 255
0.276284 0.107844 0.369931 0 200 255
0.294669 0.064739 0.382028 0 200 255
0.293995 0.161358 0.345103 0 200 255
0.315489 0.112199 0.309680 0 200 255
0.321815 0.261737 0.404331 0 200 255
0.299280 0.204566 0.371779 0 200 255
0.301989 0.103540 0.409714 0 200 255
0.279699 0.127931 0.353368 0 200 255
0.310752 0.182632 0.375962 0 200 255
0.293968 0.077725 0.407983 0 200 255
0.315295 0.071623 0.340304 0 200 255
0.322724 0.188768 0.372080 0 200 255
0.314531 0.095319 0.380667 0 200 255
0.295327 0.231950 0.385216 0 200 255
0.299159 0.039028 0.449650 0 200 255
0.292682 0.099077 0.439823 0 200 255
0.282831 0.136018 0.394544 0 200 255
0.306649 0.168794 0.364144 0 200 255
0.318751 0.112706 0.360178 0 200 255
0.305183 0.059768 0.398054 0 200 255
0.304862 0.038212 0.464486 0 200 255
0.320558 0.249850 0.400908 0 200 255
0.317270 0.249110 0.388995 0 200 255
0.305161 0.094627 0.379921 0 200 255
0.304465 0.033988 0.449284 0 200 255
0.276673 0.115184 0.378864 0 200 255
0.316779 0.146000 0.381075 0 200 255
0.314286 0.045853 0.446015 0 200 255
0.312191 0.258543 0.422977 0 200 255
0.328335 0.218777 0.373953 0 200 255
0.298433 0.079649 0.418435 0 200 255
0.302178 0.074007 0.412401 0 200 255
0.303975 0.049008 0.419150 0 200 255
0.310243 0.146531 0.317032 0 200 255
0.317638 0.235765 0.384987 0 200 255
0.306285 0.028333 0.407223 0 200 255
0.291090 0.079437 0.393297 0 200 255
0.300248 0.265274 0.417673 0 200 255
0.302528 0.253260 0.406341 0 200 255
0.308388 0.091858 0.391084 0 200 255
0.315529 0.023172 0.429141 0 200 255
0.309768 0.179475 0.359021 0 200 255
0.271561 0.140573 0.329770 0 200 255
0.284675 0.076637 0.368377 0 200 255
0.324637 0.200688 0.356981 0 200 255
0.288905 0.086631 0.406136 0 200 255
0.317177 0.215615 0.372451 0 200 255
0.314622 0.034878 0.398999 0 200 255
0.317399 0.070451 0.432505 0 200 255
0.324983 0.214736 0.392399 0 200 255
0.311989 0.039193 0.392802 0 200 255
0.301640 0.187884 0.366614 0 200 255
0.299119 0.083142 0.449931 0 200 255
0.274659 0.115616 0.329788 0 200 255
0.298453 0.176033 0.368651 0 200 255
0.303974 0.048524 0.460889 0 200 255
0.304015 0.128751 0.412064 0 200 255
0.303292 0.066721 0.473001 0 200 255
0.314011 0.045963 0.476819 0 200 255
0.283468 0.085168 0.369443 0 200 255
0.315994 0.134363 0.402816 0 200 255
0.313022 0.198258 0.381139 0 200 255
0.282254 0.125598 0.312676 0 200 255
0.273296 0.160673 0.322588 0 200 255
0.278059 0.100929 0.350614 0 200 255
0.279803 0.090013 0.348993 0 200 255
0.308022 0.055943 0.441531 0 200 255
0.313424 0.229059 0.395212 0 200 255
0.307642 0.020592 0.442960 0 200 255
0.312232 0.009515 0.451066 0 200 255
0.292607 0.102916 0.396574 0 200 255
0.312561 0.087880 0.385122 0 200 255
0.313938 0.048426 0.458716 0 200 255
0.314776 0.114214 0.319971 0 200 255
0.297703 0.052626 0.453581 0 200 255
0.294458 0.056005 0.408014 0 200 255
0.310105 0.144073 0.306784 0 200 255
0.290476 0.102837 0.413719 0 200 255
0.301790 0.084273 0.388466 0 200 255
0.299182 0.074062 0.457031 0 200 255
0.298235 0.094272 0.450204 0 200 255
0.305432 0.239706 0.406666 0 200 255
0.299321 0.062283 0.440462 0 200 255
0.292793 0.054227 0.423779 0 200 255
0.315216 0.013792 0.433489 0 200 255
0.299040 0.071174 0.436245 0 200 255
0.307262 0.243887 0.418408 0 200 255
0.320963 0.253922 0.394005 0 200 255
0.309748 0.069667 0.443384 0 200 255
0.307171 0.128486 0.312424 0 200 255
0.300109 0.086821 0.460581 0 200 255
0.303401 0.071637 0.390479 0 200 255
0.310900 0.151783 0.347725 0 200 255
0.299795 0.093611 0.313473 0 200 255
0.316871 0.095606 0.444056 0 200 255
0.318524 0.144949 0.358787 0 200 255
0.305667 0.241167 0.387432 0 200 255
0.298462 0.093249 0.412780 0 200 255
0.315333 0.065015 0.449859 0 200 255
0.301997 0.048575 0.406717 0 200 255
0.298278 0.027506 0.426965 0 200 255
0.301820 0.145167 0.344262 0 200 255
0.314992 0.051584 0.410101 0 200 255
0.274058 0.129792 0.342793 0 200 255
0.282289 0.118062 0.408655 0 200 255
0.311340 0.080381 0.365765 0 200 255
0.317752 0.079001 0.426187 0 200 255
0.299060 0.035828 0.397015 0 200 255
0.291645 0.113419 0.404745 0 200 255
0.330321 0.211444 0.380560 0 200 255
0.292884 0.054711 0.371706 0 200 255
0.304244 0.041188 0.389604 0 200 255
0.296047 0.110054 0.387318 0 200 255
0.295783 0.082459 0.426996 0 200 255
0.315579 0.031774 0.422082 0 200 255
0.312502 0.139611 0.343321 0 200 255
0.297522 0.100998 0.428673 0 200 255
0.321319 0.203109 0.387801 0 200 255
0.305700 0.068776 0.433839 0 200 255
0.318873 0.246607 0.408113 0 200 255
0.292904 0.068116 0.358934 0 200 255
0.317801 0.076259 0.471652 0 200 255
0.294621 0.160025 0.357362 0 200 255
0.295465 0.255572 0.408437 0 200 255
0.291924 0.078208 0.328441 0 200 255
0.311892 0.098021 0.417973 0 200 255
0.303783 0.064274 0.426158 0 200 255
0.306616 0.078981 0.398735 0 200 255
0.302901 0.037207 0.419631 0 200 255
0.297454 0.087244 0.398700 0 200 255
0.311341 0.084043 0.403941 0 200 255
0.314498 0.056282 0.379957 0 200 255
0.304508 0.043740 0.470369 0 200 255
0.316405 0.194021 0.356002 0 200 255
0.314304 0.034529 0.443935 0 200 255
0.305720 0.068944 0.375697 0 200 255
0.317812 0.039636 0.466608 0 200 255
0.287553 0.117709 0.392436 0 200 255
0.325369 0.188357 0.357248 0 200 255
0.298826 0.086110 0.321341 0 200 255
0.281936 0.149552 0.376091 0 200 255
0.294648 0.068397 0.411025 0 200 255
0.319114 0.265488 0.416933 0 200 255
0.277269 0.095999 0.362379 0 200 255
0.284381 0.164940 0.329626 0 200 255
0.316063 0.251838 0.412980 0 200 255
0.293166 0.156516 0.377021 0 200 255
0.307446 0.206942 0.370183 0 200 255
0.317727 0.238458 0.392899 0 200 255
0.275116 0.110442 0.340931 0 200 255
0.280989 0.081434 0.348717 0 200 255
0.294745 0.186114 0.376798 0 200 255
0.275529 0.132769 0.309174 0 200 255
0.293310 0.045783 0.386842 0 200 255
0.316229 0.148847 0.320941 0 200 255
0.305490 0.231125 0.394699 0 200 255
0.311767 0.087816 0.432305 0 200 255
0.304459 0.043366 0.439485 0 200 255
0.314643 0.078854 0.351673 0 200 255
0.319937 0.093960 0.340063 0 200 255
0.316135 0.084081 0.410890 0 200 255
0.314803 0.029215 0.450999 0 200 255
0.311041 0.201725 0.364686 0 200 255
0.309743 0.052187 0.448621 0 200 255
0.323253 0.213663 0.368846 0 200 255
0.309721 0.096452 0.406264 0 200 255
0.319301 0.104582 0.359683 0 200 255
0.304719 0.049130 0.378469 0 200 255
0.309503 0.027383 0.465000 0 200 255
0.306383 0.132087 0.301715 0 200 255
0.311685 0.097412 0.312627 0 200 255
0.316944 0.035611 0.436455 0 200 255
0.297382 0.076950 0.401308 0 200 255
0.319992 0.033521 0.448526 0 200 255
0.303342 0.058331 0.489185 0 200 255
0.311400 0.159477 0.325538 0 200 255
0.308136 0.033195 0.402922 0 200 255
0.301435 0.177650 0.351586 0 200 255
0.314357 0.088466 0.459683 0 200 255
0.290170 0.058387 0.381824 0 200 255
0.319866 0.125211 0.389662 0 200 255
0.305661 0.056714 0.452307 0 200 255
0.307257 0.075249 0.332310 0 200 255
0.299493 0.104976 0.307513 0 200 255
0.300096 0.063363 0.385756 0 200 255
0.294685 0.167582 0.329204 0 200 255
0.292439 0.202617 0.364134 0 200 255
0.299594 0.056522 0.413533 0 200 255
0.286114 0.102846 0.392570 0 200 255
0.300007 0.053682 0.422615 0 200 255
0.311451 0.117728 0.417848 0 200 255
0.303807 0.044921 0.446905 0 200 255
0.299529 0.100514 0.375054 0 200 255
0.300278 0.038972 0.402821 0 200 255
0.311618 0.107794 0.404226 0 200 255
0.307875 0.250817 0.394017 0 200 255
0.304140 0.068962 0.484286 0 200 255
0.305987 0.005176 0.444045 0 200 255
0.291686 0.188485 0.365047 0 200 255
0.282763 0.079582 0.339265 0 200 255
0.308757 0.218513 0.391558 0 200 255
0.293514 0.123965 0.306952 0 200 255
0.315360 0.140045 0.309605 0 200 255
0.298227 0.058570 0.368862 0 200 255
0.279353 0.108004 0.382018 0 200 255
0.275664 0.143947 0.307173 0 200 255
0.301694 0.150018 0.350720 0 200 255
0.305034 0.261655 0.413730 0 200 255
0.309187 0.233903 0.402140 0 200 255
0.308465 0.081083 0.465754 0 200 255
0.311808 0.116139 0.396715 0 200 255
0.304220 0.033830 0.440218 0 200 255
0.302955 0.023545 0.449368 0 200 255
0.298648 0.092998 0.378634 0 200 255
0.299765 0.071622 0.343122 0 200 255
0.303872 0.049567 0.437339 0 200 255
0.303778 0.041346 0.429906 0 200 255
0.300283 0.227668 0.391580 0 200 255
0.307625 0.165908 0.350735 0 200 255
0.291135 0.100225 0.313869 0 200 255
0.286476 0.145876 0.386519 0 200 255
0.310001 0.150611 0.354127 0 200 255
0.290315 0.206444 0.375943 0 200 255
0.301953 0.014307 0.427391 0 200 255
0.278782 0.084378 0.359940 0 200 255
0.310509 0.026556 0.421734 0 200 255
0.290788 0.074360 0.427778 0 200 255
0.304789 0.182719 0.378654 0 200 255
0.297143 0.119074 0.415247 0 200 255
0.327301 0.198595 0.382244 0 200 255
0.315216 0.036986 0.457267 0 200 255
0.296212 0.252574 0.402377 0 200 255
0.308100 0.035012 0.473754 0 200 255
0.307285 0.221588 0.380702 0 200 255
0.319550 0.242982 0.401203 0 200 255
0.303352 0.056625 0.376152 0 200 255
0.314959 0.089708 0.322390 0 200 255
0.313031 0.061236 0.458826 0 200 255
0.277499 0.155729 0.321947 0 200 255
0.281880 0.115125 0.398021 0 200 255
0.302467 0.059337 0.434066 0 200 255
0.325034 0.199093 0.364087 0 200 255
0.282770 0.116681 0.380602 0 200 255
0.294706 0.156170 0.331400 0 200 255
0.293011 0.154143 0.349051 0 200 255
0.294121 0.083619 0.379780 0 200 255
0.317591 0.214659 0.395167 0 200 255
0.324213 0.224966 0.383883 0 200 255
0.300482 0.047384 0.426945 0 200 255
0.301539 0.191279 0.387282 0 200 255
0.295591 0.190260 0.381817 0 200 255
0.297768 0.067431 0.469689 0 200 255
0.314248 0.099080 0.395989 0 200 255
0.291748 0.067161 0.404968 0 200 255
0.325758 0.247290 0.398022 0 200 255
0.298490 0.069373 0.394167 0 200 255
0.296358 0.161666 0.365400 0 200 255
0.308726 0.229715 0.374341 0 200 255
0.298695 0.073742 0.383264 0 200 255
0.283708 0.092006 0.324459 0 200 255
0.307857 0.216933 0.364290 0 200 255
0.297911 0.082345 0.393487 0 200 255
0.288309 0.107297 0.398574 0 200 255
0.317998 0.070024 0.346520 0 200 255
0.316660 0.043546 0.431907 0 200 255
0.275249 0.119684 0.355873 0 200 255
0.316487 0.039816 0.474706 0 200 255
0.300237 0.043001 0.409413 0 200 255
