ply
format ascii 1.0
element vertex 1024
property float x
property float y
property float z
property uchar red
property uchar green
property uchar blue
end_header
0.290904 0.130963 0.295889 0 200 255
0.309865 0.057756 0.492544 0 200 255
0.314082 0.267281 0.421282 0 200 255
0.311215 0.050403 0.376995 0 200 255
0.328502 0.186319 0.368278 0 200 255
0.283625 0.124894 0.408036 0 200 255
0.307887 0.007178 0.437963 0 200 255
0.318409 0.116059 0.351335 0 200 255
0.316587 0.078199 0.433083 0 200 255
0.278735 0.159940 0.348792 0 200 255
0.294435 0.225681 0.388901 0 200 255
0.287599 0.075831 0.333293 0 200 255
0.282866 0.087385 0.380769 0 200 255
0.309354 0.168044 0.316364 0 200 255
0.273639 0.117191 0.338380 0 200 255
0.312852 0.147447 0.387032 0 200 255
0.299824 0.045323 0.453727 0 200 255
0.296242 0.039322 0.413066 0 200 255
0.291060 0.195734 0.363903 0 200 255
0.316503 0.106087 0.313975 0 200 255
0.312494 0.101474 0.401735 0 200 255
0.300151 0.082533 0.466455 0 200 255
0.324450 0.247687 0.391619 0 200 255
0.273142 0.159137 0.312504 0 200 255
0.319902 0.074446 0.350790 0 200 255
0.280268 0.134327 0.373532 0 200 255
0.316976 0.151684 0.352130 0 200 255
0.323423 0.220893 0.368802 0 200 255
0.289412 0.099716 0.431427 0 200 255
0.298523 0.071267 0.405493 0 200 255
0.315848 0.136851 0.323759 0 200 255
0.286893 0.061531 0.360713 0 200 255
0.285602 0.104203 0.310400 0 200 255
0.309398 0.198849 0.389598 0 200 255
0.307205 0.237686 0.415004 0 200 255
0.316912 0.093471 0.373522 0 200 255
0.317941 0.049390 0.429482 0 200 255
0.311526 0.020784 0.463049 0 200 255
0.299706 0.169057 0.367152 0 200 255
0.292073 0.065066 0.435597 0 200 255
0.324318 0.220345 0.396840 0 200 255
0.315720 0.106053 0.431148 0 200 255
0.320005 0.120891 0.384479 0 200 255
0.277419 0.094248 0.355288 0 200 255
0.318345 0.049178 0.402479 0 200 255
0.311967 0.081255 0.326510 0 200 255
0.318633 0.044952 0.471456 0 200 255
0.313375 0.143312 0.298558 0 200 255
0.294813 0.116884 0.361487 0 200 255
0.314882 0.022745 0.417804 0 200 255
0.298643 0.152033 0.334596 0 200 255
0.275577 0.129384 0.316384 0 200 255
0.313846 0.200499 0.353958 0 200 255
0.308706 0.125588 0.406626 0 200 255
0.290981 0.050875 0.391669 0 200 255
0.279494 0.112070 0.387234 0 200 255
0.305788 0.073179 0.382675 0 200 255
0.301730 0.253017 0.397544 0 200 255
0.290610 0.093598 0.407722 0 200 255
0.318932 0.069341 0.472321 0 200 255
0.290180 0.144293 0.393081 0 200 255
0.315035 0.092695 0.451382 0 200 255
0.299812 0.081946 0.361841 0 200 255
0.271615 0.140808 0.337757 0 200 255
0.308651 0.066403 0.451562 0 200 255
0.309547 0.030009 0.439521 0 200 255
0.301288 0.215970 0.366287 0 200 255
0.295670 0.142033 0.314807 0 200 255
0.287347 0.169947 0.325953 0 200 255
0.306151 0.169739 0.345558 0 200 255
0.330018 0.204539 0.381580 0 200 255
0.299047 0.060993 0.473575 0 200 255
0.299223 0.101213 0.383227 0 200 255
0.290893 0.085050 0.446818 0 200 255
0.316681 0.065880 0.415913 0 200 255
0.279233 0.097840 0.329519 0 200 255
0.319631 0.102708 0.335030 0 200 255
0.315078 0.131100 0.365298 0 200 255
0.286305 0.155619 0.375411 0 200 255
0.297374 0.115291 0.420558 0 200 255
0.272118 0.141544 0.300213 0 200 255
0.307685 0.089428 0.418601 0 200 255
0.310893 0.125187 0.307411 0 200 255
0.291936 0.206135 0.382270 0 200 255
0.311544 0.236626 0.380589 0 200 255
0.297702 0.045894 0.432597 0 200 255
0.274871 0.115398 0.363744 0 200 255
0.306930 0.062136 0.360297 0 200 255
0.298041 0.184312 0.382495 0 200 255
0.295478 0.122870 0.391353 0 200 255
0.322782 0.249694 0.414026 0 200 255
0.297447 0.258841 0.415941 0 200 255
0.297368 0.153958 0.353846 0 200 255
0.290752 0.079531 0.423130 0 200 255
0.292611 0.057676 0.417576 0 200 255
0.318471 0.049072 0.452462 0 200 255
0.308538 0.185780 0.365112 0 200 255
0.301455 0.036820 0.471031 0 200 255
0.306186 0.036585 0.396154 0 200 255
0.299108 0.020220 0.427689 0 200 255
0.275074 0.133138 0.355768 0 200 255
0.303936 0.086090 0.395937 0 200 255
0.294423 0.089209 0.316517 0 200 255
0.316812 0.066748 0.395955 0 200 255
0.297534 0.065619 0.344662 0 200 255
0.292130 0.178458 0.353248 0 200 255
0.314444 0.133324 0.347172 0 200 255
0.314804 0.264251 0.403370 0 200 255
0.293483 0.237386 0.402737 0 200 255
0.318163 0.118863 0.326905 0 200 255
0.315579 0.154770 0.369925 0 200 255
0.289154 0.073234 0.390127 0 200 255
0.277783 0.129526 0.391345 0 200 255
0.297559 0.210416 0.398748 0 200 255
0.294882 0.059222 0.376605 0 200 255
0.277299 0.155315 0.329138 0 200 255
0.307907 0.227743 0.400075 0 200 255
0.281247 0.073823 0.349490 0 200 255
0.312276 0.218190 0.384406 0 200 255
0.297245 0.109499 0.403402 0 200 255
0.313499 0.099549 0.353042 0 200 255
0.322668 0.184643 0.352082 0 200 255
0.301009 0.111433 0.308620 0 200 255
0.276996 0.148619 0.362459 0 200 255
0.279588 0.080773 0.365326 0 200 255
0.323719 0.235481 0.404239 0 200 255
0.277476 0.101506 0.373481 0 200 255
0.308639 0.062493 0.434928 0 200 255
0.312865 0.040238 0.416379 0 200 255
0.320406 0.018564 0.433952 0 200 255
0.313062 0.114700 0.367762 0 200 255
0.326913 0.205558 0.363053 0 200 255
0.276047 0.113999 0.322422 0 200 255
0.299862 0.098670 0.444038 0 200 255
0.312472 0.152840 0.325015 0 200 255
0.281060 0.097018 0.394902 0 200 255
0.326472 0.231043 0.384175 0 200 255
0.302055 0.055460 0.403930 0 200 255
0.312155 0.110950 0.414935 0 200 255
0.300403 0.029067 0.452795 0 200 255
0.301880 0.085417 0.435157 0 200 255
0.319417 0.032375 0.455318 0 200 255
0.270016 0.144416 0.319970 0 200 255
0.317268 0.156630 0.308446 0 200 255
0.287388 0.121800 0.308429 0 200 255
0.308259 0.113427 0.391812 0 200 255
0.318126 0.132024 0.395815 0 200 255
0.305923 0.073661 0.479875 0 200 255
0.315187 0.081547 0.462366 0 200 255
0.297182 0.140156 0.346569 0 200 255
0.316387 0.014926 0.448523 0 200 255
0.312308 0.078051 0.407217 0 200 255
0.281905 0.110403 0.403916 0 200 255
0.304462 0.201410 0.367408 0 200 255
0.313136 0.096195 0.387804 0 200 255
0.300999 0.135661 0.398568 0 200 255
0.319101 0.083082 0.363085 0 200 255
0.279157 0.086795 0.342655 0 200 255
0.306741 0.055623 0.421343 0 200 255
0.310515 0.241488 0.394870 0 200 255
0.314538 0.057413 0.463861 0 200 255
0.312915 0.092139 0.316657 0 200 255
0.301637 0.025300 0.412139 0 200 255
0.308941 0.252099 0.421940 0 200 255
0.297216 0.068843 0.461397 0 200 255
0.313784 0.089295 0.342655 0 200 255
0.310906 0.165043 0.358761 0 200 255
0.315125 0.066968 0.371282 0 200 255
0.296606 0.100832 0.418867 0 200 255
0.288638 0.162224 0.338142 0 200 255
0.314145 0.191528 0.377133 0 200 255
0.317542 0.043007 0.389433 0 200 255
0.300726 0.019073 0.442093 0 200 255
0.285612 0.163197 0.360845 0 200 255
0.316675 0.057467 0.479841 0 200 255
0.312822 0.079080 0.446753 0 200 255
0.298067 0.239351 0.388532 0 200 255
0.303760 0.034460 0.426949 0 200 255
0.319937 0.039400 0.441164 0 200 255
0.302724 0.227307 0.374784 0 200 255
0.294961 0.182278 0.368150 0 200 255
0.308155 0.048105 0.442741 0 200 255
0.308631 0.075603 0.338868 0 200 255
0.300854 0.068788 0.419649 0 200 255
0.302579 0.063670 0.392422 0 200 255
0.319179 0.135343 0.377951 0 200 255
0.312712 0.151116 0.338881 0 200 255
0.289356 0.076038 0.374029 0 200 255
0.273376 0.129190 0.330312 0 200 255
0.280481 0.120656 0.349974 0 200 255
0.314351 0.031177 0.405895 0 200 255
0.275821 0.105862 0.345956 0 200 255
0.308619 0.146178 0.361685 0 200 255
0.309184 0.139374 0.312003 0 200 255
0.301970 0.090355 0.454750 0 200 255
0.319594 0.208565 0.391893 0 200 255
0.279883 0.145581 0.381909 0 200 255
0.317255 0.091360 0.436204 0 200 255
0.310038 0.252554 0.408134 0 200 255
0.303910 0.087941 0.382541 0 200 255
0.297313 0.059921 0.446818 0 200 255
0.296976 0.152021 0.384488 0 200 255
0.299824 0.045961 0.382877 0 200 255
0.306089 0.048703 0.475102 0 200 255
0.287250 0.149842 0.321637 0 200 255
0.328459 0.218088 0.381616 0 200 255
0.293689 0.039310 0.399820 0 200 255
0.273911 0.146594 0.349696 0 200 255
0.298609 0.079055 0.326603 0 200 255
0.317455 0.080473 0.419342 0 200 255
0.315358 0.208996 0.368429 0 200 255
0.306786 0.181559 0.352753 0 200 255
0.284469 0.085638 0.325135 0 200 255
0.314313 0.061842 0.384033 0 200 255
0.301896 0.195191 0.355131 0 200 255
0.299317 0.129499 0.313651 0 200 255
0.293917 0.094271 0.394483 0 200 255
0.310132 0.040267 0.459813 0 200 255
0.299303 0.075566 0.449638 0 200 255
0.296927 0.130903 0.409929 0 200 255
0.302564 0.099991 0.314525 0 200 255
0.298691 0.156255 0.368724 0 200 255
0.300055 0.064062 0.487039 0 200 255
0.325011 0.255641 0.401733 0 200 255
0.298346 0.055629 0.461256 0 200 255
0.280615 0.131910 0.343827 0 200 255
0.277848 0.123143 0.379240 0 200 255
0.303730 0.072865 0.370071 0 200 255
0.298579 0.036669 0.442707 0 200 255
0.297968 0.083478 0.410161 0 200 255
0.305186 0.268044 0.411860 0 200 255
0.297016 0.195914 0.387823 0 200 255
0.301894 0.167812 0.326628 0 200 255
0.291369 0.218029 0.377952 0 200 255
0.291172 0.207517 0.368545 0 200 255
0.316464 0.030691 0.428962 0 200 255
0.303402 0.096257 0.408789 0 200 255
0.288588 0.132540 0.397379 0 200 255
0.305120 0.097718 0.372667 0 200 255
0.303636 0.109137 0.429524 0 200 255
0.290608 0.109732 0.392779 0 200 255
0.313887 0.254084 0.393562 0 200 255
0.291654 0.061780 0.401249 0 200 255
0.311336 0.037889 0.478656 0 200 255
0.294179 0.165770 0.351827 0 200 255
0.294152 0.248857 0.407338 0 200 255
0.317292 0.067941 0.442851 0 200 255
0.307179 0.126475 0.393116 0 200 255
0.316214 0.092615 0.328790 0 200 255
0.305232 0.009825 0.449729 0 200 255
0.311192 0.082289 0.372737 0 200 255
0.299342 0.070994 0.356262 0 200 255
0.312008 0.109821 0.380784 0 200 255
0.293573 0.094425 0.374631 0 200 255
0.319240 0.104319 0.366454 0 200 255
0.315093 0.067992 0.485666 0 200 255
0.282583 0.136476 0.303672 0 200 255
0.296896 0.222846 0.401315 0 200 255
0.317504 0.051563 0.417627 0 200 255
0.305546 0.073427 0.438974 0 200 255
0.320126 0.192862 0.362605 0 200 255
0.310044 0.013658 0.428038 0 200 255
0.316079 0.096394 0.423999 0 200 255
0.309083 0.067991 0.465355 0 200 255
0.311655 0.100122 0.442598 0 200 255
0.322745 0.261535 0.412379 0 200 255
0.313594 0.114153 0.403524 0 200 255
0.309334 0.211561 0.397496 0 200 255
0.317859 0.123195 0.337963 0 200 255
0.306789 0.177135 0.373063 0 200 255
0.282466 0.113123 0.374969 0 200 255
0.314434 0.228112 0.371245 0 200 255
0.317150 0.140294 0.337878 0 200 255
0.327839 0.193578 0.378069 0 200 255
0.295332 0.192496 0.374313 0 200 255
0.307162 0.145881 0.348680 0 200 255
0.296018 0.091496 0.426449 0 200 255
0.316859 0.117827 0.314206 0 200 255
0.314870 0.081300 0.383740 0 200 255
0.305884 0.227595 0.388137 0 200 255
0.309322 0.161491 0.332937 0 200 255
0.314139 0.241903 0.406148 0 200 255
0.294974 0.076150 0.433245 0 200 255
0.316881 0.065133 0.427429 0 200 255
0.306246 0.111298 0.318787 0 200 255
0.292978 0.118472 0.409468 0 200 255
0.305071 0.142482 0.337972 0 200 255
0.303941 0.055328 0.369705 0 200 255
0.314904 0.064231 0.350958 0 200 255
0.288162 0.108319 0.418834 0 200 255
0.296626 0.047895 0.421489 0 200 255
0.292074 0.083314 0.400574 0 200 255
0.300413 0.161671 0.340225 0 200 255
0.308421 0.209818 0.359628 0 200 255
0.299037 0.145825 0.325249 0 200 255
0.294926 0.082553 0.387727 0 200 255
0.301899 0.217085 0.390838 0 200 255
0.298745 0.056600 0.429434 0 200 255
0.302940 0.028543 0.463665 0 200 255
0.299421 0.128184 0.302608 0 200 255
0.317388 0.226608 0.389565 0 200 255
0.277415 0.167154 0.321818 0 200 255
0.309899 0.075215 0.393941 0 200 255
0.285385 0.096158 0.318036 0 200 255
0.277769 0.102996 0.362504 0 200 255
0.291632 0.089976 0.436933 0 200 255
0.302789 0.053445 0.484532 0 200 255
0.307037 0.045137 0.424727 0 200 255
0.301974 0.119088 0.400751 0 200 255
0.303901 0.138596 0.301596 0 200 255
0.315710 0.056427 0.440782 0 200 255
0.307347 0.049997 0.411875 0 200 255
0.298227 0.073147 0.336341 0 200 255
0.308301 0.052178 0.456495 0 200 255
0.279191 0.099983 0.384198 0 200 255
0.279066 0.120950 0.398895 0 200 255
0.309674 0.023530 0.449123 0 200 255
0.308178 0.214529 0.374627 0 200 255
0.311327 0.039775 0.434516 0 200 255
0.310894 0.159495 0.347618 0 200 255
0.318361 0.080117 0.337076 0 200 255
0.301489 0.102913 0.395888 0 200 255
0.310355 0.079651 0.471899 0 200 255
0.297312 0.073546 0.471832 0 200 255
0.305761 0.039519 0.406585 0 200 255
0.280685 0.113972 0.311726 0 200 255
0.327628 0.211009 0.373278 0 200 255
0.319157 0.197325 0.384598 0 200 255
0.294811 0.064913 0.367585 0 200 255
0.320539 0.087865 0.353662 0 200 255
0.313518 0.074404 0.360420 0 200 255
0.312300 0.057142 0.395187 0 200 255
0.314424 0.138605 0.357009 0 200 255
0.314124 0.091465 0.398622 0 200 255
0.299643 0.045942 0.465952 0 200 255
0.318116 0.182744 0.372742 0 200 255
0.300774 0.260442 0.406014 0 200 255
0.273537 0.151825 0.340550 0 200 255
0.302646 0.177592 0.361708 0 200 255
0.312325 0.174059 0.364648 0 200 255
0.304739 0.118213 0.413000 0 200 255
0.312812 0.089868 0.409456 0 200 255
0.293446 0.074209 0.414500 0 200 255
0.321787 0.241517 0.383575 0 200 255
0.314755 0.124424 0.376146 0 200 255
0.296829 0.084479 0.371543 0 200 255
0.279001 0.124069 0.368887 0 200 255
0.325410 0.231544 0.394562 0 200 255
0.317196 0.119925 0.394498 0 200 255
0.300901 0.162090 0.359353 0 200 255
0.277510 0.109596 0.332381 0 200 255
0.292895 0.108994 0.428199 0 200 255
0.289666 0.118644 0.398902 0 200 255
0.300416 0.031159 0.403401 0 200 255
0.300626 0.232292 0.408346 0 200 255
0.282982 0.082360 0.355182 0 200 255
0.306631 0.080507 0.455126 0 200 255
0.311492 0.140026 0.396153 0 200 255
0.308331 0.051800 0.432634 0 200 255
0.280472 0.138839 0.362871 0 200 255
0.313511 0.145222 0.373439 0 200 255
0.300475 0.027845 0.434581 0 200 255
0.325705 0.245647 0.404713 0 200 255
0.304707 0.062507 0.380258 0 200 255
0.293249 0.060078 0.387543 0 200 255
0.310811 0.154815 0.379094 0 200 255
0.309180 0.058598 0.472848 0 200 255
0.285044 0.067971 0.369294 0 200 255
0.294855 0.060597 0.353245 0 200 255
0.276283 0.139099 0.313066 0 200 255
0.318372 0.057496 0.408526 0 200 255
0.304654 0.085264 0.445893 0 200 255
0.313793 0.218835 0.365881 0 200 255
0.296655 0.168951 0.317869 0 200 255
0.305420 0.261856 0.422253 0 200 255
0.299619 0.047793 0.397574 0 200 255
0.281114 0.105519 0.319688 0 200 255
0.308572 0.024371 0.427578 0 200 255
0.278598 0.091463 0.372174 0 200 255
0.312110 0.035573 0.468611 0 200 255
0.299154 0.062854 0.411158 0 200 255
0.313245 0.190909 0.350680 0 200 255
0.307756 0.069385 0.412260 0 200 255
0.295553 0.081302 0.457522 0 200 255
0.314361 0.244779 0.417537 0 200 255
0.305838 0.088746 0.366255 0 200 255
0.267772 0.151370 0.308927 0 200 255
0.297271 0.050537 0.411522 0 200 255
0.292037 0.161428 0.328587 0 200 255
0.325108 0.179161 0.362083 0 200 255
0.292619 0.214975 0.387418 0 200 255
0.315671 0.108837 0.341901 0 200 255
0.297953 0.075997 0.394626 0 200 255
0.277764 0.097145 0.341492 0 200 255
0.318687 0.010323 0.439308 0 200 255
0.299154 0.210541 0.376066 0 200 255
0.307152 0.190232 0.384083 0 200 255
0.313782 0.220520 0.396529 0 200 255
0.306417 0.102260 0.418417 0 200 255
0.315299 0.106440 0.323818 0 200 255
0.303984 0.020205 0.456641 0 200 255
0.296001 0.244845 0.396745 0 200 255
0.317927 0.137895 0.387866 0 200 255
0.291821 0.113149 0.305530 0 200 255
0.318292 0.032064 0.415666 0 200 255
0.282739 0.072784 0.360544 0 200 255
0.315536 0.120176 0.359771 0 200 255
0.300898 0.055241 0.438976 0 200 255
0.300941 0.220197 0.381592 0 200 255
0.288582 0.067358 0.348808 0 200 255
0.293459 0.068643 0.426053 0 200 255
0.305915 0.160471 0.321515 0 200 255
0.318691 0.256291 0.419974 0 200 255
0.305463 0.087386 0.322554 0 200 255
0.317574 0.028397 0.444819 0 200 255
0.296864 0.040884 0.390636 0 200 255
0.297853 0.069106 0.376857 0 200 255
0.298314 0.206652 0.361985 0 200 255
0.307092 0.162187 0.367235 0 200 255
0.302255 0.171071 0.354512 0 200 255
0.311537 0.083685 0.426866 0 200 255
0.294318 0.089580 0.417100 0 200 255
0.317495 0.070069 0.405439 0 200 255
0.318892 0.044036 0.461394 0 200 255
0.290281 0.071179 0.399574 0 200 255
0.317771 0.053573 0.387552 0 200 255
0.273925 0.124525 0.359899 0 200 255
0.315512 0.269175 0.411600 0 200 255
0.319983 0.095862 0.361956 0 200 255
0.303539 0.236823 0.399525 0 200 255
0.301494 0.013658 0.434192 0 200 255
0.308841 0.044330 0.385407 0 200 255
0.272310 0.135780 0.346349 0 200 255
0.297589 0.102352 0.435472 0 200 255
0.298787 0.248605 0.415622 0 200 255
0.304040 0.147756 0.390543 0 200 255
0.298822 0.046433 0.442643 0 200 255
0.307294 0.065912 0.345575 0 200 255
0.308236 0.031927 0.413617 0 200 255
0.297178 0.206310 0.390139 0 200 255
0.329976 0.210638 0.388807 0 200 255
0.317514 0.041343 0.408223 0 200 255
0.312996 0.110189 0.356395 0 200 255
0.316106 0.234787 0.398446 0 200 255
0.314123 0.074787 0.455253 0 200 255
0.327876 0.199897 0.371081 0 200 255
0.322901 0.213960 0.361627 0 200 255
0.296067 0.069314 0.443381 0 200 255
0.290700 0.161273 0.368532 0 200 255
0.323149 0.194269 0.353800 0 200 255
0.314258 0.038034 0.449853 0 200 255
0.277515 0.145148 0.371186 0 200 255
0.310776 0.195729 0.361459 0 200 255
0.291709 0.050661 0.382286 0 200 255
0.311177 0.232308 0.408410 0 200 255
0.311219 0.226753 0.379961 0 200 255
0.294457 0.171983 0.359616 0 200 255
0.312241 0.112112 0.424918 0 200 255
0.291557 0.146599 0.342773 0 200 255
0.306088 0.060890 0.458985 0 200 255
0.318699 0.040769 0.398411 0 200 255
0.274356 0.136378 0.322411 0 200 255
0.288137 0.090133 0.388493 0 200 255
0.313818 0.059370 0.366097 0 200 255
0.292061 0.233500 0.394426 0 200 255
0.295562 0.107662 0.412669 0 200 255
0.305122 0.110033 0.408254 0 200 255
0.298086 0.031943 0.418355 0 200 255
0.317092 0.128265 0.326942 0 200 255
0.326400 0.225375 0.376335 0 200 255
0.308235 0.105804 0.307700 0 200 255
0.271077 0.153897 0.322511 0 200 255
0.302490 0.084367 0.425449 0 200 255
0.318248 0.017786 0.425064 0 200 255
0.304455 0.019092 0.420317 0 200 255
0.308083 0.155293 0.360824 0 200 255
0.312001 0.244728 0.386421 0 200 255
0.304774 0.087813 0.405554 0 200 255
0.277311 0.136818 0.381894 0 200 255
0.295416 0.125300 0.402878 0 200 255
0.303431 0.246625 0.391253 0 200 255
0.307784 0.039022 0.443515 0 200 255
0.311316 0.083708 0.438038 0 200 255
0.316337 0.142681 0.316532 0 200 255
0.306675 0.140131 0.320691 0 200 255
0.289459 0.082790 0.413183 0 200 255
0.318121 0.221603 0.376315 0 200 255
0.318078 0.141588 0.346923 0 200 255
0.297307 0.069313 0.387745 0 200 255
0.274494 0.112620 0.355179 0 200 255
0.309135 0.066938 0.422670 0 200 255
0.307662 0.134498 0.405914 0 200 255
0.301951 0.037044 0.456658 0 200 255
0.301418 0.094521 0.389561 0 200 255
0.292376 0.093976 0.445575 0 200 255
0.272708 0.124194 0.347249 0 200 255
0.304377 0.246467 0.404778 0 200 255
0.294200 0.072961 0.363700 0 200 255
0.282887 0.156210 0.365741 0 200 255
0.310847 0.103265 0.410535 0 200 255
0.291674 0.135467 0.310225 0 200 255
0.311846 0.144731 0.332213 0 200 255
0.298031 0.241196 0.410692 0 200 255
0.275090 0.146253 0.327086 0 200 255
0.319071 0.231634 0.379213 0 200 255
0.294129 0.189044 0.358867 0 200 255
0.298641 0.068025 0.479203 0 200 255
0.314426 0.039678 0.426183 0 200 255
0.280973 0.079941 0.374069 0 200 255
0.314935 0.056509 0.424678 0 200 255
0.312012 0.058266 0.450648 0 200 255
0.298569 0.056447 0.395569 0 200 255
0.305997 0.094654 0.397276 0 200 255
0.308243 0.258761 0.401231 0 200 255
0.278815 0.154170 0.355460 0 200 255
0.315010 0.020564 0.441686 0 200 255
0.282434 0.085653 0.333713 0 200 255
0.298782 0.076344 0.424867 0 200 255
0.328178 0.222728 0.389294 0 200 255
0.320511 0.240020 0.411918 0 200 255
0.269388 0.142703 0.308969 0 200 255
0.296944 0.078052 0.377966 0 200 255
0.299187 0.133271 0.294139 0 200 255
0.317083 0.148306 0.304707 0 200 255
0.302079 0.122686 0.308857 0 200 255
0.282118 0.107393 0.339462 0 200 255
0.316429 0.086889 0.444346 0 200 255
0.308677 0.062690 0.443681 0 200 255
0.302249 0.052250 0.448133 0 200 255
0.303279 0.235087 0.382769 0 200 255
0.300290 0.194523 0.364173 0 200 255
0.315197 0.024424 0.456084 0 200 255
0.303747 0.074789 0.464619 0 200 255
0.278510 0.124358 0.338613 0 200 255
0.285866 0.164320 0.346558 0 200 255
0.307608 0.086182 0.461594 0 200 255
0.303921 0.053206 0.467924 0 200 255
0.319388 0.116572 0.373349 0 200 255
0.302850 0.119078 0.388164 0 200 255
0.317845 0.098407 0.321960 0 200 255
0.317930 0.072624 0.422891 0 200 255
0.315044 0.123779 0.349464 0 200 255
0.313712 0.105692 0.372921 0 200 255
0.282355 0.142227 0.390123 0 200 255
0.303929 0.042890 0.415241 0 200 255
0.299128 0.054807 0.383407 0 200 255
0.305183 0.151379 0.320789 0 200 255
0.298830 0.080453 0.441904 0 200 255
0.303284 0.079357 0.404922 0 200 255
0.295850 0.168231 0.343187 0 200 255
0.318063 0.226794 0.400638 0 200 255
0.311053 0.084141 0.391695 0 200 255
0.306988 0.091430 0.426968 0 200 255
0.299591 0.060318 0.421655 0 200 255
0.279273 0.140011 0.349663 0 200 255
0.316684 0.084657 0.454613 0 200 255
0.304775 0.110760 0.399696 0 200 255
0.299586 0.065429 0.431692 0 200 255
0.278824 0.121173 0.387421 0 200 255
0.291904 0.100984 0.389742 0 200 255
0.317350 0.068104 0.463609 0 200 255
0.318937 0.201137 0.361377 0 200 255
0.301574 0.037301 0.434596 0 200 255
0.319219 0.255169 0.407851 0 200 255
0.313699 0.006307 0.444786 0 200 255
0.317341 0.112935 0.389800 0 200 255
0.317366 0.209048 0.357619 0 200 255
0.290889 0.062737 0.409599 0 200 255
0.288128 0.080758 0.380871 0 200 255
0.300387 0.028556 0.443832 0 200 255
0.294844 0.045934 0.404950 0 200 255
0.298842 0.051942 0.375439 0 200 255
0.303546 0.041449 0.478408 0 200 255
0.303470 0.061605 0.351640 0 200 255
0.298736 0.220160 0.373064 0 200 255
0.326773 0.238137 0.389602 0 200 255
0.319376 0.105178 0.348440 0 200 255
0.314666 0.161619 0.316784 0 200 255
0.305495 0.155310 0.352411 0 200 255
0.288120 0.131642 0.406127 0 200 255
0.319788 0.112760 0.381256 0 200 255
0.307790 0.104304 0.436525 0 200 255
0.311330 0.135085 0.305198 0 200 255
0.310422 0.065571 0.390389 0 200 255
0.314532 0.077170 0.345055 0 200 255
0.290779 0.199312 0.372982 0 200 255
0.290759 0.150192 0.329154 0 200 255
0.273441 0.121882 0.326374 0 200 255
0.303046 0.204284 0.395649 0 200 255
0.307972 0.065815 0.489330 0 200 255
0.284925 0.073963 0.342071 0 200 255
0.293334 0.065450 0.393896 0 200 255
0.297523 0.099494 0.403942 0 200 255
0.292972 0.116313 0.386980 0 200 255
0.305676 0.219995 0.398244 0 200 255
0.301605 0.163577 0.348938 0 200 255
0.317269 0.062741 0.435684 0 200 255
0.278192 0.157922 0.337481 0 200 255
0.305814 0.115481 0.420721 0 200 255
0.310228 0.172852 0.356206 0 200 255
0.313480 0.119378 0.409899 0 200 255
0.319574 0.129865 0.384083 0 200 255
0.292950 0.138006 0.401708 0 200 255
0.315974 0.088461 0.418084 0 200 255
0.311825 0.074666 0.369728 0 200 255
0.311944 0.068936 0.378597 0 200 255
0.311337 0.120246 0.388417 0 200 255
0.310679 0.248958 0.400136 0 200 255
0.314944 0.097137 0.344768 0 200 255
0.294284 0.225291 0.380373 0 200 255
0.295258 0.089201 0.382960 0 200 255
0.305393 0.155683 0.337359 0 200 255
0.319008 0.139883 0.363611 0 200 255
0.314200 0.133791 0.315130 0 200 255
0.312648 0.206151 0.388144 0 200 255
0.279772 0.152410 0.345934 0 200 255
0.315910 0.030305 0.462332 0 200 255
0.280760 0.129159 0.306655 0 200 255
0.298704 0.184606 0.353854 0 200 255
0.313072 0.051393 0.472013 0 200 255
0.299525 0.041027 0.424836 0 200 255
0.311173 0.234580 0.390702 0 200 255
0.301567 0.010499 0.441772 0 200 255
0.315879 0.074478 0.414144 0 200 255
0.278240 0.089488 0.364338 0 200 255
0.298770 0.179630 0.375951 0 200 255
0.311814 0.129276 0.400014 0 200 255
0.315090 0.066600 0.361664 0 200 255
0.289999 0.098734 0.422958 0 200 255
0.293105 0.102555 0.308025 0 200 255
0.319136 0.056791 0.457297 0 200 255
0.315544 0.048663 0.437118 0 200 255
0.306849 0.041375 0.451985 0 200 255
0.292508 0.151651 0.372199 0 200 255
0.297655 0.088338 0.442816 0 200 255
0.306479 0.221033 0.369708 0 200 255
0.301488 0.137419 0.310943 0 200 255
0.310300 0.262244 0.409773 0 200 255
0.279116 0.135285 0.296554 0 200 255
0.313675 0.074694 0.466271 0 200 255
0.316892 0.246243 0.395692 0 200 255
0.307649 0.095080 0.449478 0 200 255
0.309322 0.163265 0.340751 0 200 255
0.297112 0.113284 0.395759 0 200 255
0.315125 0.113711 0.332186 0 200 255
0.300833 0.123451 0.408436 0 200 255
0.314170 0.103740 0.421589 0 200 255
0.279578 0.145058 0.355831 0 200 255
0.297734 0.141926 0.393768 0 200 255
0.318646 0.129795 0.358319 0 200 255
0.309112 0.054507 0.479851 0 200 255
0.318526 0.116148 0.343408 0 200 255
0.316935 0.099639 0.436704 0 200 255
0.295848 0.129619 0.396115 0 200 255
0.323222 0.241271 0.396079 0 200 255
0.279409 0.106335 0.392660 0 200 255
0.306376 0.201756 0.356165 0 200 255
0.274084 0.151138 0.313625 0 200 255
0.297991 0.094669 0.433377 0 200 255
0.313489 0.072912 0.438008 0 200 255
0.284890 0.165192 0.320198 0 200 255
0.316584 0.027578 0.436176 0 200 255
0.313140 0.071581 0.477133 0 200 255
0.320729 0.218111 0.382981 0 200 255
0.293417 0.155933 0.338939 0 200 255
0.296011 0.197643 0.380176 0 200 255
0.296413 0.173386 0.349051 0 200 255
0.306747 0.071184 0.353737 0 200 255
0.294371 0.088265 0.454163 0 200 255
0.282179 0.094855 0.378219 0 200 255
0.328099 0.193465 0.365175 0 200 255
0.293802 0.034630 0.407343 0 200 255
0.317363 0.061738 0.472922 0 200 255
0.302399 0.064091 0.466207 0 200 255
0.290763 0.125393 0.412249 0 200 255
0.283333 0.100274 0.368517 0 200 255
0.309923 0.057568 0.374123 0 200 255
0.298740 0.064345 0.399360 0 200 255
0.313077 0.213573 0.390583 0 200 255
0.295066 0.219939 0.394366 0 200 255
0.296321 0.199408 0.359566 0 200 255
0.307523 0.071841 0.458024 0 200 255
0.281901 0.105361 0.327645 0 200 255
0.274992 0.130110 0.366240 0 200 255
0.312823 0.121536 0.400649 0 200 255
0.295677 0.147324 0.349256 0 200 255
0.275684 0.113525 0.347612 0 200 255
0.297786 0.091331 0.406032 0 200 255
0.295545 0.143584 0.336903 0 200 255
0.304625 0.188107 0.357334 0 200 255
0.292870 0.214541 0.371218 0 200 255
0.303876 0.128968 0.401671 0 200 255
0.319273 0.051148 0.464308 0 200 255
0.310886 0.052722 0.401326 0 200 255
0.304763 0.021535 0.435535 0 200 255
0.309201 0.031257 0.431960 0 200 255
0.298899 0.230040 0.399591 0 200 255
0.315076 0.189098 0.367290 0 200 255
0.303474 0.026633 0.422350 0 200 255
0.286835 0.150290 0.380833 0 200 255
0.299871 0.060311 0.362496 0 200 255
0.301637 0.095512 0.420960 0 200 255
0.305106 0.077557 0.376488 0 200 255
0.301423 0.066109 0.448459 0 200 255
0.304980 0.103910 0.377068 0 200 255
0.314931 0.255168 0.401303 0 200 255
0.314291 0.046129 0.421842 0 200 255
0.309261 0.035810 0.421899 0 200 255
0.320285 0.092063 0.346570 0 200 255
0.315895 0.047260 0.383374 0 200 255
0.307250 0.074733 0.449493 0 200 255
0.313812 0.136530 0.331049 0 200 255
0.303211 0.077732 0.474077 0 200 255
0.315294 0.076716 0.400391 0 200 255
0.317084 0.132737 0.337993 0 200 255
0.300207 0.107469 0.419155 0 200 255
0.303846 0.059919 0.479656 0 200 255
0.319514 0.101199 0.374683 0 200 255
0.316102 0.058938 0.401483 0 200 255
0.305534 0.247489 0.412153 0 200 255
0.307809 0.033123 0.460143 0 200 255
0.292977 0.181188 0.360199 0 200 255
0.281665 0.130084 0.379565 0 200 255
0.320263 0.088800 0.367808 0 200 255
0.295111 0.134908 0.300692 0 200 255
0.313320 0.108178 0.363927 0 200 255
0.289144 0.125685 0.394380 0 200 255
0.315646 0.059564 0.488122 0 200 255
0.312506 0.072353 0.385901 0 200 255
0.282580 0.129136 0.400294 0 200 255
0.313919 0.098343 0.365594 0 200 255
0.283881 0.067038 0.355878 0 200 255
0.307153 0.269069 0.419099 0 200 255
0.277126 0.117332 0.371524 0 200 255
0.305746 0.080062 0.431663 0 200 255
0.311247 0.025414 0.411547 0 200 255
0.308963 0.106184 0.393461 0 200 255
0.313839 0.155561 0.332991 0 200 255
0.291440 0.046133 0.397849 0 200 255
0.298742 0.060456 0.455599 0 200 255
0.318371 0.052910 0.395999 0 200 255
0.307646 0.058461 0.428164 0 200 255
0.304834 0.017230 0.449097 0 200 255
0.300847 0.032599 0.410926 0 200 255
0.313129 0.076146 0.377227 0 200 255
0.314406 0.085908 0.358072 0 200 255
0.299221 0.050997 0.389779 0 200 255
0.299617 0.154950 0.360931 0 200 255
0.312965 0.143667 0.324299 0 200 255
0.318847 0.087492 0.333467 0 200 255
0.277149 0.102746 0.336504 0 200 255
0.288457 0.142829 0.319544 0 200 255
0.296523 0.135422 0.318040 0 200 255
0.318612 0.066248 0.479392 0 200 255
0.309417 0.089285 0.455123 0 200 255
0.308824 0.152114 0.372511 0 200 255
0.276263 0.107847 0.369912 0 200 255
0.294650 0.064742 0.382007 0 200 255
0.293972 0.161362 0.345084 0 200 255
0.315466 0.112204 0.309659 0 200 255
0.321792 0.261740 0.404314 0 200 255
0.299258 0.204570 0.371761 0 200 255
0.301970 0.103543 0.409693 0 200 255
0.279677 0.127935 0.353350 0 200 255
0.310730 0.182636 0.375944 0 200 255
0.293949 0.077727 0.407962 0 200 255
0.315275 0.071627 0.340282 0 200 255
0.322702 0.188772 0.372061 0 200 255
0.314511 0.095323 0.380646 0 200 255
0.295304 0.231953 0.385199 0 200 255
0.299143 0.039029 0.449628 0 200 255
0.292664 0.099079 0.439803 0 200 255
0.282811 0.136020 0.394525 0 200 255
0.306627 0.168798 0.364125 0 200 255
0.318730 0.112710 0.360157 0 200 255
0.305164 0.059770 0.398032 0 200 255
0.304847 0.038214 0.464464 0 200 255
0.320535 0.249853 0.400891 0 200 255
0.317247 0.249113 0.388978 0 200 255
0.305141 0.094631 0.379900 0 200 255
0.304449 0.033990 0.449261 0 200 255
0.276653 0.115187 0.378845 0 200 255
0.316758 0.146004 0.381055 0 200 255
0.314270 0.045855 0.445993 0 200 255
0.312169 0.258545 0.422960 0 200 255
0.328312 0.218781 0.373935 0 200 255
0.298415 0.079652 0.418415 0 200 255
0.302160 0.074009 0.412380 0 200 255
0.303957 0.049010 0.419128 0 200 255
0.310220 0.146536 0.317013 0 200 255
0.317615 0.235769 0.384969 0 200 255
0.306268 0.028336 0.407201 0 200 255
0.291071 0.079440 0.393276 0 200 255
0.300226 0.265277 0.417657 0 200 255
0.302506 0.253263 0.406325 0 200 255
0.308368 0.091861 0.391063 0 200 255
0.315513 0.023174 0.429118 0 200 255
0.309745 0.179479 0.359002 0 200 255
0.271539 0.140577 0.329752 0 200 255
0.284655 0.076641 0.368356 0 200 255
0.324614 0.200693 0.356962 0 200 255
0.288886 0.086634 0.406116 0 200 255
0.317154 0.215618 0.372433 0 200 255
0.314604 0.034881 0.398976 0 200 255
0.317382 0.070454 0.432483 0 200 255
0.324960 0.214740 0.392381 0 200 255
0.311971 0.039196 0.392779 0 200 255
0.301617 0.187888 0.366596 0 200 255
0.299102 0.083143 0.449910 0 200 255
0.274636 0.115620 0.329769 0 200 255
0.298431 0.176036 0.368633 0 200 255
0.303958 0.048525 0.460867 0 200 255
0.303996 0.128754 0.412044 0 200 255
0.303276 0.066722 0.472979 0 200 255
0.313996 0.045964 0.476797 0 200 255
0.283448 0.085171 0.369422 0 200 255
0.315975 0.134366 0.402796 0 200 255
0.313000 0.198262 0.381121 0 200 255
0.282231 0.125603 0.312657 0 200 255
0.273273 0.160677 0.322570 0 200 255
0.278038 0.100932 0.350594 0 200 255
0.279782 0.090016 0.348973 0 200 255
0.308005 0.055945 0.441509 0 200 255
0.313402 0.229062 0.395195 0 200 255
0.307626 0.020593 0.442938 0 200 255
0.312217 0.009517 0.451043 0 200 255
0.292588 0.102919 0.396554 0 200 255
0.312541 0.087883 0.385100 0 200 255
0.313923 0.048428 0.458694 0 200 255
0.314753 0.114220 0.319951 0 200 255
0.297687 0.052627 0.453560 0 200 255
0.294440 0.056007 0.407993 0 200 255
0.310082 0.144079 0.306765 0 200 255
0.290457 0.102840 0.413699 0 200 255
0.301770 0.084276 0.388445 0 200 255
0.299165 0.074063 0.457010 0 200 255
0.298218 0.094274 0.450183 0 200 255
0.305410 0.239709 0.406649 0 200 255
0.299304 0.062285 0.440441 0 200 255
0.292776 0.054229 0.423757 0 200 255
0.315200 0.013794 0.433466 0 200 255
0.299023 0.071175 0.436224 0 200 255
0.307240 0.243889 0.418391 0 200 255
0.320940 0.253925 0.393987 0 200 255
0.309731 0.069669 0.443362 0 200 255
0.307148 0.128491 0.312404 0 200 255
0.300093 0.086822 0.460560 0 200 255
0.303382 0.071640 0.390458 0 200 255
0.310877 0.151787 0.347705 0 200 255
0.299773 0.093616 0.313453 0 200 255
0.316853 0.095608 0.444035 0 200 255
0.318502 0.144953 0.358767 0 200 255
0.305645 0.241170 0.387415 0 200 255
0.298443 0.093251 0.412760 0 200 255
0.315317 0.065017 0.449837 0 200 255
0.301979 0.048578 0.406695 0 200 255
0.298262 0.027508 0.426942 0 200 255
0.301797 0.145171 0.344243 0 200 255
0.314974 0.051587 0.410079 0 200 255
0.274036 0.129796 0.342774 0 200 255
0.282269 0.118064 0.408636 0 200 255
0.311320 0.080385 0.365744 0 200 255
0.317734 0.079003 0.426166 0 200 255
0.299042 0.035830 0.396993 0 200 255
0.291626 0.113421 0.404726 0 200 255
0.330299 0.211448 0.380541 0 200 255
0.292865 0.054715 0.371684 0 200 255
0.304226 0.041191 0.389582 0 200 255
0.296027 0.110057 0.387298 0 200 255
0.295766 0.082461 0.426975 0 200 255
0.315562 0.031777 0.422059 0 200 255
0.312479 0.139616 0.343301 0 200 255
0.297503 0.101000 0.428653 0 200 255
0.321297 0.203113 0.387782 0 200 255
0.305683 0.068778 0.433818 0 200 255
0.318850 0.246610 0.408096 0 200 255
0.292884 0.068120 0.358913 0 200 255
0.317785 0.076260 0.471630 0 200 255
0.294599 0.160029 0.357344 0 200 255
0.295443 0.255575 0.408421 0 200 255
0.291903 0.078213 0.328420 0 200 255
0.311873 0.098023 0.417952 0 200 255
0.303765 0.064277 0.426136 0 200 255
0.306597 0.078984 0.398714 0 200 255
0.302884 0.037209 0.419609 0 200 255
0.297435 0.087247 0.398679 0 200 255
0.311322 0.084045 0.403920 0 200 255
0.314479 0.056286 0.379935 0 200 255
0.304493 0.043741 0.470347 0 200 255
0.316382 0.194025 0.355983 0 200 255
0.314288 0.034531 0.443912 0 200 255
0.305701 0.068948 0.375675 0 200 255
0.317797 0.039637 0.466586 0 200 255
0.287533 0.117712 0.392417 0 200 255
0.325346 0.188362 0.357228 0 200 255
0.298804 0.086115 0.321321 0 200 255
0.281915 0.149555 0.376073 0 200 255
0.294630 0.068399 0.411004 0 200 255
0.319091 0.265491 0.416916 0 200 255
0.277249 0.096003 0.362359 0 200 255
0.284357 0.164944 0.329608 0 200 255
0.316041 0.251841 0.412963 0 200 255
0.293145 0.156519 0.377002 0 200 255
0.307424 0.206946 0.370165 0 200 255
0.317705 0.238461 0.392882 0 200 255
0.275094 0.110445 0.340912 0 200 255
0.280968 0.081438 0.348696 0 200 255
0.294723 0.186117 0.376780 0 200 255
0.275506 0.132774 0.309156 0 200 255
0.293292 0.045786 0.386820 0 200 255
0.316206 0.148852 0.320921 0 200 255
0.305467 0.231128 0.394682 0 200 255
0.311749 0.087819 0.432284 0 200 255
0.304442 0.043368 0.439463 0 200 255
0.314622 0.078859 0.351652 0 200 255
0.319916 0.093964 0.340041 0 200 255
0.316116 0.084084 0.410868 0 200 255
0.314787 0.029217 0.450977 0 200 255
0.311018 0.201729 0.364668 0 200 255
0.309727 0.052189 0.448599 0 200 255
0.323230 0.213668 0.368828 0 200 255
0.309702 0.096455 0.406243 0 200 255
0.319280 0.104587 0.359662 0 200 255
0.304701 0.049134 0.378447 0 200 255
0.309488 0.027384 0.464977 0 200 255
0.306359 0.132092 0.301695 0 200 255
0.311663 0.097417 0.312607 0 200 255
0.316927 0.035613 0.436433 0 200 255
0.297364 0.076952 0.401287 0 200 255
0.319976 0.033523 0.448503 0 200 255
0.303328 0.058332 0.489163 0 200 255
0.311376 0.159482 0.325519 0 200 255
0.308118 0.033197 0.402899 0 200 255
0.301412 0.177654 0.351568 0 200 255
0.314340 0.088467 0.459662 0 200 255
0.290151 0.058390 0.381803 0 200 255
0.319846 0.125215 0.389642 0 200 255
0.305644 0.056715 0.452286 0 200 255
0.307236 0.075253 0.332289 0 200 255
0.299470 0.104981 0.307493 0 200 255
0.300077 0.063366 0.385734 0 200 255
0.294662 0.167586 0.329185 0 200 255
0.292416 0.202620 0.364116 0 200 255
0.299576 0.056525 0.413511 0 200 255
0.286094 0.102848 0.392550 0 200 255
0.299990 0.053684 0.422593 0 200 255
0.311432 0.117731 0.417828 0 200 255
0.303790 0.044922 0.446883 0 200 255
0.299509 0.100517 0.375033 0 200 255
0.300261 0.038974 0.402799 0 200 255
0.311598 0.107797 0.404205 0 200 255
0.307853 0.250820 0.394000 0 200 255
0.304125 0.068963 0.484265 0 200 255
0.305972 0.005177 0.444021 0 200 255
0.291663 0.188489 0.365030 0 200 255
0.282742 0.079586 0.339244 0 200 255
0.308735 0.218516 0.391540 0 200 255
0.293491 0.123970 0.306933 0 200 255
0.315337 0.140050 0.309585 0 200 255
0.298208 0.058573 0.368841 0 200 255
0.279333 0.108006 0.381998 0 200 255
0.275641 0.143952 0.307155 0 200 255
0.301672 0.150022 0.350701 0 200 255
0.305011 0.261658 0.413714 0 200 255
0.309164 0.233906 0.402123 0 200 255
0.308448 0.081085 0.465733 0 200 255
0.311788 0.116142 0.396694 0 200 255
0.304204 0.033832 0.440196 0 200 255
0.302939 0.023547 0.449346 0 200 255
0.298629 0.093001 0.378614 0 200 255
0.299745 0.071626 0.343101 0 200 255
0.303855 0.049569 0.437317 0 200 255
0.303761 0.041348 0.429884 0 200 255
0.300260 0.227671 0.391563 0 200 255
0.307602 0.165912 0.350716 0 200 255
0.291113 0.100229 0.313849 0 200 255
0.286456 0.145878 0.386501 0 200 255
0.309978 0.150615 0.354107 0 200 255
0.301937 0.014309 0.427369 0 200 255
0.290293 0.206447 0.375926 0 200 255
0.278762 0.084382 0.359919 0 200 255
0.310492 0.026559 0.421712 0 200 255
0.290770 0.074362 0.427758 0 200 255
0.304767 0.182723 0.378636 0 200 255
0.297123 0.119076 0.415227 0 200 255
0.327279 0.198599 0.382225 0 200 255
0.315200 0.036988 0.457244 0 200 255
0.296189 0.252577 0.402360 0 200 255
0.308085 0.035013 0.473731 0 200 255
0.307263 0.221591 0.380685 0 200 255
0.319528 0.242985 0.401185 0 200 255
0.303333 0.056628 0.376130 0 200 255
0.314937 0.089713 0.322369 0 200 255
0.313015 0.061237 0.458804 0 200 255
0.277475 0.155734 0.321929 0 200 255
0.281860 0.115128 0.398001 0 200 255
0.302451 0.059339 0.434045 0 200 255
0.325011 0.199097 0.364068 0 200 255
0.282750 0.116684 0.380583 0 200 255
0.294683 0.156174 0.331382 0 200 255
0.292989 0.154147 0.349032 0 200 255
0.294102 0.083622 0.379759 0 200 255
0.317568 0.214662 0.395149 0 200 255
0.324190 0.224970 0.383864 0 200 255
0.300465 0.047386 0.426923 0 200 255
0.301517 0.191282 0.387263 0 200 255
0.295569 0.190263 0.381799 0 200 255
0.314229 0.099084 0.395968 0 200 255
0.297752 0.067432 0.469668 0 200 255
0.291729 0.067163 0.404947 0 200 255
0.325735 0.247293 0.398004 0 200 255
0.298471 0.069376 0.394146 0 200 255
0.296336 0.161669 0.365381 0 200 255
0.308703 0.229719 0.374324 0 200 255
0.298675 0.073745 0.383243 0 200 255
0.283686 0.092010 0.324439 0 200 255
0.307834 0.216937 0.364273 0 200 255
0.297892 0.082347 0.393466 0 200 255
0.288290 0.107299 0.398554 0 200 255
0.317977 0.070029 0.346498 0 200 255
0.316643 0.043549 0.431885 0 200 255
0.275227 0.119687 0.355854 0 200 255
0.316472 0.039817 0.474684 0 200 255
0.300219 0.043004 0.409391 0 200 255
