ply
format ascii 1.0
element vertex 256
property float x
property float y
property float z
end_header
0.443200 0.134122 0.220275
0.484444 0.255767 0.167900
0.352596 0.195537 0.147308
0.333208 0.131397 0.235542
0.492722 0.166176 0.150694
0.421661 0.218226 0.217431
0.420458 0.207849 0.138641
0.381903 0.167548 0.199400
0.388520 0.106070 0.203916
0.471690 0.184778 0.203954
0.395813 0.141196 0.243119
0.346027 0.147939 0.169458
0.472973 0.212882 0.143537
0.463142 0.233082 0.203419
0.429022 0.175140 0.230728
0.344711 0.114306 0.197973
0.389105 0.185339 0.236694
0.387143 0.185560 0.128022
0.352695 0.169924 0.226512
0.361327 0.103978 0.237647
0.436178 0.193481 0.192467
0.417316 0.155430 0.198869
0.352651 0.183528 0.181703
0.395590 0.202606 0.197807
0.373449 0.165034 0.153682
0.417050 0.109944 0.224509
0.478567 0.212236 0.179467
0.466908 0.151112 0.197677
0.390030 0.207399 0.153854
0.467231 0.182903 0.164584
0.497637 0.178813 0.183649
0.358091 0.144538 0.201324
0.436787 0.227302 0.190658
0.365199 0.148110 0.242592
0.455968 0.161817 0.223049
0.337041 0.165220 0.197630
0.459759 0.240880 0.175866
0.424388 0.142262 0.240221
0.476455 0.185268 0.137510
0.405980 0.177035 0.212768
0.411877 0.128044 0.204010
0.454856 0.206306 0.208846
0.444801 0.168417 0.198994
0.387558 0.111432 0.237961
0.358808 0.124144 0.219880
0.346833 0.168266 0.151007
0.397124 0.152967 0.219435
0.382716 0.135799 0.199412
0.373910 0.188501 0.164504
0.375759 0.193606 0.211004
0.452969 0.209227 0.181881
0.404175 0.199902 0.222632
0.404733 0.164031 0.240797
0.397411 0.207604 0.130082
0.332031 0.134687 0.211454
0.373697 0.204982 0.135992
0.474985 0.168985 0.182911
0.434630 0.195458 0.216520
0.480653 0.242278 0.187012
0.355986 0.100194 0.212673
0.360916 0.176652 0.134694
0.443516 0.228676 0.214027
0.487188 0.192885 0.167863
0.416335 0.196171 0.202967
0.478586 0.164619 0.210993
0.410672 0.124732 0.241152
0.338468 0.168487 0.172331
0.342577 0.150817 0.223398
0.354763 0.160109 0.186153
0.377137 0.130018 0.243105
0.435639 0.157851 0.217033
0.462374 0.210960 0.162689
0.454181 0.183212 0.216005
0.443449 0.151004 0.237424
0.467615 0.193008 0.182952
0.376295 0.105374 0.221384
0.426005 0.176355 0.203445
0.400326 0.188275 0.143761
0.350729 0.127368 0.245733
0.367307 0.183719 0.230268
0.484826 0.214301 0.160182
0.428804 0.117845 0.208641
0.342183 0.185690 0.162298
0.355447 0.163466 0.207133
0.430121 0.139565 0.206506
0.364680 0.124491 0.201029
0.364272 0.171967 0.170761
0.408714 0.184538 0.235517
0.421703 0.216500 0.197131
0.429794 0.121413 0.234081
0.361723 0.146771 0.223188
0.466919 0.215507 0.195825
0.382236 0.154823 0.236616
0.463711 0.249134 0.193163
0.477718 0.196955 0.152214
0.372536 0.185972 0.146006
0.364082 0.153637 0.167355
0.452567 0.185422 0.195780
0.398231 0.107255 0.219612
0.490942 0.172662 0.199669
0.477843 0.167917 0.164417
0.498474 0.175299 0.165494
0.367764 0.203145 0.155679
0.401108 0.173797 0.195607
0.462871 0.168874 0.203124
0.454638 0.143109 0.209556
0.406794 0.219822 0.139348
0.453942 0.226526 0.185712
0.484666 0.193754 0.187253
0.442289 0.212518 0.198040
0.410579 0.196413 0.129011
0.458253 0.172700 0.185609
0.476625 0.239013 0.170600
0.356885 0.193911 0.168698
0.396438 0.145727 0.201885
0.350283 0.140570 0.235159
0.409543 0.111324 0.204210
0.408613 0.205546 0.150416
0.439282 0.175909 0.217499
0.381414 0.196184 0.226226
0.448206 0.238252 0.199208
0.470325 0.252954 0.178836
0.438383 0.213313 0.214929
0.483773 0.179146 0.154293
0.440188 0.133481 0.236744
0.365488 0.166304 0.235539
0.416488 0.167499 0.224303
0.367448 0.173472 0.195837
0.385571 0.196354 0.142357
0.390304 0.216999 0.140738
0.474071 0.223734 0.167389
0.468725 0.232017 0.188320
0.485294 0.178346 0.173823
0.339943 0.154988 0.184631
0.464806 0.199976 0.197008
0.393078 0.194079 0.213183
0.343098 0.149109 0.201064
0.372518 0.115322 0.240648
0.347312 0.132917 0.208925
0.419227 0.198923 0.218713
0.410755 0.209268 0.209295
0.379176 0.173284 0.233894
0.419072 0.158595 0.239108
0.466521 0.154769 0.214434
0.479688 0.160698 0.196231
0.392091 0.123741 0.200031
0.473096 0.198159 0.166718
0.449080 0.157080 0.208620
0.357115 0.157387 0.151911
0.364716 0.182603 0.215554
0.356609 0.179379 0.152855
0.355600 0.155289 0.234101
0.431109 0.224930 0.204615
0.351004 0.171070 0.195459
0.371781 0.157781 0.195504
0.482008 0.179764 0.190617
0.367960 0.110712 0.210698
0.402736 0.190410 0.202926
0.454751 0.145875 0.223778
0.394837 0.123681 0.240398
0.469958 0.180774 0.149588
0.487891 0.164430 0.176607
0.433553 0.144214 0.223531
0.413996 0.166212 0.207681
0.437844 0.184629 0.203572
0.453470 0.194309 0.184411
0.373138 0.188301 0.128250
0.377450 0.190141 0.197321
0.476752 0.223544 0.152075
0.419843 0.185843 0.213304
0.465097 0.216286 0.181074
0.384260 0.179469 0.141949
0.400654 0.186116 0.224365
0.369049 0.148366 0.211576
0.340342 0.171533 0.185637
0.452835 0.222857 0.205758
0.350661 0.171592 0.163714
0.371394 0.169539 0.139783
0.428558 0.202936 0.198652
0.429999 0.163426 0.204976
0.411784 0.147115 0.240487
0.448011 0.195890 0.217351
0.466926 0.168455 0.216368
0.350002 0.147805 0.212700
0.486616 0.188872 0.145339
0.416985 0.142157 0.199540
0.362711 0.114303 0.229412
0.360538 0.097251 0.226316
0.387345 0.179566 0.199449
0.377759 0.177371 0.155457
0.397877 0.193113 0.131793
0.461443 0.160869 0.190782
0.473349 0.181908 0.177813
0.379334 0.142194 0.238338
0.488135 0.248822 0.178537
0.400365 0.109324 0.237048
0.453494 0.170381 0.213582
0.395384 0.173953 0.236742
0.394603 0.198008 0.231195
0.427708 0.168849 0.216545
0.354573 0.161395 0.171407
0.398393 0.207638 0.212621
0.385279 0.202611 0.130862
0.377732 0.213650 0.144601
0.340640 0.182809 0.174722
0.442674 0.202592 0.207355
0.427328 0.206141 0.210972
0.456536 0.239526 0.188776
0.477472 0.172372 0.200792
0.485319 0.214970 0.145709
0.444020 0.202481 0.188134
0.427634 0.118143 0.222073
0.475416 0.207066 0.190543
0.357840 0.148376 0.176965
0.360714 0.117546 0.244299
0.459695 0.183866 0.179912
0.412241 0.195515 0.141328
0.435286 0.165707 0.235818
0.456044 0.194269 0.206157
0.360171 0.164747 0.141860
0.486325 0.172362 0.142101
0.398210 0.196847 0.152393
0.365674 0.209427 0.145264
0.474357 0.190110 0.192899
0.391692 0.161844 0.239945
0.412822 0.173197 0.237247
0.398366 0.208099 0.142786
0.412623 0.209808 0.129565
0.364525 0.184887 0.179705
0.409236 0.192609 0.214392
0.477252 0.200301 0.177880
0.416038 0.114738 0.236940
0.354389 0.155543 0.197961
0.346182 0.157118 0.157044
0.409176 0.198806 0.233551
0.427313 0.190472 0.204055
0.480883 0.165523 0.152608
0.352342 0.134251 0.219694
0.420096 0.188135 0.235483
0.454969 0.211528 0.198154
0.372037 0.142998 0.201393
0.368435 0.196986 0.143048
0.479239 0.185019 0.163872
0.384730 0.156075 0.200559
0.419701 0.181451 0.224329
0.344256 0.159531 0.207234
0.390974 0.190818 0.198508
0.491811 0.168384 0.188667
0.467639 0.171294 0.192646
0.358610 0.133577 0.205528
0.349159 0.195214 0.159964
0.341934 0.136838 0.227821
0.471718 0.240889 0.195430
0.472757 0.207976 0.158191
0.464159 0.179203 0.210822
0.454466 0.153774 0.198872
