ply
format ascii 1.0
element vertex 256
property float x
property float y
property float z
end_header
0.627573 -0.029196 0.209877
0.644682 0.108061 0.180587
0.520057 0.048049 0.175581
0.522217 -0.042009 0.241599
0.659452 0.024283 0.136882
0.601485 0.050703 0.232620
0.582275 0.070243 0.154336
0.566527 -0.006010 0.204856
0.655638 0.031445 0.201446
0.580386 -0.064540 0.220031
0.515397 0.005782 0.211339
0.638764 0.061622 0.163742
0.599705 0.003151 0.240122
0.541060 -0.046757 0.198292
0.635317 0.076843 0.213224
0.538927 0.008143 0.171567
0.553540 0.012824 0.242631
0.565906 -0.032108 0.242639
0.615732 0.019792 0.206347
0.547918 0.048587 0.145964
0.571675 0.032844 0.212650
0.649130 -0.004632 0.188594
0.588067 -0.038085 0.193736
0.601264 -0.033582 0.235578
0.672994 0.018661 0.172790
0.546333 -0.071219 0.222877
0.613378 0.053493 0.200511
0.557545 0.061317 0.175929
0.540354 0.028714 0.198372
0.534204 -0.018678 0.222902
0.603590 -0.008094 0.196929
0.580491 0.027777 0.243038
0.653152 0.061840 0.190827
0.640340 -0.002318 0.217303
0.662893 0.043851 0.160002
0.513983 0.021579 0.186399
0.631462 0.081250 0.183530
0.525248 0.027386 0.156081
0.630519 0.040873 0.218448
0.633027 0.037145 0.187371
0.608859 -0.049671 0.215043
0.544227 0.036838 0.171661
0.519354 -0.038448 0.209978
0.589154 0.012413 0.218590
0.583247 -0.012524 0.222849
0.545105 -0.012561 0.245007
0.518665 -0.002894 0.183405
0.543004 -0.043096 0.228078
0.619635 -0.017050 0.233654
0.597044 0.035131 0.212640
0.562872 -0.035784 0.200756
0.658453 0.070415 0.152049
0.648073 0.046418 0.140627
0.651079 0.022480 0.161073
0.557754 0.069923 0.152573
0.536829 0.062709 0.163259
0.613276 0.068910 0.218992
0.667033 0.010023 0.195167
0.573256 -0.000818 0.243557
0.539220 -0.003533 0.205262
0.561062 -0.055731 0.235106
0.632824 0.011529 0.190135
0.636612 0.096448 0.199630
0.582982 -0.046486 0.233659
0.637217 0.019683 0.217297
0.563785 -0.057308 0.204788
0.662967 0.044119 0.182838
0.619221 -0.005780 0.213324
0.636516 0.055063 0.203276
0.609305 0.017937 0.227696
0.653519 0.021333 0.182814
0.537382 0.006404 0.230421
0.562234 0.028464 0.231520
0.641608 0.041151 0.166587
0.565000 0.047763 0.157643
0.537148 0.049156 0.186901
0.584361 -0.022406 0.240590
0.657780 0.063298 0.171135
0.618897 0.075767 0.198402
0.611978 -0.034164 0.198000
0.671790 0.023067 0.152686
0.552807 -0.016887 0.215817
0.634925 -0.013684 0.199335
0.535152 0.010773 0.191379
0.553852 0.009904 0.205230
0.648829 0.012598 0.202626
0.620208 -0.036067 0.228113
0.585989 0.003933 0.200978
0.584480 -0.057295 0.196298
0.523033 0.037149 0.194015
0.635179 0.059089 0.183870
0.581283 0.041753 0.227034
0.540725 -0.031731 0.243497
0.541735 -0.030281 0.207925
0.596467 0.053662 0.210576
0.576490 -0.020310 0.198284
0.648304 0.090324 0.184677
0.538823 -0.062293 0.208097
0.595212 0.029064 0.231137
0.611727 0.044028 0.219100
0.569081 0.079626 0.162608
0.525814 0.030087 0.175952
0.521641 0.020786 0.203800
0.521770 0.010017 0.166993
0.573775 0.014709 0.208148
0.529989 0.046960 0.159048
0.595788 -0.022860 0.201726
0.628757 0.007932 0.206631
0.632406 0.030322 0.204443
0.570348 0.061330 0.144366
0.522486 -0.006024 0.200933
0.617950 0.036576 0.195700
0.599090 -0.051910 0.228651
0.574392 0.062914 0.167313
0.549434 0.017602 0.226882
0.544309 0.022007 0.179513
0.656053 -0.002432 0.203678
0.535821 -0.003659 0.182742
0.627234 0.060818 0.215642
0.657307 0.006087 0.177858
0.539652 0.021825 0.162536
0.622572 0.009824 0.222462
0.620250 0.028391 0.220446
0.646807 0.045666 0.188659
0.633473 0.094883 0.175010
0.669873 0.030087 0.186855
0.554430 -0.053661 0.217423
0.569594 -0.015993 0.239480
0.545149 -0.063244 0.236771
0.639440 -0.018030 0.214389
0.550257 0.054019 0.162979
0.644097 0.041575 0.207144
0.640145 0.078275 0.198130
0.553772 0.074530 0.167244
0.557786 0.025238 0.211736
0.597146 -0.056320 0.205790
0.531622 0.008882 0.211536
0.601997 -0.045795 0.193990
0.644791 0.035518 0.151622
0.664931 0.032205 0.170455
0.579950 0.023632 0.227981
0.613957 -0.001863 0.236406
0.604333 0.009267 0.206817
0.648176 0.050369 0.155591
0.526255 -0.006043 0.219075
0.542805 -0.005521 0.220066
0.587214 0.014146 0.244814
0.541396 0.063016 0.177758
0.549306 0.037899 0.157386
0.618457 0.055166 0.226847
0.660519 0.035223 0.147218
0.567004 0.021426 0.244326
0.531169 -0.019710 0.207253
0.644351 0.067965 0.176108
0.626248 0.049340 0.192641
0.648953 0.075368 0.162329
0.540171 -0.046325 0.246098
0.519556 0.007476 0.193809
0.630970 -0.026116 0.226958
0.601411 0.000908 0.225787
0.553751 -0.024760 0.246049
0.605569 0.064425 0.206762
0.594545 -0.012156 0.241480
0.637587 0.024018 0.183835
0.618423 -0.020658 0.216870
0.587261 0.024057 0.210471
0.662147 0.012495 0.165772
0.526806 -0.047047 0.198060
0.574117 -0.048428 0.200293
0.653745 0.049303 0.169411
0.528630 -0.033273 0.232522
0.644102 0.007848 0.182458
0.552938 -0.003770 0.202312
0.625626 0.063546 0.199627
0.647055 0.032281 0.177143
0.627536 0.085601 0.203021
0.540129 -0.043153 0.212806
0.603724 0.058482 0.221383
0.610432 0.032854 0.206707
0.547362 -0.021573 0.227627
0.606451 0.018410 0.241023
0.623072 0.043009 0.207375
0.658129 0.014557 0.152748
0.532023 -0.005350 0.234236
0.620853 -0.040165 0.213840
0.651254 0.050951 0.200754
0.645115 0.063547 0.152099
0.521544 0.037963 0.164240
0.530845 -0.031976 0.215500
0.603715 0.024581 0.217693
0.570364 -0.046439 0.237641
0.585008 -0.000670 0.237552
0.628593 0.093471 0.187459
0.559078 0.055804 0.149103
0.603974 0.038425 0.228429
0.587629 0.043826 0.215301
0.612480 -0.021248 0.199912
0.570842 -0.061363 0.228367
0.644093 0.025015 0.202170
0.538728 0.048426 0.169359
0.583343 -0.057263 0.209222
0.622596 0.075506 0.210826
0.658141 0.019393 0.196114
0.635562 -0.001109 0.190553
0.515894 0.023584 0.170825
0.647554 0.032103 0.190054
0.611155 0.004589 0.216715
0.645913 0.054071 0.178482
0.528138 0.005677 0.178263
0.651192 0.025462 0.146713
0.546499 0.063506 0.154779
0.587730 0.038163 0.240755
0.658407 0.048487 0.148289
0.624789 0.019885 0.195128
0.557470 -0.017975 0.204145
0.649313 -0.009516 0.212217
0.611943 -0.026997 0.233728
0.544999 0.036415 0.184172
0.586154 -0.035308 0.238361
0.645330 0.017816 0.191612
0.520040 -0.036166 0.222264
0.574091 -0.036878 0.195375
0.575512 0.056791 0.154758
0.537858 0.053579 0.151295
0.610380 -0.046754 0.228038
0.641068 0.009295 0.211660
0.565235 0.052843 0.168896
0.627910 -0.004881 0.204252
0.513313 0.009078 0.183363
0.646755 0.101033 0.170742
0.595242 0.028691 0.243369
0.534779 0.032763 0.165073
0.586193 0.031730 0.221314
0.562316 0.066487 0.163971
0.572107 0.074005 0.148853
0.569946 -0.062598 0.214142
0.646414 0.089124 0.196609
0.654655 0.060035 0.158800
0.606332 -0.011152 0.237427
0.644169 0.100757 0.190159
0.549964 -0.001589 0.244461
0.604556 0.043619 0.208678
0.599973 0.047124 0.220375
0.656081 0.041609 0.195084
0.538005 0.035476 0.153959
0.673561 0.017494 0.184563
0.516678 0.036100 0.184126
0.609295 -0.001234 0.204644
0.552028 -0.053238 0.205930
0.655251 0.036587 0.165456
0.658718 0.033293 0.184081
0.624503 0.070466 0.221846
0.588720 0.017162 0.232157
0.667003 0.033174 0.157699
0.642289 0.060016 0.194423
0.669015 0.027915 0.142568
