ply
format ascii 1.0
element vertex 256
property float x
property float y
property float z
end_header
0.627566 -0.029193 0.209855
0.644694 0.108074 0.180633
0.520009 0.047988 0.175466
0.522212 -0.042011 0.241581
0.659480 0.024301 0.136925
0.601465 0.050692 0.232613
0.582201 0.070231 0.154196
0.566518 -0.006011 0.204835
0.655606 0.031449 0.201357
0.580381 -0.064539 0.220012
0.515393 0.005771 0.211275
0.638848 0.061688 0.163784
0.599696 0.003154 0.240099
0.541054 -0.046761 0.198273
0.635321 0.076844 0.213275
0.538930 0.008100 0.171508
0.553530 0.012823 0.242610
0.565900 -0.032108 0.242619
0.615732 0.019802 0.206328
0.547872 0.048521 0.145851
0.571663 0.032844 0.212627
0.649145 -0.004615 0.188599
0.588060 -0.038086 0.193715
0.601257 -0.033579 0.235557
0.673024 0.018682 0.172832
0.546329 -0.071220 0.222860
0.613390 0.053511 0.200519
0.557480 0.061303 0.175799
0.540329 0.028709 0.198285
0.534191 -0.018674 0.222883
0.603581 -0.008093 0.196907
0.580480 0.027779 0.243014
0.653178 0.061855 0.190884
0.640324 -0.002324 0.217300
0.662755 0.043781 0.159861
0.513967 0.021525 0.186320
0.631477 0.081262 0.183578
0.525228 0.027305 0.155995
0.630511 0.040870 0.218463
0.608853 -0.049669 0.215023
0.633051 0.037168 0.187385
0.544194 0.036801 0.171563
0.519348 -0.038453 0.209960
0.589144 0.012414 0.218567
0.583238 -0.012524 0.222828
0.545097 -0.012562 0.244986
0.518681 -0.002946 0.183359
0.542998 -0.043098 0.228059
0.619628 -0.017046 0.233632
0.597032 0.035133 0.212616
0.562865 -0.035786 0.200736
0.658566 0.070491 0.152149
0.647868 0.046282 0.140529
0.557680 0.069877 0.152432
0.536763 0.062652 0.163127
0.651108 0.022499 0.161116
0.613273 0.068910 0.219015
0.667044 0.010031 0.195204
0.573248 -0.000817 0.243535
0.539222 -0.003549 0.205230
0.561057 -0.055731 0.235087
0.632785 0.011515 0.190091
0.636625 0.096461 0.199677
0.582976 -0.046485 0.233639
0.637207 0.019696 0.217240
0.563780 -0.057309 0.204769
0.662909 0.044108 0.182728
0.619216 -0.005778 0.213311
0.636527 0.055071 0.203310
0.609295 0.017939 0.227673
0.537373 0.006402 0.230400
0.653549 0.021353 0.182856
0.562223 0.028463 0.231498
0.641495 0.041081 0.166525
0.564954 0.047734 0.157533
0.537098 0.049132 0.186786
0.584354 -0.022404 0.240569
0.657849 0.063342 0.171220
0.611971 -0.034162 0.197978
0.618915 0.075786 0.198437
0.671819 0.023087 0.152728
0.552799 -0.016888 0.215796
0.634916 -0.013681 0.199312
0.535149 0.010752 0.191316
0.553842 0.009902 0.205208
0.648833 0.012603 0.202645
0.620201 -0.036064 0.228092
0.585979 0.003933 0.200956
0.584474 -0.057295 0.196279
0.522997 0.037116 0.193916
0.635218 0.059121 0.183899
0.581271 0.041754 0.227010
0.540718 -0.031732 0.243478
0.541727 -0.030283 0.207905
0.596469 0.053674 0.210568
0.576482 -0.020311 0.198264
0.648318 0.090337 0.184723
0.538818 -0.062296 0.208080
0.595201 0.029066 0.231113
0.611719 0.044028 0.219097
0.568994 0.079609 0.162455
0.525788 0.030033 0.175863
0.521625 0.020765 0.203722
0.521771 0.009946 0.166930
0.573764 0.014708 0.208126
0.529943 0.046889 0.158936
0.595780 -0.022860 0.201705
0.628739 0.007932 0.206595
0.570286 0.061290 0.144237
0.632410 0.030330 0.204450
0.522491 -0.006047 0.200889
0.617965 0.036595 0.195697
0.599085 -0.051908 0.228631
0.574326 0.062910 0.167183
0.549424 0.017600 0.226860
0.544294 0.021982 0.179435
0.656052 -0.002429 0.203692
0.535838 -0.003691 0.182699
0.627232 0.060819 0.215670
0.657336 0.006111 0.177880
0.539638 0.021771 0.162459
0.622562 0.009827 0.222439
0.620237 0.028388 0.220439
0.646829 0.045684 0.188690
0.669898 0.030101 0.186912
0.633486 0.094895 0.175057
0.554425 -0.053663 0.217405
0.569587 -0.015993 0.239459
0.545144 -0.063245 0.236754
0.639425 -0.018033 0.214372
0.550203 0.053979 0.162859
0.644101 0.041578 0.207174
0.640160 0.078288 0.198178
0.553691 0.074500 0.167096
0.557775 0.025237 0.211713
0.664960 0.032226 0.170497
0.597140 -0.056319 0.205770
0.531618 0.008872 0.211483
0.601990 -0.045794 0.193970
0.644632 0.035409 0.151565
0.579939 0.023633 0.227958
0.613949 -0.001859 0.236383
0.604323 0.009268 0.206794
0.648017 0.050274 0.155481
0.526244 -0.006045 0.219035
0.542796 -0.005523 0.220046
0.587205 0.014148 0.244791
0.541329 0.062984 0.177625
0.549272 0.037850 0.157288
0.618443 0.055158 0.226861
0.660547 0.035242 0.147260
0.566994 0.021427 0.244303
0.531161 -0.019713 0.207234
0.644411 0.068006 0.176172
0.626269 0.049360 0.192658
0.649047 0.075431 0.162417
0.540166 -0.046326 0.246079
0.519567 0.007445 0.193746
0.630963 -0.026112 0.226936
0.601402 0.000911 0.225764
0.553744 -0.024760 0.246029
0.605577 0.064438 0.206773
0.594537 -0.012153 0.241458
0.637537 0.023999 0.183774
0.618415 -0.020655 0.216848
0.587250 0.024057 0.210448
0.662177 0.012516 0.165815
0.526799 -0.047052 0.198042
0.574110 -0.048429 0.200274
0.653633 0.049251 0.169286
0.528624 -0.033276 0.232503
0.644126 0.007871 0.182468
0.552929 -0.003772 0.202292
0.625641 0.063562 0.199657
0.646995 0.032259 0.177063
0.627551 0.085613 0.203069
0.540122 -0.043155 0.212787
0.603716 0.058482 0.221386
0.610434 0.032865 0.206693
0.547354 -0.021574 0.227607
0.606441 0.018413 0.240999
0.623077 0.043016 0.207383
0.658158 0.014577 0.152791
0.532015 -0.005352 0.234216
0.620846 -0.040162 0.213819
0.651267 0.050959 0.200800
0.645225 0.063630 0.152158
0.521509 0.037888 0.164140
0.530838 -0.031979 0.215481
0.603704 0.024584 0.217665
0.570358 -0.046439 0.237622
0.585000 -0.000669 0.237530
0.628607 0.093483 0.187507
0.559023 0.055756 0.148981
0.603962 0.038427 0.228405
0.587617 0.043827 0.215277
0.612472 -0.021247 0.199890
0.570838 -0.061363 0.228349
0.538680 0.048380 0.169246
0.644064 0.025016 0.202101
0.583338 -0.057263 0.209203
0.622602 0.075512 0.210864
0.645951 0.054098 0.178525
0.658153 0.019402 0.196149
0.515877 0.023511 0.170743
0.647509 0.032094 0.189973
0.635576 -0.001090 0.190546
0.611150 0.004592 0.216702
0.528143 0.005629 0.178206
0.546433 0.063450 0.154646
0.587719 0.038165 0.240731
0.651220 0.025481 0.146755
0.658225 0.048381 0.148151
0.624754 0.019872 0.195085
0.557462 -0.017977 0.204125
0.649302 -0.009519 0.212217
0.611936 -0.026994 0.233707
0.544965 0.036397 0.184075
0.586147 -0.035306 0.238341
0.520033 -0.036169 0.222246
0.645292 0.017808 0.191547
0.574084 -0.036879 0.195355
0.575454 0.056771 0.154636
0.537805 0.053507 0.151174
0.610374 -0.046751 0.228017
0.565181 0.052829 0.168778
0.641055 0.009303 0.211608
0.627909 -0.004873 0.204234
0.513313 0.009019 0.183301
0.646767 0.101045 0.170789
0.595232 0.028694 0.243345
0.534751 0.032706 0.164980
0.586182 0.031731 0.221291
0.562246 0.066463 0.163835
0.654749 0.060101 0.158873
0.572029 0.073973 0.148707
0.569941 -0.062599 0.214123
0.646428 0.089138 0.196656
0.606324 -0.011149 0.237405
0.644182 0.100770 0.190206
0.604558 0.043631 0.208668
0.549956 -0.001589 0.244440
0.599960 0.047126 0.220351
0.537975 0.035408 0.153863
0.656038 0.041607 0.194985
0.655137 0.036526 0.165360
0.673591 0.017516 0.184606
0.516644 0.036046 0.184028
0.609285 -0.001232 0.204621
0.552022 -0.053240 0.205911
0.658670 0.033286 0.183983
0.624497 0.070461 0.221882
0.588710 0.017164 0.232134
0.667031 0.033194 0.157741
0.642306 0.060026 0.194469
0.669043 0.027935 0.142610
