ply
format ascii 1.0
element vertex 256
property float x
property float y
property float z
end_header
0.627578 -0.029192 0.209872
0.644708 0.108123 0.180708
0.519987 0.048040 0.175568
0.522222 -0.042007 0.241593
0.659455 0.024285 0.136876
0.601467 0.050701 0.232634
0.582239 0.070205 0.154349
0.566531 -0.006008 0.204850
0.655621 0.031449 0.201376
0.580391 -0.064537 0.220026
0.515401 0.005782 0.211332
0.638836 0.061665 0.163803
0.599708 0.003155 0.240116
0.541065 -0.046756 0.198286
0.635315 0.076868 0.213302
0.538902 0.008156 0.171548
0.553543 0.012826 0.242625
0.565910 -0.032106 0.242634
0.615746 0.019803 0.206346
0.547864 0.048591 0.145946
0.571678 0.032847 0.212643
0.649134 -0.004628 0.188589
0.588072 -0.038083 0.193731
0.601268 -0.033578 0.235573
0.672997 0.018665 0.172784
0.546339 -0.071217 0.222873
0.613394 0.053528 0.200541
0.557481 0.061305 0.175920
0.540326 0.028735 0.198347
0.534208 -0.018676 0.222896
0.603594 -0.008091 0.196924
0.580493 0.027781 0.243031
0.653194 0.061855 0.190904
0.640343 -0.002314 0.217298
0.662799 0.043800 0.159897
0.513954 0.021565 0.186397
0.631491 0.081306 0.183609
0.525188 0.027380 0.156069
0.630525 0.040870 0.218481
0.608864 -0.049667 0.215038
0.633067 0.037169 0.187404
0.544168 0.036858 0.171631
0.519359 -0.038448 0.209972
0.589157 0.012416 0.218583
0.583250 -0.012522 0.222844
0.545108 -0.012559 0.245001
0.518664 -0.002902 0.183404
0.543008 -0.043094 0.228073
0.619639 -0.017046 0.233649
0.597043 0.035141 0.212635
0.562876 -0.035782 0.200750
0.658540 0.070463 0.152140
0.647935 0.046323 0.140550
0.557719 0.069914 0.152566
0.651082 0.022483 0.161067
0.536777 0.062724 0.163234
0.613269 0.068925 0.219038
0.667036 0.010028 0.195162
0.573260 -0.000815 0.243551
0.539224 -0.003531 0.205255
0.561067 -0.055728 0.235101
0.632800 0.011515 0.190109
0.636620 0.096488 0.199730
0.582987 -0.046483 0.233654
0.637221 0.019696 0.217259
0.563790 -0.057306 0.204783
0.662925 0.044107 0.182748
0.619228 -0.005777 0.213329
0.636542 0.055071 0.203329
0.609308 0.017940 0.227690
0.653523 0.021337 0.182808
0.537385 0.006405 0.230415
0.562236 0.028466 0.231514
0.641530 0.041100 0.166534
0.564935 0.047746 0.157638
0.537085 0.049171 0.186874
0.584365 -0.022403 0.240585
0.657845 0.063330 0.171218
0.618910 0.075805 0.198462
0.611983 -0.034161 0.197995
0.671793 0.023070 0.152680
0.552811 -0.016885 0.215811
0.634929 -0.013681 0.199330
0.535140 0.010786 0.191362
0.553855 0.009905 0.205223
0.648833 0.012602 0.202620
0.620212 -0.036063 0.228108
0.585993 0.003935 0.200972
0.584486 -0.057292 0.196293
0.522991 0.037147 0.194002
0.635228 0.059115 0.183925
0.581285 0.041756 0.227026
0.540729 -0.031728 0.243492
0.541739 -0.030279 0.207919
0.596472 0.053682 0.210588
0.576495 -0.020308 0.198279
0.648329 0.090382 0.184783
0.538828 -0.062291 0.208092
0.595212 0.029073 0.231131
0.611725 0.044042 0.219118
0.569049 0.079603 0.162611
0.525766 0.030085 0.175939
0.521627 0.020785 0.203792
0.521739 0.010009 0.166987
0.573778 0.014711 0.208142
0.529906 0.046960 0.159027
0.595792 -0.022858 0.201721
0.628752 0.007932 0.206613
0.570310 0.061308 0.144368
0.632425 0.030331 0.204469
0.522489 -0.006024 0.200926
0.617980 0.036596 0.195715
0.599095 -0.051907 0.228647
0.574337 0.062884 0.167318
0.549437 0.017604 0.226875
0.544274 0.022029 0.179486
0.656056 -0.002427 0.203673
0.535820 -0.003647 0.182727
0.627232 0.060840 0.215694
0.657311 0.006090 0.177852
0.539603 0.021838 0.162513
0.622575 0.009828 0.222456
0.620250 0.028389 0.220457
0.646848 0.045685 0.188715
0.633507 0.094949 0.175105
0.669876 0.030091 0.186849
0.554435 -0.053659 0.217418
0.569598 -0.015990 0.239474
0.545154 -0.063242 0.236767
0.639444 -0.018026 0.214384
0.550195 0.054018 0.162963
0.644116 0.041578 0.207193
0.640158 0.078317 0.198215
0.553731 0.074524 0.167234
0.557789 0.025240 0.211729
0.597151 -0.056317 0.205785
0.531626 0.008883 0.211530
0.602002 -0.045793 0.193986
0.644683 0.035441 0.151572
0.664934 0.032209 0.170449
0.579953 0.023633 0.227974
0.613961 -0.001859 0.236400
0.604337 0.009270 0.206811
0.648068 0.050302 0.155506
0.526258 -0.006042 0.219069
0.542808 -0.005519 0.220060
0.587217 0.014149 0.244807
0.541332 0.063022 0.177736
0.549233 0.037922 0.157352
0.618444 0.055174 0.226884
0.660522 0.035226 0.147211
0.567006 0.021429 0.244319
0.531173 -0.019709 0.207247
0.644411 0.067995 0.176180
0.626285 0.049360 0.192677
0.649030 0.075410 0.162413
0.540175 -0.046323 0.246092
0.519559 0.007477 0.193802
0.630974 -0.026112 0.226953
0.601415 0.000912 0.225781
0.553755 -0.024757 0.246043
0.605576 0.064451 0.206795
0.594548 -0.012152 0.241475
0.637552 0.023999 0.183792
0.618427 -0.020654 0.216865
0.587266 0.024062 0.210465
0.662150 0.012499 0.165767
0.526811 -0.047047 0.198055
0.574122 -0.048426 0.200289
0.653668 0.049264 0.169316
0.528634 -0.033271 0.232516
0.644105 0.007852 0.182452
0.552942 -0.003769 0.202306
0.625641 0.063584 0.199681
0.647011 0.032260 0.177082
0.627543 0.085635 0.203100
0.540133 -0.043151 0.212801
0.603716 0.058493 0.221407
0.610449 0.032866 0.206711
0.547366 -0.021571 0.227621
0.606454 0.018414 0.241016
0.623091 0.043017 0.207402
0.658132 0.014561 0.152743
0.532027 -0.005348 0.234230
0.620857 -0.040161 0.213835
0.651282 0.050958 0.200819
0.645200 0.063598 0.152169
0.521476 0.037953 0.164228
0.530849 -0.031975 0.215494
0.603718 0.024585 0.217682
0.570368 -0.046436 0.237636
0.585012 -0.000667 0.237546
0.628615 0.093522 0.187548
0.559030 0.055794 0.149095
0.603970 0.038438 0.228424
0.587624 0.043831 0.215295
0.612484 -0.021245 0.199907
0.570848 -0.061360 0.228363
0.538655 0.048437 0.169333
0.644078 0.025016 0.202119
0.583349 -0.057260 0.209218
0.622596 0.075532 0.210889
0.645967 0.054099 0.178545
0.658144 0.019398 0.196108
0.635565 -0.001105 0.190548
0.515850 0.023569 0.170821
0.647524 0.032094 0.189992
0.611163 0.004593 0.216719
0.528122 0.005678 0.178252
0.546455 0.063511 0.154761
0.651195 0.025465 0.146707
0.587733 0.038167 0.240748
0.658284 0.048412 0.148185
0.624768 0.019873 0.195103
0.557474 -0.017973 0.204139
0.649317 -0.009511 0.212212
0.611947 -0.026994 0.233723
0.544950 0.036438 0.184142
0.586158 -0.035305 0.238356
0.645306 0.017808 0.191566
0.520044 -0.036165 0.222259
0.574096 -0.036876 0.195370
0.575460 0.056762 0.154763
0.537805 0.053594 0.151269
0.610384 -0.046750 0.228033
0.565167 0.052823 0.168892
0.641068 0.009303 0.211627
0.627914 -0.004878 0.204247
0.513296 0.009062 0.183363
0.646793 0.101105 0.170858
0.595245 0.028695 0.243362
0.534719 0.032770 0.165051
0.586193 0.031734 0.221308
0.562268 0.066472 0.163967
0.654732 0.060078 0.158877
0.572080 0.073981 0.148858
0.569951 -0.062596 0.214137
0.646427 0.089170 0.196712
0.606336 -0.011148 0.237421
0.644186 0.100808 0.190272
0.604565 0.043643 0.208688
0.549967 -0.001587 0.244455
0.599965 0.047135 0.220371
0.537929 0.035491 0.153930
0.656053 0.041607 0.195004
0.673565 0.017499 0.184558
0.655173 0.036542 0.165380
0.516629 0.036089 0.184119
0.609298 -0.001231 0.204638
0.552033 -0.053236 0.205925
0.658683 0.033284 0.184004
0.624492 0.070480 0.221906
0.588726 0.017168 0.232150
0.667006 0.033177 0.157693
0.642327 0.060031 0.194486
0.669018 0.027919 0.142562
