ply
format ascii 1.0
element vertex 256
property float x
property float y
property float z
end_header
0.577757 -0.022285 0.210911
0.517488 0.094034 0.217594
0.467033 -0.026498 0.218720
0.604811 0.061971 0.275013
0.615305 0.059096 0.182487
0.527771 0.014593 0.267726
0.496126 0.032304 0.191339
0.622190 0.017435 0.225792
0.525479 -0.044280 0.191879
0.572733 0.034835 0.240963
0.611502 0.087373 0.227027
0.533139 0.003575 0.210858
0.489074 0.013110 0.238027
0.565435 0.093353 0.215035
0.558257 -0.015116 0.251298
0.511921 -0.025536 0.236652
0.489006 -0.025428 0.179296
0.496102 0.058617 0.223728
0.517246 0.066301 0.187354
0.602348 0.050552 0.222174
0.591240 0.001273 0.241922
0.562989 0.026524 0.276180
0.550164 -0.018148 0.185465
0.546623 -0.036173 0.225393
0.499677 -0.000274 0.201404
0.604227 0.035362 0.252974
0.593775 0.013550 0.209429
0.540707 0.088426 0.193553
0.564459 0.005648 0.224559
0.492982 -0.043921 0.211780
0.526339 0.025258 0.237640
0.592684 0.076034 0.249476
0.627220 0.038546 0.202295
0.476412 0.034090 0.219823
0.520770 -0.016539 0.181266
0.578359 0.052469 0.266639
0.470698 -0.001795 0.202806
0.490414 0.060423 0.196152
0.547638 0.032828 0.253776
0.527530 -0.011365 0.254696
0.601615 0.072283 0.202650
0.542880 0.076223 0.218276
0.504577 0.003935 0.258625
0.509757 0.017779 0.217603
0.582589 0.019622 0.260189
0.515844 0.049020 0.207002
0.545513 0.006169 0.242911
0.616918 0.064082 0.238825
0.486594 -0.011753 0.241118
0.600968 -0.009912 0.221776
0.560339 -0.039318 0.205041
0.498839 0.079924 0.208355
0.604046 0.044127 0.198875
0.577901 -0.027059 0.234499
0.557187 -0.002285 0.201929
0.486696 -0.019966 0.207554
0.520896 -0.034257 0.216795
0.543097 0.099680 0.218501
0.588119 0.052175 0.244094
0.610589 0.090646 0.250030
0.548658 0.000639 0.265178
0.486280 0.014159 0.213424
0.530870 -0.006729 0.231101
0.619219 0.039194 0.232370
0.500641 -0.002677 0.223901
0.619948 0.061181 0.209848
0.516495 0.067709 0.222263
0.595717 0.071604 0.226184
0.569170 0.003684 0.246299
0.498946 0.036415 0.222928
0.506809 -0.029868 0.191975
0.479947 -0.006042 0.183356
0.584491 0.027377 0.223372
0.613363 0.021485 0.204907
0.595871 0.041935 0.273410
0.603131 0.025053 0.233681
0.519413 0.087087 0.192970
0.543134 0.016960 0.223830
0.613138 0.071106 0.258364
0.478334 -0.003738 0.221474
0.529564 0.072316 0.203580
0.514896 0.024585 0.255901
0.581476 -0.007508 0.226127
0.481231 0.043693 0.201943
0.490961 -0.043458 0.187395
0.541600 -0.022749 0.243659
0.520437 -0.004932 0.198761
0.546243 -0.036349 0.190952
0.486227 -0.028639 0.224878
0.567228 -0.022291 0.194941
0.601693 0.053631 0.257617
0.606218 0.006126 0.230492
0.546664 0.019592 0.269505
0.563467 0.023306 0.257118
0.505793 0.051723 0.190730
0.586196 0.037085 0.256344
0.577697 0.037233 0.276834
0.613339 0.037731 0.215278
0.562701 0.044860 0.261594
0.606889 0.048951 0.241004
0.589235 0.019003 0.243453
0.543576 -0.044694 0.207880
0.565296 -0.014043 0.220509
0.529796 -0.029649 0.232471
0.580580 0.010337 0.230785
0.536343 0.019869 0.250862
0.554919 0.096601 0.201518
0.630524 0.030947 0.217515
0.508262 -0.043988 0.204049
0.559929 -0.026754 0.238894
0.558974 0.016904 0.236176
0.534868 -0.013107 0.190962
0.612550 0.070820 0.223511
0.591839 0.067207 0.263900
0.491083 0.030748 0.209050
0.618249 0.043239 0.187488
0.573616 -0.035966 0.219651
0.529002 0.094526 0.204492
0.590612 -0.002658 0.210274
0.533124 -0.028938 0.184338
0.532663 0.036478 0.248148
0.500997 -0.013837 0.192316
0.513477 0.071441 0.206650
0.483366 0.053334 0.214835
0.602527 0.024719 0.217237
0.592702 0.037034 0.236182
0.501337 -0.009954 0.247183
0.606492 0.075950 0.241499
0.489233 0.023642 0.226087
0.616334 0.070990 0.196931
0.611097 0.008608 0.213798
0.505419 0.074443 0.193322
0.597984 0.059176 0.210018
0.597566 0.063666 0.239353
0.534536 0.028203 0.265991
0.604055 0.047957 0.184083
0.555110 0.088893 0.225340
0.490860 0.067374 0.211729
0.524267 0.055772 0.195736
0.524301 0.080708 0.215140
0.494535 -0.031258 0.200711
0.574323 0.019496 0.241038
0.512047 0.005174 0.209759
0.502913 0.015694 0.249492
0.601471 0.084093 0.216750
0.519566 -0.000794 0.261138
0.507196 0.048337 0.225470
0.490145 0.047574 0.189003
0.550650 0.083941 0.208480
0.602828 0.081475 0.259070
0.506390 0.026637 0.230843
0.615556 0.053531 0.197473
0.493747 0.002921 0.248980
0.598054 0.089237 0.242898
0.548689 0.013019 0.255274
0.489234 -0.000036 0.211436
0.531701 0.090752 0.222275
0.554564 0.033004 0.266336
0.503324 0.073384 0.220294
0.508976 -0.035199 0.224608
0.517281 0.033798 0.245341
0.495429 -0.025751 0.235190
0.525618 -0.022224 0.243720
0.594122 0.039135 0.222288
0.522208 0.011489 0.218845
0.497315 0.010773 0.222233
0.589303 -0.015415 0.216509
0.488781 -0.006782 0.195724
0.501638 0.064828 0.202862
0.482738 -0.015817 0.228465
0.514903 0.040806 0.195999
0.570789 -0.016805 0.245886
0.557563 0.101970 0.222399
0.502658 0.037862 0.208505
0.594314 0.024482 0.254782
0.560136 -0.035735 0.224329
0.619237 0.049099 0.219706
0.595387 0.013742 0.227650
0.476822 0.019391 0.221494
0.572937 0.046087 0.252954
0.557011 0.002855 0.252699
0.613880 0.034373 0.201406
0.616173 0.052568 0.232183
0.592893 0.054685 0.275750
0.552950 -0.004608 0.241176
0.483012 0.000759 0.238913
0.538665 0.088646 0.211240
0.599877 0.011804 0.240644
0.539967 0.009415 0.274381
0.547278 -0.009423 0.197193
0.508354 -0.020190 0.183267
0.606755 0.050337 0.269399
0.573654 0.028034 0.264555
0.535574 -0.040410 0.217218
0.594412 0.000853 0.229175
0.531346 0.079581 0.191834
0.554731 0.009590 0.216917
0.613532 0.057534 0.249471
0.565276 0.003197 0.210254
0.612688 0.071728 0.209447
0.530300 0.016378 0.227486
0.603884 0.058569 0.198115
0.587169 0.006495 0.220440
0.537086 -0.003963 0.263238
0.578615 0.011476 0.249682
0.611962 0.049436 0.208758
0.548847 0.022705 0.246493
0.608556 0.035291 0.238378
0.537694 0.009929 0.260244
0.571204 0.033781 0.253407
0.540678 0.079270 0.202771
0.541464 0.098006 0.203623
0.517060 0.089005 0.206288
0.616188 0.030057 0.224593
0.551502 0.008621 0.230829
0.581731 0.027707 0.235557
0.493207 0.049122 0.200854
0.505728 0.062544 0.184814
0.558105 0.016576 0.266050
0.623978 0.026915 0.207669
0.602515 0.068980 0.250833
0.516705 -0.036759 0.188154
0.513169 0.083875 0.222556
0.603274 0.062580 0.223124
0.486675 0.040326 0.221303
0.615165 0.080859 0.217329
0.608777 0.091582 0.237990
0.570535 -0.033530 0.207377
0.484952 0.037067 0.192721
0.610381 0.019691 0.224836
0.585236 0.031676 0.269624
0.583509 0.056661 0.256864
0.609087 -0.000518 0.220992
0.514046 0.013900 0.260784
0.476575 -0.017879 0.218780
0.606117 0.072924 0.267487
0.517697 0.022609 0.224621
0.511039 -0.015285 0.243653
0.519761 -0.044514 0.202797
0.556270 -0.030471 0.198826
0.590682 -0.015371 0.227971
0.596454 0.052699 0.235928
0.493640 -0.008552 0.185167
0.495149 0.047032 0.225363
0.520217 0.074565 0.197256
0.526631 0.083330 0.202095
0.492927 -0.046425 0.198267
0.493722 0.056109 0.209895
0.568615 0.008407 0.234849
0.543867 0.023038 0.258834
0.469848 -0.011511 0.208702
0.610236 0.043501 0.226397
0.551970 0.101914 0.211717
0.515510 -0.005941 0.251853
0.616434 0.060245 0.222025
0.614283 0.079246 0.249053
