ply
format ascii 1.0
element vertex 256
property float x
property float y
property float z
end_header
0.633912 -0.027376 0.218199
0.597964 0.094841 0.163592
0.523704 -0.028802 0.143960
0.546503 -0.093826 0.232838
0.652454 0.024824 0.141106
0.567608 0.028678 0.213623
0.571792 0.020724 0.135579
0.565193 -0.035676 0.195410
0.628511 0.031312 0.198392
0.606172 -0.081889 0.200785
0.590636 -0.049278 0.239760
0.546392 -0.071759 0.164921
0.610598 0.049612 0.144756
0.593049 0.064757 0.199882
0.598265 -0.002289 0.227827
0.565911 -0.100609 0.193647
0.559706 -0.017215 0.232670
0.557335 -0.016482 0.124347
0.539150 -0.055075 0.224476
0.586426 -0.106176 0.226597
0.594369 0.016588 0.189292
0.601055 -0.024958 0.195908
0.531342 -0.039172 0.178038
0.556002 0.000817 0.193766
0.558503 -0.041630 0.149471
0.626572 -0.062270 0.222045
0.643826 -0.000205 0.195532
0.637428 0.043863 0.166830
0.547457 0.002424 0.150759
0.559139 -0.068249 0.196993
0.601352 -0.078269 0.234732
0.604272 0.042910 0.175615
0.575258 0.044625 0.186881
0.628241 0.002755 0.220560
0.655018 0.031387 0.186502
0.530542 -0.064050 0.195246
0.586331 0.068609 0.172014
0.613340 -0.031790 0.237571
0.602436 0.037187 0.207507
0.578906 -0.014037 0.209272
0.612403 -0.050434 0.201219
0.570888 -0.084953 0.217783
0.562902 -0.044819 0.233224
0.541818 -0.031288 0.208801
0.625273 0.026763 0.147221
0.615760 0.001166 0.196395
0.534913 -0.054410 0.146989
0.543390 -0.091464 0.206573
0.585504 -0.038808 0.215985
0.584301 -0.061042 0.195801
0.545449 -0.022462 0.160884
0.643222 0.019326 0.164181
0.618620 0.022301 0.176819
0.563870 0.003468 0.218826
0.584687 -0.025498 0.237406
0.619471 0.061124 0.169800
0.553001 0.007388 0.127005
0.535259 -0.008594 0.132830
0.586262 0.010742 0.211357
0.602343 0.082142 0.183115
0.575792 -0.088926 0.240322
0.541212 -0.039108 0.130837
0.609259 0.014775 0.213773
0.579396 0.049856 0.210308
0.643471 0.017959 0.208902
0.586631 -0.098229 0.205717
0.614139 0.050737 0.194169
0.560205 -0.064441 0.218915
0.612341 -0.054033 0.238354
0.657675 0.035842 0.161346
0.546741 -0.057094 0.181894
0.528360 -0.059479 0.168346
0.570087 0.023435 0.192827
0.614059 -0.012373 0.214692
0.578427 -0.066820 0.239431
0.623842 -0.013585 0.235157
0.576155 -0.080734 0.197090
0.638128 0.040653 0.138600
0.566759 -0.006995 0.140160
0.548501 -0.019865 0.192964
0.631973 -0.048923 0.206390
0.521215 -0.043138 0.158737
0.549081 -0.008456 0.210380
0.555564 -0.074768 0.235375
0.595843 -0.002905 0.200464
0.637240 0.019996 0.183216
0.547190 -0.054782 0.205237
0.620483 -0.030470 0.204044
0.547317 -0.041630 0.166758
0.576155 -0.006467 0.231997
0.630016 -0.045583 0.231805
0.623687 0.063247 0.148428
0.584454 0.078059 0.189046
0.542917 -0.072471 0.211098
0.574210 0.001734 0.199166
0.612475 0.021341 0.196173
0.545921 -0.029339 0.228219
0.585126 0.028736 0.202835
0.623082 0.043738 0.178987
0.545465 -0.024980 0.142334
0.557741 -0.056595 0.162889
0.590970 0.054213 0.184370
0.612958 -0.075367 0.216706
0.618706 0.043718 0.160247
0.531778 -0.013961 0.152457
0.577289 -0.019410 0.192031
0.553734 0.022571 0.136601
0.638228 -0.013566 0.207609
0.596159 -0.089654 0.217946
0.625648 0.013347 0.206703
0.570197 0.005900 0.125640
0.601252 0.076732 0.166812
0.528525 -0.028025 0.165283
0.589628 -0.045003 0.198506
0.606218 0.056184 0.160396
0.642437 0.032501 0.153570
0.620212 -0.065398 0.201549
0.563638 0.011734 0.147282
0.639251 0.036911 0.186493
0.597234 0.038472 0.191739
0.608388 0.061095 0.182063
0.578015 0.060361 0.195425
0.564124 0.014985 0.205553
0.595274 0.023187 0.216684
0.587891 0.084642 0.174608
0.631388 -0.029737 0.234592
0.648731 0.014973 0.193838
0.592681 -0.015755 0.221175
0.550090 -0.039234 0.191416
0.550030 -0.008907 0.138966
0.541933 0.010703 0.137906
0.629715 0.006894 0.191618
0.646849 0.031271 0.201080
0.544917 -0.070267 0.190503
0.556917 -0.084012 0.204450
0.599556 -0.021581 0.236140
0.631335 0.045409 0.151505
0.641084 0.002925 0.212175
0.631535 0.031265 0.173183
0.598915 -0.065411 0.196791
0.571695 0.039515 0.200804
0.563379 -0.009231 0.202472
0.576781 -0.038414 0.238426
0.605163 0.027501 0.181289
0.625632 -0.005413 0.206258
0.557921 -0.053546 0.191276
0.549615 -0.057308 0.147575
0.561730 -0.061437 0.238383
0.654877 0.025400 0.172793
0.536452 -0.039722 0.149078
0.537484 -0.050528 0.191490
0.548229 -0.044923 0.231016
0.578114 -0.000404 0.216067
0.600395 0.003296 0.214415
0.535315 -0.067002 0.180128
0.636457 -0.010930 0.221746
0.616918 0.010308 0.185242
0.600091 -0.064085 0.237213
0.536881 -0.046866 0.212819
0.613009 0.035169 0.192266
0.620112 -0.024786 0.221096
0.591853 -0.018160 0.204511
0.544328 -0.022350 0.124641
0.604365 0.010227 0.199949
0.549753 -0.084049 0.223160
0.561925 -0.086743 0.241393
0.565783 -0.031110 0.233509
0.626407 0.025455 0.161511
0.558711 -0.023389 0.138065
0.580289 0.023958 0.217114
0.581059 0.030760 0.188367
0.578793 0.015357 0.200584
0.545609 -0.019734 0.218193
0.568990 -0.009798 0.220628
0.586697 -0.089554 0.228043
0.565553 -0.058823 0.207473
0.590549 0.050466 0.202287
0.618211 0.025250 0.208038
0.548891 -0.062566 0.233637
0.536327 -0.049713 0.159761
0.553963 -0.038903 0.135700
0.526421 -0.053423 0.180401
0.606561 -0.011114 0.202242
0.594952 0.067655 0.182506
0.600260 -0.035166 0.237465
0.573471 -0.051606 0.238096
0.608480 -0.035956 0.196720
0.579780 0.060916 0.181928
0.562637 -0.022734 0.195460
0.554880 -0.029119 0.151542
0.610513 0.062486 0.147485
0.625439 0.038555 0.141351
0.561783 -0.004199 0.128325
0.581336 0.036769 0.214446
0.644462 0.033106 0.170796
0.656942 0.025417 0.153452
0.604802 0.091594 0.174441
0.613020 -0.072538 0.234166
0.556967 -0.003680 0.227168
0.545571 -0.055880 0.167176
0.574612 0.012371 0.217266
0.546001 -0.003716 0.127644
0.554958 0.006460 0.208588
0.533670 0.000616 0.141671
0.618388 0.057746 0.138160
0.643730 0.020102 0.151058
0.602044 0.052248 0.190281
0.630484 -0.049435 0.219784
0.589798 -0.077207 0.239673
0.555889 -0.064678 0.172388
0.632915 0.019653 0.197101
0.572258 0.005854 0.137929
0.612511 0.050445 0.169488
0.608702 -0.006353 0.233179
0.521856 -0.046606 0.171090
0.547647 -0.049360 0.137701
0.602168 0.025014 0.205308
0.619010 0.004556 0.212302
0.560209 -0.001419 0.149018
0.526284 -0.009815 0.142214
0.555115 -0.071806 0.209594
0.652342 0.036037 0.146022
0.586039 -0.013319 0.233957
0.553686 0.008062 0.139718
0.589688 0.002843 0.220149
0.564130 0.017993 0.126555
0.540182 -0.031132 0.176026
0.623718 0.029921 0.184737
0.634987 0.012713 0.215854
0.622627 -0.059025 0.234391
0.623622 0.055453 0.159956
0.588035 0.006922 0.200027
0.540964 -0.063972 0.152744
0.568295 0.005424 0.229881
0.635689 0.027787 0.141237
0.583325 0.003074 0.232208
0.571377 -0.061399 0.197430
0.535694 -0.018315 0.139666
0.574128 -0.043377 0.196769
0.593299 -0.088529 0.204185
0.618507 0.055026 0.181018
0.649388 0.021616 0.182921
0.642611 0.006855 0.186128
0.565816 -0.076891 0.201332
0.598555 0.073664 0.191927
0.619075 0.034544 0.172884
0.521323 -0.031293 0.156617
0.627245 0.039793 0.189914
0.632117 -0.005208 0.196621
0.650875 0.040860 0.181253
0.606296 0.044550 0.161702
0.622216 0.050212 0.146295
0.614159 0.064616 0.158232
0.543734 -0.046035 0.180578
0.607753 0.062540 0.169876
0.617593 -0.076162 0.204613
