ply
format ascii 1.0
element vertex 256
property float x
property float y
property float z
end_header
0.443195 0.134117 0.220292
0.484323 0.255712 0.167659
0.352541 0.195607 0.147376
0.333202 0.131392 0.235554
0.492647 0.166109 0.150647
0.421662 0.218244 0.217400
0.420418 0.207891 0.138730
0.381899 0.167545 0.199415
0.388516 0.106066 0.203930
0.471705 0.184802 0.204083
0.395808 0.141191 0.243135
0.345988 0.147983 0.169475
0.472972 0.212879 0.143556
0.463107 0.233085 0.203267
0.429017 0.175135 0.230746
0.344708 0.114302 0.197985
0.389100 0.185335 0.236710
0.387088 0.185646 0.128065
0.352690 0.169919 0.226525
0.361321 0.103974 0.237660
0.436174 0.193477 0.192485
0.417312 0.155427 0.198885
0.352624 0.183557 0.181756
0.395586 0.202603 0.197824
0.373399 0.165095 0.153696
0.417045 0.109940 0.224525
0.478564 0.212232 0.179487
0.466884 0.151089 0.197671
0.389984 0.207443 0.153932
0.497600 0.178774 0.183585
0.467338 0.182995 0.164700
0.358087 0.144535 0.201338
0.436726 0.227275 0.190576
0.365193 0.148106 0.242606
0.455972 0.161818 0.223046
0.337027 0.165232 0.197675
0.459660 0.240834 0.175708
0.424382 0.142258 0.240238
0.476625 0.185411 0.137652
0.405976 0.177031 0.212785
0.411873 0.128040 0.204025
0.454852 0.206302 0.208865
0.444832 0.168441 0.199031
0.387552 0.111428 0.237975
0.358803 0.124140 0.219893
0.346780 0.168332 0.151047
0.397119 0.152963 0.219450
0.382712 0.135795 0.199427
0.373870 0.188550 0.164545
0.375755 0.193602 0.211019
0.452966 0.209223 0.181900
0.404166 0.199900 0.222648
0.404727 0.164027 0.240813
0.397373 0.207679 0.130163
0.332027 0.134683 0.211466
0.373656 0.205067 0.136060
0.474946 0.168948 0.182881
0.434625 0.195454 0.216538
0.480579 0.242257 0.186804
0.355982 0.100190 0.212686
0.360849 0.176736 0.134733
0.443507 0.228694 0.213928
0.487285 0.192977 0.168043
0.416328 0.196175 0.202983
0.478578 0.164607 0.210963
0.410666 0.124727 0.241168
0.338432 0.168528 0.172379
0.342572 0.150812 0.223411
0.354739 0.160133 0.186177
0.377131 0.130014 0.243119
0.435631 0.157842 0.217030
0.462371 0.210957 0.162708
0.454168 0.183209 0.216091
0.443444 0.150999 0.237442
0.467677 0.193068 0.183087
0.376290 0.105369 0.221398
0.426001 0.176351 0.203462
0.400267 0.188325 0.143812
0.350723 0.127364 0.245746
0.367302 0.183714 0.230283
0.484823 0.214298 0.160202
0.428800 0.117841 0.208657
0.342140 0.185743 0.162363
0.355440 0.163465 0.207160
0.430117 0.139561 0.206523
0.364676 0.124487 0.201042
0.364236 0.172009 0.170791
0.408709 0.184533 0.235534
0.421659 0.216482 0.197103
0.429788 0.121409 0.234097
0.361718 0.146767 0.223202
0.466915 0.215503 0.195844
0.382230 0.154819 0.236630
0.463649 0.249119 0.192981
0.477851 0.197072 0.152379
0.372480 0.186043 0.146046
0.364041 0.153683 0.167363
0.452600 0.185454 0.195865
0.398226 0.107251 0.219626
0.490922 0.172637 0.199618
0.477783 0.167864 0.164385
0.498417 0.175245 0.165432
0.367714 0.203204 0.155742
0.401105 0.173793 0.195623
0.462854 0.168857 0.203107
0.454625 0.143098 0.209571
0.406763 0.219874 0.139451
0.455042 0.226000 0.187747
0.484717 0.193811 0.187428
0.442248 0.212507 0.197973
0.410533 0.196479 0.129079
0.458314 0.172753 0.185686
0.476514 0.238961 0.170407
0.356848 0.193956 0.168760
0.396434 0.145723 0.201900
0.350278 0.140566 0.235172
0.409538 0.111321 0.204225
0.408567 0.205579 0.150497
0.439267 0.175900 0.217536
0.381409 0.196180 0.226241
0.448161 0.238244 0.199081
0.470230 0.252915 0.178632
0.438380 0.213331 0.214869
0.483704 0.179083 0.154244
0.440183 0.133477 0.236761
0.365483 0.166300 0.235553
0.416483 0.167495 0.224320
0.367444 0.173469 0.195851
0.385520 0.196419 0.142416
0.390270 0.217063 0.140830
0.485246 0.178300 0.173773
0.339917 0.155014 0.184662
0.464802 0.199972 0.197027
0.474068 0.223731 0.167409
0.393072 0.194072 0.213199
0.343094 0.149105 0.201077
0.372512 0.115318 0.240662
0.347308 0.132913 0.208938
0.419219 0.198929 0.218729
0.410741 0.209269 0.209312
0.379171 0.173280 0.233909
0.419066 0.158590 0.239124
0.466515 0.154761 0.214425
0.479663 0.160672 0.196203
0.392087 0.123738 0.200046
0.473195 0.198249 0.166875
0.449068 0.157069 0.208629
0.357062 0.157452 0.151930
0.364711 0.182599 0.215569
0.469324 0.232368 0.186806
0.356558 0.179442 0.152900
0.355595 0.155285 0.234114
0.431080 0.224927 0.204550
0.350988 0.171084 0.195499
0.371777 0.157777 0.195518
0.481979 0.179734 0.190570
0.367956 0.110708 0.210711
0.402732 0.190408 0.202942
0.454755 0.145876 0.223791
0.394831 0.123677 0.240413
0.470101 0.180894 0.149706
0.487844 0.164386 0.176567
0.433547 0.144210 0.223548
0.453466 0.194306 0.184429
0.413992 0.166208 0.207697
0.437840 0.184625 0.203590
0.373085 0.188398 0.128292
0.377446 0.190138 0.197336
0.419838 0.185839 0.213321
0.476751 0.223541 0.152095
0.465094 0.216282 0.181093
0.384200 0.179543 0.141971
0.400652 0.186112 0.224381
0.369045 0.148362 0.211590
0.340318 0.171558 0.185686
0.452809 0.222862 0.205648
0.350618 0.171642 0.163755
0.371331 0.169617 0.139804
0.428522 0.202923 0.198633
0.429994 0.163422 0.204993
0.411779 0.147110 0.240503
0.448007 0.195886 0.217369
0.466924 0.168449 0.216348
0.349999 0.147798 0.212713
0.486767 0.189004 0.145511
0.449887 0.238070 0.185569
0.416981 0.142153 0.199556
0.362706 0.114298 0.229425
0.360533 0.097247 0.226329
0.387341 0.179562 0.199464
0.377710 0.177430 0.155482
0.397826 0.193184 0.131851
0.461412 0.160841 0.190774
0.379328 0.142190 0.238352
0.488040 0.248787 0.178300
0.473426 0.181978 0.177942
0.400360 0.109319 0.237063
0.395378 0.173949 0.236758
0.449230 0.169799 0.211829
0.394598 0.198004 0.231211
0.427698 0.168838 0.216543
0.354536 0.161436 0.171433
0.398388 0.207634 0.212638
0.385237 0.202694 0.130930
0.377694 0.213718 0.144684
0.340607 0.182847 0.174784
0.442670 0.202589 0.207373
0.427318 0.206149 0.210950
0.477454 0.172351 0.200756
0.485317 0.214967 0.145730
0.444017 0.202477 0.188153
0.427629 0.118139 0.222089
0.475413 0.207063 0.190563
0.357808 0.148411 0.176972
0.360708 0.117541 0.244312
0.459766 0.183929 0.180012
0.412189 0.195560 0.141394
0.435280 0.165703 0.235835
0.456039 0.194265 0.206176
0.360110 0.164823 0.141885
0.486241 0.172289 0.142056
0.398156 0.196886 0.152457
0.365633 0.209504 0.145337
0.474396 0.190154 0.193045
0.391686 0.161840 0.239961
0.412817 0.173193 0.237263
0.398325 0.208153 0.142867
0.412587 0.209871 0.129654
0.364497 0.184919 0.179750
0.409231 0.192609 0.214408
0.354374 0.155554 0.197980
0.416032 0.114733 0.236955
0.346134 0.157176 0.157072
0.409170 0.198801 0.233567
0.427309 0.190468 0.204072
0.477323 0.200372 0.178050
0.480811 0.165460 0.152575
0.352337 0.134247 0.219707
0.420090 0.188130 0.235500
0.454965 0.211525 0.198173
0.372033 0.142995 0.201407
0.368384 0.197064 0.143102
0.479348 0.185116 0.164020
0.384726 0.156071 0.200574
0.419696 0.181447 0.224346
0.344250 0.159531 0.207266
0.390970 0.190814 0.198524
0.491778 0.168350 0.188618
0.358606 0.133573 0.205542
0.349115 0.195269 0.160034
0.341928 0.136833 0.227834
0.471664 0.240881 0.195245
0.472755 0.207973 0.158211
0.467611 0.171267 0.192622
0.463229 0.177919 0.210436
0.454443 0.153754 0.198878
