ply
format ascii 1.0
element vertex 256
property float x
property float y
property float z
end_header
0.627574 -0.029191 0.209872
0.644847 0.108238 0.181079
0.520132 0.047955 0.175403
0.522220 -0.042007 0.241597
0.659449 0.024288 0.136876
0.601427 0.050670 0.232693
0.582426 0.070053 0.154261
0.566527 -0.006008 0.204852
0.655637 0.031451 0.201440
0.580388 -0.064537 0.220028
0.515408 0.005769 0.211248
0.638731 0.061603 0.163736
0.599705 0.003155 0.240117
0.541062 -0.046756 0.198289
0.635343 0.076885 0.213546
0.539010 0.008041 0.171514
0.553540 0.012826 0.242628
0.565908 -0.032105 0.242636
0.615731 0.019796 0.206342
0.548066 0.048420 0.145844
0.571674 0.032847 0.212645
0.649130 -0.004626 0.188589
0.588068 -0.038082 0.193732
0.601266 -0.033578 0.235573
0.672992 0.018667 0.172783
0.546336 -0.071217 0.222875
0.613453 0.053592 0.200646
0.557629 0.061201 0.175808
0.540387 0.028673 0.198275
0.534194 -0.018663 0.222901
0.603590 -0.008090 0.196925
0.580491 0.027781 0.243033
0.653149 0.061846 0.190820
0.640340 -0.002313 0.217297
0.662890 0.043856 0.159995
0.514038 0.021510 0.186270
0.631611 0.081417 0.183856
0.525359 0.027248 0.155960
0.630518 0.040879 0.218442
0.633025 0.037150 0.187365
0.608861 -0.049666 0.215039
0.544309 0.036736 0.171552
0.519356 -0.038448 0.209976
0.589153 0.012416 0.218585
0.583247 -0.012521 0.222845
0.545106 -0.012559 0.245003
0.518727 -0.002969 0.183340
0.543006 -0.043094 0.228075
0.619637 -0.017045 0.233649
0.597035 0.035149 0.212638
0.562873 -0.035782 0.200753
0.658404 0.070391 0.152013
0.648070 0.046423 0.140621
0.651077 0.022485 0.161067
0.557910 0.069758 0.152434
0.536948 0.062591 0.163081
0.613278 0.068932 0.219190
0.667032 0.010029 0.195161
0.573257 -0.000815 0.243553
0.539242 -0.003558 0.205236
0.561065 -0.055728 0.235103
0.632823 0.011534 0.190129
0.636697 0.096546 0.200040
0.582984 -0.046482 0.233655
0.637217 0.019688 0.217291
0.563787 -0.057305 0.204785
0.662964 0.044125 0.182831
0.619222 -0.005776 0.213319
0.636513 0.055068 0.203270
0.609305 0.017941 0.227691
0.653518 0.021339 0.182807
0.537382 0.006405 0.230418
0.562233 0.028467 0.231516
0.641605 0.041156 0.166581
0.565117 0.047601 0.157570
0.537202 0.049089 0.186751
0.584362 -0.022402 0.240586
0.657755 0.063292 0.171105
0.618984 0.075874 0.198653
0.611979 -0.034160 0.197995
0.671787 0.023073 0.152679
0.552807 -0.016885 0.215813
0.634925 -0.013679 0.199329
0.535199 0.010716 0.191313
0.553851 0.009906 0.205226
0.648829 0.012604 0.202620
0.620210 -0.036062 0.228108
0.585989 0.003936 0.200974
0.584482 -0.057292 0.196294
0.523074 0.037097 0.193868
0.635170 0.059087 0.183870
0.581281 0.041756 0.227029
0.540727 -0.031728 0.243494
0.541736 -0.030279 0.207922
0.596501 0.053722 0.210642
0.576491 -0.020307 0.198281
0.648450 0.090483 0.185109
0.538826 -0.062291 0.208095
0.595206 0.029078 0.231134
0.611724 0.044050 0.219188
0.569221 0.079469 0.162479
0.525888 0.029994 0.175826
0.521665 0.020757 0.203687
0.521861 0.009904 0.166905
0.573774 0.014712 0.208144
0.530093 0.046830 0.158891
0.595788 -0.022856 0.201722
0.628757 0.007937 0.206626
0.632404 0.030327 0.204437
0.570515 0.061133 0.144278
0.522516 -0.006060 0.200882
0.617948 0.036581 0.195694
0.599093 -0.051906 0.228648
0.574500 0.062761 0.167233
0.549434 0.017604 0.226878
0.544377 0.021924 0.179438
0.656053 -0.002426 0.203672
0.535884 -0.003736 0.182710
0.627247 0.060852 0.215864
0.657306 0.006092 0.177852
0.539751 0.021703 0.162453
0.622572 0.009829 0.222457
0.620249 0.028396 0.220441
0.646808 0.045672 0.188658
0.633659 0.095085 0.175400
0.669871 0.030093 0.186848
0.554433 -0.053659 0.217421
0.569596 -0.015990 0.239476
0.545152 -0.063242 0.236769
0.639441 -0.018025 0.214384
0.550367 0.053885 0.162854
0.644095 0.041580 0.207138
0.640233 0.078379 0.198478
0.553894 0.074400 0.167085
0.557786 0.025241 0.211732
0.597148 -0.056316 0.205786
0.531633 0.008870 0.211468
0.601998 -0.045791 0.193986
0.644788 0.035523 0.151616
0.664929 0.032211 0.170448
0.579950 0.023632 0.227976
0.613958 -0.001858 0.236401
0.604333 0.009271 0.206812
0.648173 0.050374 0.155584
0.526252 -0.006038 0.219032
0.542805 -0.005519 0.220063
0.587214 0.014150 0.244809
0.541477 0.062922 0.177591
0.549414 0.037765 0.157285
0.618424 0.055155 0.227009
0.660516 0.035228 0.147211
0.567004 0.021429 0.244321
0.531170 -0.019709 0.207251
0.644330 0.067959 0.176089
0.626245 0.049345 0.192635
0.648915 0.075351 0.162298
0.540173 -0.046323 0.246095
0.519598 0.007424 0.193722
0.630971 -0.026111 0.226953
0.601411 0.000913 0.225782
0.553753 -0.024757 0.246046
0.605620 0.064499 0.206911
0.594546 -0.012151 0.241476
0.637585 0.024023 0.183829
0.618424 -0.020653 0.216865
0.587264 0.024065 0.210467
0.662145 0.012501 0.165766
0.526807 -0.047047 0.198058
0.574118 -0.048425 0.200290
0.653742 0.049308 0.169404
0.528632 -0.033272 0.232519
0.644101 0.007853 0.182452
0.552938 -0.003768 0.202309
0.625706 0.063646 0.199855
0.647053 0.032287 0.177137
0.627606 0.085686 0.203348
0.540130 -0.043151 0.212804
0.603714 0.058496 0.221498
0.610430 0.032858 0.206701
0.547363 -0.021570 0.227624
0.606451 0.018414 0.241017
0.623071 0.043013 0.207369
0.658127 0.014563 0.152742
0.532024 -0.005348 0.234233
0.620854 -0.040160 0.213835
0.651252 0.050957 0.200747
0.645068 0.063519 0.152084
0.521639 0.037844 0.164088
0.530846 -0.031975 0.215497
0.603714 0.024585 0.217688
0.570366 -0.046436 0.237638
0.585009 -0.000666 0.237548
0.628728 0.093622 0.187824
0.559226 0.055630 0.148997
0.603960 0.038448 0.228428
0.587612 0.043834 0.215299
0.612481 -0.021244 0.199907
0.570845 -0.061360 0.228364
0.644092 0.025020 0.202164
0.538815 0.048318 0.169215
0.583346 -0.057260 0.209219
0.622632 0.075561 0.211090
0.658140 0.019399 0.196108
0.635561 -0.001103 0.190548
0.515977 0.023479 0.170695
0.647552 0.032109 0.190047
0.611155 0.004593 0.216710
0.645910 0.054076 0.178476
0.528209 0.005590 0.178196
0.651189 0.025467 0.146706
0.546641 0.063359 0.154624
0.587730 0.038167 0.240750
0.658403 0.048492 0.148282
0.624788 0.019890 0.195123
0.557471 -0.017973 0.204142
0.649314 -0.009510 0.212211
0.611945 -0.026993 0.233723
0.545058 0.036342 0.184066
0.586156 -0.035304 0.238357
0.645329 0.017822 0.191606
0.520041 -0.036165 0.222262
0.574092 -0.036875 0.195371
0.575646 0.056610 0.154694
0.537998 0.053435 0.151138
0.610382 -0.046749 0.228034
0.641067 0.009300 0.211654
0.565328 0.052704 0.168812
0.627910 -0.004876 0.204247
0.513374 0.009002 0.183261
0.646959 0.101250 0.171213
0.595242 0.028695 0.243364
0.534873 0.032646 0.164956
0.586187 0.031737 0.221310
0.562438 0.066341 0.163851
0.572277 0.073816 0.148743
0.569949 -0.062595 0.214139
0.646510 0.089234 0.197028
0.606333 -0.011147 0.237422
0.604596 0.043686 0.208735
0.644293 0.100893 0.190618
0.654617 0.060016 0.158777
0.549965 -0.001586 0.244458
0.599952 0.047144 0.220375
0.656079 0.041615 0.195077
0.538117 0.035337 0.153840
0.673560 0.017501 0.184557
0.516737 0.036026 0.183970
0.609295 -0.001230 0.204639
0.552030 -0.053236 0.205927
0.655248 0.036593 0.165449
0.658716 0.033299 0.184074
0.624492 0.070474 0.222098
0.588726 0.017170 0.232152
0.667000 0.033179 0.157692
0.642292 0.060026 0.194414
0.669012 0.027921 0.142561
