ply
format ascii 1.0
element vertex 256
property float x
property float y
property float z
end_header
0.627566 -0.029190 0.209869
0.644597 0.108128 0.180593
0.520011 0.047993 0.175482
0.522211 -0.042007 0.241595
0.659488 0.024328 0.136869
0.601450 0.050723 0.232616
0.582203 0.070235 0.154212
0.566518 -0.006007 0.204850
0.655607 0.031451 0.201372
0.580380 -0.064536 0.220025
0.515394 0.005776 0.211290
0.638820 0.061667 0.163799
0.599697 0.003156 0.240114
0.541053 -0.046756 0.198287
0.635260 0.076898 0.213225
0.538930 0.008105 0.171523
0.553532 0.012827 0.242625
0.565900 -0.032105 0.242633
0.615733 0.019805 0.206343
0.547873 0.048527 0.145867
0.571665 0.032848 0.212642
0.649121 -0.004626 0.188585
0.588059 -0.038082 0.193729
0.601257 -0.033577 0.235570
0.672991 0.018671 0.172787
0.546328 -0.071216 0.222873
0.613344 0.053528 0.200509
0.557482 0.061308 0.175815
0.540330 0.028714 0.198301
0.534191 -0.018669 0.222898
0.603581 -0.008089 0.196921
0.580482 0.027782 0.243029
0.653180 0.061857 0.190899
0.640331 -0.002312 0.217293
0.662784 0.043802 0.159892
0.513968 0.021531 0.186335
0.631404 0.081304 0.183532
0.525229 0.027311 0.156011
0.630513 0.040872 0.218477
0.608852 -0.049666 0.215036
0.633053 0.037171 0.187400
0.544195 0.036807 0.171579
0.519347 -0.038447 0.209974
0.589145 0.012417 0.218582
0.583239 -0.012520 0.222842
0.545098 -0.012558 0.245001
0.518681 -0.002940 0.183374
0.542997 -0.043093 0.228073
0.619628 -0.017045 0.233646
0.597027 0.035149 0.212634
0.562864 -0.035781 0.200750
0.658524 0.070465 0.152135
0.647918 0.046325 0.140546
0.557682 0.069883 0.152448
0.651089 0.022506 0.161050
0.536765 0.062658 0.163143
0.613226 0.068943 0.218991
0.667023 0.010030 0.195156
0.573249 -0.000814 0.243550
0.539222 -0.003544 0.205244
0.561056 -0.055728 0.235101
0.632786 0.011517 0.190105
0.636537 0.096505 0.199634
0.582976 -0.046482 0.233652
0.637208 0.019697 0.217255
0.563779 -0.057305 0.204783
0.662910 0.044110 0.182743
0.619216 -0.005775 0.213325
0.636529 0.055073 0.203325
0.609296 0.017942 0.227687
0.653506 0.021339 0.182792
0.537374 0.006406 0.230415
0.562224 0.028467 0.231513
0.641515 0.041102 0.166530
0.564955 0.047739 0.157548
0.537099 0.049137 0.186802
0.584354 -0.022402 0.240583
0.657830 0.063332 0.171213
0.618842 0.075807 0.198402
0.611970 -0.034159 0.197992
0.671809 0.023095 0.152685
0.552799 -0.016884 0.215811
0.634916 -0.013679 0.199326
0.535150 0.010757 0.191331
0.553842 0.009906 0.205223
0.648820 0.012604 0.202616
0.620201 -0.036062 0.228105
0.585980 0.003936 0.200971
0.584473 -0.057291 0.196292
0.522998 0.037122 0.193932
0.635214 0.059117 0.183921
0.581273 0.041757 0.227025
0.540718 -0.031728 0.243492
0.541727 -0.030279 0.207920
0.596432 0.053680 0.210572
0.576482 -0.020307 0.198278
0.648236 0.090393 0.184681
0.538817 -0.062291 0.208093
0.595198 0.029079 0.231130
0.611700 0.044059 0.219096
0.568996 0.079614 0.162471
0.525789 0.030039 0.175878
0.521626 0.020770 0.203738
0.521771 0.009952 0.166945
0.573765 0.014712 0.208141
0.529944 0.046895 0.158952
0.595780 -0.022856 0.201719
0.628740 0.007934 0.206609
0.570287 0.061295 0.144253
0.632412 0.030332 0.204465
0.522492 -0.006042 0.200904
0.617967 0.036598 0.195712
0.599084 -0.051906 0.228645
0.574328 0.062915 0.167198
0.549425 0.017604 0.226875
0.544294 0.021987 0.179451
0.656044 -0.002425 0.203668
0.535838 -0.003686 0.182713
0.627191 0.060865 0.215641
0.657297 0.006092 0.177847
0.539639 0.021777 0.162474
0.622563 0.009829 0.222453
0.620238 0.028390 0.220454
0.646834 0.045687 0.188710
0.633402 0.094939 0.175013
0.669862 0.030093 0.186843
0.554424 -0.053659 0.217418
0.569587 -0.015989 0.239473
0.545143 -0.063242 0.236767
0.639432 -0.018024 0.214380
0.550204 0.053984 0.162875
0.644103 0.041580 0.207189
0.640088 0.078336 0.198132
0.553694 0.074505 0.167112
0.557777 0.025241 0.211729
0.597139 -0.056316 0.205783
0.531618 0.008877 0.211498
0.601990 -0.045791 0.193983
0.644667 0.035443 0.151568
0.664933 0.032219 0.170455
0.579941 0.023632 0.227973
0.613949 -0.001857 0.236397
0.604324 0.009271 0.206808
0.648053 0.050304 0.155502
0.526245 -0.006040 0.219050
0.542796 -0.005519 0.220060
0.587206 0.014150 0.244806
0.541331 0.062989 0.177641
0.549273 0.037856 0.157303
0.618419 0.055204 0.226845
0.660547 0.035259 0.147215
0.566995 0.021430 0.244318
0.531161 -0.019708 0.207248
0.644396 0.067997 0.176176
0.626271 0.049362 0.192674
0.649015 0.075412 0.162409
0.540165 -0.046323 0.246093
0.519568 0.007450 0.193762
0.630963 -0.026111 0.226950
0.601403 0.000913 0.225779
0.553745 -0.024757 0.246043
0.605524 0.064452 0.206760
0.594538 -0.012151 0.241472
0.637538 0.024001 0.183788
0.618415 -0.020653 0.216862
0.587255 0.024066 0.210463
0.662149 0.012515 0.165752
0.526799 -0.047046 0.198056
0.574109 -0.048425 0.200288
0.653653 0.049266 0.169311
0.528623 -0.033271 0.232517
0.644091 0.007854 0.182448
0.552929 -0.003768 0.202306
0.625582 0.063592 0.199627
0.646996 0.032262 0.177077
0.627471 0.085649 0.203023
0.540122 -0.043151 0.212801
0.603683 0.058506 0.221379
0.610436 0.032868 0.206708
0.547354 -0.021570 0.227621
0.606442 0.018415 0.241014
0.623078 0.043019 0.207398
0.658146 0.014589 0.152725
0.532016 -0.005348 0.234231
0.620846 -0.040160 0.213832
0.651268 0.050960 0.200815
0.645184 0.063600 0.152165
0.521510 0.037894 0.164155
0.530837 -0.031974 0.215495
0.603705 0.024587 0.217680
0.570358 -0.046435 0.237635
0.585000 -0.000666 0.237545
0.628522 0.093522 0.187462
0.559024 0.055761 0.148997
0.603951 0.038448 0.228424
0.587603 0.043835 0.215295
0.612472 -0.021244 0.199904
0.570837 -0.061359 0.228362
0.538682 0.048385 0.169262
0.644065 0.025018 0.202115
0.583337 -0.057259 0.209216
0.622540 0.075549 0.210826
0.645952 0.054101 0.178540
0.658131 0.019400 0.196103
0.635552 -0.001103 0.190544
0.515878 0.023517 0.170759
0.647510 0.032096 0.189988
0.611150 0.004595 0.216716
0.528143 0.005635 0.178221
0.546435 0.063456 0.154662
0.651218 0.025501 0.146692
0.587721 0.038168 0.240747
0.658268 0.048414 0.148180
0.624755 0.019875 0.195100
0.557462 -0.017972 0.204139
0.649305 -0.009509 0.212207
0.611936 -0.026992 0.233720
0.544966 0.036402 0.184091
0.586147 -0.035303 0.238354
0.645293 0.017810 0.191562
0.520033 -0.036165 0.222260
0.574083 -0.036875 0.195368
0.575456 0.056776 0.154652
0.537806 0.053513 0.151190
0.610374 -0.046749 0.228030
0.565183 0.052834 0.168794
0.641055 0.009305 0.211622
0.627902 -0.004876 0.204243
0.513314 0.009024 0.183316
0.646678 0.101102 0.170747
0.595233 0.028696 0.243360
0.534752 0.032712 0.164996
0.586178 0.031737 0.221307
0.562248 0.066468 0.163851
0.654716 0.060080 0.158872
0.572031 0.073979 0.148723
0.569940 -0.062595 0.214137
0.646346 0.089191 0.196613
0.606325 -0.011146 0.237418
0.644091 0.100822 0.190164
0.549957 -0.001586 0.244455
0.604531 0.043645 0.208674
0.599943 0.047144 0.220371
0.537976 0.035414 0.153879
0.656039 0.041609 0.195000
0.673545 0.017494 0.184559
0.655158 0.036544 0.165376
0.516645 0.036052 0.184044
0.609286 -0.001229 0.204636
0.552021 -0.053235 0.205925
0.658669 0.033286 0.183999
0.624450 0.070510 0.221847
0.588718 0.017171 0.232148
0.667019 0.033199 0.157702
0.642313 0.060033 0.194482
0.669046 0.027953 0.142569
