ply
format ascii 1.0
element vertex 256
property float x
property float y
property float z
end_header
0.490037 0.199574 0.202567
0.423627 0.347776 0.161251
0.551422 0.308724 0.138330
0.413113 0.271698 0.244379
0.523751 0.221270 0.114571
0.496315 0.287112 0.203450
0.416975 0.196317 0.259013
0.387791 0.305775 0.197151
0.529080 0.241101 0.174477
0.469678 0.243267 0.241102
0.436018 0.210098 0.212606
0.523146 0.268210 0.132437
0.446088 0.277224 0.207773
0.482410 0.246063 0.190601
0.516939 0.303928 0.167091
0.419183 0.335419 0.203602
0.467381 0.199717 0.240417
0.411245 0.237025 0.271327
0.400831 0.225211 0.232825
0.409487 0.308290 0.228659
0.404362 0.272667 0.205953
0.508663 0.209131 0.170937
0.502661 0.265414 0.164506
0.497908 0.231311 0.220406
0.538040 0.219126 0.147902
0.432559 0.240813 0.230360
0.411981 0.318371 0.174832
0.453150 0.273149 0.241879
0.543906 0.248630 0.115178
0.449291 0.223238 0.256092
0.476088 0.269133 0.219950
0.511138 0.259336 0.194311
0.461538 0.217946 0.196914
0.436881 0.250756 0.259662
0.417536 0.300524 0.198498
0.532131 0.267401 0.161280
0.518664 0.242419 0.145497
0.507759 0.228010 0.193276
0.547630 0.278395 0.120699
0.463320 0.191670 0.209019
0.451275 0.249584 0.206846
0.442752 0.196899 0.251064
0.517348 0.284640 0.185905
0.434751 0.331667 0.181959
0.501175 0.238695 0.166259
0.395437 0.284392 0.229052
0.492327 0.287627 0.177285
0.526801 0.300332 0.142861
0.476947 0.271792 0.192773
0.489400 0.208307 0.228562
0.421231 0.221466 0.248105
0.423331 0.282829 0.223890
0.498581 0.257336 0.219089
0.420725 0.201786 0.230431
0.414116 0.247475 0.248440
0.447977 0.186914 0.229558
0.398565 0.328948 0.192070
0.533245 0.217313 0.172245
0.539971 0.251106 0.139075
0.460582 0.234180 0.221889
0.539446 0.300509 0.161745
0.419056 0.258533 0.226016
0.523137 0.247666 0.123444
0.432497 0.213471 0.267001
0.413864 0.341283 0.182194
0.518081 0.219323 0.138969
0.402213 0.318590 0.210845
0.468860 0.221313 0.241762
0.437909 0.231603 0.211353
0.542240 0.272700 0.140881
0.513403 0.207868 0.191475
0.474792 0.250210 0.211332
0.399686 0.297930 0.213506
0.478669 0.190435 0.222944
0.459145 0.281270 0.223392
0.489696 0.216989 0.191706
0.532682 0.231708 0.131790
0.424591 0.314831 0.211053
0.522660 0.265779 0.178880
0.492548 0.261824 0.181283
0.405320 0.201691 0.243855
0.399180 0.289723 0.194517
0.433807 0.269176 0.242612
0.476448 0.284782 0.207648
0.518697 0.227302 0.157811
0.505004 0.214142 0.214521
0.536621 0.244432 0.157013
0.398563 0.234062 0.249712
0.513998 0.285062 0.166311
0.511891 0.243407 0.182805
0.435079 0.261980 0.210956
0.468738 0.263191 0.237991
0.537111 0.315136 0.150243
0.412599 0.332737 0.162445
0.432817 0.331658 0.163599
0.516311 0.249425 0.162372
0.418242 0.229784 0.227148
0.518078 0.272300 0.150570
0.430053 0.234379 0.264241
0.498529 0.244918 0.199000
0.417873 0.317645 0.192532
0.389990 0.282350 0.211270
0.464509 0.260300 0.200388
0.501616 0.275895 0.187771
0.517274 0.227223 0.177391
0.490730 0.270359 0.204837
0.536056 0.265182 0.120023
0.429933 0.348149 0.179074
0.409505 0.244717 0.232016
0.529205 0.290468 0.174925
0.495208 0.238085 0.182330
0.516219 0.232155 0.125482
0.406356 0.306386 0.185624
0.410538 0.292168 0.234183
0.503166 0.293779 0.188931
0.409269 0.273296 0.224827
0.443437 0.275455 0.228164
0.500852 0.222998 0.177499
0.471078 0.233766 0.192079
0.488672 0.246094 0.226478
0.455065 0.240917 0.248802
0.536095 0.314283 0.133678
0.483425 0.215449 0.206995
0.448473 0.257384 0.249875
0.540090 0.228853 0.161069
0.429016 0.254094 0.238688
0.414099 0.289496 0.209624
0.524605 0.256450 0.150621
0.498368 0.204780 0.186130
0.461797 0.277805 0.205137
0.447530 0.191870 0.209230
0.455015 0.206508 0.205393
0.487483 0.282176 0.218333
0.481160 0.234705 0.235231
0.503106 0.296841 0.171224
0.519830 0.299642 0.183369
0.496059 0.199154 0.218195
0.430022 0.204932 0.253180
0.489309 0.245916 0.211135
0.420684 0.302572 0.218886
0.488298 0.281837 0.192009
0.483022 0.261811 0.230942
0.429161 0.194826 0.220344
0.530771 0.231890 0.149925
0.520162 0.213102 0.161720
0.463503 0.186638 0.222935
0.521723 0.293723 0.157390
0.474527 0.210265 0.196618
0.542289 0.300019 0.145692
0.453998 0.194133 0.242159
0.398220 0.317605 0.181070
0.520948 0.220275 0.190505
0.486624 0.258667 0.197325
0.506817 0.265969 0.178360
0.530471 0.252828 0.112109
0.434989 0.192932 0.239720
0.547367 0.265905 0.128727
0.453667 0.214336 0.245814
0.409549 0.260296 0.236586
0.425121 0.337817 0.190876
0.418450 0.235711 0.241727
0.509936 0.281897 0.197721
0.392818 0.272427 0.221013
0.436867 0.346822 0.166095
0.420588 0.329045 0.180160
0.422060 0.270802 0.233517
0.534428 0.278813 0.125578
0.451270 0.263627 0.206180
0.404172 0.333001 0.176292
0.497647 0.251398 0.171062
0.527620 0.234399 0.117648
0.429552 0.249446 0.213902
0.540722 0.242670 0.127948
0.526259 0.255210 0.136491
0.489769 0.222313 0.227218
0.432352 0.241390 0.244169
0.526700 0.256187 0.168483
0.528492 0.218481 0.129981
0.445650 0.240227 0.258735
0.476222 0.191140 0.204542
0.486629 0.237519 0.200725
0.408725 0.324905 0.200667
0.419266 0.214594 0.234730
0.386586 0.295932 0.206313
0.528274 0.307880 0.157271
0.458818 0.243262 0.197814
0.529125 0.303752 0.173929
0.489408 0.266884 0.219893
0.510602 0.260538 0.155085
0.478776 0.211615 0.235735
0.418721 0.199559 0.243323
0.467475 0.276022 0.235195
0.476979 0.262640 0.205375
0.400079 0.297120 0.227889
0.459575 0.228615 0.249256
0.446602 0.208084 0.256708
0.420719 0.239266 0.256458
0.529682 0.276400 0.140576
0.522362 0.212629 0.177780
0.392421 0.308107 0.209804
0.538722 0.261755 0.147018
0.497956 0.227333 0.201721
0.409519 0.337737 0.195365
0.402601 0.278321 0.237861
0.510997 0.241514 0.195509
0.525678 0.217301 0.150731
0.430554 0.261277 0.252156
0.503759 0.205497 0.199560
0.503070 0.278918 0.175452
0.408648 0.311954 0.202133
0.529383 0.229185 0.170124
0.511041 0.237084 0.155419
0.408595 0.282253 0.198326
0.500416 0.252765 0.189425
0.517070 0.270330 0.162895
0.429321 0.216626 0.220887
0.505648 0.220999 0.166177
0.404282 0.280752 0.215408
0.530881 0.243176 0.136078
0.406977 0.214685 0.230848
0.428811 0.326159 0.192548
0.408336 0.324589 0.186039
0.533296 0.295073 0.152622
0.409626 0.319127 0.220605
0.536662 0.255401 0.127307
0.518563 0.252590 0.178354
0.475065 0.253300 0.234713
0.495942 0.226781 0.188117
0.517641 0.233358 0.188720
0.399037 0.307541 0.220764
0.422041 0.334895 0.169633
0.515198 0.220397 0.123119
0.471752 0.240881 0.201763
0.520268 0.230239 0.143380
0.498352 0.261699 0.197114
0.470852 0.190743 0.233310
0.415921 0.278017 0.215240
0.485990 0.192472 0.213715
0.472702 0.222130 0.197188
0.427725 0.235314 0.220989
0.419026 0.259814 0.243693
0.420122 0.346801 0.172483
0.441705 0.242765 0.211942
0.481385 0.199916 0.230556
0.500464 0.274856 0.200056
0.440345 0.192810 0.223009
0.489030 0.270324 0.190719
0.539150 0.222580 0.136919
0.421257 0.293577 0.227528
0.529761 0.274917 0.151997
0.413551 0.280900 0.235530
0.423381 0.318193 0.177774
0.448033 0.226933 0.208761
0.425561 0.201988 0.264014
0.528416 0.311577 0.141739
0.508998 0.250645 0.171827
