ply
format ascii 1.0
element vertex 256
property float x
property float y
property float z
end_header
0.577751 -0.022272 0.210893
0.517313 0.094128 0.217757
0.467026 -0.026483 0.218710
0.604854 0.061870 0.275132
0.615152 0.059079 0.182364
0.527768 0.014607 0.267711
0.496046 0.032399 0.191389
0.622164 0.017486 0.225715
0.525471 -0.044265 0.191864
0.572753 0.034848 0.240967
0.611580 0.087363 0.227102
0.533132 0.003589 0.210842
0.489069 0.013125 0.238015
0.565449 0.094462 0.215025
0.558253 -0.015102 0.251280
0.511916 -0.025522 0.236638
0.488997 -0.025413 0.179284
0.495989 0.058647 0.223831
0.517069 0.066462 0.187447
0.602504 0.050521 0.222340
0.591217 0.001225 0.241944
0.562963 0.026500 0.276179
0.550156 -0.018133 0.185448
0.546617 -0.036159 0.225377
0.499669 -0.000260 0.201391
0.604239 0.035338 0.253003
0.593737 0.013564 0.209381
0.540516 0.088588 0.193685
0.564453 0.005661 0.224541
0.492975 -0.043907 0.211768
0.526334 0.025272 0.237625
0.592765 0.075975 0.249587
0.627138 0.038582 0.202185
0.476364 0.034086 0.219898
0.520760 -0.016525 0.181251
0.578397 0.052429 0.266700
0.470691 -0.001780 0.202795
0.490263 0.060493 0.196265
0.543759 0.077358 0.219662
0.601967 0.072351 0.202899
0.547635 0.032841 0.253760
0.527527 -0.011351 0.254681
0.504574 0.003949 0.258612
0.520483 0.063195 0.214559
0.509750 0.017794 0.217589
0.582581 0.019611 0.260188
0.545509 0.006182 0.242894
0.616966 0.064058 0.238887
0.486590 -0.011739 0.241106
0.600962 -0.009882 0.221740
0.560331 -0.039304 0.205024
0.498649 0.079993 0.208497
0.603948 0.044117 0.198796
0.577896 -0.027045 0.234480
0.557180 -0.002271 0.201912
0.513289 0.043010 0.203398
0.486689 -0.019951 0.207542
0.520890 -0.034243 0.216781
0.588153 0.052172 0.244124
0.610684 0.090570 0.250166
0.486253 0.014184 0.213442
0.548656 0.000652 0.265161
0.540361 0.099865 0.213813
0.530865 -0.006715 0.231086
0.619321 0.039094 0.232550
0.500647 -0.002658 0.223865
0.620221 0.061139 0.210127
0.595782 0.071609 0.226235
0.569159 0.003697 0.246275
0.498893 0.036455 0.222983
0.506801 -0.029853 0.191962
0.479938 -0.006027 0.183345
0.584583 0.027391 0.223440
0.613314 0.021512 0.204835
0.595878 0.041853 0.273485
0.603191 0.024992 0.233788
0.519221 0.087251 0.193112
0.543128 0.016975 0.223814
0.613207 0.071022 0.258488
0.478328 -0.003723 0.221462
0.514892 0.024600 0.255887
0.581471 -0.007491 0.226107
0.481133 0.043727 0.202033
0.490953 -0.043443 0.187382
0.541596 -0.022735 0.243643
0.520429 -0.004917 0.198747
0.546234 -0.036335 0.190936
0.486221 -0.028625 0.224866
0.567220 -0.022277 0.194923
0.606205 0.006167 0.230438
0.601747 0.053558 0.257719
0.546662 0.019606 0.269489
0.528733 0.078658 0.207470
0.563464 0.023320 0.257100
0.586207 0.037075 0.256360
0.577690 0.037180 0.276873
0.613280 0.037764 0.215193
0.562733 0.044857 0.261619
0.606923 0.048934 0.241046
0.501376 0.050623 0.186222
0.589256 0.018956 0.243512
0.543568 -0.044680 0.207863
0.565290 -0.014029 0.220491
0.510062 0.077860 0.221880
0.529790 -0.029635 0.232456
0.580609 0.010344 0.230802
0.536339 0.019883 0.250846
0.556494 0.092557 0.200241
0.630478 0.031000 0.217419
0.508255 -0.043973 0.204035
0.559924 -0.026740 0.238877
0.558970 0.016918 0.236159
0.534860 -0.013092 0.190946
0.612616 0.070812 0.223575
0.591901 0.067138 0.264004
0.491030 0.030790 0.209104
0.618132 0.043236 0.187386
0.573610 -0.035952 0.219633
0.590589 -0.002646 0.210241
0.533115 -0.028924 0.184323
0.532660 0.036492 0.248133
0.500989 -0.013822 0.192303
0.553571 0.102123 0.223182
0.483257 0.053348 0.214942
0.602486 0.024747 0.217172
0.592728 0.037033 0.236203
0.501333 -0.009940 0.247170
0.511652 0.056376 0.226225
0.606579 0.075884 0.241621
0.489205 0.023640 0.226125
0.616703 0.071015 0.197235
0.611067 0.008640 0.213738
0.528818 0.094657 0.204649
0.510521 0.072632 0.201507
0.598247 0.059232 0.210200
0.546221 0.076280 0.204533
0.597614 0.063658 0.239399
0.531529 0.090833 0.222419
0.534534 0.028217 0.265975
0.603925 0.047923 0.183998
0.490709 0.067414 0.211855
0.524128 0.055936 0.195800
0.494528 -0.031243 0.200699
0.574330 0.019508 0.241031
0.512040 0.005188 0.209745
0.502909 0.015708 0.249478
0.501590 0.066566 0.188595
0.529152 0.072816 0.193803
0.601554 0.084100 0.216815
0.519563 -0.000780 0.261124
0.602907 0.081399 0.259193
0.506385 0.026652 0.230829
0.615439 0.053539 0.197359
0.493743 0.002936 0.248968
0.598153 0.089178 0.243023
0.548686 0.013033 0.255258
0.489224 -0.000002 0.211417
0.554562 0.033018 0.266320
0.557043 0.082969 0.216529
0.508970 -0.035185 0.224594
0.517277 0.033812 0.245327
0.495423 -0.025737 0.235177
0.525614 -0.022210 0.243705
0.594248 0.039126 0.222407
0.522202 0.011503 0.218831
0.497301 0.010792 0.222233
0.589297 -0.015399 0.216488
0.488773 -0.006767 0.195712
0.482732 -0.015802 0.228454
0.570784 -0.016791 0.245868
0.619416 0.049021 0.219934
0.523977 0.079176 0.220198
0.560129 -0.035721 0.224312
0.594314 0.024465 0.254794
0.476795 0.019383 0.221533
0.592749 0.013276 0.225722
0.572986 0.046077 0.252997
0.514185 0.082741 0.209570
0.557007 0.002868 0.252682
0.547625 0.090856 0.227193
0.613804 0.034385 0.201325
0.500884 0.062911 0.203941
0.592920 0.054605 0.275838
0.616311 0.052476 0.232388
0.552946 -0.004594 0.241159
0.483008 0.000774 0.238901
0.599885 0.011736 0.240712
0.539097 0.087406 0.209811
0.539965 0.009429 0.274365
0.504046 0.031892 0.201756
0.547270 -0.009409 0.197177
0.508345 -0.020175 0.183253
0.606785 0.050240 0.269504
0.535567 -0.040396 0.217202
0.573650 0.028006 0.264574
0.554725 0.009604 0.216900
0.594403 0.000883 0.229137
0.613566 0.057504 0.249524
0.565269 0.003211 0.210237
0.613009 0.071720 0.209739
0.530294 0.016392 0.227471
0.513411 0.053478 0.189380
0.612187 0.049434 0.208958
0.537083 -0.003949 0.263222
0.493093 0.049190 0.200941
0.578608 0.011477 0.249672
0.548843 0.022719 0.246476
0.608632 0.035205 0.238523
0.537690 0.009943 0.260229
0.571229 0.033773 0.253430
0.506448 0.039689 0.213215
0.616149 0.030103 0.224511
0.604193 0.058645 0.198318
0.551497 0.008635 0.230812
0.490092 0.043137 0.189900
0.581749 0.027716 0.235563
0.558102 0.016589 0.266033
0.585558 0.004545 0.220911
0.623926 0.026954 0.207582
0.506724 0.041622 0.192494
0.602589 0.068911 0.250947
0.516696 -0.036744 0.188139
0.603333 0.062581 0.223173
0.486620 0.040332 0.221384
0.615245 0.080853 0.217402
0.608882 0.091516 0.238125
0.498764 0.073803 0.218748
0.570528 -0.033516 0.207358
0.610351 0.019731 0.224768
0.585230 0.031619 0.269666
0.583571 0.056625 0.256940
0.512920 0.055183 0.210347
0.609072 -0.000482 0.220941
0.514043 0.013914 0.260770
0.476569 -0.017864 0.218769
0.606181 0.072839 0.267607
0.517691 0.022623 0.224607
0.500646 0.048211 0.226028
0.511035 -0.015271 0.243639
0.519753 -0.044499 0.202783
0.556262 -0.030457 0.198809
0.590676 -0.015357 0.227952
0.596494 0.052696 0.235965
0.493632 -0.008537 0.185154
0.526421 0.067761 0.204665
0.616653 0.060171 0.222286
0.568628 0.008437 0.234832
0.551791 0.102025 0.211880
0.492919 -0.046411 0.198254
0.493600 0.056161 0.209996
0.543864 0.023052 0.258818
0.469841 -0.011496 0.208691
0.610364 0.043439 0.226565
0.530474 0.084301 0.190489
0.515506 -0.005927 0.251839
0.623193 0.046370 0.209448
