ply
format ascii 1.0
element vertex 256
property float x
property float y
property float z
end_header
0.627577 -0.029204 0.209883
0.644716 0.108063 0.180668
0.520062 0.048041 0.175585
0.522220 -0.042017 0.241603
0.659547 0.024332 0.136954
0.601480 0.050682 0.232643
0.582319 0.070184 0.154381
0.566531 -0.006018 0.204861
0.655642 0.031437 0.201452
0.580389 -0.064548 0.220036
0.515401 0.005774 0.211343
0.638838 0.061654 0.163816
0.599708 0.003143 0.240127
0.541064 -0.046765 0.198296
0.635340 0.076832 0.213308
0.538931 0.008135 0.171572
0.553543 0.012816 0.242636
0.565909 -0.032116 0.242644
0.615747 0.019792 0.206358
0.547943 0.048572 0.145977
0.571678 0.032836 0.212655
0.649159 -0.004626 0.188629
0.588071 -0.038093 0.193741
0.601267 -0.033590 0.235583
0.673047 0.018674 0.172872
0.546337 -0.071227 0.222882
0.613407 0.053501 0.200550
0.557560 0.061284 0.175952
0.540358 0.028706 0.198377
0.534207 -0.018685 0.222906
0.603594 -0.008102 0.196935
0.580494 0.027769 0.243043
0.653196 0.061843 0.190917
0.640337 -0.002337 0.217329
0.662898 0.043843 0.160008
0.513987 0.021571 0.186403
0.631496 0.081252 0.183611
0.525253 0.027378 0.156085
0.630526 0.040858 0.218493
0.633068 0.037158 0.187416
0.608863 -0.049679 0.215048
0.544232 0.036830 0.171665
0.519358 -0.038456 0.209982
0.589157 0.012405 0.218595
0.583250 -0.012532 0.222854
0.545108 -0.012569 0.245011
0.518669 -0.002902 0.183409
0.543007 -0.043104 0.228082
0.619639 -0.017058 0.233660
0.597048 0.035123 0.212645
0.562876 -0.035792 0.200761
0.658542 0.070452 0.152153
0.648078 0.046410 0.140633
0.557799 0.069894 0.152598
0.651146 0.022509 0.161134
0.536856 0.062704 0.163266
0.613291 0.068899 0.219046
0.667059 0.010017 0.195235
0.573259 -0.000826 0.243562
0.539224 -0.003541 0.205266
0.561065 -0.055739 0.235111
0.632827 0.011521 0.190141
0.636645 0.096449 0.199711
0.582985 -0.046494 0.233664
0.637221 0.019675 0.217303
0.563789 -0.057316 0.204793
0.662971 0.044111 0.182844
0.619225 -0.005788 0.213329
0.636544 0.055060 0.203341
0.609308 0.017929 0.227701
0.537385 0.006396 0.230426
0.653562 0.021342 0.182876
0.562237 0.028456 0.231525
0.641612 0.041143 0.166593
0.565014 0.047725 0.157670
0.537152 0.049148 0.186905
0.584364 -0.022414 0.240595
0.657847 0.063318 0.171231
0.611982 -0.034172 0.198005
0.618934 0.075776 0.198469
0.671867 0.023098 0.152770
0.552810 -0.016895 0.215821
0.634929 -0.013692 0.199341
0.535156 0.010765 0.191383
0.553856 0.009896 0.205234
0.648848 0.012591 0.202675
0.620211 -0.036075 0.228119
0.585993 0.003925 0.200983
0.584484 -0.057303 0.196303
0.523037 0.037141 0.194019
0.635230 0.059104 0.183937
0.581286 0.041745 0.227039
0.540728 -0.031738 0.243502
0.541739 -0.030289 0.207929
0.596486 0.053665 0.210598
0.576494 -0.020318 0.198289
0.648338 0.090325 0.184757
0.538827 -0.062301 0.208102
0.595215 0.029056 0.231142
0.611734 0.044017 0.219127
0.569129 0.079582 0.162644
0.525818 0.030079 0.175957
0.521645 0.020778 0.203804
0.521774 0.010009 0.166997
0.573778 0.014701 0.208153
0.529993 0.046952 0.159052
0.595792 -0.022868 0.201731
0.628761 0.007924 0.206637
0.632426 0.030319 0.204481
0.570389 0.061288 0.144399
0.522489 -0.006032 0.200937
0.617982 0.036585 0.195727
0.599093 -0.051918 0.228657
0.574416 0.062863 0.167350
0.549438 0.017594 0.226886
0.544313 0.021999 0.179517
0.656065 -0.002442 0.203722
0.535825 -0.003667 0.182746
0.627249 0.060807 0.215702
0.657351 0.006099 0.177911
0.539656 0.021817 0.162540
0.622575 0.009816 0.222468
0.620251 0.028377 0.220469
0.646849 0.045673 0.188727
0.633507 0.094885 0.175090
0.669914 0.030088 0.186944
0.554434 -0.053669 0.217428
0.569597 -0.016001 0.239485
0.545152 -0.063252 0.236776
0.639436 -0.018046 0.214400
0.550274 0.053998 0.162995
0.644117 0.041566 0.207206
0.640179 0.078277 0.198210
0.553810 0.074504 0.167266
0.557790 0.025230 0.211740
0.597150 -0.056328 0.205795
0.531626 0.008874 0.211541
0.602001 -0.045803 0.193996
0.644795 0.035510 0.151628
0.664991 0.032222 0.170540
0.579953 0.023624 0.227986
0.613960 -0.001871 0.236411
0.604337 0.009259 0.206822
0.648180 0.050361 0.155597
0.526258 -0.006051 0.219080
0.542808 -0.005529 0.220070
0.587217 0.014138 0.244819
0.541412 0.063002 0.177768
0.549311 0.037891 0.157391
0.618459 0.055146 0.226892
0.660605 0.035262 0.147301
0.567007 0.021418 0.244330
0.531173 -0.019718 0.207258
0.644413 0.067984 0.176193
0.626286 0.049349 0.192689
0.649033 0.075398 0.162426
0.540174 -0.046333 0.246102
0.519560 0.007468 0.193813
0.630973 -0.026124 0.226964
0.601415 0.000900 0.225792
0.553754 -0.024768 0.246054
0.605595 0.064429 0.206804
0.594548 -0.012164 0.241485
0.637591 0.024010 0.183841
0.618426 -0.020666 0.216876
0.587265 0.024049 0.210476
0.662206 0.012517 0.165837
0.526810 -0.047055 0.198065
0.574120 -0.048436 0.200299
0.653749 0.049295 0.169417
0.528633 -0.033281 0.232526
0.644141 0.007860 0.182498
0.552942 -0.003778 0.202317
0.625658 0.063551 0.199689
0.647059 0.032273 0.177149
0.627570 0.085602 0.203101
0.540132 -0.043160 0.212811
0.603733 0.058472 0.221416
0.610450 0.032855 0.206723
0.547365 -0.021580 0.227631
0.606454 0.018402 0.241028
0.623093 0.043006 0.207414
0.658203 0.014592 0.152810
0.532027 -0.005358 0.234241
0.620856 -0.040173 0.213845
0.651284 0.050946 0.200832
0.645202 0.063587 0.152182
0.521548 0.037955 0.164244
0.530848 -0.031984 0.215504
0.603718 0.024574 0.217694
0.570367 -0.046447 0.237646
0.585011 -0.000678 0.237557
0.628627 0.093473 0.187540
0.559109 0.055774 0.149126
0.603977 0.038417 0.228434
0.587633 0.043818 0.215306
0.612484 -0.021256 0.199918
0.570846 -0.061371 0.228372
0.538734 0.048417 0.169364
0.644097 0.025007 0.202176
0.583347 -0.057271 0.209228
0.622621 0.075501 0.210896
0.658168 0.019389 0.196180
0.635589 -0.001101 0.190575
0.645969 0.054087 0.178557
0.515898 0.023576 0.170829
0.647558 0.032095 0.190060
0.611159 0.004581 0.216720
0.528142 0.005669 0.178267
0.546534 0.063491 0.154793
0.651276 0.025505 0.146776
0.587734 0.038155 0.240760
0.658411 0.048479 0.148295
0.624793 0.019877 0.195134
0.557474 -0.017983 0.204150
0.649314 -0.009532 0.212247
0.611947 -0.027005 0.233734
0.545003 0.036407 0.184176
0.586157 -0.035316 0.238366
0.520043 -0.036174 0.222268
0.645334 0.017808 0.191618
0.574095 -0.036886 0.195380
0.575539 0.056741 0.154795
0.537884 0.053575 0.151300
0.610383 -0.046762 0.228043
0.565246 0.052803 0.168923
0.641071 0.009287 0.211666
0.627922 -0.004884 0.204262
0.513317 0.009070 0.183367
0.646789 0.101034 0.170823
0.595245 0.028683 0.243374
0.534783 0.032755 0.165077
0.586197 0.031722 0.221319
0.562348 0.066451 0.163999
0.654734 0.060066 0.158890
0.572160 0.073960 0.148890
0.569950 -0.062606 0.214147
0.646448 0.089126 0.196690
0.606336 -0.011160 0.237432
0.644203 0.100758 0.190240
0.604574 0.043622 0.208698
0.549967 -0.001597 0.244466
0.599976 0.047116 0.220380
0.656085 0.041601 0.195090
0.538008 0.035471 0.153961
0.673601 0.017496 0.184645
0.655255 0.036579 0.165461
0.516682 0.036092 0.184130
0.609298 -0.001242 0.204650
0.552031 -0.053246 0.205935
0.658722 0.033285 0.184087
0.624514 0.070449 0.221914
0.588723 0.017154 0.232162
0.667077 0.033202 0.157787
0.642329 0.060019 0.194499
0.669105 0.027957 0.142654
