ply
format ascii 1.0
element vertex 256
property float x
property float y
property float z
end_header
0.443218 0.134112 0.220301
0.484497 0.255875 0.168103
0.352567 0.195602 0.147381
0.333225 0.131389 0.235560
0.488102 0.167904 0.143648
0.421655 0.218222 0.217477
0.420443 0.207884 0.138736
0.381922 0.167540 0.199422
0.472687 0.185564 0.201460
0.388538 0.106061 0.203938
0.395830 0.141187 0.243142
0.346013 0.147978 0.169480
0.476760 0.215617 0.141250
0.463143 0.233118 0.203526
0.429040 0.175130 0.230753
0.344731 0.114298 0.197991
0.389123 0.185331 0.236716
0.387114 0.185640 0.128071
0.352713 0.169915 0.226531
0.361343 0.103970 0.237667
0.436155 0.193434 0.192457
0.417335 0.155421 0.198893
0.352648 0.183553 0.181761
0.395610 0.202597 0.197830
0.465103 0.186404 0.163930
0.373424 0.165090 0.153702
0.417067 0.109935 0.224533
0.466907 0.151083 0.197680
0.494099 0.169153 0.177979
0.481845 0.215308 0.175595
0.390009 0.207437 0.153937
0.358110 0.144530 0.201344
0.436807 0.227332 0.190729
0.365216 0.148102 0.242612
0.455995 0.161812 0.223055
0.337050 0.165228 0.197680
0.459805 0.240955 0.175986
0.424405 0.142253 0.240246
0.405999 0.177026 0.212792
0.454853 0.205132 0.210753
0.411896 0.128035 0.204033
0.444838 0.168421 0.199029
0.387574 0.111424 0.237982
0.358826 0.124136 0.219900
0.346805 0.168327 0.151053
0.397142 0.152958 0.219457
0.382736 0.135790 0.199434
0.454862 0.208911 0.183173
0.373895 0.188544 0.164551
0.475871 0.189405 0.137206
0.375778 0.193598 0.211025
0.404189 0.199896 0.222654
0.404750 0.164023 0.240820
0.397399 0.207672 0.130169
0.332050 0.134679 0.211472
0.373682 0.205061 0.136066
0.426386 0.192867 0.214616
0.463011 0.212371 0.160317
0.480673 0.242349 0.187183
0.487816 0.191593 0.167861
0.487065 0.166902 0.200403
0.356004 0.100185 0.212693
0.360875 0.176731 0.134738
0.447450 0.182774 0.216823
0.462869 0.174115 0.183158
0.443507 0.228691 0.214108
0.472106 0.209695 0.197338
0.410688 0.124723 0.241176
0.338457 0.168523 0.172384
0.342594 0.150809 0.223417
0.354763 0.160128 0.186183
0.377153 0.130010 0.243126
0.420366 0.212957 0.196579
0.435656 0.157839 0.217048
0.477833 0.167875 0.164377
0.491387 0.185650 0.190983
0.443466 0.150995 0.237450
0.376313 0.105365 0.221405
0.472257 0.196482 0.181361
0.400293 0.188319 0.143819
0.350745 0.127360 0.245752
0.367325 0.183710 0.230289
0.428823 0.117836 0.208666
0.342165 0.185738 0.162367
0.355464 0.163461 0.207166
0.426024 0.176346 0.203469
0.430140 0.139556 0.206531
0.364700 0.124482 0.201049
0.364261 0.172003 0.170796
0.408732 0.184529 0.235541
0.429811 0.121404 0.234106
0.361740 0.146763 0.223208
0.497788 0.174942 0.158921
0.382253 0.154815 0.236637
0.462656 0.169090 0.206612
0.476939 0.199107 0.153591
0.463711 0.249180 0.193307
0.411093 0.192693 0.202732
0.453834 0.186775 0.199317
0.477703 0.161873 0.184275
0.435813 0.208331 0.206297
0.372505 0.186037 0.146052
0.364066 0.153678 0.167369
0.398248 0.107246 0.219634
0.480041 0.222514 0.158022
0.367740 0.203198 0.155747
0.401129 0.173788 0.195629
0.454648 0.143092 0.209579
0.406789 0.219867 0.139456
0.453968 0.226572 0.185803
0.482130 0.182560 0.153246
0.410559 0.196472 0.129085
0.476685 0.239110 0.170755
0.356872 0.193950 0.168765
0.396457 0.145718 0.201907
0.480095 0.179360 0.176940
0.350300 0.140562 0.235178
0.409561 0.111315 0.204233
0.408593 0.205573 0.150503
0.473577 0.158262 0.212528
0.381432 0.196175 0.226247
0.450996 0.219982 0.202421
0.448201 0.238276 0.199297
0.410765 0.209264 0.209318
0.440997 0.197665 0.219904
0.470355 0.253031 0.179002
0.472395 0.222029 0.186907
0.440205 0.133472 0.236769
0.365506 0.166296 0.235559
0.416506 0.167490 0.224327
0.367468 0.173464 0.195857
0.385545 0.196413 0.142421
0.390296 0.217057 0.140836
0.339941 0.155010 0.184667
0.393095 0.194067 0.213205
0.343117 0.149101 0.201083
0.372534 0.115314 0.240669
0.347331 0.132909 0.208944
0.455694 0.193416 0.184394
0.441441 0.212469 0.192437
0.379194 0.173275 0.233915
0.419089 0.158586 0.239132
0.392111 0.123733 0.200053
0.431114 0.224944 0.204678
0.449092 0.157064 0.208637
0.357087 0.157446 0.151936
0.364735 0.182595 0.215574
0.472167 0.202241 0.167393
0.356584 0.179436 0.152905
0.466750 0.188888 0.149414
0.355618 0.155281 0.234120
0.351012 0.171079 0.195505
0.371801 0.157773 0.195524
0.449871 0.179605 0.186780
0.367979 0.110704 0.210718
0.475443 0.175677 0.190252
0.413448 0.188505 0.219531
0.454777 0.145871 0.223799
0.433617 0.178543 0.217277
0.394853 0.123672 0.240420
0.433570 0.144205 0.223556
0.470663 0.221673 0.169281
0.440722 0.182219 0.202817
0.414015 0.166203 0.207705
0.373111 0.188392 0.128298
0.377470 0.190133 0.197342
0.384226 0.179537 0.141977
0.429281 0.206945 0.220633
0.422781 0.201089 0.203954
0.462793 0.182994 0.210819
0.478867 0.171636 0.210515
0.400676 0.186108 0.224388
0.369068 0.148357 0.211596
0.340343 0.171553 0.185691
0.458223 0.209385 0.197606
0.350643 0.171637 0.163761
0.458895 0.164421 0.194346
0.371357 0.169611 0.139810
0.430018 0.163417 0.205001
0.466259 0.234842 0.186296
0.411801 0.147106 0.240511
0.398782 0.187291 0.203117
0.467756 0.196466 0.193974
0.350022 0.147794 0.212719
0.484482 0.210095 0.152886
0.417005 0.142148 0.199564
0.362728 0.114294 0.229432
0.480361 0.192998 0.191323
0.360555 0.097243 0.226336
0.387365 0.179557 0.199471
0.377735 0.177425 0.155488
0.397852 0.193178 0.131857
0.437539 0.216824 0.218071
0.449251 0.169790 0.211821
0.379351 0.142186 0.238359
0.488169 0.248913 0.178736
0.495455 0.180867 0.172429
0.400382 0.109315 0.237071
0.395401 0.173944 0.236765
0.394621 0.197999 0.231217
0.354561 0.161431 0.171439
0.398412 0.207629 0.212644
0.496641 0.173364 0.189897
0.385263 0.202688 0.130936
0.377720 0.213712 0.144689
0.340632 0.182843 0.174789
0.418063 0.200903 0.220757
0.464144 0.212716 0.175403
0.478232 0.209159 0.186045
0.427651 0.118134 0.222097
0.357832 0.148406 0.176978
0.465274 0.153504 0.221299
0.477151 0.159196 0.200216
0.360730 0.117538 0.244319
0.412215 0.195553 0.141401
0.484549 0.197002 0.179516
0.435303 0.165698 0.235843
0.360135 0.164818 0.141890
0.447556 0.195418 0.208407
0.488585 0.163230 0.155090
0.398182 0.196880 0.152463
0.365659 0.209498 0.145342
0.468853 0.184252 0.175421
0.444888 0.202431 0.186276
0.449989 0.238151 0.185793
0.391709 0.161836 0.239967
0.412839 0.173188 0.237270
0.398350 0.208147 0.142873
0.412613 0.209864 0.129660
0.484568 0.180629 0.199690
0.424852 0.184377 0.223282
0.364521 0.184914 0.179755
0.354398 0.155549 0.197986
0.416054 0.114729 0.236963
0.425500 0.188984 0.203204
0.346158 0.157171 0.157078
0.409194 0.198797 0.233574
0.352360 0.134243 0.219713
0.420113 0.188126 0.235507
0.470773 0.219185 0.151334
0.461400 0.217053 0.189078
0.372056 0.142990 0.201413
0.368410 0.197059 0.143108
0.384750 0.156066 0.200581
0.484436 0.192226 0.144923
0.344273 0.159527 0.207271
0.479230 0.181721 0.165442
0.465563 0.165977 0.217629
0.358629 0.133568 0.205548
0.472657 0.237343 0.195818
0.349140 0.195264 0.160039
0.341951 0.136830 0.227840
0.482685 0.209339 0.164439
0.473011 0.180327 0.143898
0.454467 0.153748 0.198886
0.478882 0.171801 0.150576
